<?xml version="1.0" encoding="utf-8" standalone="no"?>
<!DOCTYPE svg PUBLIC "-//W3C//DTD SVG 1.1//EN"
  "http://www.w3.org/Graphics/SVG/1.1/DTD/svg11.dtd">
<svg xmlns:xlink="http://www.w3.org/1999/xlink" width="444.870045pt" height="337.970375pt" viewBox="0 0 444.870045 337.970375" xmlns="http://www.w3.org/2000/svg" version="1.1">
 <metadata>
  <rdf:RDF xmlns:dc="http://purl.org/dc/elements/1.1/" xmlns:cc="http://creativecommons.org/ns#" xmlns:rdf="http://www.w3.org/1999/02/22-rdf-syntax-ns#">
   <cc:Work>
    <dc:type rdf:resource="http://purl.org/dc/dcmitype/StillImage"/>
    <dc:date>2022-11-18T02:53:47.711420</dc:date>
    <dc:format>image/svg+xml</dc:format>
    <dc:creator>
     <cc:Agent>
      <dc:title>Matplotlib v3.6.2, https://matplotlib.org/</dc:title>
     </cc:Agent>
    </dc:creator>
   </cc:Work>
  </rdf:RDF>
 </metadata>
 <defs>
  <style type="text/css">*{stroke-linejoin: round; stroke-linecap: butt}</style>
 </defs>
 <g id="figure_1">
  <g id="patch_1">
   <path d="M 0 337.970375 
L 444.870045 337.970375 
L 444.870045 0 
L 0 0 
z
" style="fill: #ffffff"/>
  </g>
  <g id="axes_1">
   <g id="patch_2">
    <path d="M 61.707813 300.414125 
L 437.670045 300.414125 
L 437.670045 22.318125 
L 61.707813 22.318125 
z
" style="fill: #ffffff"/>
   </g>
   <g id="matplotlib.axis_1">
    <g id="xtick_1">
     <g id="line2d_1">
      <path d="M 70.350622 300.414125 
L 70.350622 22.318125 
" clip-path="url(#p1f328c48d0)" style="fill: none; stroke: #b0b0b0; stroke-width: 0.8; stroke-linecap: square"/>
     </g>
     <g id="line2d_2">
      <defs>
       <path id="mb8d77e9f50" d="M 0 0 
L 0 3.5 
" style="stroke: #000000; stroke-width: 0.8"/>
      </defs>
      <g>
       <use xlink:href="#mb8d77e9f50" x="70.350622" y="300.414125" style="stroke: #000000; stroke-width: 0.8"/>
      </g>
     </g>
     <g id="text_1">
      <!-- 0 -->
      <g transform="translate(67.169372 315.012563) scale(0.1 -0.1)">
       <defs>
        <path id="DejaVuSans-30" d="M 2034 4250 
Q 1547 4250 1301 3770 
Q 1056 3291 1056 2328 
Q 1056 1369 1301 889 
Q 1547 409 2034 409 
Q 2525 409 2770 889 
Q 3016 1369 3016 2328 
Q 3016 3291 2770 3770 
Q 2525 4250 2034 4250 
z
M 2034 4750 
Q 2819 4750 3233 4129 
Q 3647 3509 3647 2328 
Q 3647 1150 3233 529 
Q 2819 -91 2034 -91 
Q 1250 -91 836 529 
Q 422 1150 422 2328 
Q 422 3509 836 4129 
Q 1250 4750 2034 4750 
z
" transform="scale(0.015625)"/>
       </defs>
       <use xlink:href="#DejaVuSans-30"/>
      </g>
     </g>
    </g>
    <g id="xtick_2">
     <g id="line2d_3">
      <path d="M 113.564672 300.414125 
L 113.564672 22.318125 
" clip-path="url(#p1f328c48d0)" style="fill: none; stroke: #b0b0b0; stroke-width: 0.8; stroke-linecap: square"/>
     </g>
     <g id="line2d_4">
      <g>
       <use xlink:href="#mb8d77e9f50" x="113.564672" y="300.414125" style="stroke: #000000; stroke-width: 0.8"/>
      </g>
     </g>
     <g id="text_2">
      <!-- 100 -->
      <g transform="translate(104.020922 315.012563) scale(0.1 -0.1)">
       <defs>
        <path id="DejaVuSans-31" d="M 794 531 
L 1825 531 
L 1825 4091 
L 703 3866 
L 703 4441 
L 1819 4666 
L 2450 4666 
L 2450 531 
L 3481 531 
L 3481 0 
L 794 0 
L 794 531 
z
" transform="scale(0.015625)"/>
       </defs>
       <use xlink:href="#DejaVuSans-31"/>
       <use xlink:href="#DejaVuSans-30" x="63.623047"/>
       <use xlink:href="#DejaVuSans-30" x="127.246094"/>
      </g>
     </g>
    </g>
    <g id="xtick_3">
     <g id="line2d_5">
      <path d="M 156.778722 300.414125 
L 156.778722 22.318125 
" clip-path="url(#p1f328c48d0)" style="fill: none; stroke: #b0b0b0; stroke-width: 0.8; stroke-linecap: square"/>
     </g>
     <g id="line2d_6">
      <g>
       <use xlink:href="#mb8d77e9f50" x="156.778722" y="300.414125" style="stroke: #000000; stroke-width: 0.8"/>
      </g>
     </g>
     <g id="text_3">
      <!-- 200 -->
      <g transform="translate(147.234972 315.012563) scale(0.1 -0.1)">
       <defs>
        <path id="DejaVuSans-32" d="M 1228 531 
L 3431 531 
L 3431 0 
L 469 0 
L 469 531 
Q 828 903 1448 1529 
Q 2069 2156 2228 2338 
Q 2531 2678 2651 2914 
Q 2772 3150 2772 3378 
Q 2772 3750 2511 3984 
Q 2250 4219 1831 4219 
Q 1534 4219 1204 4116 
Q 875 4013 500 3803 
L 500 4441 
Q 881 4594 1212 4672 
Q 1544 4750 1819 4750 
Q 2544 4750 2975 4387 
Q 3406 4025 3406 3419 
Q 3406 3131 3298 2873 
Q 3191 2616 2906 2266 
Q 2828 2175 2409 1742 
Q 1991 1309 1228 531 
z
" transform="scale(0.015625)"/>
       </defs>
       <use xlink:href="#DejaVuSans-32"/>
       <use xlink:href="#DejaVuSans-30" x="63.623047"/>
       <use xlink:href="#DejaVuSans-30" x="127.246094"/>
      </g>
     </g>
    </g>
    <g id="xtick_4">
     <g id="line2d_7">
      <path d="M 199.992772 300.414125 
L 199.992772 22.318125 
" clip-path="url(#p1f328c48d0)" style="fill: none; stroke: #b0b0b0; stroke-width: 0.8; stroke-linecap: square"/>
     </g>
     <g id="line2d_8">
      <g>
       <use xlink:href="#mb8d77e9f50" x="199.992772" y="300.414125" style="stroke: #000000; stroke-width: 0.8"/>
      </g>
     </g>
     <g id="text_4">
      <!-- 300 -->
      <g transform="translate(190.449022 315.012563) scale(0.1 -0.1)">
       <defs>
        <path id="DejaVuSans-33" d="M 2597 2516 
Q 3050 2419 3304 2112 
Q 3559 1806 3559 1356 
Q 3559 666 3084 287 
Q 2609 -91 1734 -91 
Q 1441 -91 1130 -33 
Q 819 25 488 141 
L 488 750 
Q 750 597 1062 519 
Q 1375 441 1716 441 
Q 2309 441 2620 675 
Q 2931 909 2931 1356 
Q 2931 1769 2642 2001 
Q 2353 2234 1838 2234 
L 1294 2234 
L 1294 2753 
L 1863 2753 
Q 2328 2753 2575 2939 
Q 2822 3125 2822 3475 
Q 2822 3834 2567 4026 
Q 2313 4219 1838 4219 
Q 1578 4219 1281 4162 
Q 984 4106 628 3988 
L 628 4550 
Q 988 4650 1302 4700 
Q 1616 4750 1894 4750 
Q 2613 4750 3031 4423 
Q 3450 4097 3450 3541 
Q 3450 3153 3228 2886 
Q 3006 2619 2597 2516 
z
" transform="scale(0.015625)"/>
       </defs>
       <use xlink:href="#DejaVuSans-33"/>
       <use xlink:href="#DejaVuSans-30" x="63.623047"/>
       <use xlink:href="#DejaVuSans-30" x="127.246094"/>
      </g>
     </g>
    </g>
    <g id="xtick_5">
     <g id="line2d_9">
      <path d="M 243.206821 300.414125 
L 243.206821 22.318125 
" clip-path="url(#p1f328c48d0)" style="fill: none; stroke: #b0b0b0; stroke-width: 0.8; stroke-linecap: square"/>
     </g>
     <g id="line2d_10">
      <g>
       <use xlink:href="#mb8d77e9f50" x="243.206821" y="300.414125" style="stroke: #000000; stroke-width: 0.8"/>
      </g>
     </g>
     <g id="text_5">
      <!-- 400 -->
      <g transform="translate(233.663071 315.012563) scale(0.1 -0.1)">
       <defs>
        <path id="DejaVuSans-34" d="M 2419 4116 
L 825 1625 
L 2419 1625 
L 2419 4116 
z
M 2253 4666 
L 3047 4666 
L 3047 1625 
L 3713 1625 
L 3713 1100 
L 3047 1100 
L 3047 0 
L 2419 0 
L 2419 1100 
L 313 1100 
L 313 1709 
L 2253 4666 
z
" transform="scale(0.015625)"/>
       </defs>
       <use xlink:href="#DejaVuSans-34"/>
       <use xlink:href="#DejaVuSans-30" x="63.623047"/>
       <use xlink:href="#DejaVuSans-30" x="127.246094"/>
      </g>
     </g>
    </g>
    <g id="xtick_6">
     <g id="line2d_11">
      <path d="M 286.420871 300.414125 
L 286.420871 22.318125 
" clip-path="url(#p1f328c48d0)" style="fill: none; stroke: #b0b0b0; stroke-width: 0.8; stroke-linecap: square"/>
     </g>
     <g id="line2d_12">
      <g>
       <use xlink:href="#mb8d77e9f50" x="286.420871" y="300.414125" style="stroke: #000000; stroke-width: 0.8"/>
      </g>
     </g>
     <g id="text_6">
      <!-- 500 -->
      <g transform="translate(276.877121 315.012563) scale(0.1 -0.1)">
       <defs>
        <path id="DejaVuSans-35" d="M 691 4666 
L 3169 4666 
L 3169 4134 
L 1269 4134 
L 1269 2991 
Q 1406 3038 1543 3061 
Q 1681 3084 1819 3084 
Q 2600 3084 3056 2656 
Q 3513 2228 3513 1497 
Q 3513 744 3044 326 
Q 2575 -91 1722 -91 
Q 1428 -91 1123 -41 
Q 819 9 494 109 
L 494 744 
Q 775 591 1075 516 
Q 1375 441 1709 441 
Q 2250 441 2565 725 
Q 2881 1009 2881 1497 
Q 2881 1984 2565 2268 
Q 2250 2553 1709 2553 
Q 1456 2553 1204 2497 
Q 953 2441 691 2322 
L 691 4666 
z
" transform="scale(0.015625)"/>
       </defs>
       <use xlink:href="#DejaVuSans-35"/>
       <use xlink:href="#DejaVuSans-30" x="63.623047"/>
       <use xlink:href="#DejaVuSans-30" x="127.246094"/>
      </g>
     </g>
    </g>
    <g id="xtick_7">
     <g id="line2d_13">
      <path d="M 329.634921 300.414125 
L 329.634921 22.318125 
" clip-path="url(#p1f328c48d0)" style="fill: none; stroke: #b0b0b0; stroke-width: 0.8; stroke-linecap: square"/>
     </g>
     <g id="line2d_14">
      <g>
       <use xlink:href="#mb8d77e9f50" x="329.634921" y="300.414125" style="stroke: #000000; stroke-width: 0.8"/>
      </g>
     </g>
     <g id="text_7">
      <!-- 600 -->
      <g transform="translate(320.091171 315.012563) scale(0.1 -0.1)">
       <defs>
        <path id="DejaVuSans-36" d="M 2113 2584 
Q 1688 2584 1439 2293 
Q 1191 2003 1191 1497 
Q 1191 994 1439 701 
Q 1688 409 2113 409 
Q 2538 409 2786 701 
Q 3034 994 3034 1497 
Q 3034 2003 2786 2293 
Q 2538 2584 2113 2584 
z
M 3366 4563 
L 3366 3988 
Q 3128 4100 2886 4159 
Q 2644 4219 2406 4219 
Q 1781 4219 1451 3797 
Q 1122 3375 1075 2522 
Q 1259 2794 1537 2939 
Q 1816 3084 2150 3084 
Q 2853 3084 3261 2657 
Q 3669 2231 3669 1497 
Q 3669 778 3244 343 
Q 2819 -91 2113 -91 
Q 1303 -91 875 529 
Q 447 1150 447 2328 
Q 447 3434 972 4092 
Q 1497 4750 2381 4750 
Q 2619 4750 2861 4703 
Q 3103 4656 3366 4563 
z
" transform="scale(0.015625)"/>
       </defs>
       <use xlink:href="#DejaVuSans-36"/>
       <use xlink:href="#DejaVuSans-30" x="63.623047"/>
       <use xlink:href="#DejaVuSans-30" x="127.246094"/>
      </g>
     </g>
    </g>
    <g id="xtick_8">
     <g id="line2d_15">
      <path d="M 372.848971 300.414125 
L 372.848971 22.318125 
" clip-path="url(#p1f328c48d0)" style="fill: none; stroke: #b0b0b0; stroke-width: 0.8; stroke-linecap: square"/>
     </g>
     <g id="line2d_16">
      <g>
       <use xlink:href="#mb8d77e9f50" x="372.848971" y="300.414125" style="stroke: #000000; stroke-width: 0.8"/>
      </g>
     </g>
     <g id="text_8">
      <!-- 700 -->
      <g transform="translate(363.305221 315.012563) scale(0.1 -0.1)">
       <defs>
        <path id="DejaVuSans-37" d="M 525 4666 
L 3525 4666 
L 3525 4397 
L 1831 0 
L 1172 0 
L 2766 4134 
L 525 4134 
L 525 4666 
z
" transform="scale(0.015625)"/>
       </defs>
       <use xlink:href="#DejaVuSans-37"/>
       <use xlink:href="#DejaVuSans-30" x="63.623047"/>
       <use xlink:href="#DejaVuSans-30" x="127.246094"/>
      </g>
     </g>
    </g>
    <g id="xtick_9">
     <g id="line2d_17">
      <path d="M 416.06302 300.414125 
L 416.06302 22.318125 
" clip-path="url(#p1f328c48d0)" style="fill: none; stroke: #b0b0b0; stroke-width: 0.8; stroke-linecap: square"/>
     </g>
     <g id="line2d_18">
      <g>
       <use xlink:href="#mb8d77e9f50" x="416.06302" y="300.414125" style="stroke: #000000; stroke-width: 0.8"/>
      </g>
     </g>
     <g id="text_9">
      <!-- 800 -->
      <g transform="translate(406.51927 315.012563) scale(0.1 -0.1)">
       <defs>
        <path id="DejaVuSans-38" d="M 2034 2216 
Q 1584 2216 1326 1975 
Q 1069 1734 1069 1313 
Q 1069 891 1326 650 
Q 1584 409 2034 409 
Q 2484 409 2743 651 
Q 3003 894 3003 1313 
Q 3003 1734 2745 1975 
Q 2488 2216 2034 2216 
z
M 1403 2484 
Q 997 2584 770 2862 
Q 544 3141 544 3541 
Q 544 4100 942 4425 
Q 1341 4750 2034 4750 
Q 2731 4750 3128 4425 
Q 3525 4100 3525 3541 
Q 3525 3141 3298 2862 
Q 3072 2584 2669 2484 
Q 3125 2378 3379 2068 
Q 3634 1759 3634 1313 
Q 3634 634 3220 271 
Q 2806 -91 2034 -91 
Q 1263 -91 848 271 
Q 434 634 434 1313 
Q 434 1759 690 2068 
Q 947 2378 1403 2484 
z
M 1172 3481 
Q 1172 3119 1398 2916 
Q 1625 2713 2034 2713 
Q 2441 2713 2670 2916 
Q 2900 3119 2900 3481 
Q 2900 3844 2670 4047 
Q 2441 4250 2034 4250 
Q 1625 4250 1398 4047 
Q 1172 3844 1172 3481 
z
" transform="scale(0.015625)"/>
       </defs>
       <use xlink:href="#DejaVuSans-38"/>
       <use xlink:href="#DejaVuSans-30" x="63.623047"/>
       <use xlink:href="#DejaVuSans-30" x="127.246094"/>
      </g>
     </g>
    </g>
    <g id="text_10">
     <!-- Bending Moment -->
     <g transform="translate(207.068616 328.690688) scale(0.1 -0.1)">
      <defs>
       <path id="DejaVuSans-42" d="M 1259 2228 
L 1259 519 
L 2272 519 
Q 2781 519 3026 730 
Q 3272 941 3272 1375 
Q 3272 1813 3026 2020 
Q 2781 2228 2272 2228 
L 1259 2228 
z
M 1259 4147 
L 1259 2741 
L 2194 2741 
Q 2656 2741 2882 2914 
Q 3109 3088 3109 3444 
Q 3109 3797 2882 3972 
Q 2656 4147 2194 4147 
L 1259 4147 
z
M 628 4666 
L 2241 4666 
Q 2963 4666 3353 4366 
Q 3744 4066 3744 3513 
Q 3744 3084 3544 2831 
Q 3344 2578 2956 2516 
Q 3422 2416 3680 2098 
Q 3938 1781 3938 1306 
Q 3938 681 3513 340 
Q 3088 0 2303 0 
L 628 0 
L 628 4666 
z
" transform="scale(0.015625)"/>
       <path id="DejaVuSans-65" d="M 3597 1894 
L 3597 1613 
L 953 1613 
Q 991 1019 1311 708 
Q 1631 397 2203 397 
Q 2534 397 2845 478 
Q 3156 559 3463 722 
L 3463 178 
Q 3153 47 2828 -22 
Q 2503 -91 2169 -91 
Q 1331 -91 842 396 
Q 353 884 353 1716 
Q 353 2575 817 3079 
Q 1281 3584 2069 3584 
Q 2775 3584 3186 3129 
Q 3597 2675 3597 1894 
z
M 3022 2063 
Q 3016 2534 2758 2815 
Q 2500 3097 2075 3097 
Q 1594 3097 1305 2825 
Q 1016 2553 972 2059 
L 3022 2063 
z
" transform="scale(0.015625)"/>
       <path id="DejaVuSans-6e" d="M 3513 2113 
L 3513 0 
L 2938 0 
L 2938 2094 
Q 2938 2591 2744 2837 
Q 2550 3084 2163 3084 
Q 1697 3084 1428 2787 
Q 1159 2491 1159 1978 
L 1159 0 
L 581 0 
L 581 3500 
L 1159 3500 
L 1159 2956 
Q 1366 3272 1645 3428 
Q 1925 3584 2291 3584 
Q 2894 3584 3203 3211 
Q 3513 2838 3513 2113 
z
" transform="scale(0.015625)"/>
       <path id="DejaVuSans-64" d="M 2906 2969 
L 2906 4863 
L 3481 4863 
L 3481 0 
L 2906 0 
L 2906 525 
Q 2725 213 2448 61 
Q 2172 -91 1784 -91 
Q 1150 -91 751 415 
Q 353 922 353 1747 
Q 353 2572 751 3078 
Q 1150 3584 1784 3584 
Q 2172 3584 2448 3432 
Q 2725 3281 2906 2969 
z
M 947 1747 
Q 947 1113 1208 752 
Q 1469 391 1925 391 
Q 2381 391 2643 752 
Q 2906 1113 2906 1747 
Q 2906 2381 2643 2742 
Q 2381 3103 1925 3103 
Q 1469 3103 1208 2742 
Q 947 2381 947 1747 
z
" transform="scale(0.015625)"/>
       <path id="DejaVuSans-69" d="M 603 3500 
L 1178 3500 
L 1178 0 
L 603 0 
L 603 3500 
z
M 603 4863 
L 1178 4863 
L 1178 4134 
L 603 4134 
L 603 4863 
z
" transform="scale(0.015625)"/>
       <path id="DejaVuSans-67" d="M 2906 1791 
Q 2906 2416 2648 2759 
Q 2391 3103 1925 3103 
Q 1463 3103 1205 2759 
Q 947 2416 947 1791 
Q 947 1169 1205 825 
Q 1463 481 1925 481 
Q 2391 481 2648 825 
Q 2906 1169 2906 1791 
z
M 3481 434 
Q 3481 -459 3084 -895 
Q 2688 -1331 1869 -1331 
Q 1566 -1331 1297 -1286 
Q 1028 -1241 775 -1147 
L 775 -588 
Q 1028 -725 1275 -790 
Q 1522 -856 1778 -856 
Q 2344 -856 2625 -561 
Q 2906 -266 2906 331 
L 2906 616 
Q 2728 306 2450 153 
Q 2172 0 1784 0 
Q 1141 0 747 490 
Q 353 981 353 1791 
Q 353 2603 747 3093 
Q 1141 3584 1784 3584 
Q 2172 3584 2450 3431 
Q 2728 3278 2906 2969 
L 2906 3500 
L 3481 3500 
L 3481 434 
z
" transform="scale(0.015625)"/>
       <path id="DejaVuSans-20" transform="scale(0.015625)"/>
       <path id="DejaVuSans-4d" d="M 628 4666 
L 1569 4666 
L 2759 1491 
L 3956 4666 
L 4897 4666 
L 4897 0 
L 4281 0 
L 4281 4097 
L 3078 897 
L 2444 897 
L 1241 4097 
L 1241 0 
L 628 0 
L 628 4666 
z
" transform="scale(0.015625)"/>
       <path id="DejaVuSans-6f" d="M 1959 3097 
Q 1497 3097 1228 2736 
Q 959 2375 959 1747 
Q 959 1119 1226 758 
Q 1494 397 1959 397 
Q 2419 397 2687 759 
Q 2956 1122 2956 1747 
Q 2956 2369 2687 2733 
Q 2419 3097 1959 3097 
z
M 1959 3584 
Q 2709 3584 3137 3096 
Q 3566 2609 3566 1747 
Q 3566 888 3137 398 
Q 2709 -91 1959 -91 
Q 1206 -91 779 398 
Q 353 888 353 1747 
Q 353 2609 779 3096 
Q 1206 3584 1959 3584 
z
" transform="scale(0.015625)"/>
       <path id="DejaVuSans-6d" d="M 3328 2828 
Q 3544 3216 3844 3400 
Q 4144 3584 4550 3584 
Q 5097 3584 5394 3201 
Q 5691 2819 5691 2113 
L 5691 0 
L 5113 0 
L 5113 2094 
Q 5113 2597 4934 2840 
Q 4756 3084 4391 3084 
Q 3944 3084 3684 2787 
Q 3425 2491 3425 1978 
L 3425 0 
L 2847 0 
L 2847 2094 
Q 2847 2600 2669 2842 
Q 2491 3084 2119 3084 
Q 1678 3084 1418 2786 
Q 1159 2488 1159 1978 
L 1159 0 
L 581 0 
L 581 3500 
L 1159 3500 
L 1159 2956 
Q 1356 3278 1631 3431 
Q 1906 3584 2284 3584 
Q 2666 3584 2933 3390 
Q 3200 3197 3328 2828 
z
" transform="scale(0.015625)"/>
       <path id="DejaVuSans-74" d="M 1172 4494 
L 1172 3500 
L 2356 3500 
L 2356 3053 
L 1172 3053 
L 1172 1153 
Q 1172 725 1289 603 
Q 1406 481 1766 481 
L 2356 481 
L 2356 0 
L 1766 0 
Q 1100 0 847 248 
Q 594 497 594 1153 
L 594 3053 
L 172 3053 
L 172 3500 
L 594 3500 
L 594 4494 
L 1172 4494 
z
" transform="scale(0.015625)"/>
      </defs>
      <use xlink:href="#DejaVuSans-42"/>
      <use xlink:href="#DejaVuSans-65" x="68.603516"/>
      <use xlink:href="#DejaVuSans-6e" x="130.126953"/>
      <use xlink:href="#DejaVuSans-64" x="193.505859"/>
      <use xlink:href="#DejaVuSans-69" x="256.982422"/>
      <use xlink:href="#DejaVuSans-6e" x="284.765625"/>
      <use xlink:href="#DejaVuSans-67" x="348.144531"/>
      <use xlink:href="#DejaVuSans-20" x="411.621094"/>
      <use xlink:href="#DejaVuSans-4d" x="443.408203"/>
      <use xlink:href="#DejaVuSans-6f" x="529.6875"/>
      <use xlink:href="#DejaVuSans-6d" x="590.869141"/>
      <use xlink:href="#DejaVuSans-65" x="688.28125"/>
      <use xlink:href="#DejaVuSans-6e" x="749.804688"/>
      <use xlink:href="#DejaVuSans-74" x="813.183594"/>
     </g>
    </g>
   </g>
   <g id="matplotlib.axis_2">
    <g id="ytick_1">
     <g id="line2d_19">
      <path d="M 61.707813 277.239458 
L 437.670045 277.239458 
" clip-path="url(#p1f328c48d0)" style="fill: none; stroke: #b0b0b0; stroke-width: 0.8; stroke-linecap: square"/>
     </g>
     <g id="line2d_20">
      <defs>
       <path id="mef425b8cd4" d="M 0 0 
L -3.5 0 
" style="stroke: #000000; stroke-width: 0.8"/>
      </defs>
      <g>
       <use xlink:href="#mef425b8cd4" x="61.707813" y="277.239458" style="stroke: #000000; stroke-width: 0.8"/>
      </g>
     </g>
     <g id="text_11">
      <!-- −2000 -->
      <g transform="translate(20.878125 281.038677) scale(0.1 -0.1)">
       <defs>
        <path id="DejaVuSans-2212" d="M 678 2272 
L 4684 2272 
L 4684 1741 
L 678 1741 
L 678 2272 
z
" transform="scale(0.015625)"/>
       </defs>
       <use xlink:href="#DejaVuSans-2212"/>
       <use xlink:href="#DejaVuSans-32" x="83.789062"/>
       <use xlink:href="#DejaVuSans-30" x="147.412109"/>
       <use xlink:href="#DejaVuSans-30" x="211.035156"/>
       <use xlink:href="#DejaVuSans-30" x="274.658203"/>
      </g>
     </g>
    </g>
    <g id="ytick_2">
     <g id="line2d_21">
      <path d="M 61.707813 230.890125 
L 437.670045 230.890125 
" clip-path="url(#p1f328c48d0)" style="fill: none; stroke: #b0b0b0; stroke-width: 0.8; stroke-linecap: square"/>
     </g>
     <g id="line2d_22">
      <g>
       <use xlink:href="#mef425b8cd4" x="61.707813" y="230.890125" style="stroke: #000000; stroke-width: 0.8"/>
      </g>
     </g>
     <g id="text_12">
      <!-- 0 -->
      <g transform="translate(48.345313 234.689344) scale(0.1 -0.1)">
       <use xlink:href="#DejaVuSans-30"/>
      </g>
     </g>
    </g>
    <g id="ytick_3">
     <g id="line2d_23">
      <path d="M 61.707813 184.540792 
L 437.670045 184.540792 
" clip-path="url(#p1f328c48d0)" style="fill: none; stroke: #b0b0b0; stroke-width: 0.8; stroke-linecap: square"/>
     </g>
     <g id="line2d_24">
      <g>
       <use xlink:href="#mef425b8cd4" x="61.707813" y="184.540792" style="stroke: #000000; stroke-width: 0.8"/>
      </g>
     </g>
     <g id="text_13">
      <!-- 2000 -->
      <g transform="translate(29.257813 188.34001) scale(0.1 -0.1)">
       <use xlink:href="#DejaVuSans-32"/>
       <use xlink:href="#DejaVuSans-30" x="63.623047"/>
       <use xlink:href="#DejaVuSans-30" x="127.246094"/>
       <use xlink:href="#DejaVuSans-30" x="190.869141"/>
      </g>
     </g>
    </g>
    <g id="ytick_4">
     <g id="line2d_25">
      <path d="M 61.707813 138.191458 
L 437.670045 138.191458 
" clip-path="url(#p1f328c48d0)" style="fill: none; stroke: #b0b0b0; stroke-width: 0.8; stroke-linecap: square"/>
     </g>
     <g id="line2d_26">
      <g>
       <use xlink:href="#mef425b8cd4" x="61.707813" y="138.191458" style="stroke: #000000; stroke-width: 0.8"/>
      </g>
     </g>
     <g id="text_14">
      <!-- 4000 -->
      <g transform="translate(29.257813 141.990677) scale(0.1 -0.1)">
       <use xlink:href="#DejaVuSans-34"/>
       <use xlink:href="#DejaVuSans-30" x="63.623047"/>
       <use xlink:href="#DejaVuSans-30" x="127.246094"/>
       <use xlink:href="#DejaVuSans-30" x="190.869141"/>
      </g>
     </g>
    </g>
    <g id="ytick_5">
     <g id="line2d_27">
      <path d="M 61.707813 91.842125 
L 437.670045 91.842125 
" clip-path="url(#p1f328c48d0)" style="fill: none; stroke: #b0b0b0; stroke-width: 0.8; stroke-linecap: square"/>
     </g>
     <g id="line2d_28">
      <g>
       <use xlink:href="#mef425b8cd4" x="61.707813" y="91.842125" style="stroke: #000000; stroke-width: 0.8"/>
      </g>
     </g>
     <g id="text_15">
      <!-- 6000 -->
      <g transform="translate(29.257813 95.641344) scale(0.1 -0.1)">
       <use xlink:href="#DejaVuSans-36"/>
       <use xlink:href="#DejaVuSans-30" x="63.623047"/>
       <use xlink:href="#DejaVuSans-30" x="127.246094"/>
       <use xlink:href="#DejaVuSans-30" x="190.869141"/>
      </g>
     </g>
    </g>
    <g id="ytick_6">
     <g id="line2d_29">
      <path d="M 61.707813 45.492792 
L 437.670045 45.492792 
" clip-path="url(#p1f328c48d0)" style="fill: none; stroke: #b0b0b0; stroke-width: 0.8; stroke-linecap: square"/>
     </g>
     <g id="line2d_30">
      <g>
       <use xlink:href="#mef425b8cd4" x="61.707813" y="45.492792" style="stroke: #000000; stroke-width: 0.8"/>
      </g>
     </g>
     <g id="text_16">
      <!-- 8000 -->
      <g transform="translate(29.257813 49.29201) scale(0.1 -0.1)">
       <use xlink:href="#DejaVuSans-38"/>
       <use xlink:href="#DejaVuSans-30" x="63.623047"/>
       <use xlink:href="#DejaVuSans-30" x="127.246094"/>
       <use xlink:href="#DejaVuSans-30" x="190.869141"/>
      </g>
     </g>
    </g>
    <g id="text_17">
     <!-- Axial Force -->
     <g transform="translate(14.798438 188.699719) rotate(-90) scale(0.1 -0.1)">
      <defs>
       <path id="DejaVuSans-41" d="M 2188 4044 
L 1331 1722 
L 3047 1722 
L 2188 4044 
z
M 1831 4666 
L 2547 4666 
L 4325 0 
L 3669 0 
L 3244 1197 
L 1141 1197 
L 716 0 
L 50 0 
L 1831 4666 
z
" transform="scale(0.015625)"/>
       <path id="DejaVuSans-78" d="M 3513 3500 
L 2247 1797 
L 3578 0 
L 2900 0 
L 1881 1375 
L 863 0 
L 184 0 
L 1544 1831 
L 300 3500 
L 978 3500 
L 1906 2253 
L 2834 3500 
L 3513 3500 
z
" transform="scale(0.015625)"/>
       <path id="DejaVuSans-61" d="M 2194 1759 
Q 1497 1759 1228 1600 
Q 959 1441 959 1056 
Q 959 750 1161 570 
Q 1363 391 1709 391 
Q 2188 391 2477 730 
Q 2766 1069 2766 1631 
L 2766 1759 
L 2194 1759 
z
M 3341 1997 
L 3341 0 
L 2766 0 
L 2766 531 
Q 2569 213 2275 61 
Q 1981 -91 1556 -91 
Q 1019 -91 701 211 
Q 384 513 384 1019 
Q 384 1609 779 1909 
Q 1175 2209 1959 2209 
L 2766 2209 
L 2766 2266 
Q 2766 2663 2505 2880 
Q 2244 3097 1772 3097 
Q 1472 3097 1187 3025 
Q 903 2953 641 2809 
L 641 3341 
Q 956 3463 1253 3523 
Q 1550 3584 1831 3584 
Q 2591 3584 2966 3190 
Q 3341 2797 3341 1997 
z
" transform="scale(0.015625)"/>
       <path id="DejaVuSans-6c" d="M 603 4863 
L 1178 4863 
L 1178 0 
L 603 0 
L 603 4863 
z
" transform="scale(0.015625)"/>
       <path id="DejaVuSans-46" d="M 628 4666 
L 3309 4666 
L 3309 4134 
L 1259 4134 
L 1259 2759 
L 3109 2759 
L 3109 2228 
L 1259 2228 
L 1259 0 
L 628 0 
L 628 4666 
z
" transform="scale(0.015625)"/>
       <path id="DejaVuSans-72" d="M 2631 2963 
Q 2534 3019 2420 3045 
Q 2306 3072 2169 3072 
Q 1681 3072 1420 2755 
Q 1159 2438 1159 1844 
L 1159 0 
L 581 0 
L 581 3500 
L 1159 3500 
L 1159 2956 
Q 1341 3275 1631 3429 
Q 1922 3584 2338 3584 
Q 2397 3584 2469 3576 
Q 2541 3569 2628 3553 
L 2631 2963 
z
" transform="scale(0.015625)"/>
       <path id="DejaVuSans-63" d="M 3122 3366 
L 3122 2828 
Q 2878 2963 2633 3030 
Q 2388 3097 2138 3097 
Q 1578 3097 1268 2742 
Q 959 2388 959 1747 
Q 959 1106 1268 751 
Q 1578 397 2138 397 
Q 2388 397 2633 464 
Q 2878 531 3122 666 
L 3122 134 
Q 2881 22 2623 -34 
Q 2366 -91 2075 -91 
Q 1284 -91 818 406 
Q 353 903 353 1747 
Q 353 2603 823 3093 
Q 1294 3584 2113 3584 
Q 2378 3584 2631 3529 
Q 2884 3475 3122 3366 
z
" transform="scale(0.015625)"/>
      </defs>
      <use xlink:href="#DejaVuSans-41"/>
      <use xlink:href="#DejaVuSans-78" x="68.408203"/>
      <use xlink:href="#DejaVuSans-69" x="127.587891"/>
      <use xlink:href="#DejaVuSans-61" x="155.371094"/>
      <use xlink:href="#DejaVuSans-6c" x="216.650391"/>
      <use xlink:href="#DejaVuSans-20" x="244.433594"/>
      <use xlink:href="#DejaVuSans-46" x="276.220703"/>
      <use xlink:href="#DejaVuSans-6f" x="330.115234"/>
      <use xlink:href="#DejaVuSans-72" x="391.296875"/>
      <use xlink:href="#DejaVuSans-63" x="430.160156"/>
      <use xlink:href="#DejaVuSans-65" x="485.140625"/>
     </g>
    </g>
   </g>
   <g id="line2d_31">
    <path d="M 70.350622 73.302392 
L 97.67124 73.3024 
L 101.914447 74.184388 
L 131.029018 79.733838 
L 159.149798 85.282994 
L 185.157046 90.831925 
L 191.76752 92.31343 
L 209.246062 96.381539 
L 231.529056 101.930683 
L 233.792796 102.520205 
L 252.070148 107.480019 
L 270.93626 113.02923 
L 288.203524 118.578465 
L 303.955499 124.127699 
L 318.284581 129.676972 
L 331.291902 135.226158 
L 343.088689 140.77538 
L 351.502461 145.09072 
L 353.795527 146.324677 
L 363.542139 151.873924 
L 372.46745 157.42315 
L 380.718014 162.972242 
L 388.447224 168.521467 
L 392.91976 171.866206 
L 391.532373 174.07074 
L 386.353708 179.620033 
L 378.761426 185.169254 
L 368.089689 190.718504 
L 359.69628 194.394444 
L 355.024344 196.267723 
L 339.635543 201.816987 
L 321.967584 207.366234 
L 302.093709 212.915481 
L 280.138469 218.464728 
L 256.313811 224.013716 
L 230.952282 229.563223 
L 224.709073 230.890302 
L 204.500313 235.112485 
L 177.461102 240.661813 
L 150.211723 246.210503 
L 122.931491 251.760597 
L 93.362102 257.309245 
" clip-path="url(#p1f328c48d0)" style="fill: none; stroke: #000000; stroke-width: 1.5; stroke-linecap: square"/>
    <defs>
     <path id="mb569ed9e56" d="M -3 3 
L 3 -3 
M -3 -3 
L 3 3 
" style="stroke: #000000"/>
    </defs>
    <g clip-path="url(#p1f328c48d0)">
     <use xlink:href="#mb569ed9e56" x="70.350622" y="73.302392" style="stroke: #000000"/>
     <use xlink:href="#mb569ed9e56" x="97.67124" y="73.3024" style="stroke: #000000"/>
     <use xlink:href="#mb569ed9e56" x="101.914447" y="74.184388" style="stroke: #000000"/>
     <use xlink:href="#mb569ed9e56" x="131.029018" y="79.733838" style="stroke: #000000"/>
     <use xlink:href="#mb569ed9e56" x="159.149798" y="85.282994" style="stroke: #000000"/>
     <use xlink:href="#mb569ed9e56" x="185.157046" y="90.831925" style="stroke: #000000"/>
     <use xlink:href="#mb569ed9e56" x="191.76752" y="92.31343" style="stroke: #000000"/>
     <use xlink:href="#mb569ed9e56" x="209.246062" y="96.381539" style="stroke: #000000"/>
     <use xlink:href="#mb569ed9e56" x="231.529056" y="101.930683" style="stroke: #000000"/>
     <use xlink:href="#mb569ed9e56" x="233.792796" y="102.520205" style="stroke: #000000"/>
     <use xlink:href="#mb569ed9e56" x="252.070148" y="107.480019" style="stroke: #000000"/>
     <use xlink:href="#mb569ed9e56" x="270.93626" y="113.02923" style="stroke: #000000"/>
     <use xlink:href="#mb569ed9e56" x="288.203524" y="118.578465" style="stroke: #000000"/>
     <use xlink:href="#mb569ed9e56" x="303.955499" y="124.127699" style="stroke: #000000"/>
     <use xlink:href="#mb569ed9e56" x="318.284581" y="129.676972" style="stroke: #000000"/>
     <use xlink:href="#mb569ed9e56" x="331.291902" y="135.226158" style="stroke: #000000"/>
     <use xlink:href="#mb569ed9e56" x="343.088689" y="140.77538" style="stroke: #000000"/>
     <use xlink:href="#mb569ed9e56" x="351.502461" y="145.09072" style="stroke: #000000"/>
     <use xlink:href="#mb569ed9e56" x="353.795527" y="146.324677" style="stroke: #000000"/>
     <use xlink:href="#mb569ed9e56" x="363.542139" y="151.873924" style="stroke: #000000"/>
     <use xlink:href="#mb569ed9e56" x="372.46745" y="157.42315" style="stroke: #000000"/>
     <use xlink:href="#mb569ed9e56" x="380.718014" y="162.972242" style="stroke: #000000"/>
     <use xlink:href="#mb569ed9e56" x="388.447224" y="168.521467" style="stroke: #000000"/>
     <use xlink:href="#mb569ed9e56" x="392.91976" y="171.866206" style="stroke: #000000"/>
     <use xlink:href="#mb569ed9e56" x="391.532373" y="174.07074" style="stroke: #000000"/>
     <use xlink:href="#mb569ed9e56" x="386.353708" y="179.620033" style="stroke: #000000"/>
     <use xlink:href="#mb569ed9e56" x="378.761426" y="185.169254" style="stroke: #000000"/>
     <use xlink:href="#mb569ed9e56" x="368.089689" y="190.718504" style="stroke: #000000"/>
     <use xlink:href="#mb569ed9e56" x="359.69628" y="194.394444" style="stroke: #000000"/>
     <use xlink:href="#mb569ed9e56" x="355.024344" y="196.267723" style="stroke: #000000"/>
     <use xlink:href="#mb569ed9e56" x="339.635543" y="201.816987" style="stroke: #000000"/>
     <use xlink:href="#mb569ed9e56" x="321.967584" y="207.366234" style="stroke: #000000"/>
     <use xlink:href="#mb569ed9e56" x="302.093709" y="212.915481" style="stroke: #000000"/>
     <use xlink:href="#mb569ed9e56" x="280.138469" y="218.464728" style="stroke: #000000"/>
     <use xlink:href="#mb569ed9e56" x="256.313811" y="224.013716" style="stroke: #000000"/>
     <use xlink:href="#mb569ed9e56" x="230.952282" y="229.563223" style="stroke: #000000"/>
     <use xlink:href="#mb569ed9e56" x="224.709073" y="230.890302" style="stroke: #000000"/>
     <use xlink:href="#mb569ed9e56" x="204.500313" y="235.112485" style="stroke: #000000"/>
     <use xlink:href="#mb569ed9e56" x="177.461102" y="240.661813" style="stroke: #000000"/>
     <use xlink:href="#mb569ed9e56" x="150.211723" y="246.210503" style="stroke: #000000"/>
     <use xlink:href="#mb569ed9e56" x="122.931491" y="251.760597" style="stroke: #000000"/>
     <use xlink:href="#mb569ed9e56" x="93.362102" y="257.309245" style="stroke: #000000"/>
    </g>
   </g>
   <g id="patch_3">
    <path d="M 61.707813 300.414125 
L 61.707813 22.318125 
" style="fill: none; stroke: #000000; stroke-width: 0.8; stroke-linejoin: miter; stroke-linecap: square"/>
   </g>
   <g id="patch_4">
    <path d="M 437.670045 300.414125 
L 437.670045 22.318125 
" style="fill: none; stroke: #000000; stroke-width: 0.8; stroke-linejoin: miter; stroke-linecap: square"/>
   </g>
   <g id="patch_5">
    <path d="M 61.707813 300.414125 
L 437.670045 300.414125 
" style="fill: none; stroke: #000000; stroke-width: 0.8; stroke-linejoin: miter; stroke-linecap: square"/>
   </g>
   <g id="patch_6">
    <path d="M 61.707813 22.318125 
L 437.670045 22.318125 
" style="fill: none; stroke: #000000; stroke-width: 0.8; stroke-linejoin: miter; stroke-linecap: square"/>
   </g>
   <g id="patch_7">
    <path d="M 70.350622 60.882561 
L 70.350622 70.186148 
" style="fill: none; stroke: #000000; stroke-linecap: round"/>
    <path d="M 72.350622 66.186148 
L 70.350622 70.186148 
L 68.350622 66.186148 
" style="fill: none; stroke: #000000; stroke-linecap: round"/>
   </g>
   <g id="text_18">
    <g id="patch_8">
     <path d="M 70.350633 58.382079 
L 77.191258 58.382079 
Q 80.191258 58.382079 80.191258 55.382079 
L 80.191258 45.703954 
Q 80.191258 42.703954 77.191258 42.703954 
L 70.350633 42.703954 
Q 67.350633 42.703954 67.350633 45.703954 
L 67.350633 55.382079 
Q 67.350633 58.382079 70.350633 58.382079 
z
" style="fill: #cccccc; stroke: #000000; stroke-linejoin: miter"/>
    </g>
    <!-- A -->
    <g transform="translate(70.350633 53.302392) scale(0.1 -0.1)">
     <use xlink:href="#DejaVuSans-41"/>
    </g>
   </g>
   <g id="patch_9">
    <path d="M 97.67124 60.781514 
L 97.67124 70.182124 
" style="fill: none; stroke: #000000; stroke-linecap: round"/>
    <path d="M 99.67124 66.182124 
L 97.67124 70.182124 
L 95.67124 66.182124 
" style="fill: none; stroke: #000000; stroke-linecap: round"/>
   </g>
   <g id="text_19">
    <g id="patch_10">
     <path d="M 98.649773 58.40604 
L 105.510711 58.40604 
Q 108.510711 58.40604 108.510711 55.40604 
L 108.510711 45.727915 
Q 108.510711 42.727915 105.510711 42.727915 
L 98.649773 42.727915 
Q 95.649773 42.727915 95.649773 45.727915 
L 95.649773 55.40604 
Q 95.649773 58.40604 98.649773 58.40604 
z
" style="fill: #cccccc; stroke: #000000; stroke-linejoin: miter"/>
    </g>
    <!-- B -->
    <g transform="translate(98.649773 53.326352) scale(0.1 -0.1)">
     <use xlink:href="#DejaVuSans-42"/>
    </g>
   </g>
   <g id="patch_11">
    <path d="M 194.181005 73.597356 
Q 191.76752 76.096595 191.76752 81.009318 
L 191.76752 89.194546 
" style="fill: none; stroke: #000000; stroke-linecap: round"/>
    <path d="M 193.76752 85.194546 
L 191.76752 89.194546 
L 189.76752 85.194546 
" style="fill: none; stroke: #000000; stroke-linecap: round"/>
   </g>
   <g id="text_20">
    <g id="patch_12">
     <path d="M 199.257027 78.84838 
L 206.239839 78.84838 
Q 209.239839 78.84838 209.239839 75.84838 
L 209.239839 66.170255 
Q 209.239839 63.170255 206.239839 63.170255 
L 199.257027 63.170255 
Q 196.257027 63.170255 196.257027 66.170255 
L 196.257027 75.84838 
Q 196.257027 78.84838 199.257027 78.84838 
z
" style="fill: #cccccc; stroke: #000000; stroke-linejoin: miter"/>
    </g>
    <!-- C -->
    <g transform="translate(199.257027 73.768693) scale(0.1 -0.1)">
     <defs>
      <path id="DejaVuSans-43" d="M 4122 4306 
L 4122 3641 
Q 3803 3938 3442 4084 
Q 3081 4231 2675 4231 
Q 1875 4231 1450 3742 
Q 1025 3253 1025 2328 
Q 1025 1406 1450 917 
Q 1875 428 2675 428 
Q 3081 428 3442 575 
Q 3803 722 4122 1019 
L 4122 359 
Q 3791 134 3420 21 
Q 3050 -91 2638 -91 
Q 1578 -91 968 557 
Q 359 1206 359 2328 
Q 359 3453 968 4101 
Q 1578 4750 2638 4750 
Q 3056 4750 3426 4639 
Q 3797 4528 4122 4306 
z
" transform="scale(0.015625)"/>
     </defs>
     <use xlink:href="#DejaVuSans-43"/>
    </g>
   </g>
   <g id="patch_13">
    <path d="M 237.103697 83.488259 
Q 233.792796 85.931401 233.792796 91.685444 
L 233.792796 99.399751 
" style="fill: none; stroke: #000000; stroke-linecap: round"/>
    <path d="M 235.792796 95.399751 
L 233.792796 99.399751 
L 231.792796 95.399751 
" style="fill: none; stroke: #000000; stroke-linecap: round"/>
   </g>
   <g id="text_21">
    <g id="patch_14">
     <path d="M 242.353193 89.524506 
L 250.053193 89.524506 
Q 253.053193 89.524506 253.053193 86.524506 
L 253.053193 76.846381 
Q 253.053193 73.846381 250.053193 73.846381 
L 242.353193 73.846381 
Q 239.353193 73.846381 239.353193 76.846381 
L 239.353193 86.524506 
Q 239.353193 89.524506 242.353193 89.524506 
z
" style="fill: #cccccc; stroke: #000000; stroke-linejoin: miter"/>
    </g>
    <!-- D -->
    <g transform="translate(242.353193 84.444819) scale(0.1 -0.1)">
     <defs>
      <path id="DejaVuSans-44" d="M 1259 4147 
L 1259 519 
L 2022 519 
Q 2988 519 3436 956 
Q 3884 1394 3884 2338 
Q 3884 3275 3436 3711 
Q 2988 4147 2022 4147 
L 1259 4147 
z
M 628 4666 
L 1925 4666 
Q 3281 4666 3915 4102 
Q 4550 3538 4550 2338 
Q 4550 1131 3912 565 
Q 3275 0 1925 0 
L 628 0 
L 628 4666 
z
" transform="scale(0.015625)"/>
     </defs>
     <use xlink:href="#DejaVuSans-44"/>
    </g>
   </g>
   <g id="patch_15">
    <path d="M 359.448373 127.64676 
Q 351.502461 128.614832 351.502461 137.528817 
L 351.502461 141.975133 
" style="fill: none; stroke: #000000; stroke-linecap: round"/>
    <path d="M 353.502461 137.975133 
L 351.502461 141.975133 
L 349.502461 137.975133 
" style="fill: none; stroke: #000000; stroke-linecap: round"/>
   </g>
   <g id="text_22">
    <g id="patch_16">
     <path d="M 364.951816 135.36788 
L 371.270566 135.36788 
Q 374.270566 135.36788 374.270566 132.36788 
L 374.270566 122.689755 
Q 374.270566 119.689755 371.270566 119.689755 
L 364.951816 119.689755 
Q 361.951816 119.689755 361.951816 122.689755 
L 361.951816 132.36788 
Q 361.951816 135.36788 364.951816 135.36788 
z
" style="fill: #cccccc; stroke: #000000; stroke-linejoin: miter"/>
    </g>
    <!-- E -->
    <g transform="translate(364.951816 130.288192) scale(0.1 -0.1)">
     <defs>
      <path id="DejaVuSans-45" d="M 628 4666 
L 3578 4666 
L 3578 4134 
L 1259 4134 
L 1259 2753 
L 3481 2753 
L 3481 2222 
L 1259 2222 
L 1259 531 
L 3634 531 
L 3634 0 
L 628 0 
L 628 4666 
z
" transform="scale(0.015625)"/>
     </defs>
     <use xlink:href="#DejaVuSans-45"/>
    </g>
   </g>
   <g id="patch_17">
    <path d="M 406.482007 163.060793 
L 402.91976 163.060793 
Q 394.6556 163.060793 393.450896 168.796269 
" style="fill: none; stroke: #000000; stroke-linecap: round"/>
    <path d="M 396.23042 165.292808 
L 393.450896 168.796269 
L 392.315841 164.470572 
" style="fill: none; stroke: #000000; stroke-linecap: round"/>
   </g>
   <g id="text_23">
    <g id="patch_18">
     <path d="M 411.984005 170.899855 
L 417.735567 170.899855 
Q 420.735567 170.899855 420.735567 167.899855 
L 420.735567 158.22173 
Q 420.735567 155.22173 417.735567 155.22173 
L 411.984005 155.22173 
Q 408.984005 155.22173 408.984005 158.22173 
L 408.984005 167.899855 
Q 408.984005 170.899855 411.984005 170.899855 
z
" style="fill: #cccccc; stroke: #000000; stroke-linejoin: miter"/>
    </g>
    <!-- F -->
    <g transform="translate(411.984005 165.820168) scale(0.1 -0.1)">
     <use xlink:href="#DejaVuSans-46"/>
    </g>
   </g>
   <g id="patch_19">
    <path d="M 366.161853 207.293043 
Q 359.69628 205.717737 359.69628 197.676859 
L 359.69628 197.509494 
" style="fill: none; stroke: #000000; stroke-linecap: round"/>
    <path d="M 357.69628 201.509494 
L 359.69628 197.509494 
L 361.69628 201.509494 
" style="fill: none; stroke: #000000; stroke-linecap: round"/>
   </g>
   <g id="text_24">
    <g id="patch_20">
     <path d="M 371.640358 215.515921 
L 379.388796 215.515921 
Q 382.388796 215.515921 382.388796 212.515921 
L 382.388796 202.837796 
Q 382.388796 199.837796 379.388796 199.837796 
L 371.640358 199.837796 
Q 368.640358 199.837796 368.640358 202.837796 
L 368.640358 212.515921 
Q 368.640358 215.515921 371.640358 215.515921 
z
" style="fill: #cccccc; stroke: #000000; stroke-linejoin: miter"/>
    </g>
    <!-- G -->
    <g transform="translate(371.640358 210.436234) scale(0.1 -0.1)">
     <defs>
      <path id="DejaVuSans-47" d="M 3809 666 
L 3809 1919 
L 2778 1919 
L 2778 2438 
L 4434 2438 
L 4434 434 
Q 4069 175 3628 42 
Q 3188 -91 2688 -91 
Q 1594 -91 976 548 
Q 359 1188 359 2328 
Q 359 3472 976 4111 
Q 1594 4750 2688 4750 
Q 3144 4750 3555 4637 
Q 3966 4525 4313 4306 
L 4313 3634 
Q 3963 3931 3569 4081 
Q 3175 4231 2741 4231 
Q 1884 4231 1454 3753 
Q 1025 3275 1025 2328 
Q 1025 1384 1454 906 
Q 1884 428 2741 428 
Q 3075 428 3337 486 
Q 3600 544 3809 666 
z
" transform="scale(0.015625)"/>
     </defs>
     <use xlink:href="#DejaVuSans-47"/>
    </g>
   </g>
   <g id="patch_21">
    <path d="M 226.660158 243.784936 
Q 224.709073 241.318912 224.709073 236.901804 
L 224.709073 234.007278 
" style="fill: none; stroke: #000000; stroke-linecap: round"/>
    <path d="M 222.709073 238.007278 
L 224.709073 234.007278 
L 226.709073 238.007278 
" style="fill: none; stroke: #000000; stroke-linecap: round"/>
   </g>
   <g id="text_25">
    <g id="patch_22">
     <path d="M 231.612275 254.740866 
L 239.132588 254.740866 
Q 242.132588 254.740866 242.132588 251.740866 
L 242.132588 242.062741 
Q 242.132588 239.062741 239.132588 239.062741 
L 231.612275 239.062741 
Q 228.612275 239.062741 228.612275 242.062741 
L 228.612275 251.740866 
Q 228.612275 254.740866 231.612275 254.740866 
z
" style="fill: #cccccc; stroke: #000000; stroke-linejoin: miter"/>
    </g>
    <!-- H -->
    <g transform="translate(231.612275 249.661179) scale(0.1 -0.1)">
     <defs>
      <path id="DejaVuSans-48" d="M 628 4666 
L 1259 4666 
L 1259 2753 
L 3553 2753 
L 3553 4666 
L 4184 4666 
L 4184 0 
L 3553 0 
L 3553 2222 
L 1259 2222 
L 1259 0 
L 628 0 
L 628 4666 
z
" transform="scale(0.015625)"/>
     </defs>
     <use xlink:href="#DejaVuSans-48"/>
    </g>
   </g>
   <g id="patch_23">
    <path d="M 94.830108 269.743263 
Q 93.362102 267.379812 93.362102 263.548355 
L 93.362102 260.428791 
" style="fill: none; stroke: #000000; stroke-linecap: round"/>
    <path d="M 91.362102 264.428791 
L 93.362102 260.428791 
L 95.362102 264.428791 
" style="fill: none; stroke: #000000; stroke-linecap: round"/>
   </g>
   <g id="text_26">
    <g id="patch_24">
     <path d="M 99.611708 281.387418 
L 102.561708 281.387418 
Q 105.561708 281.387418 105.561708 278.387418 
L 105.561708 268.709293 
Q 105.561708 265.709293 102.561708 265.709293 
L 99.611708 265.709293 
Q 96.611708 265.709293 96.611708 268.709293 
L 96.611708 278.387418 
Q 96.611708 281.387418 99.611708 281.387418 
z
" style="fill: #cccccc; stroke: #000000; stroke-linejoin: miter"/>
    </g>
    <!-- I -->
    <g transform="translate(99.611708 276.30773) scale(0.1 -0.1)">
     <defs>
      <path id="DejaVuSans-49" d="M 628 4666 
L 1259 4666 
L 1259 0 
L 628 0 
L 628 4666 
z
" transform="scale(0.015625)"/>
     </defs>
     <use xlink:href="#DejaVuSans-49"/>
    </g>
   </g>
   <g id="text_27">
    <!-- Moment Interaction Diagram -->
    <g transform="translate(163.023616 16.318125) scale(0.12 -0.12)">
     <use xlink:href="#DejaVuSans-4d"/>
     <use xlink:href="#DejaVuSans-6f" x="86.279297"/>
     <use xlink:href="#DejaVuSans-6d" x="147.460938"/>
     <use xlink:href="#DejaVuSans-65" x="244.873047"/>
     <use xlink:href="#DejaVuSans-6e" x="306.396484"/>
     <use xlink:href="#DejaVuSans-74" x="369.775391"/>
     <use xlink:href="#DejaVuSans-20" x="408.984375"/>
     <use xlink:href="#DejaVuSans-49" x="440.771484"/>
     <use xlink:href="#DejaVuSans-6e" x="470.263672"/>
     <use xlink:href="#DejaVuSans-74" x="533.642578"/>
     <use xlink:href="#DejaVuSans-65" x="572.851562"/>
     <use xlink:href="#DejaVuSans-72" x="634.375"/>
     <use xlink:href="#DejaVuSans-61" x="675.488281"/>
     <use xlink:href="#DejaVuSans-63" x="736.767578"/>
     <use xlink:href="#DejaVuSans-74" x="791.748047"/>
     <use xlink:href="#DejaVuSans-69" x="830.957031"/>
     <use xlink:href="#DejaVuSans-6f" x="858.740234"/>
     <use xlink:href="#DejaVuSans-6e" x="919.921875"/>
     <use xlink:href="#DejaVuSans-20" x="983.300781"/>
     <use xlink:href="#DejaVuSans-44" x="1015.087891"/>
     <use xlink:href="#DejaVuSans-69" x="1092.089844"/>
     <use xlink:href="#DejaVuSans-61" x="1119.873047"/>
     <use xlink:href="#DejaVuSans-67" x="1181.152344"/>
     <use xlink:href="#DejaVuSans-72" x="1244.628906"/>
     <use xlink:href="#DejaVuSans-61" x="1285.742188"/>
     <use xlink:href="#DejaVuSans-6d" x="1347.021484"/>
    </g>
   </g>
  </g>
 </g>
 <defs>
  <clipPath id="p1f328c48d0">
   <rect x="61.707813" y="22.318125" width="375.962233" height="278.096"/>
  </clipPath>
 </defs>
</svg>
