<?xml version="1.0" encoding="utf-8" standalone="no"?>
<!DOCTYPE svg PUBLIC "-//W3C//DTD SVG 1.1//EN"
  "http://www.w3.org/Graphics/SVG/1.1/DTD/svg11.dtd">
<svg xmlns:xlink="http://www.w3.org/1999/xlink" width="312.56681pt" height="294.302472pt" viewBox="0 0 312.56681 294.302472" xmlns="http://www.w3.org/2000/svg" version="1.1">
 <metadata>
  <rdf:RDF xmlns:dc="http://purl.org/dc/elements/1.1/" xmlns:cc="http://creativecommons.org/ns#" xmlns:rdf="http://www.w3.org/1999/02/22-rdf-syntax-ns#">
   <cc:Work>
    <dc:type rdf:resource="http://purl.org/dc/dcmitype/StillImage"/>
    <dc:date>2022-08-20T00:24:46.993410</dc:date>
    <dc:format>image/svg+xml</dc:format>
    <dc:creator>
     <cc:Agent>
      <dc:title>Matplotlib v3.5.3, https://matplotlib.org/</dc:title>
     </cc:Agent>
    </dc:creator>
   </cc:Work>
  </rdf:RDF>
 </metadata>
 <defs>
  <style type="text/css">*{stroke-linejoin: round; stroke-linecap: butt}</style>
 </defs>
 <g id="figure_1">
  <g id="patch_1">
   <path d="M 0 294.302472 
L 312.56681 294.302472 
L 312.56681 0 
L 0 0 
z
" style="fill: #ffffff"/>
  </g>
  <g id="patch_2">
   <path d="M 7.2 273.312 
L 273.312 273.312 
L 273.312 7.2 
L 7.2 7.2 
z
" style="fill: #ffffff"/>
  </g>
  <g id="pane3d_1">
   <g id="patch_3">
    <path d="M 27.293291 207.697309 
L 115.172164 134.035495 
L 113.950564 27.801991 
L 21.866234 95.000941 
" style="fill: #f2f2f2; opacity: 0.5; stroke: #f2f2f2; stroke-linejoin: miter"/>
   </g>
  </g>
  <g id="pane3d_2">
   <g id="patch_4">
    <path d="M 115.172164 134.035495 
L 256.186401 175.022766 
L 261.218702 65.130171 
L 113.950564 27.801991 
" style="fill: #e6e6e6; opacity: 0.5; stroke: #e6e6e6; stroke-linejoin: miter"/>
   </g>
  </g>
  <g id="pane3d_3">
   <g id="patch_5">
    <path d="M 27.293291 207.697309 
L 176.775269 256.518123 
L 256.186401 175.022766 
L 115.172164 134.035495 
" style="fill: #ececec; opacity: 0.5; stroke: #ececec; stroke-linejoin: miter"/>
   </g>
  </g>
  <g id="axis3d_1">
   <g id="line2d_1">
    <path d="M 27.293291 207.697309 
L 176.775269 256.518123 
" style="fill: none; stroke: #000000; stroke-width: 0.8; stroke-linecap: square"/>
   </g>
   <g id="text_1">
    <!-- Bending Moment $M_x$ -->
    <g transform="translate(34.67642 253.594411)rotate(-341.912962)scale(0.1 -0.1)">
     <defs>
      <path id="DejaVuSans-42" d="M 1259 2228 
L 1259 519 
L 2272 519 
Q 2781 519 3026 730 
Q 3272 941 3272 1375 
Q 3272 1813 3026 2020 
Q 2781 2228 2272 2228 
L 1259 2228 
z
M 1259 4147 
L 1259 2741 
L 2194 2741 
Q 2656 2741 2882 2914 
Q 3109 3088 3109 3444 
Q 3109 3797 2882 3972 
Q 2656 4147 2194 4147 
L 1259 4147 
z
M 628 4666 
L 2241 4666 
Q 2963 4666 3353 4366 
Q 3744 4066 3744 3513 
Q 3744 3084 3544 2831 
Q 3344 2578 2956 2516 
Q 3422 2416 3680 2098 
Q 3938 1781 3938 1306 
Q 3938 681 3513 340 
Q 3088 0 2303 0 
L 628 0 
L 628 4666 
z
" transform="scale(0.015625)"/>
      <path id="DejaVuSans-65" d="M 3597 1894 
L 3597 1613 
L 953 1613 
Q 991 1019 1311 708 
Q 1631 397 2203 397 
Q 2534 397 2845 478 
Q 3156 559 3463 722 
L 3463 178 
Q 3153 47 2828 -22 
Q 2503 -91 2169 -91 
Q 1331 -91 842 396 
Q 353 884 353 1716 
Q 353 2575 817 3079 
Q 1281 3584 2069 3584 
Q 2775 3584 3186 3129 
Q 3597 2675 3597 1894 
z
M 3022 2063 
Q 3016 2534 2758 2815 
Q 2500 3097 2075 3097 
Q 1594 3097 1305 2825 
Q 1016 2553 972 2059 
L 3022 2063 
z
" transform="scale(0.015625)"/>
      <path id="DejaVuSans-6e" d="M 3513 2113 
L 3513 0 
L 2938 0 
L 2938 2094 
Q 2938 2591 2744 2837 
Q 2550 3084 2163 3084 
Q 1697 3084 1428 2787 
Q 1159 2491 1159 1978 
L 1159 0 
L 581 0 
L 581 3500 
L 1159 3500 
L 1159 2956 
Q 1366 3272 1645 3428 
Q 1925 3584 2291 3584 
Q 2894 3584 3203 3211 
Q 3513 2838 3513 2113 
z
" transform="scale(0.015625)"/>
      <path id="DejaVuSans-64" d="M 2906 2969 
L 2906 4863 
L 3481 4863 
L 3481 0 
L 2906 0 
L 2906 525 
Q 2725 213 2448 61 
Q 2172 -91 1784 -91 
Q 1150 -91 751 415 
Q 353 922 353 1747 
Q 353 2572 751 3078 
Q 1150 3584 1784 3584 
Q 2172 3584 2448 3432 
Q 2725 3281 2906 2969 
z
M 947 1747 
Q 947 1113 1208 752 
Q 1469 391 1925 391 
Q 2381 391 2643 752 
Q 2906 1113 2906 1747 
Q 2906 2381 2643 2742 
Q 2381 3103 1925 3103 
Q 1469 3103 1208 2742 
Q 947 2381 947 1747 
z
" transform="scale(0.015625)"/>
      <path id="DejaVuSans-69" d="M 603 3500 
L 1178 3500 
L 1178 0 
L 603 0 
L 603 3500 
z
M 603 4863 
L 1178 4863 
L 1178 4134 
L 603 4134 
L 603 4863 
z
" transform="scale(0.015625)"/>
      <path id="DejaVuSans-67" d="M 2906 1791 
Q 2906 2416 2648 2759 
Q 2391 3103 1925 3103 
Q 1463 3103 1205 2759 
Q 947 2416 947 1791 
Q 947 1169 1205 825 
Q 1463 481 1925 481 
Q 2391 481 2648 825 
Q 2906 1169 2906 1791 
z
M 3481 434 
Q 3481 -459 3084 -895 
Q 2688 -1331 1869 -1331 
Q 1566 -1331 1297 -1286 
Q 1028 -1241 775 -1147 
L 775 -588 
Q 1028 -725 1275 -790 
Q 1522 -856 1778 -856 
Q 2344 -856 2625 -561 
Q 2906 -266 2906 331 
L 2906 616 
Q 2728 306 2450 153 
Q 2172 0 1784 0 
Q 1141 0 747 490 
Q 353 981 353 1791 
Q 353 2603 747 3093 
Q 1141 3584 1784 3584 
Q 2172 3584 2450 3431 
Q 2728 3278 2906 2969 
L 2906 3500 
L 3481 3500 
L 3481 434 
z
" transform="scale(0.015625)"/>
      <path id="DejaVuSans-20" transform="scale(0.015625)"/>
      <path id="DejaVuSans-4d" d="M 628 4666 
L 1569 4666 
L 2759 1491 
L 3956 4666 
L 4897 4666 
L 4897 0 
L 4281 0 
L 4281 4097 
L 3078 897 
L 2444 897 
L 1241 4097 
L 1241 0 
L 628 0 
L 628 4666 
z
" transform="scale(0.015625)"/>
      <path id="DejaVuSans-6f" d="M 1959 3097 
Q 1497 3097 1228 2736 
Q 959 2375 959 1747 
Q 959 1119 1226 758 
Q 1494 397 1959 397 
Q 2419 397 2687 759 
Q 2956 1122 2956 1747 
Q 2956 2369 2687 2733 
Q 2419 3097 1959 3097 
z
M 1959 3584 
Q 2709 3584 3137 3096 
Q 3566 2609 3566 1747 
Q 3566 888 3137 398 
Q 2709 -91 1959 -91 
Q 1206 -91 779 398 
Q 353 888 353 1747 
Q 353 2609 779 3096 
Q 1206 3584 1959 3584 
z
" transform="scale(0.015625)"/>
      <path id="DejaVuSans-6d" d="M 3328 2828 
Q 3544 3216 3844 3400 
Q 4144 3584 4550 3584 
Q 5097 3584 5394 3201 
Q 5691 2819 5691 2113 
L 5691 0 
L 5113 0 
L 5113 2094 
Q 5113 2597 4934 2840 
Q 4756 3084 4391 3084 
Q 3944 3084 3684 2787 
Q 3425 2491 3425 1978 
L 3425 0 
L 2847 0 
L 2847 2094 
Q 2847 2600 2669 2842 
Q 2491 3084 2119 3084 
Q 1678 3084 1418 2786 
Q 1159 2488 1159 1978 
L 1159 0 
L 581 0 
L 581 3500 
L 1159 3500 
L 1159 2956 
Q 1356 3278 1631 3431 
Q 1906 3584 2284 3584 
Q 2666 3584 2933 3390 
Q 3200 3197 3328 2828 
z
" transform="scale(0.015625)"/>
      <path id="DejaVuSans-74" d="M 1172 4494 
L 1172 3500 
L 2356 3500 
L 2356 3053 
L 1172 3053 
L 1172 1153 
Q 1172 725 1289 603 
Q 1406 481 1766 481 
L 2356 481 
L 2356 0 
L 1766 0 
Q 1100 0 847 248 
Q 594 497 594 1153 
L 594 3053 
L 172 3053 
L 172 3500 
L 594 3500 
L 594 4494 
L 1172 4494 
z
" transform="scale(0.015625)"/>
      <path id="DejaVuSans-Oblique-4d" d="M 1081 4666 
L 2028 4666 
L 2572 1522 
L 4378 4666 
L 5350 4666 
L 4441 0 
L 3828 0 
L 4622 4091 
L 2791 897 
L 2175 897 
L 1581 4103 
L 788 0 
L 172 0 
L 1081 4666 
z
" transform="scale(0.015625)"/>
      <path id="DejaVuSans-Oblique-78" d="M 3841 3500 
L 2234 1784 
L 3219 0 
L 2559 0 
L 1819 1388 
L 531 0 
L -166 0 
L 1556 1844 
L 641 3500 
L 1300 3500 
L 1972 2234 
L 3144 3500 
L 3841 3500 
z
" transform="scale(0.015625)"/>
     </defs>
     <use xlink:href="#DejaVuSans-42" transform="translate(0 0.015625)"/>
     <use xlink:href="#DejaVuSans-65" transform="translate(68.603516 0.015625)"/>
     <use xlink:href="#DejaVuSans-6e" transform="translate(130.126953 0.015625)"/>
     <use xlink:href="#DejaVuSans-64" transform="translate(193.505859 0.015625)"/>
     <use xlink:href="#DejaVuSans-69" transform="translate(256.982422 0.015625)"/>
     <use xlink:href="#DejaVuSans-6e" transform="translate(284.765625 0.015625)"/>
     <use xlink:href="#DejaVuSans-67" transform="translate(348.144531 0.015625)"/>
     <use xlink:href="#DejaVuSans-20" transform="translate(411.621094 0.015625)"/>
     <use xlink:href="#DejaVuSans-4d" transform="translate(443.408203 0.015625)"/>
     <use xlink:href="#DejaVuSans-6f" transform="translate(529.6875 0.015625)"/>
     <use xlink:href="#DejaVuSans-6d" transform="translate(590.869141 0.015625)"/>
     <use xlink:href="#DejaVuSans-65" transform="translate(688.28125 0.015625)"/>
     <use xlink:href="#DejaVuSans-6e" transform="translate(749.804688 0.015625)"/>
     <use xlink:href="#DejaVuSans-74" transform="translate(813.183594 0.015625)"/>
     <use xlink:href="#DejaVuSans-20" transform="translate(852.392578 0.015625)"/>
     <use xlink:href="#DejaVuSans-Oblique-4d" transform="translate(884.179688 0.015625)"/>
     <use xlink:href="#DejaVuSans-Oblique-78" transform="translate(970.458984 -16.390625)scale(0.7)"/>
    </g>
   </g>
   <g id="Line3DCollection_1">
    <path d="M 31.99824 209.233945 
L 119.629609 135.331098 
L 118.596187 28.979521 
" style="fill: none; stroke: #b0b0b0; stroke-width: 0.8"/>
    <path d="M 54.320456 216.524381 
L 140.760659 141.47306 
L 140.627747 34.563879 
" style="fill: none; stroke: #b0b0b0; stroke-width: 0.8"/>
    <path d="M 77.006022 223.933487 
L 162.2071 147.706694 
L 163.002388 40.235198 
" style="fill: none; stroke: #b0b0b0; stroke-width: 0.8"/>
    <path d="M 100.063881 231.464184 
L 183.976048 154.034068 
L 185.728185 45.995526 
" style="fill: none; stroke: #b0b0b0; stroke-width: 0.8"/>
    <path d="M 123.503276 239.11949 
L 206.074831 160.457311 
L 208.813472 51.846973 
" style="fill: none; stroke: #b0b0b0; stroke-width: 0.8"/>
    <path d="M 147.333753 246.902524 
L 228.511004 166.978621 
L 232.266845 57.791719 
" style="fill: none; stroke: #b0b0b0; stroke-width: 0.8"/>
    <path d="M 171.565183 254.816509 
L 251.292352 173.60026 
L 256.09718 63.832014 
" style="fill: none; stroke: #b0b0b0; stroke-width: 0.8"/>
   </g>
   <g id="xtick_1">
    <g id="line2d_2">
     <path d="M 32.761232 208.590486 
L 30.468988 210.523622 
" style="fill: none; stroke: #000000; stroke-width: 0.8; stroke-linecap: square"/>
    </g>
    <g id="text_2">
     <!-- −600 -->
     <g transform="translate(10.731324 232.513063)scale(0.1 -0.1)">
      <defs>
       <path id="DejaVuSans-2212" d="M 678 2272 
L 4684 2272 
L 4684 1741 
L 678 1741 
L 678 2272 
z
" transform="scale(0.015625)"/>
       <path id="DejaVuSans-36" d="M 2113 2584 
Q 1688 2584 1439 2293 
Q 1191 2003 1191 1497 
Q 1191 994 1439 701 
Q 1688 409 2113 409 
Q 2538 409 2786 701 
Q 3034 994 3034 1497 
Q 3034 2003 2786 2293 
Q 2538 2584 2113 2584 
z
M 3366 4563 
L 3366 3988 
Q 3128 4100 2886 4159 
Q 2644 4219 2406 4219 
Q 1781 4219 1451 3797 
Q 1122 3375 1075 2522 
Q 1259 2794 1537 2939 
Q 1816 3084 2150 3084 
Q 2853 3084 3261 2657 
Q 3669 2231 3669 1497 
Q 3669 778 3244 343 
Q 2819 -91 2113 -91 
Q 1303 -91 875 529 
Q 447 1150 447 2328 
Q 447 3434 972 4092 
Q 1497 4750 2381 4750 
Q 2619 4750 2861 4703 
Q 3103 4656 3366 4563 
z
" transform="scale(0.015625)"/>
       <path id="DejaVuSans-30" d="M 2034 4250 
Q 1547 4250 1301 3770 
Q 1056 3291 1056 2328 
Q 1056 1369 1301 889 
Q 1547 409 2034 409 
Q 2525 409 2770 889 
Q 3016 1369 3016 2328 
Q 3016 3291 2770 3770 
Q 2525 4250 2034 4250 
z
M 2034 4750 
Q 2819 4750 3233 4129 
Q 3647 3509 3647 2328 
Q 3647 1150 3233 529 
Q 2819 -91 2034 -91 
Q 1250 -91 836 529 
Q 422 1150 422 2328 
Q 422 3509 836 4129 
Q 1250 4750 2034 4750 
z
" transform="scale(0.015625)"/>
      </defs>
      <use xlink:href="#DejaVuSans-2212"/>
      <use xlink:href="#DejaVuSans-36" x="83.789062"/>
      <use xlink:href="#DejaVuSans-30" x="147.412109"/>
      <use xlink:href="#DejaVuSans-30" x="211.035156"/>
     </g>
    </g>
   </g>
   <g id="xtick_2">
    <g id="line2d_3">
     <path d="M 55.073569 215.870494 
L 52.810977 217.83498 
" style="fill: none; stroke: #000000; stroke-width: 0.8; stroke-linecap: square"/>
    </g>
    <g id="text_3">
     <!-- −400 -->
     <g transform="translate(33.076014 239.95784)scale(0.1 -0.1)">
      <defs>
       <path id="DejaVuSans-34" d="M 2419 4116 
L 825 1625 
L 2419 1625 
L 2419 4116 
z
M 2253 4666 
L 3047 4666 
L 3047 1625 
L 3713 1625 
L 3713 1100 
L 3047 1100 
L 3047 0 
L 2419 0 
L 2419 1100 
L 313 1100 
L 313 1709 
L 2253 4666 
z
" transform="scale(0.015625)"/>
      </defs>
      <use xlink:href="#DejaVuSans-2212"/>
      <use xlink:href="#DejaVuSans-34" x="83.789062"/>
      <use xlink:href="#DejaVuSans-30" x="147.412109"/>
      <use xlink:href="#DejaVuSans-30" x="211.035156"/>
     </g>
    </g>
   </g>
   <g id="xtick_3">
    <g id="line2d_4">
     <path d="M 77.748833 223.268916 
L 75.517165 225.265521 
" style="fill: none; stroke: #000000; stroke-width: 0.8; stroke-linecap: square"/>
    </g>
    <g id="text_4">
     <!-- −200 -->
     <g transform="translate(55.785791 247.524257)scale(0.1 -0.1)">
      <defs>
       <path id="DejaVuSans-32" d="M 1228 531 
L 3431 531 
L 3431 0 
L 469 0 
L 469 531 
Q 828 903 1448 1529 
Q 2069 2156 2228 2338 
Q 2531 2678 2651 2914 
Q 2772 3150 2772 3378 
Q 2772 3750 2511 3984 
Q 2250 4219 1831 4219 
Q 1534 4219 1204 4116 
Q 875 4013 500 3803 
L 500 4441 
Q 881 4594 1212 4672 
Q 1544 4750 1819 4750 
Q 2544 4750 2975 4387 
Q 3406 4025 3406 3419 
Q 3406 3131 3298 2873 
Q 3191 2616 2906 2266 
Q 2828 2175 2409 1742 
Q 1991 1309 1228 531 
z
" transform="scale(0.015625)"/>
      </defs>
      <use xlink:href="#DejaVuSans-2212"/>
      <use xlink:href="#DejaVuSans-32" x="83.789062"/>
      <use xlink:href="#DejaVuSans-30" x="147.412109"/>
      <use xlink:href="#DejaVuSans-30" x="211.035156"/>
     </g>
    </g>
   </g>
   <g id="xtick_4">
    <g id="line2d_5">
     <path d="M 100.79595 230.788666 
L 98.596531 232.818184 
" style="fill: none; stroke: #000000; stroke-width: 0.8; stroke-linecap: square"/>
    </g>
    <g id="text_5">
     <!-- 0 -->
     <g transform="translate(89.42202 255.215318)scale(0.1 -0.1)">
      <use xlink:href="#DejaVuSans-30"/>
     </g>
    </g>
   </g>
   <g id="xtick_5">
    <g id="line2d_6">
     <path d="M 124.224142 238.432753 
L 122.058351 240.496004 
" style="fill: none; stroke: #000000; stroke-width: 0.8; stroke-linecap: square"/>
    </g>
    <g id="text_6">
     <!-- 200 -->
     <g transform="translate(106.526836 263.03413)scale(0.1 -0.1)">
      <use xlink:href="#DejaVuSans-32"/>
      <use xlink:href="#DejaVuSans-30" x="63.623047"/>
      <use xlink:href="#DejaVuSans-30" x="127.246094"/>
     </g>
    </g>
   </g>
   <g id="xtick_6">
    <g id="line2d_7">
     <path d="M 148.042941 246.204285 
L 145.912211 248.302117 
" style="fill: none; stroke: #000000; stroke-width: 0.8; stroke-linecap: square"/>
    </g>
    <g id="text_7">
     <!-- 400 -->
     <g transform="translate(130.387215 270.983903)scale(0.1 -0.1)">
      <use xlink:href="#DejaVuSans-34"/>
      <use xlink:href="#DejaVuSans-30" x="63.623047"/>
      <use xlink:href="#DejaVuSans-30" x="127.246094"/>
     </g>
    </g>
   </g>
   <g id="xtick_7">
    <g id="line2d_8">
     <path d="M 172.262197 254.106477 
L 170.168019 256.239768 
" style="fill: none; stroke: #000000; stroke-width: 0.8; stroke-linecap: square"/>
    </g>
    <g id="text_8">
     <!-- 600 -->
     <g transform="translate(154.650615 279.067954)scale(0.1 -0.1)">
      <use xlink:href="#DejaVuSans-36"/>
      <use xlink:href="#DejaVuSans-30" x="63.623047"/>
      <use xlink:href="#DejaVuSans-30" x="127.246094"/>
     </g>
    </g>
   </g>
  </g>
  <g id="axis3d_2">
   <g id="line2d_9">
    <path d="M 256.186401 175.022766 
L 176.775269 256.518123 
" style="fill: none; stroke: #000000; stroke-width: 0.8; stroke-linecap: square"/>
   </g>
   <g id="text_9">
    <!-- Bending Moment $M_y$ -->
    <g transform="translate(211.422375 279.87502)rotate(-45.742112)scale(0.1 -0.1)">
     <defs>
      <path id="DejaVuSans-Oblique-79" d="M 1588 -325 
Q 1188 -997 936 -1164 
Q 684 -1331 294 -1331 
L -159 -1331 
L -63 -850 
L 269 -850 
Q 509 -850 678 -719 
Q 847 -588 1056 -206 
L 1234 128 
L 459 3500 
L 1069 3500 
L 1650 819 
L 3256 3500 
L 3859 3500 
L 1588 -325 
z
" transform="scale(0.015625)"/>
     </defs>
     <use xlink:href="#DejaVuSans-42" transform="translate(0 0.015625)"/>
     <use xlink:href="#DejaVuSans-65" transform="translate(68.603516 0.015625)"/>
     <use xlink:href="#DejaVuSans-6e" transform="translate(130.126953 0.015625)"/>
     <use xlink:href="#DejaVuSans-64" transform="translate(193.505859 0.015625)"/>
     <use xlink:href="#DejaVuSans-69" transform="translate(256.982422 0.015625)"/>
     <use xlink:href="#DejaVuSans-6e" transform="translate(284.765625 0.015625)"/>
     <use xlink:href="#DejaVuSans-67" transform="translate(348.144531 0.015625)"/>
     <use xlink:href="#DejaVuSans-20" transform="translate(411.621094 0.015625)"/>
     <use xlink:href="#DejaVuSans-4d" transform="translate(443.408203 0.015625)"/>
     <use xlink:href="#DejaVuSans-6f" transform="translate(529.6875 0.015625)"/>
     <use xlink:href="#DejaVuSans-6d" transform="translate(590.869141 0.015625)"/>
     <use xlink:href="#DejaVuSans-65" transform="translate(688.28125 0.015625)"/>
     <use xlink:href="#DejaVuSans-6e" transform="translate(749.804688 0.015625)"/>
     <use xlink:href="#DejaVuSans-74" transform="translate(813.183594 0.015625)"/>
     <use xlink:href="#DejaVuSans-20" transform="translate(852.392578 0.015625)"/>
     <use xlink:href="#DejaVuSans-Oblique-4d" transform="translate(884.179688 0.015625)"/>
     <use xlink:href="#DejaVuSans-Oblique-79" transform="translate(970.458984 -16.390625)scale(0.7)"/>
    </g>
   </g>
   <g id="Line3DCollection_2">
    <path d="M 34.649136 85.672561 
L 39.452566 197.505164 
L 187.804779 245.199133 
" style="fill: none; stroke: #b0b0b0; stroke-width: 0.8"/>
    <path d="M 46.683544 76.890398 
L 50.911568 187.900001 
L 198.186734 234.544693 
" style="fill: none; stroke: #b0b0b0; stroke-width: 0.8"/>
    <path d="M 58.449804 68.303917 
L 62.126233 178.499646 
L 208.335738 224.129317 
" style="fill: none; stroke: #b0b0b0; stroke-width: 0.8"/>
    <path d="M 69.956779 59.906651 
L 73.104295 169.297617 
L 218.259547 213.945048 
" style="fill: none; stroke: #b0b0b0; stroke-width: 0.8"/>
    <path d="M 81.212946 51.692413 
L 83.853163 160.287703 
L 227.965572 203.984279 
" style="fill: none; stroke: #b0b0b0; stroke-width: 0.8"/>
    <path d="M 92.226417 43.655284 
L 94.37994 151.46395 
L 237.460904 194.239732 
" style="fill: none; stroke: #b0b0b0; stroke-width: 0.8"/>
    <path d="M 103.004956 35.789597 
L 104.691439 142.820647 
L 246.752331 184.704442 
" style="fill: none; stroke: #b0b0b0; stroke-width: 0.8"/>
   </g>
   <g id="xtick_8">
    <g id="line2d_10">
     <path d="M 186.554991 244.797336 
L 190.307567 246.003758 
" style="fill: none; stroke: #000000; stroke-width: 0.8; stroke-linecap: square"/>
    </g>
    <g id="text_10">
     <!-- −750 -->
     <g transform="translate(186.877621 266.136725)scale(0.1 -0.1)">
      <defs>
       <path id="DejaVuSans-37" d="M 525 4666 
L 3525 4666 
L 3525 4397 
L 1831 0 
L 1172 0 
L 2766 4134 
L 525 4134 
L 525 4666 
z
" transform="scale(0.015625)"/>
       <path id="DejaVuSans-35" d="M 691 4666 
L 3169 4666 
L 3169 4134 
L 1269 4134 
L 1269 2991 
Q 1406 3038 1543 3061 
Q 1681 3084 1819 3084 
Q 2600 3084 3056 2656 
Q 3513 2228 3513 1497 
Q 3513 744 3044 326 
Q 2575 -91 1722 -91 
Q 1428 -91 1123 -41 
Q 819 9 494 109 
L 494 744 
Q 775 591 1075 516 
Q 1375 441 1709 441 
Q 2250 441 2565 725 
Q 2881 1009 2881 1497 
Q 2881 1984 2565 2268 
Q 2250 2553 1709 2553 
Q 1456 2553 1204 2497 
Q 953 2441 691 2322 
L 691 4666 
z
" transform="scale(0.015625)"/>
      </defs>
      <use xlink:href="#DejaVuSans-2212"/>
      <use xlink:href="#DejaVuSans-37" x="83.789062"/>
      <use xlink:href="#DejaVuSans-35" x="147.412109"/>
      <use xlink:href="#DejaVuSans-30" x="211.035156"/>
     </g>
    </g>
   </g>
   <g id="xtick_9">
    <g id="line2d_11">
     <path d="M 196.946728 234.151961 
L 200.669895 235.331155 
" style="fill: none; stroke: #000000; stroke-width: 0.8; stroke-linecap: square"/>
    </g>
    <g id="text_11">
     <!-- −500 -->
     <g transform="translate(197.120294 255.324577)scale(0.1 -0.1)">
      <use xlink:href="#DejaVuSans-2212"/>
      <use xlink:href="#DejaVuSans-35" x="83.789062"/>
      <use xlink:href="#DejaVuSans-30" x="147.412109"/>
      <use xlink:href="#DejaVuSans-30" x="211.035156"/>
     </g>
    </g>
   </g>
   <g id="xtick_10">
    <g id="line2d_12">
     <path d="M 207.105394 223.745346 
L 210.79952 224.898224 
" style="fill: none; stroke: #000000; stroke-width: 0.8; stroke-linecap: square"/>
    </g>
    <g id="text_12">
     <!-- −250 -->
     <g transform="translate(207.133008 244.755173)scale(0.1 -0.1)">
      <use xlink:href="#DejaVuSans-2212"/>
      <use xlink:href="#DejaVuSans-32" x="83.789062"/>
      <use xlink:href="#DejaVuSans-35" x="147.412109"/>
      <use xlink:href="#DejaVuSans-30" x="211.035156"/>
     </g>
    </g>
   </g>
   <g id="xtick_11">
    <g id="line2d_13">
     <path d="M 217.038742 213.569548 
L 220.704191 214.696982 
" style="fill: none; stroke: #000000; stroke-width: 0.8; stroke-linecap: square"/>
    </g>
    <g id="text_13">
     <!-- 0 -->
     <g transform="translate(227.475766 234.420429)scale(0.1 -0.1)">
      <use xlink:href="#DejaVuSans-30"/>
     </g>
    </g>
   </g>
   <g id="xtick_12">
    <g id="line2d_14">
     <path d="M 226.754186 203.616973 
L 230.391321 204.719795 
" style="fill: none; stroke: #000000; stroke-width: 0.8; stroke-linecap: square"/>
    </g>
    <g id="text_14">
     <!-- 250 -->
     <g transform="translate(230.688702 224.312615)scale(0.1 -0.1)">
      <use xlink:href="#DejaVuSans-32"/>
      <use xlink:href="#DejaVuSans-35" x="63.623047"/>
      <use xlink:href="#DejaVuSans-30" x="127.246094"/>
     </g>
    </g>
   </g>
   <g id="xtick_13">
    <g id="line2d_15">
     <path d="M 236.258818 193.880354 
L 239.867998 194.959362 
" style="fill: none; stroke: #000000; stroke-width: 0.8; stroke-linecap: square"/>
    </g>
    <g id="text_15">
     <!-- 500 -->
     <g transform="translate(240.056163 214.424339)scale(0.1 -0.1)">
      <use xlink:href="#DejaVuSans-35"/>
      <use xlink:href="#DejaVuSans-30" x="63.623047"/>
      <use xlink:href="#DejaVuSans-30" x="127.246094"/>
     </g>
    </g>
   </g>
   <g id="xtick_14">
    <g id="line2d_16">
     <path d="M 245.559427 184.352739 
L 249.141007 185.408695 
" style="fill: none; stroke: #000000; stroke-width: 0.8; stroke-linecap: square"/>
    </g>
    <g id="text_16">
     <!-- 750 -->
     <g transform="translate(249.222352 204.748526)scale(0.1 -0.1)">
      <use xlink:href="#DejaVuSans-37"/>
      <use xlink:href="#DejaVuSans-35" x="63.623047"/>
      <use xlink:href="#DejaVuSans-30" x="127.246094"/>
     </g>
    </g>
   </g>
  </g>
  <g id="axis3d_3">
   <g id="line2d_17">
    <path d="M 256.186401 175.022766 
L 261.218702 65.130171 
" style="fill: none; stroke: #000000; stroke-width: 0.8; stroke-linecap: square"/>
   </g>
   <g id="text_17">
    <!-- Axial Force $N$ -->
    <g transform="translate(300.270132 148.962585)rotate(-87.378092)scale(0.1 -0.1)">
     <defs>
      <path id="DejaVuSans-41" d="M 2188 4044 
L 1331 1722 
L 3047 1722 
L 2188 4044 
z
M 1831 4666 
L 2547 4666 
L 4325 0 
L 3669 0 
L 3244 1197 
L 1141 1197 
L 716 0 
L 50 0 
L 1831 4666 
z
" transform="scale(0.015625)"/>
      <path id="DejaVuSans-78" d="M 3513 3500 
L 2247 1797 
L 3578 0 
L 2900 0 
L 1881 1375 
L 863 0 
L 184 0 
L 1544 1831 
L 300 3500 
L 978 3500 
L 1906 2253 
L 2834 3500 
L 3513 3500 
z
" transform="scale(0.015625)"/>
      <path id="DejaVuSans-61" d="M 2194 1759 
Q 1497 1759 1228 1600 
Q 959 1441 959 1056 
Q 959 750 1161 570 
Q 1363 391 1709 391 
Q 2188 391 2477 730 
Q 2766 1069 2766 1631 
L 2766 1759 
L 2194 1759 
z
M 3341 1997 
L 3341 0 
L 2766 0 
L 2766 531 
Q 2569 213 2275 61 
Q 1981 -91 1556 -91 
Q 1019 -91 701 211 
Q 384 513 384 1019 
Q 384 1609 779 1909 
Q 1175 2209 1959 2209 
L 2766 2209 
L 2766 2266 
Q 2766 2663 2505 2880 
Q 2244 3097 1772 3097 
Q 1472 3097 1187 3025 
Q 903 2953 641 2809 
L 641 3341 
Q 956 3463 1253 3523 
Q 1550 3584 1831 3584 
Q 2591 3584 2966 3190 
Q 3341 2797 3341 1997 
z
" transform="scale(0.015625)"/>
      <path id="DejaVuSans-6c" d="M 603 4863 
L 1178 4863 
L 1178 0 
L 603 0 
L 603 4863 
z
" transform="scale(0.015625)"/>
      <path id="DejaVuSans-46" d="M 628 4666 
L 3309 4666 
L 3309 4134 
L 1259 4134 
L 1259 2759 
L 3109 2759 
L 3109 2228 
L 1259 2228 
L 1259 0 
L 628 0 
L 628 4666 
z
" transform="scale(0.015625)"/>
      <path id="DejaVuSans-72" d="M 2631 2963 
Q 2534 3019 2420 3045 
Q 2306 3072 2169 3072 
Q 1681 3072 1420 2755 
Q 1159 2438 1159 1844 
L 1159 0 
L 581 0 
L 581 3500 
L 1159 3500 
L 1159 2956 
Q 1341 3275 1631 3429 
Q 1922 3584 2338 3584 
Q 2397 3584 2469 3576 
Q 2541 3569 2628 3553 
L 2631 2963 
z
" transform="scale(0.015625)"/>
      <path id="DejaVuSans-63" d="M 3122 3366 
L 3122 2828 
Q 2878 2963 2633 3030 
Q 2388 3097 2138 3097 
Q 1578 3097 1268 2742 
Q 959 2388 959 1747 
Q 959 1106 1268 751 
Q 1578 397 2138 397 
Q 2388 397 2633 464 
Q 2878 531 3122 666 
L 3122 134 
Q 2881 22 2623 -34 
Q 2366 -91 2075 -91 
Q 1284 -91 818 406 
Q 353 903 353 1747 
Q 353 2603 823 3093 
Q 1294 3584 2113 3584 
Q 2378 3584 2631 3529 
Q 2884 3475 3122 3366 
z
" transform="scale(0.015625)"/>
      <path id="DejaVuSans-Oblique-4e" d="M 1081 4666 
L 1931 4666 
L 3219 666 
L 4000 4666 
L 4616 4666 
L 3706 0 
L 2853 0 
L 1569 4025 
L 788 0 
L 172 0 
L 1081 4666 
z
" transform="scale(0.015625)"/>
     </defs>
     <use xlink:href="#DejaVuSans-41" transform="translate(0 0.015625)"/>
     <use xlink:href="#DejaVuSans-78" transform="translate(68.408203 0.015625)"/>
     <use xlink:href="#DejaVuSans-69" transform="translate(127.587891 0.015625)"/>
     <use xlink:href="#DejaVuSans-61" transform="translate(155.371094 0.015625)"/>
     <use xlink:href="#DejaVuSans-6c" transform="translate(216.650391 0.015625)"/>
     <use xlink:href="#DejaVuSans-20" transform="translate(244.433594 0.015625)"/>
     <use xlink:href="#DejaVuSans-46" transform="translate(276.220703 0.015625)"/>
     <use xlink:href="#DejaVuSans-6f" transform="translate(333.740234 0.015625)"/>
     <use xlink:href="#DejaVuSans-72" transform="translate(394.921875 0.015625)"/>
     <use xlink:href="#DejaVuSans-63" transform="translate(436.035156 0.015625)"/>
     <use xlink:href="#DejaVuSans-65" transform="translate(491.015625 0.015625)"/>
     <use xlink:href="#DejaVuSans-20" transform="translate(552.539062 0.015625)"/>
     <use xlink:href="#DejaVuSans-Oblique-4e" transform="translate(584.326172 0.015625)"/>
    </g>
   </g>
   <g id="Line3DCollection_3">
    <path d="M 256.282814 172.917346 
L 115.148711 131.99596 
L 27.189487 205.541739 
" style="fill: none; stroke: #b0b0b0; stroke-width: 0.8"/>
    <path d="M 256.912238 159.172321 
L 114.995647 118.68512 
L 26.511644 191.4659 
" style="fill: none; stroke: #b0b0b0; stroke-width: 0.8"/>
    <path d="M 257.54875 145.272532 
L 114.840942 105.231556 
L 25.825879 177.225536 
" style="fill: none; stroke: #b0b0b0; stroke-width: 0.8"/>
    <path d="M 258.192469 131.21535 
L 114.684569 91.632959 
L 25.13205 162.817745 
" style="fill: none; stroke: #b0b0b0; stroke-width: 0.8"/>
    <path d="M 258.843519 116.998085 
L 114.526501 77.886973 
L 24.430017 148.239558 
" style="fill: none; stroke: #b0b0b0; stroke-width: 0.8"/>
    <path d="M 259.502026 102.617988 
L 114.366711 63.991188 
L 23.719631 133.487933 
" style="fill: none; stroke: #b0b0b0; stroke-width: 0.8"/>
    <path d="M 260.168117 88.072245 
L 114.205169 49.943141 
L 23.000743 118.559757 
" style="fill: none; stroke: #b0b0b0; stroke-width: 0.8"/>
    <path d="M 260.841926 73.357977 
L 114.041848 35.740316 
L 22.273199 103.451841 
" style="fill: none; stroke: #b0b0b0; stroke-width: 0.8"/>
   </g>
   <g id="xtick_15">
    <g id="line2d_18">
     <path d="M 255.098262 172.573889 
L 258.654736 173.605077 
" style="fill: none; stroke: #000000; stroke-width: 0.8; stroke-linecap: square"/>
    </g>
    <g id="text_18">
     <!-- 0 -->
     <g transform="translate(271.365529 177.914875)scale(0.1 -0.1)">
      <use xlink:href="#DejaVuSans-30"/>
     </g>
    </g>
   </g>
   <g id="xtick_16">
    <g id="line2d_19">
     <path d="M 255.720807 158.83242 
L 259.297953 159.852939 
" style="fill: none; stroke: #000000; stroke-width: 0.8; stroke-linecap: square"/>
    </g>
    <g id="text_19">
     <!-- 1000 -->
     <g transform="translate(262.551244 164.19681)scale(0.1 -0.1)">
      <defs>
       <path id="DejaVuSans-31" d="M 794 531 
L 1825 531 
L 1825 4091 
L 703 3866 
L 703 4441 
L 1819 4666 
L 2450 4666 
L 2450 531 
L 3481 531 
L 3481 0 
L 794 0 
L 794 531 
z
" transform="scale(0.015625)"/>
      </defs>
      <use xlink:href="#DejaVuSans-31"/>
      <use xlink:href="#DejaVuSans-30" x="63.623047"/>
      <use xlink:href="#DejaVuSans-30" x="127.246094"/>
      <use xlink:href="#DejaVuSans-30" x="190.869141"/>
     </g>
    </g>
   </g>
   <g id="xtick_17">
    <g id="line2d_20">
     <path d="M 256.350359 144.936288 
L 259.948417 145.945831 
" style="fill: none; stroke: #000000; stroke-width: 0.8; stroke-linecap: square"/>
    </g>
    <g id="text_20">
     <!-- 2000 -->
     <g transform="translate(263.288897 150.324752)scale(0.1 -0.1)">
      <use xlink:href="#DejaVuSans-32"/>
      <use xlink:href="#DejaVuSans-30" x="63.623047"/>
      <use xlink:href="#DejaVuSans-30" x="127.246094"/>
      <use xlink:href="#DejaVuSans-30" x="190.869141"/>
     </g>
    </g>
   </g>
   <g id="xtick_18">
    <g id="line2d_21">
     <path d="M 256.987037 130.882867 
L 260.606253 131.88112 
" style="fill: none; stroke: #000000; stroke-width: 0.8; stroke-linecap: square"/>
    </g>
    <g id="text_21">
     <!-- 3000 -->
     <g transform="translate(264.034877 136.296094)scale(0.1 -0.1)">
      <defs>
       <path id="DejaVuSans-33" d="M 2597 2516 
Q 3050 2419 3304 2112 
Q 3559 1806 3559 1356 
Q 3559 666 3084 287 
Q 2609 -91 1734 -91 
Q 1441 -91 1130 -33 
Q 819 25 488 141 
L 488 750 
Q 750 597 1062 519 
Q 1375 441 1716 441 
Q 2309 441 2620 675 
Q 2931 909 2931 1356 
Q 2931 1769 2642 2001 
Q 2353 2234 1838 2234 
L 1294 2234 
L 1294 2753 
L 1863 2753 
Q 2328 2753 2575 2939 
Q 2822 3125 2822 3475 
Q 2822 3834 2567 4026 
Q 2313 4219 1838 4219 
Q 1578 4219 1281 4162 
Q 984 4106 628 3988 
L 628 4550 
Q 988 4650 1302 4700 
Q 1616 4750 1894 4750 
Q 2613 4750 3031 4423 
Q 3450 4097 3450 3541 
Q 3450 3153 3228 2886 
Q 3006 2619 2597 2516 
z
" transform="scale(0.015625)"/>
      </defs>
      <use xlink:href="#DejaVuSans-33"/>
      <use xlink:href="#DejaVuSans-30" x="63.623047"/>
      <use xlink:href="#DejaVuSans-30" x="127.246094"/>
      <use xlink:href="#DejaVuSans-30" x="190.869141"/>
     </g>
    </g>
   </g>
   <g id="xtick_19">
    <g id="line2d_22">
     <path d="M 257.630962 116.669472 
L 261.271586 117.656111 
" style="fill: none; stroke: #000000; stroke-width: 0.8; stroke-linecap: square"/>
    </g>
    <g id="text_22">
     <!-- 4000 -->
     <g transform="translate(264.789327 122.108169)scale(0.1 -0.1)">
      <use xlink:href="#DejaVuSans-34"/>
      <use xlink:href="#DejaVuSans-30" x="63.623047"/>
      <use xlink:href="#DejaVuSans-30" x="127.246094"/>
      <use xlink:href="#DejaVuSans-30" x="190.869141"/>
     </g>
    </g>
   </g>
   <g id="xtick_20">
    <g id="line2d_23">
     <path d="M 258.282259 102.293355 
L 261.944546 103.268048 
" style="fill: none; stroke: #000000; stroke-width: 0.8; stroke-linecap: square"/>
    </g>
    <g id="text_23">
     <!-- 5000 -->
     <g transform="translate(265.55239 107.75825)scale(0.1 -0.1)">
      <use xlink:href="#DejaVuSans-35"/>
      <use xlink:href="#DejaVuSans-30" x="63.623047"/>
      <use xlink:href="#DejaVuSans-30" x="127.246094"/>
      <use xlink:href="#DejaVuSans-30" x="190.869141"/>
     </g>
    </g>
   </g>
   <g id="xtick_21">
    <g id="line2d_24">
     <path d="M 258.941055 87.751706 
L 262.625264 88.714112 
" style="fill: none; stroke: #000000; stroke-width: 0.8; stroke-linecap: square"/>
    </g>
    <g id="text_24">
     <!-- 6000 -->
     <g transform="translate(266.324216 93.243545)scale(0.1 -0.1)">
      <use xlink:href="#DejaVuSans-36"/>
      <use xlink:href="#DejaVuSans-30" x="63.623047"/>
      <use xlink:href="#DejaVuSans-30" x="127.246094"/>
      <use xlink:href="#DejaVuSans-30" x="190.869141"/>
     </g>
    </g>
   </g>
   <g id="xtick_22">
    <g id="line2d_25">
     <path d="M 259.607481 73.041649 
L 263.313875 73.991416 
" style="fill: none; stroke: #000000; stroke-width: 0.8; stroke-linecap: square"/>
    </g>
    <g id="text_25">
     <!-- 7000 -->
     <g transform="translate(267.104957 78.5612)scale(0.1 -0.1)">
      <use xlink:href="#DejaVuSans-37"/>
      <use xlink:href="#DejaVuSans-30" x="63.623047"/>
      <use xlink:href="#DejaVuSans-30" x="127.246094"/>
      <use xlink:href="#DejaVuSans-30" x="190.869141"/>
     </g>
    </g>
   </g>
  </g>
  <g id="axes_1">
   <g id="line2d_26">
    <path d="M 98.688686 175.070114 
L 106.721145 170.370574 
L 114.696355 166.813787 
L 123.64714 164.803867 
L 130.88846 163.693138 
L 137.366194 162.864663 
L 143.567708 162.10434 
L 149.05418 161.827722 
L 154.862565 161.669274 
L 159.381486 161.878724 
L 163.96373 162.156968 
L 167.79789 162.566437 
L 171.870979 163.135991 
L 174.911589 164.666564 
L 177.577663 166.179508 
L 180.428669 168.105411 
L 183.146305 170.047896 
L 185.943128 172.779555 
L 188.386918 175.440251 
L 190.410268 178.696024 
L 192.478073 182.134366 
L 194.490505 186.097178 
L 195.908742 191.357747 
L 194.159932 196.980003 
L 190.47951 203.235531 
L 182.612758 208.300358 
L 174.545711 212.209093 
L 165.22527 214.447366 
L 157.601879 215.693564 
L 150.745054 216.627423 
L 144.154911 217.487745 
L 138.309735 217.801529 
L 132.116898 217.981453 
L 127.30889 217.743642 
L 122.441871 217.428094 
L 118.385289 216.964496 
L 114.094316 216.321171 
L 110.986042 214.601055 
L 108.29387 212.913114 
L 105.46454 210.782016 
L 102.801952 208.65225 
L 100.162621 205.690146 
L 97.913467 202.84135 
L 96.189001 199.403245 
L 94.465972 195.828275 
L 92.886815 191.77753 
L 92.080447 186.511986 
L 94.445579 181.020681 
L 98.688686 175.070114 
" clip-path="url(#pf49afaf40d)" style="fill: none; stroke: #1f77b4; stroke-width: 1.5; stroke-linecap: square"/>
   </g>
   <g id="line2d_27">
    <path d="M 91.129028 162.661352 
L 99.66937 158.233877 
L 110.104182 154.846406 
L 121.560272 152.588568 
L 130.099051 151.235669 
L 137.568134 150.208637 
L 144.560709 149.540586 
L 151.497561 148.977426 
L 157.409389 148.756161 
L 162.569007 148.785499 
L 167.225023 148.949988 
L 171.330974 149.271165 
L 175.744385 149.634722 
L 178.637777 151.392229 
L 181.314085 153.044077 
L 184.027722 155.029916 
L 186.79248 157.32151 
L 189.546363 160.094533 
L 192.281453 163.526593 
L 194.885332 167.061435 
L 197.147075 171.02507 
L 199.44288 175.681497 
L 201.78163 182.211971 
L 201.610936 188.897262 
L 198.581166 195.248476 
L 190.204222 200.070066 
L 179.547854 203.828975 
L 167.560345 206.368869 
L 158.527425 207.904218 
L 150.574363 209.076555 
L 143.092841 209.842298 
L 135.648649 210.489766 
L 129.297422 210.744647 
L 123.759664 210.710835 
L 118.771618 210.521357 
L 114.388973 210.151829 
L 109.687394 209.734245 
L 106.747974 207.726025 
L 104.054032 205.854208 
L 101.376589 203.623762 
L 98.704301 201.076435 
L 96.127811 198.03133 
L 93.683443 194.318057 
L 91.426111 190.556327 
L 89.608943 186.412076 
L 87.880366 181.640325 
L 86.391665 175.118339 
L 87.418807 168.639362 
L 91.129028 162.661352 
" clip-path="url(#pf49afaf40d)" style="fill: none; stroke: #ff7f0e; stroke-width: 1.5; stroke-linecap: square"/>
   </g>
   <g id="line2d_28">
    <path d="M 85.553963 150.816171 
L 95.07536 146.609202 
L 107.796633 143.620413 
L 119.997634 141.297803 
L 129.840629 139.822583 
L 138.031591 138.703658 
L 145.926988 137.808197 
L 153.177691 137.137372 
L 159.310125 136.841227 
L 164.768929 136.657107 
L 169.099416 136.818838 
L 173.768646 137.049816 
L 178.179328 137.425933 
L 181.106024 139.14712 
L 183.936109 141.065375 
L 186.484423 142.880561 
L 189.049513 145.382231 
L 191.794605 148.255484 
L 194.508304 151.841685 
L 197.198462 155.860406 
L 199.679291 160.159091 
L 202.456116 165.434586 
L 205.061435 172.29302 
L 206.801255 179.811005 
L 204.612801 186.494343 
L 195.211641 191.111189 
L 182.095973 194.449249 
L 169.29987 197.077377 
L 158.854213 198.762396 
L 150.101511 200.048708 
L 141.61936 201.083302 
L 133.800152 201.861393 
L 127.177713 202.205724 
L 121.27896 202.420059 
L 116.616585 202.231776 
L 111.598298 201.963142 
L 106.877808 201.526371 
L 103.897266 199.538049 
L 101.066205 197.342043 
L 98.549748 195.283155 
L 96.118384 192.475629 
L 93.573194 189.293257 
L 91.186752 185.383117 
L 88.922316 181.080987 
L 86.952124 176.56965 
L 84.857817 171.15697 
L 83.206492 164.316446 
L 82.542146 157.061662 
L 85.553963 150.816171 
" clip-path="url(#pf49afaf40d)" style="fill: none; stroke: #2ca02c; stroke-width: 1.5; stroke-linecap: square"/>
   </g>
   <g id="line2d_29">
    <path d="M 81.088727 139.25358 
L 94.924689 135.791558 
L 107.013397 133.135171 
L 118.769878 130.834437 
L 129.732303 129.060357 
L 139.125515 127.817512 
L 147.385267 126.939493 
L 154.183609 126.459484 
L 159.909102 126.175147 
L 165.237682 125.977297 
L 170.405247 125.853379 
L 175.119811 125.916986 
L 179.518938 126.157842 
L 182.218731 127.918011 
L 184.791876 129.914913 
L 187.292576 132.215727 
L 189.763585 134.637359 
L 192.308652 137.291159 
L 195.100696 140.535833 
L 198.000137 144.659866 
L 200.893454 149.515227 
L 203.726857 155.401563 
L 206.084809 161.982637 
L 208.011853 168.967096 
L 209.478977 177.261604 
L 195.450405 181.079185 
L 182.959064 184.053068 
L 170.63231 186.660805 
L 158.99513 188.692248 
L 148.937139 190.126238 
L 140.042564 191.144734 
L 132.698859 191.703459 
L 126.505467 192.035064 
L 120.737309 192.266088 
L 115.142868 192.410902 
L 110.050943 192.336557 
L 105.318938 192.055261 
L 102.586458 190.009949 
L 100.039861 187.711462 
L 97.630965 185.091603 
L 95.295594 182.366515 
L 92.939471 179.417564 
L 90.43357 175.864081 
L 87.975424 171.428196 
L 85.674267 166.318003 
L 83.633412 160.2799 
L 82.219894 153.724887 
L 81.327085 146.984061 
L 81.088727 139.25358 
" clip-path="url(#pf49afaf40d)" style="fill: none; stroke: #d62728; stroke-width: 1.5; stroke-linecap: square"/>
   </g>
   <g id="line2d_30">
    <path d="M 82.977624 129.494074 
L 95.590497 126.203187 
L 106.833107 123.355636 
L 117.939422 120.945615 
L 129.968547 118.924968 
L 140.340742 117.597401 
L 148.583624 116.867283 
L 154.780741 116.497394 
L 160.194392 116.250588 
L 165.233751 116.122515 
L 170.033326 116.043841 
L 174.714373 115.987996 
L 179.596561 115.940091 
L 182.051883 118.031507 
L 184.400434 120.051836 
L 186.782834 122.144608 
L 189.217198 124.376695 
L 191.654064 126.844076 
L 194.30541 129.730311 
L 197.434133 133.720216 
L 200.675492 138.99729 
L 203.608121 145.428618 
L 205.358896 151.70676 
L 206.406362 158.329119 
L 207.416623 165.876408 
L 194.661545 169.494128 
L 183.105224 172.67293 
L 171.496616 175.399187 
L 158.73986 177.7108 
L 147.630239 179.242542 
L 138.751604 180.089391 
L 132.060023 180.51963 
L 126.207476 180.807159 
L 120.758927 180.956507 
L 115.569445 181.048299 
L 110.50789 181.113478 
L 105.228321 181.169404 
L 102.795832 178.740529 
L 100.495518 176.418737 
L 98.191073 174.038712 
L 95.87273 171.527858 
L 93.607203 168.784923 
L 91.200168 165.618982 
L 88.483285 161.316357 
L 85.885444 155.753594 
L 83.830154 149.16367 
L 82.984273 142.923097 
L 82.897542 136.537127 
L 82.977624 129.494074 
" clip-path="url(#pf49afaf40d)" style="fill: none; stroke: #9467bd; stroke-width: 1.5; stroke-linecap: square"/>
   </g>
   <g id="line2d_31">
    <path d="M 85.500312 119.815179 
L 96.887583 116.51862 
L 107.394012 113.641576 
L 118.24428 111.144734 
L 129.956209 109.107408 
L 141.163283 107.748966 
L 148.749446 107.171622 
L 155.04844 106.895787 
L 160.371211 106.78076 
L 164.944786 106.727549 
L 169.208297 106.714744 
L 173.668207 106.773397 
L 178.19356 106.919322 
L 180.79941 108.737559 
L 183.229862 110.582384 
L 185.442209 112.389866 
L 187.756375 114.358246 
L 190.368898 116.688391 
L 193.22916 119.534844 
L 196.25735 123.113953 
L 199.857153 128.711309 
L 202.534547 134.941486 
L 203.924477 141.082926 
L 204.438343 147.315635 
L 204.671083 154.216818 
L 193.210766 157.827915 
L 182.449805 161.029075 
L 171.13646 163.845507 
L 158.735565 166.170483 
L 146.74215 167.73435 
L 138.580402 168.402336 
L 131.79127 168.722183 
L 126.052198 168.855699 
L 121.120872 168.91749 
L 116.525248 168.932363 
L 111.723607 168.864248 
L 106.861296 168.694875 
L 104.241237 166.595175 
L 101.835697 164.484823 
L 99.68026 162.436504 
L 97.456024 160.227283 
L 94.985008 157.640474 
L 92.3511 154.521575 
L 89.679667 150.662624 
L 86.754092 144.763596 
L 84.925814 138.385438 
L 84.412867 132.283474 
L 84.781707 126.27075 
L 85.500312 119.815179 
" clip-path="url(#pf49afaf40d)" style="fill: none; stroke: #8c564b; stroke-width: 1.5; stroke-linecap: square"/>
   </g>
   <g id="line2d_32">
    <path d="M 88.536839 110.174307 
L 98.988178 106.909554 
L 108.969113 104.060026 
L 119.272026 101.639468 
L 130.760637 99.597797 
L 140.769914 98.448698 
L 148.671354 97.901844 
L 154.466233 97.670602 
L 159.468596 97.606342 
L 164.049625 97.651084 
L 168.335154 97.754172 
L 172.479496 97.877306 
L 176.380122 98.129921 
L 178.85027 99.613234 
L 181.227277 101.271526 
L 183.653097 103.006709 
L 186.141006 104.904312 
L 188.667648 107.045593 
L 191.327204 109.621227 
L 194.557456 113.277297 
L 197.850217 118.185178 
L 200.336919 124.247242 
L 201.497638 130.03719 
L 201.694712 135.949133 
L 201.379594 142.328582 
L 190.900005 145.889186 
L 180.701854 149.045909 
L 169.981054 151.764068 
L 157.842591 154.08343 
L 147.15586 155.399712 
L 138.679043 156.02891 
L 132.451811 156.295515 
L 127.076106 156.369659 
L 122.157483 156.318032 
L 117.561398 156.199128 
L 113.120979 156.057185 
L 108.956795 155.766271 
L 106.452073 154.065801 
L 104.083871 152.180238 
L 101.692634 150.224549 
L 99.275901 148.105781 
L 96.871309 145.739631 
L 94.408962 142.927626 
L 91.530845 138.998651 
L 88.813182 133.836748 
L 87.133574 127.63227 
L 86.777618 121.875957 
L 87.38883 116.162159 
L 88.536839 110.174307 
" clip-path="url(#pf49afaf40d)" style="fill: none; stroke: #e377c2; stroke-width: 1.5; stroke-linecap: square"/>
   </g>
   <g id="line2d_33">
    <path d="M 92.335076 100.633954 
L 102.375111 97.374449 
L 111.779947 94.700624 
L 121.937244 92.33782 
L 131.479327 90.693867 
L 139.8387 89.722922 
L 147.124741 89.210254 
L 153.196468 89.021231 
L 158.188913 88.988831 
L 162.456978 89.030748 
L 166.503525 89.138338 
L 170.388514 89.278556 
L 173.994831 89.692615 
L 176.604223 90.955042 
L 178.874877 92.478982 
L 181.1805 94.093042 
L 183.493169 95.840097 
L 186.063109 97.935815 
L 188.932612 100.576663 
L 191.87331 103.914863 
L 194.564976 107.971468 
L 196.667189 112.915943 
L 197.779587 118.538025 
L 197.906956 124.031907 
L 197.282728 130.143963 
L 187.232329 133.679663 
L 177.629477 136.624866 
L 167.075012 139.261822 
L 157.020102 141.115863 
L 148.134403 142.218444 
L 140.355489 142.802898 
L 133.863213 143.018789 
L 128.525097 143.055815 
L 123.964451 143.007914 
L 119.645782 142.88501 
L 115.504609 142.724941 
L 111.687338 142.252951 
L 109.018915 140.820241 
L 106.752645 139.103364 
L 104.476754 137.29984 
L 102.226918 135.364743 
L 99.768194 133.066488 
L 97.09023 130.205598 
L 94.462678 126.644233 
L 92.226841 122.396982 
L 90.74766 117.335972 
L 90.376539 111.730458 
L 90.962606 106.400062 
L 92.335076 100.633954 
" clip-path="url(#pf49afaf40d)" style="fill: none; stroke: #7f7f7f; stroke-width: 1.5; stroke-linecap: square"/>
   </g>
   <g id="line2d_34">
    <path d="M 97.277 91.289934 
L 106.960728 88.168743 
L 116.230875 85.603482 
L 125.309008 83.598143 
L 132.583833 82.411891 
L 138.886347 81.698485 
L 145.036976 81.249893 
L 150.730091 81.030003 
L 155.552542 80.960724 
L 159.927797 80.999905 
L 163.94957 81.099274 
L 167.579357 81.265383 
L 170.894798 81.705098 
L 173.404323 82.821908 
L 175.586359 84.212042 
L 177.858876 85.802408 
L 180.215489 87.575902 
L 182.61797 89.598146 
L 185.213647 92.069624 
L 187.641938 94.864286 
L 189.671256 97.875711 
L 191.348079 101.559718 
L 192.466855 106.458173 
L 192.640006 111.760587 
L 191.985726 117.561708 
L 182.288678 120.922445 
L 172.824314 123.725876 
L 163.405237 125.943869 
L 155.771524 127.267017 
L 149.11477 128.066767 
L 142.5949 128.571206 
L 136.549929 128.81891 
L 131.427764 128.897013 
L 126.783591 128.852838 
L 122.519075 128.740846 
L 118.677257 128.553768 
L 115.19305 128.05934 
L 112.62615 126.808743 
L 110.443514 125.262378 
L 108.20069 123.50713 
L 105.906915 121.566986 
L 103.612733 119.376564 
L 101.192664 116.730642 
L 99.012083 113.779158 
L 97.293903 110.645772 
L 96.0386 106.877316 
L 95.509777 101.973744 
L 95.970315 96.798969 
L 97.277 91.289934 
" clip-path="url(#pf49afaf40d)" style="fill: none; stroke: #bcbd22; stroke-width: 1.5; stroke-linecap: square"/>
   </g>
   <g id="line2d_35">
    <path d="M 103.706827 82.221704 
L 112.968901 79.405967 
L 122.25968 76.968414 
L 129.098186 75.660814 
L 134.189421 74.945522 
L 138.625959 74.440795 
L 142.853126 74.068959 
L 147.30903 73.817191 
L 152.045646 73.699393 
L 156.235078 73.680693 
L 160.196541 73.730557 
L 163.712664 73.920458 
L 166.818757 74.355289 
L 169.214619 75.378682 
L 171.377644 76.696834 
L 173.519978 78.272258 
L 175.662362 79.982207 
L 177.915241 81.974079 
L 179.780376 83.928954 
L 181.307423 85.859533 
L 182.701028 87.952643 
L 184.050204 90.434706 
L 185.214632 93.963269 
L 185.549586 99.12544 
L 185.149964 104.502106 
L 175.857561 107.50394 
L 166.373745 110.138779 
L 159.294472 111.566291 
L 153.98495 112.351388 
L 149.339925 112.907174 
L 144.902151 113.317585 
L 140.21605 113.595934 
L 135.231272 113.726298 
L 130.822707 113.747001 
L 126.656736 113.691801 
L 122.968156 113.481719 
L 119.730037 113.001478 
L 117.286207 111.8756 
L 115.121357 110.434449 
L 113.014084 108.725187 
L 110.935874 106.885998 
L 108.788322 104.764324 
L 107.056556 102.703446 
L 105.684417 100.688659 
L 104.477722 98.52689 
L 103.369094 95.993424 
L 102.569211 92.446693 
L 102.772748 87.370835 
L 103.706827 82.221704 
" clip-path="url(#pf49afaf40d)" style="fill: none; stroke: #17becf; stroke-width: 1.5; stroke-linecap: square"/>
   </g>
   <g id="line2d_36">
    <path d="M 112.391869 73.617269 
L 121.292308 70.972967 
L 128.420412 69.462332 
L 132.904943 68.823296 
L 136.388191 68.397913 
L 139.381608 68.06039 
L 142.125572 67.76697 
L 144.766105 67.518041 
L 147.650665 67.310934 
L 151.230358 67.191498 
L 155.1521 67.233653 
L 158.43677 67.42639 
L 161.514301 67.811377 
L 163.803733 68.839377 
L 165.847559 70.051989 
L 167.944231 71.601477 
L 169.568038 73.101957 
L 170.671464 74.371498 
L 171.572009 75.56695 
L 172.444382 76.830035 
L 173.365504 78.220441 
L 174.378501 79.859735 
L 175.513278 82.024271 
L 176.380126 85.733397 
L 176.015801 90.777348 
L 167.078192 93.560621 
L 159.803511 95.168248 
L 155.187249 95.852217 
L 151.589337 96.308803 
L 148.49049 96.671825 
L 145.644889 96.987945 
L 142.90241 97.256521 
L 139.902987 97.480248 
L 136.178949 97.609381 
L 132.101783 97.563794 
L 128.694041 97.355496 
L 125.514427 96.940071 
L 123.194268 95.834976 
L 121.151561 94.539194 
L 119.089746 92.895547 
L 117.525418 91.316695 
L 116.487457 89.990576 
L 115.657248 88.749919 
L 114.865913 87.447492 
L 114.040413 86.023683 
L 113.148225 84.358192 
L 112.184557 82.180632 
L 111.625697 78.505158 
L 112.391869 73.617269 
" clip-path="url(#pf49afaf40d)" style="fill: none; stroke: #1f77b4; stroke-width: 1.5; stroke-linecap: square"/>
   </g>
  </g>
 </g>
 <defs>
  <clipPath id="pf49afaf40d">
   <rect x="7.2" y="7.2" width="266.112" height="266.112"/>
  </clipPath>
 </defs>
</svg>
