<?xml version="1.0" encoding="utf-8" standalone="no"?>
<!DOCTYPE svg PUBLIC "-//W3C//DTD SVG 1.1//EN"
  "http://www.w3.org/Graphics/SVG/1.1/DTD/svg11.dtd">
<svg xmlns:xlink="http://www.w3.org/1999/xlink" width="312.56681pt" height="294.302472pt" viewBox="0 0 312.56681 294.302472" xmlns="http://www.w3.org/2000/svg" version="1.1">
 <metadata>
  <rdf:RDF xmlns:dc="http://purl.org/dc/elements/1.1/" xmlns:cc="http://creativecommons.org/ns#" xmlns:rdf="http://www.w3.org/1999/02/22-rdf-syntax-ns#">
   <cc:Work>
    <dc:type rdf:resource="http://purl.org/dc/dcmitype/StillImage"/>
    <dc:date>2022-07-13T10:19:52.809196</dc:date>
    <dc:format>image/svg+xml</dc:format>
    <dc:creator>
     <cc:Agent>
      <dc:title>Matplotlib v3.5.2, https://matplotlib.org/</dc:title>
     </cc:Agent>
    </dc:creator>
   </cc:Work>
  </rdf:RDF>
 </metadata>
 <defs>
  <style type="text/css">*{stroke-linejoin: round; stroke-linecap: butt}</style>
 </defs>
 <g id="figure_1">
  <g id="patch_1">
   <path d="M 0 294.302472 
L 312.56681 294.302472 
L 312.56681 0 
L 0 0 
z
" style="fill: #ffffff"/>
  </g>
  <g id="patch_2">
   <path d="M 7.2 273.312 
L 273.312 273.312 
L 273.312 7.2 
L 7.2 7.2 
z
" style="fill: #ffffff"/>
  </g>
  <g id="pane3d_1">
   <g id="patch_3">
    <path d="M 27.293291 207.697309 
L 115.172164 134.035495 
L 113.950564 27.801991 
L 21.866234 95.000941 
" style="fill: #f2f2f2; opacity: 0.5; stroke: #f2f2f2; stroke-linejoin: miter"/>
   </g>
  </g>
  <g id="pane3d_2">
   <g id="patch_4">
    <path d="M 115.172164 134.035495 
L 256.186401 175.022766 
L 261.218702 65.130171 
L 113.950564 27.801991 
" style="fill: #e6e6e6; opacity: 0.5; stroke: #e6e6e6; stroke-linejoin: miter"/>
   </g>
  </g>
  <g id="pane3d_3">
   <g id="patch_5">
    <path d="M 27.293291 207.697309 
L 176.775269 256.518123 
L 256.186401 175.022766 
L 115.172164 134.035495 
" style="fill: #ececec; opacity: 0.5; stroke: #ececec; stroke-linejoin: miter"/>
   </g>
  </g>
  <g id="axis3d_1">
   <g id="line2d_1">
    <path d="M 27.293291 207.697309 
L 176.775269 256.518123 
" style="fill: none; stroke: #000000; stroke-width: 0.8; stroke-linecap: square"/>
   </g>
   <g id="text_1">
    <!-- Bending Moment $M_x$ -->
    <g transform="translate(34.67642 253.594411)rotate(-341.912962)scale(0.1 -0.1)">
     <defs>
      <path id="DejaVuSans-42" d="M 1259 2228 
L 1259 519 
L 2272 519 
Q 2781 519 3026 730 
Q 3272 941 3272 1375 
Q 3272 1813 3026 2020 
Q 2781 2228 2272 2228 
L 1259 2228 
z
M 1259 4147 
L 1259 2741 
L 2194 2741 
Q 2656 2741 2882 2914 
Q 3109 3088 3109 3444 
Q 3109 3797 2882 3972 
Q 2656 4147 2194 4147 
L 1259 4147 
z
M 628 4666 
L 2241 4666 
Q 2963 4666 3353 4366 
Q 3744 4066 3744 3513 
Q 3744 3084 3544 2831 
Q 3344 2578 2956 2516 
Q 3422 2416 3680 2098 
Q 3938 1781 3938 1306 
Q 3938 681 3513 340 
Q 3088 0 2303 0 
L 628 0 
L 628 4666 
z
" transform="scale(0.015625)"/>
      <path id="DejaVuSans-65" d="M 3597 1894 
L 3597 1613 
L 953 1613 
Q 991 1019 1311 708 
Q 1631 397 2203 397 
Q 2534 397 2845 478 
Q 3156 559 3463 722 
L 3463 178 
Q 3153 47 2828 -22 
Q 2503 -91 2169 -91 
Q 1331 -91 842 396 
Q 353 884 353 1716 
Q 353 2575 817 3079 
Q 1281 3584 2069 3584 
Q 2775 3584 3186 3129 
Q 3597 2675 3597 1894 
z
M 3022 2063 
Q 3016 2534 2758 2815 
Q 2500 3097 2075 3097 
Q 1594 3097 1305 2825 
Q 1016 2553 972 2059 
L 3022 2063 
z
" transform="scale(0.015625)"/>
      <path id="DejaVuSans-6e" d="M 3513 2113 
L 3513 0 
L 2938 0 
L 2938 2094 
Q 2938 2591 2744 2837 
Q 2550 3084 2163 3084 
Q 1697 3084 1428 2787 
Q 1159 2491 1159 1978 
L 1159 0 
L 581 0 
L 581 3500 
L 1159 3500 
L 1159 2956 
Q 1366 3272 1645 3428 
Q 1925 3584 2291 3584 
Q 2894 3584 3203 3211 
Q 3513 2838 3513 2113 
z
" transform="scale(0.015625)"/>
      <path id="DejaVuSans-64" d="M 2906 2969 
L 2906 4863 
L 3481 4863 
L 3481 0 
L 2906 0 
L 2906 525 
Q 2725 213 2448 61 
Q 2172 -91 1784 -91 
Q 1150 -91 751 415 
Q 353 922 353 1747 
Q 353 2572 751 3078 
Q 1150 3584 1784 3584 
Q 2172 3584 2448 3432 
Q 2725 3281 2906 2969 
z
M 947 1747 
Q 947 1113 1208 752 
Q 1469 391 1925 391 
Q 2381 391 2643 752 
Q 2906 1113 2906 1747 
Q 2906 2381 2643 2742 
Q 2381 3103 1925 3103 
Q 1469 3103 1208 2742 
Q 947 2381 947 1747 
z
" transform="scale(0.015625)"/>
      <path id="DejaVuSans-69" d="M 603 3500 
L 1178 3500 
L 1178 0 
L 603 0 
L 603 3500 
z
M 603 4863 
L 1178 4863 
L 1178 4134 
L 603 4134 
L 603 4863 
z
" transform="scale(0.015625)"/>
      <path id="DejaVuSans-67" d="M 2906 1791 
Q 2906 2416 2648 2759 
Q 2391 3103 1925 3103 
Q 1463 3103 1205 2759 
Q 947 2416 947 1791 
Q 947 1169 1205 825 
Q 1463 481 1925 481 
Q 2391 481 2648 825 
Q 2906 1169 2906 1791 
z
M 3481 434 
Q 3481 -459 3084 -895 
Q 2688 -1331 1869 -1331 
Q 1566 -1331 1297 -1286 
Q 1028 -1241 775 -1147 
L 775 -588 
Q 1028 -725 1275 -790 
Q 1522 -856 1778 -856 
Q 2344 -856 2625 -561 
Q 2906 -266 2906 331 
L 2906 616 
Q 2728 306 2450 153 
Q 2172 0 1784 0 
Q 1141 0 747 490 
Q 353 981 353 1791 
Q 353 2603 747 3093 
Q 1141 3584 1784 3584 
Q 2172 3584 2450 3431 
Q 2728 3278 2906 2969 
L 2906 3500 
L 3481 3500 
L 3481 434 
z
" transform="scale(0.015625)"/>
      <path id="DejaVuSans-20" transform="scale(0.015625)"/>
      <path id="DejaVuSans-4d" d="M 628 4666 
L 1569 4666 
L 2759 1491 
L 3956 4666 
L 4897 4666 
L 4897 0 
L 4281 0 
L 4281 4097 
L 3078 897 
L 2444 897 
L 1241 4097 
L 1241 0 
L 628 0 
L 628 4666 
z
" transform="scale(0.015625)"/>
      <path id="DejaVuSans-6f" d="M 1959 3097 
Q 1497 3097 1228 2736 
Q 959 2375 959 1747 
Q 959 1119 1226 758 
Q 1494 397 1959 397 
Q 2419 397 2687 759 
Q 2956 1122 2956 1747 
Q 2956 2369 2687 2733 
Q 2419 3097 1959 3097 
z
M 1959 3584 
Q 2709 3584 3137 3096 
Q 3566 2609 3566 1747 
Q 3566 888 3137 398 
Q 2709 -91 1959 -91 
Q 1206 -91 779 398 
Q 353 888 353 1747 
Q 353 2609 779 3096 
Q 1206 3584 1959 3584 
z
" transform="scale(0.015625)"/>
      <path id="DejaVuSans-6d" d="M 3328 2828 
Q 3544 3216 3844 3400 
Q 4144 3584 4550 3584 
Q 5097 3584 5394 3201 
Q 5691 2819 5691 2113 
L 5691 0 
L 5113 0 
L 5113 2094 
Q 5113 2597 4934 2840 
Q 4756 3084 4391 3084 
Q 3944 3084 3684 2787 
Q 3425 2491 3425 1978 
L 3425 0 
L 2847 0 
L 2847 2094 
Q 2847 2600 2669 2842 
Q 2491 3084 2119 3084 
Q 1678 3084 1418 2786 
Q 1159 2488 1159 1978 
L 1159 0 
L 581 0 
L 581 3500 
L 1159 3500 
L 1159 2956 
Q 1356 3278 1631 3431 
Q 1906 3584 2284 3584 
Q 2666 3584 2933 3390 
Q 3200 3197 3328 2828 
z
" transform="scale(0.015625)"/>
      <path id="DejaVuSans-74" d="M 1172 4494 
L 1172 3500 
L 2356 3500 
L 2356 3053 
L 1172 3053 
L 1172 1153 
Q 1172 725 1289 603 
Q 1406 481 1766 481 
L 2356 481 
L 2356 0 
L 1766 0 
Q 1100 0 847 248 
Q 594 497 594 1153 
L 594 3053 
L 172 3053 
L 172 3500 
L 594 3500 
L 594 4494 
L 1172 4494 
z
" transform="scale(0.015625)"/>
      <path id="DejaVuSans-Oblique-4d" d="M 1081 4666 
L 2028 4666 
L 2572 1522 
L 4378 4666 
L 5350 4666 
L 4441 0 
L 3828 0 
L 4622 4091 
L 2791 897 
L 2175 897 
L 1581 4103 
L 788 0 
L 172 0 
L 1081 4666 
z
" transform="scale(0.015625)"/>
      <path id="DejaVuSans-Oblique-78" d="M 3841 3500 
L 2234 1784 
L 3219 0 
L 2559 0 
L 1819 1388 
L 531 0 
L -166 0 
L 1556 1844 
L 641 3500 
L 1300 3500 
L 1972 2234 
L 3144 3500 
L 3841 3500 
z
" transform="scale(0.015625)"/>
     </defs>
     <use xlink:href="#DejaVuSans-42" transform="translate(0 0.015625)"/>
     <use xlink:href="#DejaVuSans-65" transform="translate(68.603516 0.015625)"/>
     <use xlink:href="#DejaVuSans-6e" transform="translate(130.126953 0.015625)"/>
     <use xlink:href="#DejaVuSans-64" transform="translate(193.505859 0.015625)"/>
     <use xlink:href="#DejaVuSans-69" transform="translate(256.982422 0.015625)"/>
     <use xlink:href="#DejaVuSans-6e" transform="translate(284.765625 0.015625)"/>
     <use xlink:href="#DejaVuSans-67" transform="translate(348.144531 0.015625)"/>
     <use xlink:href="#DejaVuSans-20" transform="translate(411.621094 0.015625)"/>
     <use xlink:href="#DejaVuSans-4d" transform="translate(443.408203 0.015625)"/>
     <use xlink:href="#DejaVuSans-6f" transform="translate(529.6875 0.015625)"/>
     <use xlink:href="#DejaVuSans-6d" transform="translate(590.869141 0.015625)"/>
     <use xlink:href="#DejaVuSans-65" transform="translate(688.28125 0.015625)"/>
     <use xlink:href="#DejaVuSans-6e" transform="translate(749.804688 0.015625)"/>
     <use xlink:href="#DejaVuSans-74" transform="translate(813.183594 0.015625)"/>
     <use xlink:href="#DejaVuSans-20" transform="translate(852.392578 0.015625)"/>
     <use xlink:href="#DejaVuSans-Oblique-4d" transform="translate(884.179688 0.015625)"/>
     <use xlink:href="#DejaVuSans-Oblique-78" transform="translate(970.458984 -16.390625)scale(0.7)"/>
    </g>
   </g>
   <g id="Line3DCollection_1">
    <path d="M 49.223488 214.859711 
L 135.938136 140.071343 
L 135.598483 33.289107 
" style="fill: none; stroke: #b0b0b0; stroke-width: 0.8"/>
    <path d="M 74.413535 223.086781 
L 159.757675 146.994743 
L 160.446225 39.587286 
" style="fill: none; stroke: #b0b0b0; stroke-width: 0.8"/>
    <path d="M 100.063881 231.464184 
L 183.976048 154.034068 
L 185.728185 45.995526 
" style="fill: none; stroke: #b0b0b0; stroke-width: 0.8"/>
    <path d="M 126.18726 239.996079 
L 208.603355 161.192253 
L 211.455844 52.516737 
" style="fill: none; stroke: #b0b0b0; stroke-width: 0.8"/>
    <path d="M 152.796878 248.68678 
L 233.650043 168.472337 
L 237.641094 59.153935 
" style="fill: none; stroke: #b0b0b0; stroke-width: 0.8"/>
   </g>
   <g id="xtick_1">
    <g id="line2d_2">
     <path d="M 49.97888 214.208212 
L 47.709449 216.165518 
" style="fill: none; stroke: #000000; stroke-width: 0.8; stroke-linecap: square"/>
    </g>
    <g id="text_2">
     <!-- −400 -->
     <g transform="translate(27.973796 238.257889)scale(0.1 -0.1)">
      <defs>
       <path id="DejaVuSans-2212" d="M 678 2272 
L 4684 2272 
L 4684 1741 
L 678 1741 
L 678 2272 
z
" transform="scale(0.015625)"/>
       <path id="DejaVuSans-34" d="M 2419 4116 
L 825 1625 
L 2419 1625 
L 2419 4116 
z
M 2253 4666 
L 3047 4666 
L 3047 1625 
L 3713 1625 
L 3713 1100 
L 3047 1100 
L 3047 0 
L 2419 0 
L 2419 1100 
L 313 1100 
L 313 1709 
L 2253 4666 
z
" transform="scale(0.015625)"/>
       <path id="DejaVuSans-30" d="M 2034 4250 
Q 1547 4250 1301 3770 
Q 1056 3291 1056 2328 
Q 1056 1369 1301 889 
Q 1547 409 2034 409 
Q 2525 409 2770 889 
Q 3016 1369 3016 2328 
Q 3016 3291 2770 3770 
Q 2525 4250 2034 4250 
z
M 2034 4750 
Q 2819 4750 3233 4129 
Q 3647 3509 3647 2328 
Q 3647 1150 3233 529 
Q 2819 -91 2034 -91 
Q 1250 -91 836 529 
Q 422 1150 422 2328 
Q 422 3509 836 4129 
Q 1250 4750 2034 4750 
z
" transform="scale(0.015625)"/>
      </defs>
      <use xlink:href="#DejaVuSans-2212"/>
      <use xlink:href="#DejaVuSans-34" x="83.789062"/>
      <use xlink:href="#DejaVuSans-30" x="147.412109"/>
      <use xlink:href="#DejaVuSans-30" x="211.035156"/>
     </g>
    </g>
   </g>
   <g id="xtick_2">
    <g id="line2d_3">
     <path d="M 75.157537 222.423435 
L 72.922295 224.416356 
" style="fill: none; stroke: #000000; stroke-width: 0.8; stroke-linecap: square"/>
    </g>
    <g id="text_3">
     <!-- −200 -->
     <g transform="translate(53.190467 246.65955)scale(0.1 -0.1)">
      <defs>
       <path id="DejaVuSans-32" d="M 1228 531 
L 3431 531 
L 3431 0 
L 469 0 
L 469 531 
Q 828 903 1448 1529 
Q 2069 2156 2228 2338 
Q 2531 2678 2651 2914 
Q 2772 3150 2772 3378 
Q 2772 3750 2511 3984 
Q 2250 4219 1831 4219 
Q 1534 4219 1204 4116 
Q 875 4013 500 3803 
L 500 4441 
Q 881 4594 1212 4672 
Q 1544 4750 1819 4750 
Q 2544 4750 2975 4387 
Q 3406 4025 3406 3419 
Q 3406 3131 3298 2873 
Q 3191 2616 2906 2266 
Q 2828 2175 2409 1742 
Q 1991 1309 1228 531 
z
" transform="scale(0.015625)"/>
      </defs>
      <use xlink:href="#DejaVuSans-2212"/>
      <use xlink:href="#DejaVuSans-32" x="83.789062"/>
      <use xlink:href="#DejaVuSans-30" x="147.412109"/>
      <use xlink:href="#DejaVuSans-30" x="211.035156"/>
     </g>
    </g>
   </g>
   <g id="xtick_3">
    <g id="line2d_4">
     <path d="M 100.79595 230.788666 
L 98.596531 232.818184 
" style="fill: none; stroke: #000000; stroke-width: 0.8; stroke-linecap: square"/>
    </g>
    <g id="text_4">
     <!-- 0 -->
     <g transform="translate(89.42202 255.215318)scale(0.1 -0.1)">
      <use xlink:href="#DejaVuSans-30"/>
     </g>
    </g>
   </g>
   <g id="xtick_4">
    <g id="line2d_5">
     <path d="M 126.906826 239.308051 
L 124.74494 241.375183 
" style="fill: none; stroke: #000000; stroke-width: 0.8; stroke-linecap: square"/>
    </g>
    <g id="text_5">
     <!-- 200 -->
     <g transform="translate(109.214112 263.929474)scale(0.1 -0.1)">
      <use xlink:href="#DejaVuSans-32"/>
      <use xlink:href="#DejaVuSans-30" x="63.623047"/>
      <use xlink:href="#DejaVuSans-30" x="127.246094"/>
     </g>
    </g>
   </g>
   <g id="xtick_5">
    <g id="line2d_6">
     <path d="M 153.503348 247.985891 
L 151.38078 250.091692 
" style="fill: none; stroke: #000000; stroke-width: 0.8; stroke-linecap: square"/>
    </g>
    <g id="text_6">
     <!-- 400 -->
     <g transform="translate(135.85741 272.806456)scale(0.1 -0.1)">
      <use xlink:href="#DejaVuSans-34"/>
      <use xlink:href="#DejaVuSans-30" x="63.623047"/>
      <use xlink:href="#DejaVuSans-30" x="127.246094"/>
     </g>
    </g>
   </g>
  </g>
  <g id="axis3d_2">
   <g id="line2d_7">
    <path d="M 256.186401 175.022766 
L 176.775269 256.518123 
" style="fill: none; stroke: #000000; stroke-width: 0.8; stroke-linecap: square"/>
   </g>
   <g id="text_7">
    <!-- Bending Moment $M_y$ -->
    <g transform="translate(211.422375 279.87502)rotate(-45.742112)scale(0.1 -0.1)">
     <defs>
      <path id="DejaVuSans-Oblique-79" d="M 1588 -325 
Q 1188 -997 936 -1164 
Q 684 -1331 294 -1331 
L -159 -1331 
L -63 -850 
L 269 -850 
Q 509 -850 678 -719 
Q 847 -588 1056 -206 
L 1234 128 
L 459 3500 
L 1069 3500 
L 1650 819 
L 3256 3500 
L 3859 3500 
L 1588 -325 
z
" transform="scale(0.015625)"/>
     </defs>
     <use xlink:href="#DejaVuSans-42" transform="translate(0 0.015625)"/>
     <use xlink:href="#DejaVuSans-65" transform="translate(68.603516 0.015625)"/>
     <use xlink:href="#DejaVuSans-6e" transform="translate(130.126953 0.015625)"/>
     <use xlink:href="#DejaVuSans-64" transform="translate(193.505859 0.015625)"/>
     <use xlink:href="#DejaVuSans-69" transform="translate(256.982422 0.015625)"/>
     <use xlink:href="#DejaVuSans-6e" transform="translate(284.765625 0.015625)"/>
     <use xlink:href="#DejaVuSans-67" transform="translate(348.144531 0.015625)"/>
     <use xlink:href="#DejaVuSans-20" transform="translate(411.621094 0.015625)"/>
     <use xlink:href="#DejaVuSans-4d" transform="translate(443.408203 0.015625)"/>
     <use xlink:href="#DejaVuSans-6f" transform="translate(529.6875 0.015625)"/>
     <use xlink:href="#DejaVuSans-6d" transform="translate(590.869141 0.015625)"/>
     <use xlink:href="#DejaVuSans-65" transform="translate(688.28125 0.015625)"/>
     <use xlink:href="#DejaVuSans-6e" transform="translate(749.804688 0.015625)"/>
     <use xlink:href="#DejaVuSans-74" transform="translate(813.183594 0.015625)"/>
     <use xlink:href="#DejaVuSans-20" transform="translate(852.392578 0.015625)"/>
     <use xlink:href="#DejaVuSans-Oblique-4d" transform="translate(884.179688 0.015625)"/>
     <use xlink:href="#DejaVuSans-Oblique-79" transform="translate(970.458984 -16.390625)scale(0.7)"/>
    </g>
   </g>
   <g id="Line3DCollection_2">
    <path d="M 30.531733 88.677254 
L 35.534638 200.789249 
L 184.252354 248.844794 
" style="fill: none; stroke: #b0b0b0; stroke-width: 0.8"/>
    <path d="M 44.003633 78.846075 
L 48.358809 190.039774 
L 195.874948 236.917153 
" style="fill: none; stroke: #b0b0b0; stroke-width: 0.8"/>
    <path d="M 57.141218 69.258864 
L 60.878455 179.545559 
L 207.207094 225.287583 
" style="fill: none; stroke: #b0b0b0; stroke-width: 0.8"/>
    <path d="M 69.956779 59.906651 
L 73.104295 169.297617 
L 218.259547 213.945048 
" style="fill: none; stroke: #b0b0b0; stroke-width: 0.8"/>
    <path d="M 82.462014 50.7809 
L 85.046552 159.28738 
L 229.042534 202.879051 
" style="fill: none; stroke: #b0b0b0; stroke-width: 0.8"/>
    <path d="M 94.668059 41.873485 
L 96.71498 149.506673 
L 239.565791 192.0796 
" style="fill: none; stroke: #b0b0b0; stroke-width: 0.8"/>
    <path d="M 106.585525 33.176661 
L 108.11889 139.947689 
L 249.838592 181.53718 
" style="fill: none; stroke: #b0b0b0; stroke-width: 0.8"/>
   </g>
   <g id="xtick_6">
    <g id="line2d_8">
     <path d="M 182.999242 248.439872 
L 186.761812 249.655681 
" style="fill: none; stroke: #000000; stroke-width: 0.8; stroke-linecap: square"/>
    </g>
    <g id="text_8">
     <!-- −750 -->
     <g transform="translate(183.372823 269.836383)scale(0.1 -0.1)">
      <defs>
       <path id="DejaVuSans-37" d="M 525 4666 
L 3525 4666 
L 3525 4397 
L 1831 0 
L 1172 0 
L 2766 4134 
L 525 4134 
L 525 4666 
z
" transform="scale(0.015625)"/>
       <path id="DejaVuSans-35" d="M 691 4666 
L 3169 4666 
L 3169 4134 
L 1269 4134 
L 1269 2991 
Q 1406 3038 1543 3061 
Q 1681 3084 1819 3084 
Q 2600 3084 3056 2656 
Q 3513 2228 3513 1497 
Q 3513 744 3044 326 
Q 2575 -91 1722 -91 
Q 1428 -91 1123 -41 
Q 819 9 494 109 
L 494 744 
Q 775 591 1075 516 
Q 1375 441 1709 441 
Q 2250 441 2565 725 
Q 2881 1009 2881 1497 
Q 2881 1984 2565 2268 
Q 2250 2553 1709 2553 
Q 1456 2553 1204 2497 
Q 953 2441 691 2322 
L 691 4666 
z
" transform="scale(0.015625)"/>
      </defs>
      <use xlink:href="#DejaVuSans-2212"/>
      <use xlink:href="#DejaVuSans-37" x="83.789062"/>
      <use xlink:href="#DejaVuSans-35" x="147.412109"/>
      <use xlink:href="#DejaVuSans-30" x="211.035156"/>
     </g>
    </g>
   </g>
   <g id="xtick_7">
    <g id="line2d_9">
     <path d="M 194.632756 236.522412 
L 198.362498 237.707642 
" style="fill: none; stroke: #000000; stroke-width: 0.8; stroke-linecap: square"/>
    </g>
    <g id="text_9">
     <!-- −500 -->
     <g transform="translate(194.839534 257.732142)scale(0.1 -0.1)">
      <use xlink:href="#DejaVuSans-2212"/>
      <use xlink:href="#DejaVuSans-35" x="83.789062"/>
      <use xlink:href="#DejaVuSans-30" x="147.412109"/>
      <use xlink:href="#DejaVuSans-30" x="211.035156"/>
     </g>
    </g>
   </g>
   <g id="xtick_8">
    <g id="line2d_10">
     <path d="M 205.975671 224.902643 
L 209.67304 226.058433 
" style="fill: none; stroke: #000000; stroke-width: 0.8; stroke-linecap: square"/>
    </g>
    <g id="text_10">
     <!-- −250 -->
     <g transform="translate(206.019527 245.930561)scale(0.1 -0.1)">
      <use xlink:href="#DejaVuSans-2212"/>
      <use xlink:href="#DejaVuSans-32" x="83.789062"/>
      <use xlink:href="#DejaVuSans-35" x="147.412109"/>
      <use xlink:href="#DejaVuSans-30" x="211.035156"/>
     </g>
    </g>
   </g>
   <g id="xtick_9">
    <g id="line2d_11">
     <path d="M 217.038742 213.569548 
L 220.704191 214.696982 
" style="fill: none; stroke: #000000; stroke-width: 0.8; stroke-linecap: square"/>
    </g>
    <g id="text_11">
     <!-- 0 -->
     <g transform="translate(227.475766 234.420429)scale(0.1 -0.1)">
      <use xlink:href="#DejaVuSans-30"/>
     </g>
    </g>
   </g>
   <g id="xtick_10">
    <g id="line2d_12">
     <path d="M 227.832198 202.512648 
L 231.466176 203.612756 
" style="fill: none; stroke: #000000; stroke-width: 0.8; stroke-linecap: square"/>
    </g>
    <g id="text_12">
     <!-- 250 -->
     <g transform="translate(231.751166 223.191079)scale(0.1 -0.1)">
      <use xlink:href="#DejaVuSans-32"/>
      <use xlink:href="#DejaVuSans-35" x="63.623047"/>
      <use xlink:href="#DejaVuSans-30" x="127.246094"/>
     </g>
    </g>
   </g>
   <g id="xtick_11">
    <g id="line2d_13">
     <path d="M 238.365778 191.721968 
L 241.968727 192.795732 
" style="fill: none; stroke: #000000; stroke-width: 0.8; stroke-linecap: square"/>
    </g>
    <g id="text_13">
     <!-- 500 -->
     <g transform="translate(242.132688 212.232363)scale(0.1 -0.1)">
      <use xlink:href="#DejaVuSans-35"/>
      <use xlink:href="#DejaVuSans-30" x="63.623047"/>
      <use xlink:href="#DejaVuSans-30" x="127.246094"/>
     </g>
    </g>
   </g>
   <g id="xtick_12">
    <g id="line2d_14">
     <path d="M 248.648756 181.188007 
L 252.221114 182.236362 
" style="fill: none; stroke: #000000; stroke-width: 0.8; stroke-linecap: square"/>
    </g>
    <g id="text_14">
     <!-- 750 -->
     <g transform="translate(252.266989 201.534612)scale(0.1 -0.1)">
      <use xlink:href="#DejaVuSans-37"/>
      <use xlink:href="#DejaVuSans-35" x="63.623047"/>
      <use xlink:href="#DejaVuSans-30" x="127.246094"/>
     </g>
    </g>
   </g>
  </g>
  <g id="axis3d_3">
   <g id="line2d_15">
    <path d="M 256.186401 175.022766 
L 261.218702 65.130171 
" style="fill: none; stroke: #000000; stroke-width: 0.8; stroke-linecap: square"/>
   </g>
   <g id="text_15">
    <!-- Axial Force $N$ -->
    <g transform="translate(300.270132 148.962585)rotate(-87.378092)scale(0.1 -0.1)">
     <defs>
      <path id="DejaVuSans-41" d="M 2188 4044 
L 1331 1722 
L 3047 1722 
L 2188 4044 
z
M 1831 4666 
L 2547 4666 
L 4325 0 
L 3669 0 
L 3244 1197 
L 1141 1197 
L 716 0 
L 50 0 
L 1831 4666 
z
" transform="scale(0.015625)"/>
      <path id="DejaVuSans-78" d="M 3513 3500 
L 2247 1797 
L 3578 0 
L 2900 0 
L 1881 1375 
L 863 0 
L 184 0 
L 1544 1831 
L 300 3500 
L 978 3500 
L 1906 2253 
L 2834 3500 
L 3513 3500 
z
" transform="scale(0.015625)"/>
      <path id="DejaVuSans-61" d="M 2194 1759 
Q 1497 1759 1228 1600 
Q 959 1441 959 1056 
Q 959 750 1161 570 
Q 1363 391 1709 391 
Q 2188 391 2477 730 
Q 2766 1069 2766 1631 
L 2766 1759 
L 2194 1759 
z
M 3341 1997 
L 3341 0 
L 2766 0 
L 2766 531 
Q 2569 213 2275 61 
Q 1981 -91 1556 -91 
Q 1019 -91 701 211 
Q 384 513 384 1019 
Q 384 1609 779 1909 
Q 1175 2209 1959 2209 
L 2766 2209 
L 2766 2266 
Q 2766 2663 2505 2880 
Q 2244 3097 1772 3097 
Q 1472 3097 1187 3025 
Q 903 2953 641 2809 
L 641 3341 
Q 956 3463 1253 3523 
Q 1550 3584 1831 3584 
Q 2591 3584 2966 3190 
Q 3341 2797 3341 1997 
z
" transform="scale(0.015625)"/>
      <path id="DejaVuSans-6c" d="M 603 4863 
L 1178 4863 
L 1178 0 
L 603 0 
L 603 4863 
z
" transform="scale(0.015625)"/>
      <path id="DejaVuSans-46" d="M 628 4666 
L 3309 4666 
L 3309 4134 
L 1259 4134 
L 1259 2759 
L 3109 2759 
L 3109 2228 
L 1259 2228 
L 1259 0 
L 628 0 
L 628 4666 
z
" transform="scale(0.015625)"/>
      <path id="DejaVuSans-72" d="M 2631 2963 
Q 2534 3019 2420 3045 
Q 2306 3072 2169 3072 
Q 1681 3072 1420 2755 
Q 1159 2438 1159 1844 
L 1159 0 
L 581 0 
L 581 3500 
L 1159 3500 
L 1159 2956 
Q 1341 3275 1631 3429 
Q 1922 3584 2338 3584 
Q 2397 3584 2469 3576 
Q 2541 3569 2628 3553 
L 2631 2963 
z
" transform="scale(0.015625)"/>
      <path id="DejaVuSans-63" d="M 3122 3366 
L 3122 2828 
Q 2878 2963 2633 3030 
Q 2388 3097 2138 3097 
Q 1578 3097 1268 2742 
Q 959 2388 959 1747 
Q 959 1106 1268 751 
Q 1578 397 2138 397 
Q 2388 397 2633 464 
Q 2878 531 3122 666 
L 3122 134 
Q 2881 22 2623 -34 
Q 2366 -91 2075 -91 
Q 1284 -91 818 406 
Q 353 903 353 1747 
Q 353 2603 823 3093 
Q 1294 3584 2113 3584 
Q 2378 3584 2631 3529 
Q 2884 3475 3122 3366 
z
" transform="scale(0.015625)"/>
      <path id="DejaVuSans-Oblique-4e" d="M 1081 4666 
L 1931 4666 
L 3219 666 
L 4000 4666 
L 4616 4666 
L 3706 0 
L 2853 0 
L 1569 4025 
L 788 0 
L 172 0 
L 1081 4666 
z
" transform="scale(0.015625)"/>
     </defs>
     <use xlink:href="#DejaVuSans-41" transform="translate(0 0.015625)"/>
     <use xlink:href="#DejaVuSans-78" transform="translate(68.408203 0.015625)"/>
     <use xlink:href="#DejaVuSans-69" transform="translate(127.587891 0.015625)"/>
     <use xlink:href="#DejaVuSans-61" transform="translate(155.371094 0.015625)"/>
     <use xlink:href="#DejaVuSans-6c" transform="translate(216.650391 0.015625)"/>
     <use xlink:href="#DejaVuSans-20" transform="translate(244.433594 0.015625)"/>
     <use xlink:href="#DejaVuSans-46" transform="translate(276.220703 0.015625)"/>
     <use xlink:href="#DejaVuSans-6f" transform="translate(333.740234 0.015625)"/>
     <use xlink:href="#DejaVuSans-72" transform="translate(394.921875 0.015625)"/>
     <use xlink:href="#DejaVuSans-63" transform="translate(436.035156 0.015625)"/>
     <use xlink:href="#DejaVuSans-65" transform="translate(491.015625 0.015625)"/>
     <use xlink:href="#DejaVuSans-20" transform="translate(552.539062 0.015625)"/>
     <use xlink:href="#DejaVuSans-Oblique-4e" transform="translate(584.326172 0.015625)"/>
    </g>
   </g>
   <g id="Line3DCollection_3">
    <path d="M 256.282814 172.917346 
L 115.148711 131.99596 
L 27.189487 205.541739 
" style="fill: none; stroke: #b0b0b0; stroke-width: 0.8"/>
    <path d="M 257.022861 156.7566 
L 114.968754 116.346434 
L 26.392482 188.991424 
" style="fill: none; stroke: #b0b0b0; stroke-width: 0.8"/>
    <path d="M 257.772716 140.381696 
L 114.786527 100.499439 
L 25.584513 172.213419 
" style="fill: none; stroke: #b0b0b0; stroke-width: 0.8"/>
    <path d="M 258.532573 123.788349 
L 114.601985 84.451214 
L 24.765351 155.202994 
" style="fill: none; stroke: #b0b0b0; stroke-width: 0.8"/>
    <path d="M 259.302635 106.972158 
L 114.415085 68.197902 
L 23.934763 137.955286 
" style="fill: none; stroke: #b0b0b0; stroke-width: 0.8"/>
    <path d="M 260.083109 89.928604 
L 114.225781 51.735546 
L 23.092507 120.465294 
" style="fill: none; stroke: #b0b0b0; stroke-width: 0.8"/>
    <path d="M 260.874207 72.653044 
L 114.034026 35.060087 
L 22.238335 102.727877 
" style="fill: none; stroke: #b0b0b0; stroke-width: 0.8"/>
   </g>
   <g id="xtick_13">
    <g id="line2d_16">
     <path d="M 255.098262 172.573889 
L 258.654736 173.605077 
" style="fill: none; stroke: #000000; stroke-width: 0.8; stroke-linecap: square"/>
    </g>
    <g id="text_16">
     <!-- 0 -->
     <g transform="translate(271.365529 177.914875)scale(0.1 -0.1)">
      <use xlink:href="#DejaVuSans-30"/>
     </g>
    </g>
   </g>
   <g id="xtick_14">
    <g id="line2d_17">
     <path d="M 255.830221 156.417329 
L 259.411 157.435954 
" style="fill: none; stroke: #000000; stroke-width: 0.8; stroke-linecap: square"/>
    </g>
    <g id="text_17">
     <!-- 1000 -->
     <g transform="translate(262.679446 161.785874)scale(0.1 -0.1)">
      <defs>
       <path id="DejaVuSans-31" d="M 794 531 
L 1825 531 
L 1825 4091 
L 703 3866 
L 703 4441 
L 1819 4666 
L 2450 4666 
L 2450 531 
L 3481 531 
L 3481 0 
L 794 0 
L 794 531 
z
" transform="scale(0.015625)"/>
      </defs>
      <use xlink:href="#DejaVuSans-31"/>
      <use xlink:href="#DejaVuSans-30" x="63.623047"/>
      <use xlink:href="#DejaVuSans-30" x="127.246094"/>
      <use xlink:href="#DejaVuSans-30" x="190.869141"/>
     </g>
    </g>
   </g>
   <g id="xtick_15">
    <g id="line2d_18">
     <path d="M 256.571875 140.046753 
L 260.177294 141.05239 
" style="fill: none; stroke: #000000; stroke-width: 0.8; stroke-linecap: square"/>
    </g>
    <g id="text_18">
     <!-- 2000 -->
     <g transform="translate(263.548444 145.443785)scale(0.1 -0.1)">
      <use xlink:href="#DejaVuSans-32"/>
      <use xlink:href="#DejaVuSans-30" x="63.623047"/>
      <use xlink:href="#DejaVuSans-30" x="127.246094"/>
      <use xlink:href="#DejaVuSans-30" x="190.869141"/>
     </g>
    </g>
   </g>
   <g id="xtick_16">
    <g id="line2d_19">
     <path d="M 257.323419 123.457879 
L 260.953818 124.45009 
" style="fill: none; stroke: #000000; stroke-width: 0.8; stroke-linecap: square"/>
    </g>
    <g id="text_19">
     <!-- 3000 -->
     <g transform="translate(264.429 128.884359)scale(0.1 -0.1)">
      <defs>
       <path id="DejaVuSans-33" d="M 2597 2516 
Q 3050 2419 3304 2112 
Q 3559 1806 3559 1356 
Q 3559 666 3084 287 
Q 2609 -91 1734 -91 
Q 1441 -91 1130 -33 
Q 819 25 488 141 
L 488 750 
Q 750 597 1062 519 
Q 1375 441 1716 441 
Q 2309 441 2620 675 
Q 2931 909 2931 1356 
Q 2931 1769 2642 2001 
Q 2353 2234 1838 2234 
L 1294 2234 
L 1294 2753 
L 1863 2753 
Q 2328 2753 2575 2939 
Q 2822 3125 2822 3475 
Q 2822 3834 2567 4026 
Q 2313 4219 1838 4219 
Q 1578 4219 1281 4162 
Q 984 4106 628 3988 
L 628 4550 
Q 988 4650 1302 4700 
Q 1616 4750 1894 4750 
Q 2613 4750 3031 4423 
Q 3450 4097 3450 3541 
Q 3450 3153 3228 2886 
Q 3006 2619 2597 2516 
z
" transform="scale(0.015625)"/>
      </defs>
      <use xlink:href="#DejaVuSans-33"/>
      <use xlink:href="#DejaVuSans-30" x="63.623047"/>
      <use xlink:href="#DejaVuSans-30" x="127.246094"/>
      <use xlink:href="#DejaVuSans-30" x="190.869141"/>
     </g>
    </g>
   </g>
   <g id="xtick_17">
    <g id="line2d_20">
     <path d="M 258.085052 106.646313 
L 261.740779 107.624644 
" style="fill: none; stroke: #000000; stroke-width: 0.8; stroke-linecap: square"/>
    </g>
    <g id="text_20">
     <!-- 4000 -->
     <g transform="translate(265.321344 112.103229)scale(0.1 -0.1)">
      <use xlink:href="#DejaVuSans-34"/>
      <use xlink:href="#DejaVuSans-30" x="63.623047"/>
      <use xlink:href="#DejaVuSans-30" x="127.246094"/>
      <use xlink:href="#DejaVuSans-30" x="190.869141"/>
     </g>
    </g>
   </g>
   <g id="xtick_18">
    <g id="line2d_21">
     <path d="M 258.856978 89.607539 
L 262.538389 90.571524 
" style="fill: none; stroke: #000000; stroke-width: 0.8; stroke-linecap: square"/>
    </g>
    <g id="text_21">
     <!-- 5000 -->
     <g transform="translate(266.225716 95.095914)scale(0.1 -0.1)">
      <use xlink:href="#DejaVuSans-35"/>
      <use xlink:href="#DejaVuSans-30" x="63.623047"/>
      <use xlink:href="#DejaVuSans-30" x="127.246094"/>
      <use xlink:href="#DejaVuSans-30" x="190.869141"/>
     </g>
    </g>
   </g>
   <g id="xtick_19">
    <g id="line2d_22">
     <path d="M 259.639408 72.33692 
L 263.346865 73.286076 
" style="fill: none; stroke: #000000; stroke-width: 0.8; stroke-linecap: square"/>
    </g>
    <g id="text_22">
     <!-- 6000 -->
     <g transform="translate(267.14236 77.85781)scale(0.1 -0.1)">
      <defs>
       <path id="DejaVuSans-36" d="M 2113 2584 
Q 1688 2584 1439 2293 
Q 1191 2003 1191 1497 
Q 1191 994 1439 701 
Q 1688 409 2113 409 
Q 2538 409 2786 701 
Q 3034 994 3034 1497 
Q 3034 2003 2786 2293 
Q 2538 2584 2113 2584 
z
M 3366 4563 
L 3366 3988 
Q 3128 4100 2886 4159 
Q 2644 4219 2406 4219 
Q 1781 4219 1451 3797 
Q 1122 3375 1075 2522 
Q 1259 2794 1537 2939 
Q 1816 3084 2150 3084 
Q 2853 3084 3261 2657 
Q 3669 2231 3669 1497 
Q 3669 778 3244 343 
Q 2819 -91 2113 -91 
Q 1303 -91 875 529 
Q 447 1150 447 2328 
Q 447 3434 972 4092 
Q 1497 4750 2381 4750 
Q 2619 4750 2861 4703 
Q 3103 4656 3366 4563 
z
" transform="scale(0.015625)"/>
      </defs>
      <use xlink:href="#DejaVuSans-36"/>
      <use xlink:href="#DejaVuSans-30" x="63.623047"/>
      <use xlink:href="#DejaVuSans-30" x="127.246094"/>
      <use xlink:href="#DejaVuSans-30" x="190.869141"/>
     </g>
    </g>
   </g>
  </g>
  <g id="axes_1">
   <g id="line2d_23">
    <path d="M 94.601382 173.815951 
L 98.28841 172.106949 
L 101.147257 170.105639 
L 104.638928 168.264032 
L 108.217674 166.229562 
L 112.128981 163.923209 
L 116.974524 161.543364 
L 123.296256 159.474692 
L 131.27838 158.116631 
L 140.673445 157.525775 
L 151.163521 157.955983 
L 162.382754 159.154749 
L 173.688228 161.463158 
L 183.387244 165.342603 
L 191.317241 169.814463 
L 197.657762 174.407687 
L 201.73597 179.073072 
L 203.766083 183.514253 
L 203.680823 187.5664 
L 202.252295 191.093239 
L 200.435449 194.144151 
L 198.9007 196.90091 
L 197.647167 199.52129 
L 195.772267 201.921443 
L 194.848909 204.576253 
L 191.22108 206.415956 
L 188.459236 208.58924 
L 184.991325 210.607365 
L 181.418464 212.857478 
L 177.480351 215.434886 
L 172.507597 218.124529 
L 165.877753 220.487739 
L 157.369453 222.05211 
L 147.274244 222.735961 
L 135.988921 222.237847 
L 123.981042 220.855356 
L 112.036217 218.215714 
L 102.085092 213.84531 
L 94.238465 208.907154 
L 88.216128 203.942695 
L 84.646289 199.008433 
L 83.194098 194.409412 
L 83.838227 190.294247 
L 85.736985 186.773761 
L 87.929626 183.7732 
L 89.780229 181.096979 
L 91.317874 178.583418 
L 93.416665 176.306545 
L 94.601382 173.815951 
" clip-path="url(#p02598b788a)" style="fill: none; stroke: #1f77b4; stroke-width: 1.5; stroke-linecap: square"/>
   </g>
   <g id="line2d_24">
    <path d="M 88.642381 161.907224 
L 92.792821 160.020064 
L 97.884433 158.625924 
L 102.287289 157.00232 
L 105.906738 154.761456 
L 109.877217 152.182615 
L 115.003647 149.600018 
L 121.760501 147.365232 
L 130.200176 145.586524 
L 140.399312 144.937233 
L 151.860597 145.120561 
L 164.108927 146.48273 
L 176.697401 148.767656 
L 187.099259 153.151012 
L 195.911703 157.93091 
L 202.398169 163.034864 
L 206.832393 168.052731 
L 208.378152 172.887901 
L 208.211515 177.202849 
L 206.53859 180.947606 
L 204.232038 184.151846 
L 202.318469 187.019841 
L 201.908358 189.949805 
L 202.277156 193.101611 
L 201.26545 196.062542 
L 197.189297 198.112577 
L 192.031374 199.638981 
L 187.587295 201.429558 
L 183.995829 203.924034 
L 180.021526 206.828503 
L 174.758757 209.774074 
L 167.650451 212.353271 
L 158.623633 214.426538 
L 147.594094 215.187919 
L 135.176819 214.972693 
L 121.982645 213.379637 
L 108.591395 210.731399 
L 97.92006 205.733551 
L 89.196561 200.403757 
L 83.132488 194.846359 
L 79.303679 189.512622 
L 78.462245 184.49072 
L 79.278379 180.103446 
L 81.493953 176.365898 
L 84.224107 173.218134 
L 86.486294 170.439168 
L 87.261617 167.636938 
L 87.300399 164.663214 
L 88.642381 161.907224 
" clip-path="url(#p02598b788a)" style="fill: none; stroke: #ff7f0e; stroke-width: 1.5; stroke-linecap: square"/>
   </g>
   <g id="line2d_25">
    <path d="M 83.654226 150.246879 
L 89.986204 148.865009 
L 96.236557 147.790018 
L 100.892236 146.177073 
L 104.69661 143.927981 
L 108.78412 141.291125 
L 114.005488 138.587451 
L 120.867877 136.123339 
L 129.625939 134.240606 
L 140.226975 133.31054 
L 152.282834 133.40759 
L 165.286212 134.653081 
L 178.818402 136.851402 
L 189.63381 141.61279 
L 198.700634 146.71578 
L 205.386614 152.068283 
L 209.555476 157.361391 
L 211.067765 162.354549 
L 210.513841 166.804415 
L 208.626302 170.631453 
L 206.226528 173.901598 
L 204.352434 176.843659 
L 204.068915 179.866624 
L 205.620199 183.382537 
L 206.679264 187.113596 
L 200.259451 188.623869 
L 193.844758 189.805777 
L 189.134553 191.590799 
L 185.352742 194.103474 
L 181.262976 197.084977 
L 175.907259 200.18271 
L 168.689569 203.042541 
L 159.298244 205.251552 
L 147.797358 206.350548 
L 134.679157 206.235629 
L 120.604073 204.765804 
L 106.135306 202.193885 
L 95.050598 196.719187 
L 86.114322 190.993057 
L 79.911924 185.138321 
L 76.440221 179.49526 
L 75.698595 174.300781 
L 76.960418 169.773262 
L 79.428413 165.953803 
L 82.279783 162.743177 
L 84.529463 159.895481 
L 85.210706 157.008909 
L 84.174037 153.700834 
L 83.654226 150.246879 
" clip-path="url(#p02598b788a)" style="fill: none; stroke: #2ca02c; stroke-width: 1.5; stroke-linecap: square"/>
   </g>
   <g id="line2d_26">
    <path d="M 81.088727 139.25358 
L 90.361156 138.781491 
L 96.298248 137.612218 
L 100.618795 135.853576 
L 104.367079 133.568259 
L 108.43626 130.901352 
L 113.64087 128.136579 
L 120.614262 125.710162 
L 129.54285 124.004414 
L 140.201552 123.039759 
L 152.386201 122.955478 
L 165.752726 123.88517 
L 179.518938 126.157842 
L 190.638806 130.905216 
L 199.384074 136.259251 
L 205.827995 141.697459 
L 209.950001 146.976507 
L 211.833153 151.907204 
L 211.35616 156.351347 
L 209.291643 160.174279 
L 206.770414 163.429349 
L 204.751672 166.343154 
L 203.987928 169.258297 
L 205.172757 172.638938 
L 209.478977 177.261604 
L 199.848418 177.778352 
L 193.776758 179.063414 
L 189.438464 181.010221 
L 185.723115 183.565533 
L 181.659132 186.584537 
L 176.328214 189.757242 
L 168.985995 192.578382 
L 159.396244 194.582522 
L 147.827487 195.723668 
L 134.556656 195.823636 
L 120.054244 194.723278 
L 105.318938 192.055261 
L 93.906992 186.580133 
L 85.356484 180.559639 
L 79.435223 174.60558 
L 76.024846 168.975051 
L 74.911574 163.843935 
L 76.112241 159.321322 
L 78.77029 155.506007 
L 81.749855 152.310717 
L 84.145665 149.49105 
L 85.287513 146.707694 
L 84.591814 143.526003 
L 81.088727 139.25358 
" clip-path="url(#p02598b788a)" style="fill: none; stroke: #d62728; stroke-width: 1.5; stroke-linecap: square"/>
   </g>
   <g id="line2d_27">
    <path d="M 83.597239 129.675231 
L 91.871867 129.00699 
L 97.165803 127.685117 
L 101.141116 125.846162 
L 104.807159 123.59397 
L 108.784809 120.954748 
L 114.045831 118.355562 
L 121.030614 116.13447 
L 129.794759 114.469582 
L 140.272756 113.598936 
L 152.197137 113.60858 
L 165.219767 114.579559 
L 179.003225 116.460513 
L 189.490699 121.349411 
L 198.134229 126.464111 
L 204.59211 131.673241 
L 208.75428 136.763126 
L 210.576922 141.546976 
L 210.420686 145.848237 
L 208.624984 149.580011 
L 206.044142 152.754548 
L 203.989218 155.59086 
L 202.849865 158.361605 
L 203.37256 161.484675 
L 206.741341 165.678975 
L 198.195066 166.408134 
L 192.821412 167.85767 
L 188.858122 169.890199 
L 185.228575 172.405122 
L 181.262191 175.388793 
L 175.86073 178.366506 
L 168.49964 180.942561 
L 159.099431 182.892876 
L 147.743195 183.919469 
L 134.780517 183.908071 
L 120.68222 182.763527 
L 105.920172 180.562573 
L 95.213176 174.940084 
L 86.74163 169.205116 
L 80.769332 163.513178 
L 77.283359 158.091232 
L 76.203179 153.116586 
L 77.054216 148.740731 
L 79.429716 145.016365 
L 82.457516 141.899489 
L 84.878717 139.153727 
L 86.367416 136.506283 
L 86.274731 133.562647 
L 83.597239 129.675231 
" clip-path="url(#p02598b788a)" style="fill: none; stroke: #9467bd; stroke-width: 1.5; stroke-linecap: square"/>
   </g>
   <g id="line2d_28">
    <path d="M 86.395369 120.07356 
L 93.711384 119.24492 
L 98.504391 117.855913 
L 102.182467 116.001409 
L 105.640577 113.76086 
L 109.596199 111.257247 
L 114.792902 108.805328 
L 121.641542 106.71975 
L 130.213377 105.217441 
L 140.389331 104.476199 
L 151.902493 104.576499 
L 164.399612 105.600684 
L 177.409511 107.598328 
L 187.724851 112.036313 
L 196.18823 116.832515 
L 202.571068 121.751688 
L 206.76986 126.581967 
L 208.73621 131.143972 
L 208.697179 135.271289 
L 207.074872 138.86492 
L 204.670337 141.934253 
L 202.471132 144.647007 
L 201.096994 147.264845 
L 201.186119 150.1584 
L 203.699367 153.936308 
L 196.18775 154.837207 
L 191.350768 156.355785 
L 187.703366 158.39995 
L 184.293845 160.895419 
L 180.340191 163.717817 
L 175.000772 166.517296 
L 167.788557 168.926548 
L 158.608178 170.678234 
L 147.605819 171.54758 
L 135.127634 171.429749 
L 121.643448 170.230072 
L 107.769387 167.908445 
L 97.213746 162.835674 
L 88.891687 157.481476 
L 82.946492 152.123268 
L 79.369363 146.988491 
L 78.094508 142.250069 
L 78.789463 138.053154 
L 80.963297 134.466511 
L 83.796695 131.451685 
L 86.339332 128.823508 
L 88.032801 126.319036 
L 88.323204 123.586371 
L 86.395369 120.07356 
" clip-path="url(#p02598b788a)" style="fill: none; stroke: #8c564b; stroke-width: 1.5; stroke-linecap: square"/>
   </g>
   <g id="line2d_29">
    <path d="M 89.576156 110.470458 
L 96.139103 109.578472 
L 100.51188 108.19677 
L 103.908786 106.389335 
L 107.127486 104.212468 
L 110.976347 101.871868 
L 116.009831 99.592788 
L 122.59478 97.651106 
L 130.82257 96.286096 
L 140.551626 95.657064 
L 151.504209 95.833939 
L 163.342428 96.855488 
L 175.487817 98.892702 
L 185.450338 102.890721 
L 193.561209 107.347293 
L 199.762292 111.924473 
L 203.887853 116.444136 
L 205.870294 120.732057 
L 205.895951 124.6248 
L 204.443955 128.022244 
L 202.224503 130.933145 
L 199.960398 133.482561 
L 198.475219 135.924851 
L 198.309864 138.59204 
L 200.256328 142.00851 
L 193.548426 142.974004 
L 189.152939 144.478243 
L 185.795689 146.462048 
L 182.632079 148.87586 
L 178.778417 151.501615 
L 173.606747 154.089151 
L 166.6851 156.318007 
L 157.897681 157.898528 
L 147.415855 158.6307 
L 135.59348 158.424579 
L 122.87336 157.237862 
L 109.98166 154.890173 
L 99.775683 150.354729 
L 91.781495 145.408329 
L 85.962983 140.443997 
L 82.39308 135.65342 
L 81.036359 131.207393 
L 81.609111 127.251933 
L 83.567066 123.860842 
L 86.182764 120.999562 
L 88.758151 118.526385 
L 90.528467 116.185299 
L 91.025465 113.659548 
L 89.576156 110.470458 
" clip-path="url(#p02598b788a)" style="fill: none; stroke: #e377c2; stroke-width: 1.5; stroke-linecap: square"/>
   </g>
   <g id="line2d_30">
    <path d="M 93.400069 100.933418 
L 99.418676 100.087487 
L 103.407315 98.783978 
L 106.494586 97.079612 
L 109.460149 95.044399 
L 113.075749 92.889487 
L 117.842162 90.834853 
L 124.039962 89.10557 
L 131.7198 87.87578 
L 140.778926 87.298016 
L 150.974373 87.471585 
L 161.976256 88.434372 
L 173.085263 90.459893 
L 182.513827 93.983824 
L 190.072657 98.063572 
L 195.838058 102.263496 
L 199.655679 106.413349 
L 201.53961 110.342993 
L 201.692682 113.913437 
L 200.455847 117.042892 
L 198.400811 119.727869 
L 196.213365 122.069341 
L 194.708544 124.297014 
L 194.441113 126.721491 
L 196.138027 129.822086 
L 190.000675 130.732606 
L 185.999145 132.14341 
L 182.953638 134.002426 
L 180.040221 136.243904 
L 176.418357 138.643228 
L 171.523479 140.956232 
L 165.026095 142.922435 
L 156.860633 144.33168 
L 147.152295 144.996931 
L 136.207269 144.796866 
L 124.447735 143.69044 
L 112.720938 141.381043 
L 103.058692 137.4214 
L 95.596659 132.927188 
L 90.159505 128.398409 
L 86.820899 124.018029 
L 85.47516 119.953937 
L 85.838488 116.330012 
L 87.516205 113.206046 
L 89.91785 110.563875 
L 92.375296 108.287883 
L 94.123956 106.146425 
L 94.673697 103.84184 
L 93.400069 100.933418 
" clip-path="url(#p02598b788a)" style="fill: none; stroke: #7f7f7f; stroke-width: 1.5; stroke-linecap: square"/>
   </g>
   <g id="line2d_31">
    <path d="M 98.194456 91.544432 
L 103.791012 90.839239 
L 107.438199 89.700185 
L 110.154313 88.156142 
L 112.798755 86.327448 
L 116.135342 84.459253 
L 120.490239 82.691246 
L 126.069489 81.175095 
L 132.958927 80.077998 
L 141.090321 79.544064 
L 150.262971 79.658604 
L 160.147942 80.539677 
L 170.075182 82.387171 
L 178.588882 85.475427 
L 185.399692 89.084514 
L 190.479986 92.83384 
L 193.83515 96.516395 
L 195.486711 99.991621 
L 195.648819 103.143815 
L 194.673542 105.912906 
L 192.956334 108.301747 
L 190.938051 110.374653 
L 189.493575 112.334627 
L 189.312983 114.494587 
L 191.006488 117.290071 
L 185.302126 118.043632 
L 181.640101 119.266649 
L 178.962485 120.936124 
L 176.36243 122.930872 
L 173.012229 124.98857 
L 168.545662 126.954676 
L 162.724178 128.655433 
L 155.446491 129.89469 
L 146.795866 130.500439 
L 137.020932 130.370348 
L 126.528635 129.372305 
L 116.111908 127.294678 
L 107.404067 123.866811 
L 100.667574 119.930725 
L 95.855879 115.919315 
L 92.886422 112.054169 
L 91.665841 108.472762 
L 91.916669 105.278357 
L 93.246689 102.513651 
L 95.246354 100.159111 
L 97.482594 98.138467 
L 99.121465 96.246833 
L 99.533571 94.183169 
L 98.194456 91.544432 
" clip-path="url(#p02598b788a)" style="fill: none; stroke: #bcbd22; stroke-width: 1.5; stroke-linecap: square"/>
   </g>
   <g id="line2d_32">
    <path d="M 104.281024 82.378787 
L 109.538927 81.910132 
L 112.869843 81.029315 
L 115.166623 79.72704 
L 117.462065 78.217001 
L 120.317808 76.665454 
L 124.047186 75.213681 
L 128.79986 73.975336 
L 134.621503 73.037692 
L 141.505965 72.539744 
L 149.319882 72.553619 
L 157.752363 73.292326 
L 166.211477 74.85369 
L 173.454643 77.459186 
L 179.224299 80.504802 
L 183.360398 83.698325 
L 186.069604 86.795851 
L 187.396325 89.696172 
L 187.587156 92.316706 
L 186.825823 94.624624 
L 185.40654 96.619422 
L 183.765664 98.35809 
L 182.518896 99.99268 
L 182.622614 101.854608 
L 184.542573 104.335942 
L 179.179198 104.832095 
L 175.823536 105.767891 
L 173.554861 107.159401 
L 171.287026 108.784898 
L 168.418911 110.46864 
L 164.605841 112.056709 
L 159.677664 113.421048 
L 153.581308 114.460113 
L 146.328282 115.014046 
L 138.081509 114.998591 
L 129.211011 114.17742 
L 120.399066 112.452399 
L 113.01577 109.605553 
L 107.300324 106.3272 
L 103.365813 102.945489 
L 100.935718 99.718738 
L 99.916215 96.743883 
L 100.018196 94.093801 
L 101.032947 91.788984 
L 102.655209 89.818462 
L 104.45454 88.117037 
L 105.84104 86.530941 
L 105.915534 84.739957 
L 104.281024 82.378787 
" clip-path="url(#p02598b788a)" style="fill: none; stroke: #17becf; stroke-width: 1.5; stroke-linecap: square"/>
   </g>
   <g id="line2d_33">
    <path d="M 112.469605 73.638235 
L 117.111244 73.424896 
L 119.937245 72.837312 
L 121.809383 71.892265 
L 123.620111 70.774507 
L 125.818782 69.608237 
L 128.666675 68.502748 
L 132.305535 67.560022 
L 136.775453 66.859815 
L 142.046611 66.424199 
L 148.076503 66.372846 
L 154.610039 66.909237 
L 161.249766 68.025421 
L 166.734527 70.103371 
L 171.116297 72.452035 
L 174.154412 74.914378 
L 176.083269 77.278933 
L 177.096329 79.46195 
L 177.212923 81.434981 
L 176.602592 83.169649 
L 175.53371 84.669484 
L 174.352681 85.985277 
L 173.53287 87.239763 
L 173.896178 88.711229 
L 175.934554 90.755435 
L 171.204766 90.978522 
L 168.352065 91.594254 
L 166.490619 92.58859 
L 164.692615 93.771087 
L 162.485515 95.01241 
L 159.589189 96.196182 
L 155.848348 97.211202 
L 151.218166 97.968428 
L 145.73364 98.440954 
L 139.449202 98.496731 
L 132.655711 97.914888 
L 125.79942 96.709474 
L 120.239388 94.484473 
L 115.892437 91.999025 
L 112.977775 89.426202 
L 111.215176 86.98668 
L 110.380076 84.761032 
L 110.4338 82.771057 
L 111.191466 81.038167 
L 112.378756 79.552278 
L 113.653767 78.258086 
L 114.559235 77.032263 
L 114.311253 75.604351 
L 112.469605 73.638235 
" clip-path="url(#p02598b788a)" style="fill: none; stroke: #1f77b4; stroke-width: 1.5; stroke-linecap: square"/>
   </g>
  </g>
 </g>
 <defs>
  <clipPath id="p02598b788a">
   <rect x="7.2" y="7.2" width="266.112" height="266.112"/>
  </clipPath>
 </defs>
</svg>
