<?xml version="1.0" encoding="utf-8" standalone="no"?>
<!DOCTYPE svg PUBLIC "-//W3C//DTD SVG 1.1//EN"
  "http://www.w3.org/Graphics/SVG/1.1/DTD/svg11.dtd">
<svg xmlns:xlink="http://www.w3.org/1999/xlink" width="452.658891pt" height="338.374375pt" viewBox="0 0 452.658891 338.374375" xmlns="http://www.w3.org/2000/svg" version="1.1">
 <metadata>
  <rdf:RDF xmlns:dc="http://purl.org/dc/elements/1.1/" xmlns:cc="http://creativecommons.org/ns#" xmlns:rdf="http://www.w3.org/1999/02/22-rdf-syntax-ns#">
   <cc:Work>
    <dc:type rdf:resource="http://purl.org/dc/dcmitype/StillImage"/>
    <dc:date>2022-07-14T13:18:29.583735</dc:date>
    <dc:format>image/svg+xml</dc:format>
    <dc:creator>
     <cc:Agent>
      <dc:title>Matplotlib v3.5.2, https://matplotlib.org/</dc:title>
     </cc:Agent>
    </dc:creator>
   </cc:Work>
  </rdf:RDF>
 </metadata>
 <defs>
  <style type="text/css">*{stroke-linejoin: round; stroke-linecap: butt}</style>
 </defs>
 <g id="figure_1">
  <g id="patch_1">
   <path d="M -0 338.374375 
L 452.658891 338.374375 
L 452.658891 0 
L -0 0 
z
" style="fill: #ffffff"/>
  </g>
  <g id="axes_1">
   <g id="patch_2">
    <path d="M 53.328125 300.818125 
L 444.558659 300.818125 
L 444.558659 22.318125 
L 53.328125 22.318125 
z
" style="fill: #ffffff"/>
   </g>
   <g id="matplotlib.axis_1">
    <g id="xtick_1">
     <g id="line2d_1">
      <path d="M 100.856401 300.818125 
L 100.856401 22.318125 
" clip-path="url(#p185ba79346)" style="fill: none; stroke: #b0b0b0; stroke-width: 0.8; stroke-linecap: square"/>
     </g>
     <g id="line2d_2">
      <defs>
       <path id="m7c5344584d" d="M 0 0 
L 0 3.5 
" style="stroke: #000000; stroke-width: 0.8"/>
      </defs>
      <g>
       <use xlink:href="#m7c5344584d" x="100.856401" y="300.818125" style="stroke: #000000; stroke-width: 0.8"/>
      </g>
     </g>
     <g id="text_1">
      <!-- −600 -->
      <g transform="translate(87.122807 315.416562)scale(0.1 -0.1)">
       <defs>
        <path id="DejaVuSans-2212" d="M 678 2272 
L 4684 2272 
L 4684 1741 
L 678 1741 
L 678 2272 
z
" transform="scale(0.015625)"/>
        <path id="DejaVuSans-36" d="M 2113 2584 
Q 1688 2584 1439 2293 
Q 1191 2003 1191 1497 
Q 1191 994 1439 701 
Q 1688 409 2113 409 
Q 2538 409 2786 701 
Q 3034 994 3034 1497 
Q 3034 2003 2786 2293 
Q 2538 2584 2113 2584 
z
M 3366 4563 
L 3366 3988 
Q 3128 4100 2886 4159 
Q 2644 4219 2406 4219 
Q 1781 4219 1451 3797 
Q 1122 3375 1075 2522 
Q 1259 2794 1537 2939 
Q 1816 3084 2150 3084 
Q 2853 3084 3261 2657 
Q 3669 2231 3669 1497 
Q 3669 778 3244 343 
Q 2819 -91 2113 -91 
Q 1303 -91 875 529 
Q 447 1150 447 2328 
Q 447 3434 972 4092 
Q 1497 4750 2381 4750 
Q 2619 4750 2861 4703 
Q 3103 4656 3366 4563 
z
" transform="scale(0.015625)"/>
        <path id="DejaVuSans-30" d="M 2034 4250 
Q 1547 4250 1301 3770 
Q 1056 3291 1056 2328 
Q 1056 1369 1301 889 
Q 1547 409 2034 409 
Q 2525 409 2770 889 
Q 3016 1369 3016 2328 
Q 3016 3291 2770 3770 
Q 2525 4250 2034 4250 
z
M 2034 4750 
Q 2819 4750 3233 4129 
Q 3647 3509 3647 2328 
Q 3647 1150 3233 529 
Q 2819 -91 2034 -91 
Q 1250 -91 836 529 
Q 422 1150 422 2328 
Q 422 3509 836 4129 
Q 1250 4750 2034 4750 
z
" transform="scale(0.015625)"/>
       </defs>
       <use xlink:href="#DejaVuSans-2212"/>
       <use xlink:href="#DejaVuSans-36" x="83.789062"/>
       <use xlink:href="#DejaVuSans-30" x="147.412109"/>
       <use xlink:href="#DejaVuSans-30" x="211.035156"/>
      </g>
     </g>
    </g>
    <g id="xtick_2">
     <g id="line2d_3">
      <path d="M 148.721935 300.818125 
L 148.721935 22.318125 
" clip-path="url(#p185ba79346)" style="fill: none; stroke: #b0b0b0; stroke-width: 0.8; stroke-linecap: square"/>
     </g>
     <g id="line2d_4">
      <g>
       <use xlink:href="#m7c5344584d" x="148.721935" y="300.818125" style="stroke: #000000; stroke-width: 0.8"/>
      </g>
     </g>
     <g id="text_2">
      <!-- −400 -->
      <g transform="translate(134.988341 315.416562)scale(0.1 -0.1)">
       <defs>
        <path id="DejaVuSans-34" d="M 2419 4116 
L 825 1625 
L 2419 1625 
L 2419 4116 
z
M 2253 4666 
L 3047 4666 
L 3047 1625 
L 3713 1625 
L 3713 1100 
L 3047 1100 
L 3047 0 
L 2419 0 
L 2419 1100 
L 313 1100 
L 313 1709 
L 2253 4666 
z
" transform="scale(0.015625)"/>
       </defs>
       <use xlink:href="#DejaVuSans-2212"/>
       <use xlink:href="#DejaVuSans-34" x="83.789062"/>
       <use xlink:href="#DejaVuSans-30" x="147.412109"/>
       <use xlink:href="#DejaVuSans-30" x="211.035156"/>
      </g>
     </g>
    </g>
    <g id="xtick_3">
     <g id="line2d_5">
      <path d="M 196.587469 300.818125 
L 196.587469 22.318125 
" clip-path="url(#p185ba79346)" style="fill: none; stroke: #b0b0b0; stroke-width: 0.8; stroke-linecap: square"/>
     </g>
     <g id="line2d_6">
      <g>
       <use xlink:href="#m7c5344584d" x="196.587469" y="300.818125" style="stroke: #000000; stroke-width: 0.8"/>
      </g>
     </g>
     <g id="text_3">
      <!-- −200 -->
      <g transform="translate(182.853876 315.416562)scale(0.1 -0.1)">
       <defs>
        <path id="DejaVuSans-32" d="M 1228 531 
L 3431 531 
L 3431 0 
L 469 0 
L 469 531 
Q 828 903 1448 1529 
Q 2069 2156 2228 2338 
Q 2531 2678 2651 2914 
Q 2772 3150 2772 3378 
Q 2772 3750 2511 3984 
Q 2250 4219 1831 4219 
Q 1534 4219 1204 4116 
Q 875 4013 500 3803 
L 500 4441 
Q 881 4594 1212 4672 
Q 1544 4750 1819 4750 
Q 2544 4750 2975 4387 
Q 3406 4025 3406 3419 
Q 3406 3131 3298 2873 
Q 3191 2616 2906 2266 
Q 2828 2175 2409 1742 
Q 1991 1309 1228 531 
z
" transform="scale(0.015625)"/>
       </defs>
       <use xlink:href="#DejaVuSans-2212"/>
       <use xlink:href="#DejaVuSans-32" x="83.789062"/>
       <use xlink:href="#DejaVuSans-30" x="147.412109"/>
       <use xlink:href="#DejaVuSans-30" x="211.035156"/>
      </g>
     </g>
    </g>
    <g id="xtick_4">
     <g id="line2d_7">
      <path d="M 244.453004 300.818125 
L 244.453004 22.318125 
" clip-path="url(#p185ba79346)" style="fill: none; stroke: #b0b0b0; stroke-width: 0.8; stroke-linecap: square"/>
     </g>
     <g id="line2d_8">
      <g>
       <use xlink:href="#m7c5344584d" x="244.453004" y="300.818125" style="stroke: #000000; stroke-width: 0.8"/>
      </g>
     </g>
     <g id="text_4">
      <!-- 0 -->
      <g transform="translate(241.271754 315.416562)scale(0.1 -0.1)">
       <use xlink:href="#DejaVuSans-30"/>
      </g>
     </g>
    </g>
    <g id="xtick_5">
     <g id="line2d_9">
      <path d="M 292.318538 300.818125 
L 292.318538 22.318125 
" clip-path="url(#p185ba79346)" style="fill: none; stroke: #b0b0b0; stroke-width: 0.8; stroke-linecap: square"/>
     </g>
     <g id="line2d_10">
      <g>
       <use xlink:href="#m7c5344584d" x="292.318538" y="300.818125" style="stroke: #000000; stroke-width: 0.8"/>
      </g>
     </g>
     <g id="text_5">
      <!-- 200 -->
      <g transform="translate(282.774788 315.416562)scale(0.1 -0.1)">
       <use xlink:href="#DejaVuSans-32"/>
       <use xlink:href="#DejaVuSans-30" x="63.623047"/>
       <use xlink:href="#DejaVuSans-30" x="127.246094"/>
      </g>
     </g>
    </g>
    <g id="xtick_6">
     <g id="line2d_11">
      <path d="M 340.184072 300.818125 
L 340.184072 22.318125 
" clip-path="url(#p185ba79346)" style="fill: none; stroke: #b0b0b0; stroke-width: 0.8; stroke-linecap: square"/>
     </g>
     <g id="line2d_12">
      <g>
       <use xlink:href="#m7c5344584d" x="340.184072" y="300.818125" style="stroke: #000000; stroke-width: 0.8"/>
      </g>
     </g>
     <g id="text_6">
      <!-- 400 -->
      <g transform="translate(330.640322 315.416562)scale(0.1 -0.1)">
       <use xlink:href="#DejaVuSans-34"/>
       <use xlink:href="#DejaVuSans-30" x="63.623047"/>
       <use xlink:href="#DejaVuSans-30" x="127.246094"/>
      </g>
     </g>
    </g>
    <g id="xtick_7">
     <g id="line2d_13">
      <path d="M 388.049606 300.818125 
L 388.049606 22.318125 
" clip-path="url(#p185ba79346)" style="fill: none; stroke: #b0b0b0; stroke-width: 0.8; stroke-linecap: square"/>
     </g>
     <g id="line2d_14">
      <g>
       <use xlink:href="#m7c5344584d" x="388.049606" y="300.818125" style="stroke: #000000; stroke-width: 0.8"/>
      </g>
     </g>
     <g id="text_7">
      <!-- 600 -->
      <g transform="translate(378.505856 315.416562)scale(0.1 -0.1)">
       <use xlink:href="#DejaVuSans-36"/>
       <use xlink:href="#DejaVuSans-30" x="63.623047"/>
       <use xlink:href="#DejaVuSans-30" x="127.246094"/>
      </g>
     </g>
    </g>
    <g id="xtick_8">
     <g id="line2d_15">
      <path d="M 435.915141 300.818125 
L 435.915141 22.318125 
" clip-path="url(#p185ba79346)" style="fill: none; stroke: #b0b0b0; stroke-width: 0.8; stroke-linecap: square"/>
     </g>
     <g id="line2d_16">
      <g>
       <use xlink:href="#m7c5344584d" x="435.915141" y="300.818125" style="stroke: #000000; stroke-width: 0.8"/>
      </g>
     </g>
     <g id="text_8">
      <!-- 800 -->
      <g transform="translate(426.371391 315.416562)scale(0.1 -0.1)">
       <defs>
        <path id="DejaVuSans-38" d="M 2034 2216 
Q 1584 2216 1326 1975 
Q 1069 1734 1069 1313 
Q 1069 891 1326 650 
Q 1584 409 2034 409 
Q 2484 409 2743 651 
Q 3003 894 3003 1313 
Q 3003 1734 2745 1975 
Q 2488 2216 2034 2216 
z
M 1403 2484 
Q 997 2584 770 2862 
Q 544 3141 544 3541 
Q 544 4100 942 4425 
Q 1341 4750 2034 4750 
Q 2731 4750 3128 4425 
Q 3525 4100 3525 3541 
Q 3525 3141 3298 2862 
Q 3072 2584 2669 2484 
Q 3125 2378 3379 2068 
Q 3634 1759 3634 1313 
Q 3634 634 3220 271 
Q 2806 -91 2034 -91 
Q 1263 -91 848 271 
Q 434 634 434 1313 
Q 434 1759 690 2068 
Q 947 2378 1403 2484 
z
M 1172 3481 
Q 1172 3119 1398 2916 
Q 1625 2713 2034 2713 
Q 2441 2713 2670 2916 
Q 2900 3119 2900 3481 
Q 2900 3844 2670 4047 
Q 2441 4250 2034 4250 
Q 1625 4250 1398 4047 
Q 1172 3844 1172 3481 
z
" transform="scale(0.015625)"/>
       </defs>
       <use xlink:href="#DejaVuSans-38"/>
       <use xlink:href="#DejaVuSans-30" x="63.623047"/>
       <use xlink:href="#DejaVuSans-30" x="127.246094"/>
      </g>
     </g>
    </g>
    <g id="text_9">
     <!-- Bending Moment -->
     <g transform="translate(206.323079 329.094687)scale(0.1 -0.1)">
      <defs>
       <path id="DejaVuSans-42" d="M 1259 2228 
L 1259 519 
L 2272 519 
Q 2781 519 3026 730 
Q 3272 941 3272 1375 
Q 3272 1813 3026 2020 
Q 2781 2228 2272 2228 
L 1259 2228 
z
M 1259 4147 
L 1259 2741 
L 2194 2741 
Q 2656 2741 2882 2914 
Q 3109 3088 3109 3444 
Q 3109 3797 2882 3972 
Q 2656 4147 2194 4147 
L 1259 4147 
z
M 628 4666 
L 2241 4666 
Q 2963 4666 3353 4366 
Q 3744 4066 3744 3513 
Q 3744 3084 3544 2831 
Q 3344 2578 2956 2516 
Q 3422 2416 3680 2098 
Q 3938 1781 3938 1306 
Q 3938 681 3513 340 
Q 3088 0 2303 0 
L 628 0 
L 628 4666 
z
" transform="scale(0.015625)"/>
       <path id="DejaVuSans-65" d="M 3597 1894 
L 3597 1613 
L 953 1613 
Q 991 1019 1311 708 
Q 1631 397 2203 397 
Q 2534 397 2845 478 
Q 3156 559 3463 722 
L 3463 178 
Q 3153 47 2828 -22 
Q 2503 -91 2169 -91 
Q 1331 -91 842 396 
Q 353 884 353 1716 
Q 353 2575 817 3079 
Q 1281 3584 2069 3584 
Q 2775 3584 3186 3129 
Q 3597 2675 3597 1894 
z
M 3022 2063 
Q 3016 2534 2758 2815 
Q 2500 3097 2075 3097 
Q 1594 3097 1305 2825 
Q 1016 2553 972 2059 
L 3022 2063 
z
" transform="scale(0.015625)"/>
       <path id="DejaVuSans-6e" d="M 3513 2113 
L 3513 0 
L 2938 0 
L 2938 2094 
Q 2938 2591 2744 2837 
Q 2550 3084 2163 3084 
Q 1697 3084 1428 2787 
Q 1159 2491 1159 1978 
L 1159 0 
L 581 0 
L 581 3500 
L 1159 3500 
L 1159 2956 
Q 1366 3272 1645 3428 
Q 1925 3584 2291 3584 
Q 2894 3584 3203 3211 
Q 3513 2838 3513 2113 
z
" transform="scale(0.015625)"/>
       <path id="DejaVuSans-64" d="M 2906 2969 
L 2906 4863 
L 3481 4863 
L 3481 0 
L 2906 0 
L 2906 525 
Q 2725 213 2448 61 
Q 2172 -91 1784 -91 
Q 1150 -91 751 415 
Q 353 922 353 1747 
Q 353 2572 751 3078 
Q 1150 3584 1784 3584 
Q 2172 3584 2448 3432 
Q 2725 3281 2906 2969 
z
M 947 1747 
Q 947 1113 1208 752 
Q 1469 391 1925 391 
Q 2381 391 2643 752 
Q 2906 1113 2906 1747 
Q 2906 2381 2643 2742 
Q 2381 3103 1925 3103 
Q 1469 3103 1208 2742 
Q 947 2381 947 1747 
z
" transform="scale(0.015625)"/>
       <path id="DejaVuSans-69" d="M 603 3500 
L 1178 3500 
L 1178 0 
L 603 0 
L 603 3500 
z
M 603 4863 
L 1178 4863 
L 1178 4134 
L 603 4134 
L 603 4863 
z
" transform="scale(0.015625)"/>
       <path id="DejaVuSans-67" d="M 2906 1791 
Q 2906 2416 2648 2759 
Q 2391 3103 1925 3103 
Q 1463 3103 1205 2759 
Q 947 2416 947 1791 
Q 947 1169 1205 825 
Q 1463 481 1925 481 
Q 2391 481 2648 825 
Q 2906 1169 2906 1791 
z
M 3481 434 
Q 3481 -459 3084 -895 
Q 2688 -1331 1869 -1331 
Q 1566 -1331 1297 -1286 
Q 1028 -1241 775 -1147 
L 775 -588 
Q 1028 -725 1275 -790 
Q 1522 -856 1778 -856 
Q 2344 -856 2625 -561 
Q 2906 -266 2906 331 
L 2906 616 
Q 2728 306 2450 153 
Q 2172 0 1784 0 
Q 1141 0 747 490 
Q 353 981 353 1791 
Q 353 2603 747 3093 
Q 1141 3584 1784 3584 
Q 2172 3584 2450 3431 
Q 2728 3278 2906 2969 
L 2906 3500 
L 3481 3500 
L 3481 434 
z
" transform="scale(0.015625)"/>
       <path id="DejaVuSans-20" transform="scale(0.015625)"/>
       <path id="DejaVuSans-4d" d="M 628 4666 
L 1569 4666 
L 2759 1491 
L 3956 4666 
L 4897 4666 
L 4897 0 
L 4281 0 
L 4281 4097 
L 3078 897 
L 2444 897 
L 1241 4097 
L 1241 0 
L 628 0 
L 628 4666 
z
" transform="scale(0.015625)"/>
       <path id="DejaVuSans-6f" d="M 1959 3097 
Q 1497 3097 1228 2736 
Q 959 2375 959 1747 
Q 959 1119 1226 758 
Q 1494 397 1959 397 
Q 2419 397 2687 759 
Q 2956 1122 2956 1747 
Q 2956 2369 2687 2733 
Q 2419 3097 1959 3097 
z
M 1959 3584 
Q 2709 3584 3137 3096 
Q 3566 2609 3566 1747 
Q 3566 888 3137 398 
Q 2709 -91 1959 -91 
Q 1206 -91 779 398 
Q 353 888 353 1747 
Q 353 2609 779 3096 
Q 1206 3584 1959 3584 
z
" transform="scale(0.015625)"/>
       <path id="DejaVuSans-6d" d="M 3328 2828 
Q 3544 3216 3844 3400 
Q 4144 3584 4550 3584 
Q 5097 3584 5394 3201 
Q 5691 2819 5691 2113 
L 5691 0 
L 5113 0 
L 5113 2094 
Q 5113 2597 4934 2840 
Q 4756 3084 4391 3084 
Q 3944 3084 3684 2787 
Q 3425 2491 3425 1978 
L 3425 0 
L 2847 0 
L 2847 2094 
Q 2847 2600 2669 2842 
Q 2491 3084 2119 3084 
Q 1678 3084 1418 2786 
Q 1159 2488 1159 1978 
L 1159 0 
L 581 0 
L 581 3500 
L 1159 3500 
L 1159 2956 
Q 1356 3278 1631 3431 
Q 1906 3584 2284 3584 
Q 2666 3584 2933 3390 
Q 3200 3197 3328 2828 
z
" transform="scale(0.015625)"/>
       <path id="DejaVuSans-74" d="M 1172 4494 
L 1172 3500 
L 2356 3500 
L 2356 3053 
L 1172 3053 
L 1172 1153 
Q 1172 725 1289 603 
Q 1406 481 1766 481 
L 2356 481 
L 2356 0 
L 1766 0 
Q 1100 0 847 248 
Q 594 497 594 1153 
L 594 3053 
L 172 3053 
L 172 3500 
L 594 3500 
L 594 4494 
L 1172 4494 
z
" transform="scale(0.015625)"/>
      </defs>
      <use xlink:href="#DejaVuSans-42"/>
      <use xlink:href="#DejaVuSans-65" x="68.603516"/>
      <use xlink:href="#DejaVuSans-6e" x="130.126953"/>
      <use xlink:href="#DejaVuSans-64" x="193.505859"/>
      <use xlink:href="#DejaVuSans-69" x="256.982422"/>
      <use xlink:href="#DejaVuSans-6e" x="284.765625"/>
      <use xlink:href="#DejaVuSans-67" x="348.144531"/>
      <use xlink:href="#DejaVuSans-20" x="411.621094"/>
      <use xlink:href="#DejaVuSans-4d" x="443.408203"/>
      <use xlink:href="#DejaVuSans-6f" x="529.6875"/>
      <use xlink:href="#DejaVuSans-6d" x="590.869141"/>
      <use xlink:href="#DejaVuSans-65" x="688.28125"/>
      <use xlink:href="#DejaVuSans-6e" x="749.804688"/>
      <use xlink:href="#DejaVuSans-74" x="813.183594"/>
     </g>
    </g>
   </g>
   <g id="matplotlib.axis_2">
    <g id="ytick_1">
     <g id="line2d_17">
      <path d="M 53.328125 255.157913 
L 444.558659 255.157913 
" clip-path="url(#p185ba79346)" style="fill: none; stroke: #b0b0b0; stroke-width: 0.8; stroke-linecap: square"/>
     </g>
     <g id="line2d_18">
      <defs>
       <path id="m1bdd0f43fc" d="M 0 0 
L -3.5 0 
" style="stroke: #000000; stroke-width: 0.8"/>
      </defs>
      <g>
       <use xlink:href="#m1bdd0f43fc" x="53.328125" y="255.157913" style="stroke: #000000; stroke-width: 0.8"/>
      </g>
     </g>
     <g id="text_10">
      <!-- 0 -->
      <g transform="translate(39.965625 258.957132)scale(0.1 -0.1)">
       <use xlink:href="#DejaVuSans-30"/>
      </g>
     </g>
    </g>
    <g id="ytick_2">
     <g id="line2d_19">
      <path d="M 53.328125 197.261211 
L 444.558659 197.261211 
" clip-path="url(#p185ba79346)" style="fill: none; stroke: #b0b0b0; stroke-width: 0.8; stroke-linecap: square"/>
     </g>
     <g id="line2d_20">
      <g>
       <use xlink:href="#m1bdd0f43fc" x="53.328125" y="197.261211" style="stroke: #000000; stroke-width: 0.8"/>
      </g>
     </g>
     <g id="text_11">
      <!-- 2000 -->
      <g transform="translate(20.878125 201.060429)scale(0.1 -0.1)">
       <use xlink:href="#DejaVuSans-32"/>
       <use xlink:href="#DejaVuSans-30" x="63.623047"/>
       <use xlink:href="#DejaVuSans-30" x="127.246094"/>
       <use xlink:href="#DejaVuSans-30" x="190.869141"/>
      </g>
     </g>
    </g>
    <g id="ytick_3">
     <g id="line2d_21">
      <path d="M 53.328125 139.364508 
L 444.558659 139.364508 
" clip-path="url(#p185ba79346)" style="fill: none; stroke: #b0b0b0; stroke-width: 0.8; stroke-linecap: square"/>
     </g>
     <g id="line2d_22">
      <g>
       <use xlink:href="#m1bdd0f43fc" x="53.328125" y="139.364508" style="stroke: #000000; stroke-width: 0.8"/>
      </g>
     </g>
     <g id="text_12">
      <!-- 4000 -->
      <g transform="translate(20.878125 143.163727)scale(0.1 -0.1)">
       <use xlink:href="#DejaVuSans-34"/>
       <use xlink:href="#DejaVuSans-30" x="63.623047"/>
       <use xlink:href="#DejaVuSans-30" x="127.246094"/>
       <use xlink:href="#DejaVuSans-30" x="190.869141"/>
      </g>
     </g>
    </g>
    <g id="ytick_4">
     <g id="line2d_23">
      <path d="M 53.328125 81.467805 
L 444.558659 81.467805 
" clip-path="url(#p185ba79346)" style="fill: none; stroke: #b0b0b0; stroke-width: 0.8; stroke-linecap: square"/>
     </g>
     <g id="line2d_24">
      <g>
       <use xlink:href="#m1bdd0f43fc" x="53.328125" y="81.467805" style="stroke: #000000; stroke-width: 0.8"/>
      </g>
     </g>
     <g id="text_13">
      <!-- 6000 -->
      <g transform="translate(20.878125 85.267024)scale(0.1 -0.1)">
       <use xlink:href="#DejaVuSans-36"/>
       <use xlink:href="#DejaVuSans-30" x="63.623047"/>
       <use xlink:href="#DejaVuSans-30" x="127.246094"/>
       <use xlink:href="#DejaVuSans-30" x="190.869141"/>
      </g>
     </g>
    </g>
    <g id="ytick_5">
     <g id="line2d_25">
      <path d="M 53.328125 23.571102 
L 444.558659 23.571102 
" clip-path="url(#p185ba79346)" style="fill: none; stroke: #b0b0b0; stroke-width: 0.8; stroke-linecap: square"/>
     </g>
     <g id="line2d_26">
      <g>
       <use xlink:href="#m1bdd0f43fc" x="53.328125" y="23.571102" style="stroke: #000000; stroke-width: 0.8"/>
      </g>
     </g>
     <g id="text_14">
      <!-- 8000 -->
      <g transform="translate(20.878125 27.370321)scale(0.1 -0.1)">
       <use xlink:href="#DejaVuSans-38"/>
       <use xlink:href="#DejaVuSans-30" x="63.623047"/>
       <use xlink:href="#DejaVuSans-30" x="127.246094"/>
       <use xlink:href="#DejaVuSans-30" x="190.869141"/>
      </g>
     </g>
    </g>
    <g id="text_15">
     <!-- Axial Force -->
     <g transform="translate(14.798437 188.901719)rotate(-90)scale(0.1 -0.1)">
      <defs>
       <path id="DejaVuSans-41" d="M 2188 4044 
L 1331 1722 
L 3047 1722 
L 2188 4044 
z
M 1831 4666 
L 2547 4666 
L 4325 0 
L 3669 0 
L 3244 1197 
L 1141 1197 
L 716 0 
L 50 0 
L 1831 4666 
z
" transform="scale(0.015625)"/>
       <path id="DejaVuSans-78" d="M 3513 3500 
L 2247 1797 
L 3578 0 
L 2900 0 
L 1881 1375 
L 863 0 
L 184 0 
L 1544 1831 
L 300 3500 
L 978 3500 
L 1906 2253 
L 2834 3500 
L 3513 3500 
z
" transform="scale(0.015625)"/>
       <path id="DejaVuSans-61" d="M 2194 1759 
Q 1497 1759 1228 1600 
Q 959 1441 959 1056 
Q 959 750 1161 570 
Q 1363 391 1709 391 
Q 2188 391 2477 730 
Q 2766 1069 2766 1631 
L 2766 1759 
L 2194 1759 
z
M 3341 1997 
L 3341 0 
L 2766 0 
L 2766 531 
Q 2569 213 2275 61 
Q 1981 -91 1556 -91 
Q 1019 -91 701 211 
Q 384 513 384 1019 
Q 384 1609 779 1909 
Q 1175 2209 1959 2209 
L 2766 2209 
L 2766 2266 
Q 2766 2663 2505 2880 
Q 2244 3097 1772 3097 
Q 1472 3097 1187 3025 
Q 903 2953 641 2809 
L 641 3341 
Q 956 3463 1253 3523 
Q 1550 3584 1831 3584 
Q 2591 3584 2966 3190 
Q 3341 2797 3341 1997 
z
" transform="scale(0.015625)"/>
       <path id="DejaVuSans-6c" d="M 603 4863 
L 1178 4863 
L 1178 0 
L 603 0 
L 603 4863 
z
" transform="scale(0.015625)"/>
       <path id="DejaVuSans-46" d="M 628 4666 
L 3309 4666 
L 3309 4134 
L 1259 4134 
L 1259 2759 
L 3109 2759 
L 3109 2228 
L 1259 2228 
L 1259 0 
L 628 0 
L 628 4666 
z
" transform="scale(0.015625)"/>
       <path id="DejaVuSans-72" d="M 2631 2963 
Q 2534 3019 2420 3045 
Q 2306 3072 2169 3072 
Q 1681 3072 1420 2755 
Q 1159 2438 1159 1844 
L 1159 0 
L 581 0 
L 581 3500 
L 1159 3500 
L 1159 2956 
Q 1341 3275 1631 3429 
Q 1922 3584 2338 3584 
Q 2397 3584 2469 3576 
Q 2541 3569 2628 3553 
L 2631 2963 
z
" transform="scale(0.015625)"/>
       <path id="DejaVuSans-63" d="M 3122 3366 
L 3122 2828 
Q 2878 2963 2633 3030 
Q 2388 3097 2138 3097 
Q 1578 3097 1268 2742 
Q 959 2388 959 1747 
Q 959 1106 1268 751 
Q 1578 397 2138 397 
Q 2388 397 2633 464 
Q 2878 531 3122 666 
L 3122 134 
Q 2881 22 2623 -34 
Q 2366 -91 2075 -91 
Q 1284 -91 818 406 
Q 353 903 353 1747 
Q 353 2603 823 3093 
Q 1294 3584 2113 3584 
Q 2378 3584 2631 3529 
Q 2884 3475 3122 3366 
z
" transform="scale(0.015625)"/>
      </defs>
      <use xlink:href="#DejaVuSans-41"/>
      <use xlink:href="#DejaVuSans-78" x="68.408203"/>
      <use xlink:href="#DejaVuSans-69" x="127.587891"/>
      <use xlink:href="#DejaVuSans-61" x="155.371094"/>
      <use xlink:href="#DejaVuSans-6c" x="216.650391"/>
      <use xlink:href="#DejaVuSans-20" x="244.433594"/>
      <use xlink:href="#DejaVuSans-46" x="276.220703"/>
      <use xlink:href="#DejaVuSans-6f" x="330.115234"/>
      <use xlink:href="#DejaVuSans-72" x="391.296875"/>
      <use xlink:href="#DejaVuSans-63" x="430.160156"/>
      <use xlink:href="#DejaVuSans-65" x="485.140625"/>
     </g>
    </g>
   </g>
   <g id="line2d_27">
    <path d="M 244.453004 34.977216 
L 321.170174 82.056531 
L 327.665612 85.535621 
L 333.937533 89.031812 
L 339.988113 92.546151 
L 345.819707 96.079772 
L 351.434874 99.633906 
L 356.836395 103.20989 
L 362.027295 106.809182 
L 367.010879 110.43337 
L 371.790754 114.084191 
L 376.370875 117.763548 
L 380.75558 121.473527 
L 384.949643 125.216426 
L 388.958324 128.994776 
L 392.787442 132.811377 
L 396.443439 136.669328 
L 399.933478 140.572077 
L 403.265538 144.523462 
L 406.448536 148.527774 
L 409.49247 152.589824 
L 412.40859 156.715025 
L 415.209595 160.909488 
L 417.909878 165.180137 
L 420.525815 169.534853 
L 423.076125 173.982643 
L 425.582297 178.533846 
L 426.775453 182.577914 
L 425.646808 185.629448 
L 424.259105 188.680981 
L 422.612344 191.732515 
L 420.706525 194.784048 
L 418.541648 197.835582 
L 415.880976 200.994516 
L 412.873249 204.19337 
L 409.570388 207.408591 
L 405.96603 210.643066 
L 402.052218 213.900403 
L 397.818876 217.185174 
L 393.253048 220.503258 
L 388.337794 223.862338 
L 383.050527 227.272662 
L 377.360453 230.748201 
L 371.224459 234.308512 
L 364.580283 237.981844 
L 357.334542 241.810559 
L 349.340517 245.861221 
L 340.353731 250.244739 
L 329.939661 255.158131 
L 244.453004 288.159034 
L 184.661285 255.157555 
L 170.086796 248.103989 
L 158.037963 242.132636 
L 147.877781 236.936252 
L 139.086328 232.268148 
L 131.291879 227.949457 
L 124.273502 223.873875 
L 117.891633 219.974247 
L 112.053781 216.206069 
L 106.696216 212.538676 
L 101.773606 208.950255 
L 97.252816 205.424862 
L 93.109071 201.950577 
L 89.323471 198.518306 
L 85.881351 195.120991 
L 82.771154 191.753073 
L 79.983653 188.410111 
L 77.511388 185.088516 
L 75.53371 181.874586 
L 74.02187 178.754489 
L 72.78086 175.634392 
L 71.81068 172.514294 
L 71.111331 169.394197 
L 73.035074 165.206955 
L 75.135951 161.062219 
L 77.351143 156.988489 
L 79.696374 152.978632 
L 82.185331 149.026438 
L 84.829981 145.126477 
L 87.640837 141.273981 
L 90.627168 137.464746 
L 93.79718 133.695046 
L 97.158164 129.961577 
L 100.716619 126.261388 
L 104.478357 122.591842 
L 108.448594 118.950574 
L 112.632021 115.335457 
L 117.03287 111.744568 
L 121.654967 108.176173 
L 126.501785 104.628697 
L 131.576476 101.100709 
L 136.881913 97.590906 
L 142.420719 94.098098 
L 148.195291 90.621197 
L 154.207828 87.159207 
L 160.460348 83.711211 
L 166.954706 80.276368 
L 173.692612 76.853901 
L 244.453004 34.977216 
" clip-path="url(#p185ba79346)" style="fill: none; stroke: #1f77b4; stroke-width: 1.5; stroke-linecap: square"/>
    <defs>
     <path id="mf001fd16a6" d="M 0 1.5 
C 0.397805 1.5 0.77937 1.341951 1.06066 1.06066 
C 1.341951 0.77937 1.5 0.397805 1.5 0 
C 1.5 -0.397805 1.341951 -0.77937 1.06066 -1.06066 
C 0.77937 -1.341951 0.397805 -1.5 0 -1.5 
C -0.397805 -1.5 -0.77937 -1.341951 -1.06066 -1.06066 
C -1.341951 -0.77937 -1.5 -0.397805 -1.5 0 
C -1.5 0.397805 -1.341951 0.77937 -1.06066 1.06066 
C -0.77937 1.341951 -0.397805 1.5 0 1.5 
z
" style="stroke: #1f77b4"/>
    </defs>
    <g clip-path="url(#p185ba79346)">
     <use xlink:href="#mf001fd16a6" x="244.453004" y="34.977216" style="fill: #1f77b4; stroke: #1f77b4"/>
     <use xlink:href="#mf001fd16a6" x="321.170174" y="82.056531" style="fill: #1f77b4; stroke: #1f77b4"/>
     <use xlink:href="#mf001fd16a6" x="327.665612" y="85.535621" style="fill: #1f77b4; stroke: #1f77b4"/>
     <use xlink:href="#mf001fd16a6" x="333.937533" y="89.031812" style="fill: #1f77b4; stroke: #1f77b4"/>
     <use xlink:href="#mf001fd16a6" x="339.988113" y="92.546151" style="fill: #1f77b4; stroke: #1f77b4"/>
     <use xlink:href="#mf001fd16a6" x="345.819707" y="96.079772" style="fill: #1f77b4; stroke: #1f77b4"/>
     <use xlink:href="#mf001fd16a6" x="351.434874" y="99.633906" style="fill: #1f77b4; stroke: #1f77b4"/>
     <use xlink:href="#mf001fd16a6" x="356.836395" y="103.20989" style="fill: #1f77b4; stroke: #1f77b4"/>
     <use xlink:href="#mf001fd16a6" x="362.027295" y="106.809182" style="fill: #1f77b4; stroke: #1f77b4"/>
     <use xlink:href="#mf001fd16a6" x="367.010879" y="110.43337" style="fill: #1f77b4; stroke: #1f77b4"/>
     <use xlink:href="#mf001fd16a6" x="371.790754" y="114.084191" style="fill: #1f77b4; stroke: #1f77b4"/>
     <use xlink:href="#mf001fd16a6" x="376.370875" y="117.763548" style="fill: #1f77b4; stroke: #1f77b4"/>
     <use xlink:href="#mf001fd16a6" x="380.75558" y="121.473527" style="fill: #1f77b4; stroke: #1f77b4"/>
     <use xlink:href="#mf001fd16a6" x="384.949643" y="125.216426" style="fill: #1f77b4; stroke: #1f77b4"/>
     <use xlink:href="#mf001fd16a6" x="388.958324" y="128.994776" style="fill: #1f77b4; stroke: #1f77b4"/>
     <use xlink:href="#mf001fd16a6" x="392.787442" y="132.811377" style="fill: #1f77b4; stroke: #1f77b4"/>
     <use xlink:href="#mf001fd16a6" x="396.443439" y="136.669328" style="fill: #1f77b4; stroke: #1f77b4"/>
     <use xlink:href="#mf001fd16a6" x="399.933478" y="140.572077" style="fill: #1f77b4; stroke: #1f77b4"/>
     <use xlink:href="#mf001fd16a6" x="403.265538" y="144.523462" style="fill: #1f77b4; stroke: #1f77b4"/>
     <use xlink:href="#mf001fd16a6" x="406.448536" y="148.527774" style="fill: #1f77b4; stroke: #1f77b4"/>
     <use xlink:href="#mf001fd16a6" x="409.49247" y="152.589824" style="fill: #1f77b4; stroke: #1f77b4"/>
     <use xlink:href="#mf001fd16a6" x="412.40859" y="156.715025" style="fill: #1f77b4; stroke: #1f77b4"/>
     <use xlink:href="#mf001fd16a6" x="415.209595" y="160.909488" style="fill: #1f77b4; stroke: #1f77b4"/>
     <use xlink:href="#mf001fd16a6" x="417.909878" y="165.180137" style="fill: #1f77b4; stroke: #1f77b4"/>
     <use xlink:href="#mf001fd16a6" x="420.525815" y="169.534853" style="fill: #1f77b4; stroke: #1f77b4"/>
     <use xlink:href="#mf001fd16a6" x="423.076125" y="173.982643" style="fill: #1f77b4; stroke: #1f77b4"/>
     <use xlink:href="#mf001fd16a6" x="425.582297" y="178.533846" style="fill: #1f77b4; stroke: #1f77b4"/>
     <use xlink:href="#mf001fd16a6" x="426.775453" y="182.577914" style="fill: #1f77b4; stroke: #1f77b4"/>
     <use xlink:href="#mf001fd16a6" x="425.646808" y="185.629448" style="fill: #1f77b4; stroke: #1f77b4"/>
     <use xlink:href="#mf001fd16a6" x="424.259105" y="188.680981" style="fill: #1f77b4; stroke: #1f77b4"/>
     <use xlink:href="#mf001fd16a6" x="422.612344" y="191.732515" style="fill: #1f77b4; stroke: #1f77b4"/>
     <use xlink:href="#mf001fd16a6" x="420.706525" y="194.784048" style="fill: #1f77b4; stroke: #1f77b4"/>
     <use xlink:href="#mf001fd16a6" x="418.541648" y="197.835582" style="fill: #1f77b4; stroke: #1f77b4"/>
     <use xlink:href="#mf001fd16a6" x="415.880976" y="200.994516" style="fill: #1f77b4; stroke: #1f77b4"/>
     <use xlink:href="#mf001fd16a6" x="412.873249" y="204.19337" style="fill: #1f77b4; stroke: #1f77b4"/>
     <use xlink:href="#mf001fd16a6" x="409.570388" y="207.408591" style="fill: #1f77b4; stroke: #1f77b4"/>
     <use xlink:href="#mf001fd16a6" x="405.96603" y="210.643066" style="fill: #1f77b4; stroke: #1f77b4"/>
     <use xlink:href="#mf001fd16a6" x="402.052218" y="213.900403" style="fill: #1f77b4; stroke: #1f77b4"/>
     <use xlink:href="#mf001fd16a6" x="397.818876" y="217.185174" style="fill: #1f77b4; stroke: #1f77b4"/>
     <use xlink:href="#mf001fd16a6" x="393.253048" y="220.503258" style="fill: #1f77b4; stroke: #1f77b4"/>
     <use xlink:href="#mf001fd16a6" x="388.337794" y="223.862338" style="fill: #1f77b4; stroke: #1f77b4"/>
     <use xlink:href="#mf001fd16a6" x="383.050527" y="227.272662" style="fill: #1f77b4; stroke: #1f77b4"/>
     <use xlink:href="#mf001fd16a6" x="377.360453" y="230.748201" style="fill: #1f77b4; stroke: #1f77b4"/>
     <use xlink:href="#mf001fd16a6" x="371.224459" y="234.308512" style="fill: #1f77b4; stroke: #1f77b4"/>
     <use xlink:href="#mf001fd16a6" x="364.580283" y="237.981844" style="fill: #1f77b4; stroke: #1f77b4"/>
     <use xlink:href="#mf001fd16a6" x="357.334542" y="241.810559" style="fill: #1f77b4; stroke: #1f77b4"/>
     <use xlink:href="#mf001fd16a6" x="349.340517" y="245.861221" style="fill: #1f77b4; stroke: #1f77b4"/>
     <use xlink:href="#mf001fd16a6" x="340.353731" y="250.244739" style="fill: #1f77b4; stroke: #1f77b4"/>
     <use xlink:href="#mf001fd16a6" x="329.939661" y="255.158131" style="fill: #1f77b4; stroke: #1f77b4"/>
     <use xlink:href="#mf001fd16a6" x="244.453004" y="288.159034" style="fill: #1f77b4; stroke: #1f77b4"/>
     <use xlink:href="#mf001fd16a6" x="184.661285" y="255.157555" style="fill: #1f77b4; stroke: #1f77b4"/>
     <use xlink:href="#mf001fd16a6" x="170.086796" y="248.103989" style="fill: #1f77b4; stroke: #1f77b4"/>
     <use xlink:href="#mf001fd16a6" x="158.037963" y="242.132636" style="fill: #1f77b4; stroke: #1f77b4"/>
     <use xlink:href="#mf001fd16a6" x="147.877781" y="236.936252" style="fill: #1f77b4; stroke: #1f77b4"/>
     <use xlink:href="#mf001fd16a6" x="139.086328" y="232.268148" style="fill: #1f77b4; stroke: #1f77b4"/>
     <use xlink:href="#mf001fd16a6" x="131.291879" y="227.949457" style="fill: #1f77b4; stroke: #1f77b4"/>
     <use xlink:href="#mf001fd16a6" x="124.273502" y="223.873875" style="fill: #1f77b4; stroke: #1f77b4"/>
     <use xlink:href="#mf001fd16a6" x="117.891633" y="219.974247" style="fill: #1f77b4; stroke: #1f77b4"/>
     <use xlink:href="#mf001fd16a6" x="112.053781" y="216.206069" style="fill: #1f77b4; stroke: #1f77b4"/>
     <use xlink:href="#mf001fd16a6" x="106.696216" y="212.538676" style="fill: #1f77b4; stroke: #1f77b4"/>
     <use xlink:href="#mf001fd16a6" x="101.773606" y="208.950255" style="fill: #1f77b4; stroke: #1f77b4"/>
     <use xlink:href="#mf001fd16a6" x="97.252816" y="205.424862" style="fill: #1f77b4; stroke: #1f77b4"/>
     <use xlink:href="#mf001fd16a6" x="93.109071" y="201.950577" style="fill: #1f77b4; stroke: #1f77b4"/>
     <use xlink:href="#mf001fd16a6" x="89.323471" y="198.518306" style="fill: #1f77b4; stroke: #1f77b4"/>
     <use xlink:href="#mf001fd16a6" x="85.881351" y="195.120991" style="fill: #1f77b4; stroke: #1f77b4"/>
     <use xlink:href="#mf001fd16a6" x="82.771154" y="191.753073" style="fill: #1f77b4; stroke: #1f77b4"/>
     <use xlink:href="#mf001fd16a6" x="79.983653" y="188.410111" style="fill: #1f77b4; stroke: #1f77b4"/>
     <use xlink:href="#mf001fd16a6" x="77.511388" y="185.088516" style="fill: #1f77b4; stroke: #1f77b4"/>
     <use xlink:href="#mf001fd16a6" x="75.53371" y="181.874586" style="fill: #1f77b4; stroke: #1f77b4"/>
     <use xlink:href="#mf001fd16a6" x="74.02187" y="178.754489" style="fill: #1f77b4; stroke: #1f77b4"/>
     <use xlink:href="#mf001fd16a6" x="72.78086" y="175.634392" style="fill: #1f77b4; stroke: #1f77b4"/>
     <use xlink:href="#mf001fd16a6" x="71.81068" y="172.514294" style="fill: #1f77b4; stroke: #1f77b4"/>
     <use xlink:href="#mf001fd16a6" x="71.111331" y="169.394197" style="fill: #1f77b4; stroke: #1f77b4"/>
     <use xlink:href="#mf001fd16a6" x="73.035074" y="165.206955" style="fill: #1f77b4; stroke: #1f77b4"/>
     <use xlink:href="#mf001fd16a6" x="75.135951" y="161.062219" style="fill: #1f77b4; stroke: #1f77b4"/>
     <use xlink:href="#mf001fd16a6" x="77.351143" y="156.988489" style="fill: #1f77b4; stroke: #1f77b4"/>
     <use xlink:href="#mf001fd16a6" x="79.696374" y="152.978632" style="fill: #1f77b4; stroke: #1f77b4"/>
     <use xlink:href="#mf001fd16a6" x="82.185331" y="149.026438" style="fill: #1f77b4; stroke: #1f77b4"/>
     <use xlink:href="#mf001fd16a6" x="84.829981" y="145.126477" style="fill: #1f77b4; stroke: #1f77b4"/>
     <use xlink:href="#mf001fd16a6" x="87.640837" y="141.273981" style="fill: #1f77b4; stroke: #1f77b4"/>
     <use xlink:href="#mf001fd16a6" x="90.627168" y="137.464746" style="fill: #1f77b4; stroke: #1f77b4"/>
     <use xlink:href="#mf001fd16a6" x="93.79718" y="133.695046" style="fill: #1f77b4; stroke: #1f77b4"/>
     <use xlink:href="#mf001fd16a6" x="97.158164" y="129.961577" style="fill: #1f77b4; stroke: #1f77b4"/>
     <use xlink:href="#mf001fd16a6" x="100.716619" y="126.261388" style="fill: #1f77b4; stroke: #1f77b4"/>
     <use xlink:href="#mf001fd16a6" x="104.478357" y="122.591842" style="fill: #1f77b4; stroke: #1f77b4"/>
     <use xlink:href="#mf001fd16a6" x="108.448594" y="118.950574" style="fill: #1f77b4; stroke: #1f77b4"/>
     <use xlink:href="#mf001fd16a6" x="112.632021" y="115.335457" style="fill: #1f77b4; stroke: #1f77b4"/>
     <use xlink:href="#mf001fd16a6" x="117.03287" y="111.744568" style="fill: #1f77b4; stroke: #1f77b4"/>
     <use xlink:href="#mf001fd16a6" x="121.654967" y="108.176173" style="fill: #1f77b4; stroke: #1f77b4"/>
     <use xlink:href="#mf001fd16a6" x="126.501785" y="104.628697" style="fill: #1f77b4; stroke: #1f77b4"/>
     <use xlink:href="#mf001fd16a6" x="131.576476" y="101.100709" style="fill: #1f77b4; stroke: #1f77b4"/>
     <use xlink:href="#mf001fd16a6" x="136.881913" y="97.590906" style="fill: #1f77b4; stroke: #1f77b4"/>
     <use xlink:href="#mf001fd16a6" x="142.420719" y="94.098098" style="fill: #1f77b4; stroke: #1f77b4"/>
     <use xlink:href="#mf001fd16a6" x="148.195291" y="90.621197" style="fill: #1f77b4; stroke: #1f77b4"/>
     <use xlink:href="#mf001fd16a6" x="154.207828" y="87.159207" style="fill: #1f77b4; stroke: #1f77b4"/>
     <use xlink:href="#mf001fd16a6" x="160.460348" y="83.711211" style="fill: #1f77b4; stroke: #1f77b4"/>
     <use xlink:href="#mf001fd16a6" x="166.954706" y="80.276368" style="fill: #1f77b4; stroke: #1f77b4"/>
     <use xlink:href="#mf001fd16a6" x="173.692612" y="76.853901" style="fill: #1f77b4; stroke: #1f77b4"/>
     <use xlink:href="#mf001fd16a6" x="244.453004" y="34.977216" style="fill: #1f77b4; stroke: #1f77b4"/>
    </g>
   </g>
   <g id="patch_3">
    <path d="M 53.328125 300.818125 
L 53.328125 22.318125 
" style="fill: none; stroke: #000000; stroke-width: 0.8; stroke-linejoin: miter; stroke-linecap: square"/>
   </g>
   <g id="patch_4">
    <path d="M 444.558659 300.818125 
L 444.558659 22.318125 
" style="fill: none; stroke: #000000; stroke-width: 0.8; stroke-linejoin: miter; stroke-linecap: square"/>
   </g>
   <g id="patch_5">
    <path d="M 53.328125 300.818125 
L 444.558659 300.818125 
" style="fill: none; stroke: #000000; stroke-width: 0.8; stroke-linejoin: miter; stroke-linecap: square"/>
   </g>
   <g id="patch_6">
    <path d="M 53.328125 22.318125 
L 444.558659 22.318125 
" style="fill: none; stroke: #000000; stroke-width: 0.8; stroke-linejoin: miter; stroke-linecap: square"/>
   </g>
   <g id="text_16">
    <!-- Moment Interaction Diagram -->
    <g transform="translate(162.278079 16.318125)scale(0.12 -0.12)">
     <defs>
      <path id="DejaVuSans-49" d="M 628 4666 
L 1259 4666 
L 1259 0 
L 628 0 
L 628 4666 
z
" transform="scale(0.015625)"/>
      <path id="DejaVuSans-44" d="M 1259 4147 
L 1259 519 
L 2022 519 
Q 2988 519 3436 956 
Q 3884 1394 3884 2338 
Q 3884 3275 3436 3711 
Q 2988 4147 2022 4147 
L 1259 4147 
z
M 628 4666 
L 1925 4666 
Q 3281 4666 3915 4102 
Q 4550 3538 4550 2338 
Q 4550 1131 3912 565 
Q 3275 0 1925 0 
L 628 0 
L 628 4666 
z
" transform="scale(0.015625)"/>
     </defs>
     <use xlink:href="#DejaVuSans-4d"/>
     <use xlink:href="#DejaVuSans-6f" x="86.279297"/>
     <use xlink:href="#DejaVuSans-6d" x="147.460938"/>
     <use xlink:href="#DejaVuSans-65" x="244.873047"/>
     <use xlink:href="#DejaVuSans-6e" x="306.396484"/>
     <use xlink:href="#DejaVuSans-74" x="369.775391"/>
     <use xlink:href="#DejaVuSans-20" x="408.984375"/>
     <use xlink:href="#DejaVuSans-49" x="440.771484"/>
     <use xlink:href="#DejaVuSans-6e" x="470.263672"/>
     <use xlink:href="#DejaVuSans-74" x="533.642578"/>
     <use xlink:href="#DejaVuSans-65" x="572.851562"/>
     <use xlink:href="#DejaVuSans-72" x="634.375"/>
     <use xlink:href="#DejaVuSans-61" x="675.488281"/>
     <use xlink:href="#DejaVuSans-63" x="736.767578"/>
     <use xlink:href="#DejaVuSans-74" x="791.748047"/>
     <use xlink:href="#DejaVuSans-69" x="830.957031"/>
     <use xlink:href="#DejaVuSans-6f" x="858.740234"/>
     <use xlink:href="#DejaVuSans-6e" x="919.921875"/>
     <use xlink:href="#DejaVuSans-20" x="983.300781"/>
     <use xlink:href="#DejaVuSans-44" x="1015.087891"/>
     <use xlink:href="#DejaVuSans-69" x="1092.089844"/>
     <use xlink:href="#DejaVuSans-61" x="1119.873047"/>
     <use xlink:href="#DejaVuSans-67" x="1181.152344"/>
     <use xlink:href="#DejaVuSans-72" x="1244.628906"/>
     <use xlink:href="#DejaVuSans-61" x="1285.742188"/>
     <use xlink:href="#DejaVuSans-6d" x="1347.021484"/>
    </g>
   </g>
  </g>
 </g>
 <defs>
  <clipPath id="p185ba79346">
   <rect x="53.328125" y="22.318125" width="391.230534" height="278.5"/>
  </clipPath>
 </defs>
</svg>
