<?xml version="1.0" encoding="utf-8" standalone="no"?>
<!DOCTYPE svg PUBLIC "-//W3C//DTD SVG 1.1//EN"
  "http://www.w3.org/Graphics/SVG/1.1/DTD/svg11.dtd">
<svg xmlns:xlink="http://www.w3.org/1999/xlink" width="312.56681pt" height="294.302472pt" viewBox="0 0 312.56681 294.302472" xmlns="http://www.w3.org/2000/svg" version="1.1">
 <metadata>
  <rdf:RDF xmlns:dc="http://purl.org/dc/elements/1.1/" xmlns:cc="http://creativecommons.org/ns#" xmlns:rdf="http://www.w3.org/1999/02/22-rdf-syntax-ns#">
   <cc:Work>
    <dc:type rdf:resource="http://purl.org/dc/dcmitype/StillImage"/>
    <dc:date>2022-07-20T12:46:10.118051</dc:date>
    <dc:format>image/svg+xml</dc:format>
    <dc:creator>
     <cc:Agent>
      <dc:title>Matplotlib v3.5.2, https://matplotlib.org/</dc:title>
     </cc:Agent>
    </dc:creator>
   </cc:Work>
  </rdf:RDF>
 </metadata>
 <defs>
  <style type="text/css">*{stroke-linejoin: round; stroke-linecap: butt}</style>
 </defs>
 <g id="figure_1">
  <g id="patch_1">
   <path d="M 0 294.302472 
L 312.56681 294.302472 
L 312.56681 0 
L 0 0 
z
" style="fill: #ffffff"/>
  </g>
  <g id="patch_2">
   <path d="M 7.2 273.312 
L 273.312 273.312 
L 273.312 7.2 
L 7.2 7.2 
z
" style="fill: #ffffff"/>
  </g>
  <g id="pane3d_1">
   <g id="patch_3">
    <path d="M 27.293291 207.697309 
L 115.172164 134.035495 
L 113.950564 27.801991 
L 21.866234 95.000941 
" style="fill: #f2f2f2; opacity: 0.5; stroke: #f2f2f2; stroke-linejoin: miter"/>
   </g>
  </g>
  <g id="pane3d_2">
   <g id="patch_4">
    <path d="M 115.172164 134.035495 
L 256.186401 175.022766 
L 261.218702 65.130171 
L 113.950564 27.801991 
" style="fill: #e6e6e6; opacity: 0.5; stroke: #e6e6e6; stroke-linejoin: miter"/>
   </g>
  </g>
  <g id="pane3d_3">
   <g id="patch_5">
    <path d="M 27.293291 207.697309 
L 176.775269 256.518123 
L 256.186401 175.022766 
L 115.172164 134.035495 
" style="fill: #ececec; opacity: 0.5; stroke: #ececec; stroke-linejoin: miter"/>
   </g>
  </g>
  <g id="axis3d_1">
   <g id="line2d_1">
    <path d="M 27.293291 207.697309 
L 176.775269 256.518123 
" style="fill: none; stroke: #000000; stroke-width: 0.8; stroke-linecap: square"/>
   </g>
   <g id="text_1">
    <!-- Bending Moment $M_x$ -->
    <g transform="translate(34.67642 253.594411)rotate(-341.912962)scale(0.1 -0.1)">
     <defs>
      <path id="DejaVuSans-42" d="M 1259 2228 
L 1259 519 
L 2272 519 
Q 2781 519 3026 730 
Q 3272 941 3272 1375 
Q 3272 1813 3026 2020 
Q 2781 2228 2272 2228 
L 1259 2228 
z
M 1259 4147 
L 1259 2741 
L 2194 2741 
Q 2656 2741 2882 2914 
Q 3109 3088 3109 3444 
Q 3109 3797 2882 3972 
Q 2656 4147 2194 4147 
L 1259 4147 
z
M 628 4666 
L 2241 4666 
Q 2963 4666 3353 4366 
Q 3744 4066 3744 3513 
Q 3744 3084 3544 2831 
Q 3344 2578 2956 2516 
Q 3422 2416 3680 2098 
Q 3938 1781 3938 1306 
Q 3938 681 3513 340 
Q 3088 0 2303 0 
L 628 0 
L 628 4666 
z
" transform="scale(0.015625)"/>
      <path id="DejaVuSans-65" d="M 3597 1894 
L 3597 1613 
L 953 1613 
Q 991 1019 1311 708 
Q 1631 397 2203 397 
Q 2534 397 2845 478 
Q 3156 559 3463 722 
L 3463 178 
Q 3153 47 2828 -22 
Q 2503 -91 2169 -91 
Q 1331 -91 842 396 
Q 353 884 353 1716 
Q 353 2575 817 3079 
Q 1281 3584 2069 3584 
Q 2775 3584 3186 3129 
Q 3597 2675 3597 1894 
z
M 3022 2063 
Q 3016 2534 2758 2815 
Q 2500 3097 2075 3097 
Q 1594 3097 1305 2825 
Q 1016 2553 972 2059 
L 3022 2063 
z
" transform="scale(0.015625)"/>
      <path id="DejaVuSans-6e" d="M 3513 2113 
L 3513 0 
L 2938 0 
L 2938 2094 
Q 2938 2591 2744 2837 
Q 2550 3084 2163 3084 
Q 1697 3084 1428 2787 
Q 1159 2491 1159 1978 
L 1159 0 
L 581 0 
L 581 3500 
L 1159 3500 
L 1159 2956 
Q 1366 3272 1645 3428 
Q 1925 3584 2291 3584 
Q 2894 3584 3203 3211 
Q 3513 2838 3513 2113 
z
" transform="scale(0.015625)"/>
      <path id="DejaVuSans-64" d="M 2906 2969 
L 2906 4863 
L 3481 4863 
L 3481 0 
L 2906 0 
L 2906 525 
Q 2725 213 2448 61 
Q 2172 -91 1784 -91 
Q 1150 -91 751 415 
Q 353 922 353 1747 
Q 353 2572 751 3078 
Q 1150 3584 1784 3584 
Q 2172 3584 2448 3432 
Q 2725 3281 2906 2969 
z
M 947 1747 
Q 947 1113 1208 752 
Q 1469 391 1925 391 
Q 2381 391 2643 752 
Q 2906 1113 2906 1747 
Q 2906 2381 2643 2742 
Q 2381 3103 1925 3103 
Q 1469 3103 1208 2742 
Q 947 2381 947 1747 
z
" transform="scale(0.015625)"/>
      <path id="DejaVuSans-69" d="M 603 3500 
L 1178 3500 
L 1178 0 
L 603 0 
L 603 3500 
z
M 603 4863 
L 1178 4863 
L 1178 4134 
L 603 4134 
L 603 4863 
z
" transform="scale(0.015625)"/>
      <path id="DejaVuSans-67" d="M 2906 1791 
Q 2906 2416 2648 2759 
Q 2391 3103 1925 3103 
Q 1463 3103 1205 2759 
Q 947 2416 947 1791 
Q 947 1169 1205 825 
Q 1463 481 1925 481 
Q 2391 481 2648 825 
Q 2906 1169 2906 1791 
z
M 3481 434 
Q 3481 -459 3084 -895 
Q 2688 -1331 1869 -1331 
Q 1566 -1331 1297 -1286 
Q 1028 -1241 775 -1147 
L 775 -588 
Q 1028 -725 1275 -790 
Q 1522 -856 1778 -856 
Q 2344 -856 2625 -561 
Q 2906 -266 2906 331 
L 2906 616 
Q 2728 306 2450 153 
Q 2172 0 1784 0 
Q 1141 0 747 490 
Q 353 981 353 1791 
Q 353 2603 747 3093 
Q 1141 3584 1784 3584 
Q 2172 3584 2450 3431 
Q 2728 3278 2906 2969 
L 2906 3500 
L 3481 3500 
L 3481 434 
z
" transform="scale(0.015625)"/>
      <path id="DejaVuSans-20" transform="scale(0.015625)"/>
      <path id="DejaVuSans-4d" d="M 628 4666 
L 1569 4666 
L 2759 1491 
L 3956 4666 
L 4897 4666 
L 4897 0 
L 4281 0 
L 4281 4097 
L 3078 897 
L 2444 897 
L 1241 4097 
L 1241 0 
L 628 0 
L 628 4666 
z
" transform="scale(0.015625)"/>
      <path id="DejaVuSans-6f" d="M 1959 3097 
Q 1497 3097 1228 2736 
Q 959 2375 959 1747 
Q 959 1119 1226 758 
Q 1494 397 1959 397 
Q 2419 397 2687 759 
Q 2956 1122 2956 1747 
Q 2956 2369 2687 2733 
Q 2419 3097 1959 3097 
z
M 1959 3584 
Q 2709 3584 3137 3096 
Q 3566 2609 3566 1747 
Q 3566 888 3137 398 
Q 2709 -91 1959 -91 
Q 1206 -91 779 398 
Q 353 888 353 1747 
Q 353 2609 779 3096 
Q 1206 3584 1959 3584 
z
" transform="scale(0.015625)"/>
      <path id="DejaVuSans-6d" d="M 3328 2828 
Q 3544 3216 3844 3400 
Q 4144 3584 4550 3584 
Q 5097 3584 5394 3201 
Q 5691 2819 5691 2113 
L 5691 0 
L 5113 0 
L 5113 2094 
Q 5113 2597 4934 2840 
Q 4756 3084 4391 3084 
Q 3944 3084 3684 2787 
Q 3425 2491 3425 1978 
L 3425 0 
L 2847 0 
L 2847 2094 
Q 2847 2600 2669 2842 
Q 2491 3084 2119 3084 
Q 1678 3084 1418 2786 
Q 1159 2488 1159 1978 
L 1159 0 
L 581 0 
L 581 3500 
L 1159 3500 
L 1159 2956 
Q 1356 3278 1631 3431 
Q 1906 3584 2284 3584 
Q 2666 3584 2933 3390 
Q 3200 3197 3328 2828 
z
" transform="scale(0.015625)"/>
      <path id="DejaVuSans-74" d="M 1172 4494 
L 1172 3500 
L 2356 3500 
L 2356 3053 
L 1172 3053 
L 1172 1153 
Q 1172 725 1289 603 
Q 1406 481 1766 481 
L 2356 481 
L 2356 0 
L 1766 0 
Q 1100 0 847 248 
Q 594 497 594 1153 
L 594 3053 
L 172 3053 
L 172 3500 
L 594 3500 
L 594 4494 
L 1172 4494 
z
" transform="scale(0.015625)"/>
      <path id="DejaVuSans-Oblique-4d" d="M 1081 4666 
L 2028 4666 
L 2572 1522 
L 4378 4666 
L 5350 4666 
L 4441 0 
L 3828 0 
L 4622 4091 
L 2791 897 
L 2175 897 
L 1581 4103 
L 788 0 
L 172 0 
L 1081 4666 
z
" transform="scale(0.015625)"/>
      <path id="DejaVuSans-Oblique-78" d="M 3841 3500 
L 2234 1784 
L 3219 0 
L 2559 0 
L 1819 1388 
L 531 0 
L -166 0 
L 1556 1844 
L 641 3500 
L 1300 3500 
L 1972 2234 
L 3144 3500 
L 3841 3500 
z
" transform="scale(0.015625)"/>
     </defs>
     <use xlink:href="#DejaVuSans-42" transform="translate(0 0.015625)"/>
     <use xlink:href="#DejaVuSans-65" transform="translate(68.603516 0.015625)"/>
     <use xlink:href="#DejaVuSans-6e" transform="translate(130.126953 0.015625)"/>
     <use xlink:href="#DejaVuSans-64" transform="translate(193.505859 0.015625)"/>
     <use xlink:href="#DejaVuSans-69" transform="translate(256.982422 0.015625)"/>
     <use xlink:href="#DejaVuSans-6e" transform="translate(284.765625 0.015625)"/>
     <use xlink:href="#DejaVuSans-67" transform="translate(348.144531 0.015625)"/>
     <use xlink:href="#DejaVuSans-20" transform="translate(411.621094 0.015625)"/>
     <use xlink:href="#DejaVuSans-4d" transform="translate(443.408203 0.015625)"/>
     <use xlink:href="#DejaVuSans-6f" transform="translate(529.6875 0.015625)"/>
     <use xlink:href="#DejaVuSans-6d" transform="translate(590.869141 0.015625)"/>
     <use xlink:href="#DejaVuSans-65" transform="translate(688.28125 0.015625)"/>
     <use xlink:href="#DejaVuSans-6e" transform="translate(749.804688 0.015625)"/>
     <use xlink:href="#DejaVuSans-74" transform="translate(813.183594 0.015625)"/>
     <use xlink:href="#DejaVuSans-20" transform="translate(852.392578 0.015625)"/>
     <use xlink:href="#DejaVuSans-Oblique-4d" transform="translate(884.179688 0.015625)"/>
     <use xlink:href="#DejaVuSans-Oblique-78" transform="translate(970.458984 -16.390625)scale(0.7)"/>
    </g>
   </g>
   <g id="Line3DCollection_1">
    <path d="M 31.998267 209.233954 
L 119.629635 135.331106 
L 118.596214 28.979528 
" style="fill: none; stroke: #b0b0b0; stroke-width: 0.8"/>
    <path d="M 54.320475 216.524387 
L 140.760677 141.473065 
L 140.627765 34.563884 
" style="fill: none; stroke: #b0b0b0; stroke-width: 0.8"/>
    <path d="M 77.006031 223.93349 
L 162.207109 147.706696 
L 163.002397 40.235201 
" style="fill: none; stroke: #b0b0b0; stroke-width: 0.8"/>
    <path d="M 100.063881 231.464184 
L 183.976048 154.034068 
L 185.728185 45.995526 
" style="fill: none; stroke: #b0b0b0; stroke-width: 0.8"/>
    <path d="M 123.503266 239.119487 
L 206.074822 160.457309 
L 208.813462 51.84697 
" style="fill: none; stroke: #b0b0b0; stroke-width: 0.8"/>
    <path d="M 147.333733 246.902517 
L 228.510986 166.978616 
L 232.266825 57.791714 
" style="fill: none; stroke: #b0b0b0; stroke-width: 0.8"/>
    <path d="M 171.565153 254.816499 
L 251.292324 173.600251 
L 256.09715 63.832007 
" style="fill: none; stroke: #b0b0b0; stroke-width: 0.8"/>
   </g>
   <g id="xtick_1">
    <g id="line2d_2">
     <path d="M 32.761259 208.590495 
L 30.469015 210.523631 
" style="fill: none; stroke: #000000; stroke-width: 0.8; stroke-linecap: square"/>
    </g>
    <g id="text_2">
     <!-- −600 -->
     <g transform="translate(10.731351 232.513072)scale(0.1 -0.1)">
      <defs>
       <path id="DejaVuSans-2212" d="M 678 2272 
L 4684 2272 
L 4684 1741 
L 678 1741 
L 678 2272 
z
" transform="scale(0.015625)"/>
       <path id="DejaVuSans-36" d="M 2113 2584 
Q 1688 2584 1439 2293 
Q 1191 2003 1191 1497 
Q 1191 994 1439 701 
Q 1688 409 2113 409 
Q 2538 409 2786 701 
Q 3034 994 3034 1497 
Q 3034 2003 2786 2293 
Q 2538 2584 2113 2584 
z
M 3366 4563 
L 3366 3988 
Q 3128 4100 2886 4159 
Q 2644 4219 2406 4219 
Q 1781 4219 1451 3797 
Q 1122 3375 1075 2522 
Q 1259 2794 1537 2939 
Q 1816 3084 2150 3084 
Q 2853 3084 3261 2657 
Q 3669 2231 3669 1497 
Q 3669 778 3244 343 
Q 2819 -91 2113 -91 
Q 1303 -91 875 529 
Q 447 1150 447 2328 
Q 447 3434 972 4092 
Q 1497 4750 2381 4750 
Q 2619 4750 2861 4703 
Q 3103 4656 3366 4563 
z
" transform="scale(0.015625)"/>
       <path id="DejaVuSans-30" d="M 2034 4250 
Q 1547 4250 1301 3770 
Q 1056 3291 1056 2328 
Q 1056 1369 1301 889 
Q 1547 409 2034 409 
Q 2525 409 2770 889 
Q 3016 1369 3016 2328 
Q 3016 3291 2770 3770 
Q 2525 4250 2034 4250 
z
M 2034 4750 
Q 2819 4750 3233 4129 
Q 3647 3509 3647 2328 
Q 3647 1150 3233 529 
Q 2819 -91 2034 -91 
Q 1250 -91 836 529 
Q 422 1150 422 2328 
Q 422 3509 836 4129 
Q 1250 4750 2034 4750 
z
" transform="scale(0.015625)"/>
      </defs>
      <use xlink:href="#DejaVuSans-2212"/>
      <use xlink:href="#DejaVuSans-36" x="83.789062"/>
      <use xlink:href="#DejaVuSans-30" x="147.412109"/>
      <use xlink:href="#DejaVuSans-30" x="211.035156"/>
     </g>
    </g>
   </g>
   <g id="xtick_2">
    <g id="line2d_3">
     <path d="M 55.073588 215.8705 
L 52.810995 217.834986 
" style="fill: none; stroke: #000000; stroke-width: 0.8; stroke-linecap: square"/>
    </g>
    <g id="text_3">
     <!-- −400 -->
     <g transform="translate(33.076032 239.957846)scale(0.1 -0.1)">
      <defs>
       <path id="DejaVuSans-34" d="M 2419 4116 
L 825 1625 
L 2419 1625 
L 2419 4116 
z
M 2253 4666 
L 3047 4666 
L 3047 1625 
L 3713 1625 
L 3713 1100 
L 3047 1100 
L 3047 0 
L 2419 0 
L 2419 1100 
L 313 1100 
L 313 1709 
L 2253 4666 
z
" transform="scale(0.015625)"/>
      </defs>
      <use xlink:href="#DejaVuSans-2212"/>
      <use xlink:href="#DejaVuSans-34" x="83.789062"/>
      <use xlink:href="#DejaVuSans-30" x="147.412109"/>
      <use xlink:href="#DejaVuSans-30" x="211.035156"/>
     </g>
    </g>
   </g>
   <g id="xtick_3">
    <g id="line2d_4">
     <path d="M 77.748842 223.268919 
L 75.517175 225.265524 
" style="fill: none; stroke: #000000; stroke-width: 0.8; stroke-linecap: square"/>
    </g>
    <g id="text_4">
     <!-- −200 -->
     <g transform="translate(55.7858 247.52426)scale(0.1 -0.1)">
      <defs>
       <path id="DejaVuSans-32" d="M 1228 531 
L 3431 531 
L 3431 0 
L 469 0 
L 469 531 
Q 828 903 1448 1529 
Q 2069 2156 2228 2338 
Q 2531 2678 2651 2914 
Q 2772 3150 2772 3378 
Q 2772 3750 2511 3984 
Q 2250 4219 1831 4219 
Q 1534 4219 1204 4116 
Q 875 4013 500 3803 
L 500 4441 
Q 881 4594 1212 4672 
Q 1544 4750 1819 4750 
Q 2544 4750 2975 4387 
Q 3406 4025 3406 3419 
Q 3406 3131 3298 2873 
Q 3191 2616 2906 2266 
Q 2828 2175 2409 1742 
Q 1991 1309 1228 531 
z
" transform="scale(0.015625)"/>
      </defs>
      <use xlink:href="#DejaVuSans-2212"/>
      <use xlink:href="#DejaVuSans-32" x="83.789062"/>
      <use xlink:href="#DejaVuSans-30" x="147.412109"/>
      <use xlink:href="#DejaVuSans-30" x="211.035156"/>
     </g>
    </g>
   </g>
   <g id="xtick_4">
    <g id="line2d_5">
     <path d="M 100.79595 230.788666 
L 98.596531 232.818184 
" style="fill: none; stroke: #000000; stroke-width: 0.8; stroke-linecap: square"/>
    </g>
    <g id="text_5">
     <!-- 0 -->
     <g transform="translate(89.42202 255.215318)scale(0.1 -0.1)">
      <use xlink:href="#DejaVuSans-30"/>
     </g>
    </g>
   </g>
   <g id="xtick_5">
    <g id="line2d_6">
     <path d="M 124.224133 238.432749 
L 122.058341 240.496 
" style="fill: none; stroke: #000000; stroke-width: 0.8; stroke-linecap: square"/>
    </g>
    <g id="text_6">
     <!-- 200 -->
     <g transform="translate(106.526826 263.034127)scale(0.1 -0.1)">
      <use xlink:href="#DejaVuSans-32"/>
      <use xlink:href="#DejaVuSans-30" x="63.623047"/>
      <use xlink:href="#DejaVuSans-30" x="127.246094"/>
     </g>
    </g>
   </g>
   <g id="xtick_6">
    <g id="line2d_7">
     <path d="M 148.042921 246.204278 
L 145.912191 248.302111 
" style="fill: none; stroke: #000000; stroke-width: 0.8; stroke-linecap: square"/>
    </g>
    <g id="text_7">
     <!-- 400 -->
     <g transform="translate(130.387195 270.983896)scale(0.1 -0.1)">
      <use xlink:href="#DejaVuSans-34"/>
      <use xlink:href="#DejaVuSans-30" x="63.623047"/>
      <use xlink:href="#DejaVuSans-30" x="127.246094"/>
     </g>
    </g>
   </g>
   <g id="xtick_7">
    <g id="line2d_8">
     <path d="M 172.262167 254.106467 
L 170.167989 256.239758 
" style="fill: none; stroke: #000000; stroke-width: 0.8; stroke-linecap: square"/>
    </g>
    <g id="text_8">
     <!-- 600 -->
     <g transform="translate(154.650585 279.067944)scale(0.1 -0.1)">
      <use xlink:href="#DejaVuSans-36"/>
      <use xlink:href="#DejaVuSans-30" x="63.623047"/>
      <use xlink:href="#DejaVuSans-30" x="127.246094"/>
     </g>
    </g>
   </g>
  </g>
  <g id="axis3d_2">
   <g id="line2d_9">
    <path d="M 256.186401 175.022766 
L 176.775269 256.518123 
" style="fill: none; stroke: #000000; stroke-width: 0.8; stroke-linecap: square"/>
   </g>
   <g id="text_9">
    <!-- Bending Moment $M_y$ -->
    <g transform="translate(211.422375 279.87502)rotate(-45.742112)scale(0.1 -0.1)">
     <defs>
      <path id="DejaVuSans-Oblique-79" d="M 1588 -325 
Q 1188 -997 936 -1164 
Q 684 -1331 294 -1331 
L -159 -1331 
L -63 -850 
L 269 -850 
Q 509 -850 678 -719 
Q 847 -588 1056 -206 
L 1234 128 
L 459 3500 
L 1069 3500 
L 1650 819 
L 3256 3500 
L 3859 3500 
L 1588 -325 
z
" transform="scale(0.015625)"/>
     </defs>
     <use xlink:href="#DejaVuSans-42" transform="translate(0 0.015625)"/>
     <use xlink:href="#DejaVuSans-65" transform="translate(68.603516 0.015625)"/>
     <use xlink:href="#DejaVuSans-6e" transform="translate(130.126953 0.015625)"/>
     <use xlink:href="#DejaVuSans-64" transform="translate(193.505859 0.015625)"/>
     <use xlink:href="#DejaVuSans-69" transform="translate(256.982422 0.015625)"/>
     <use xlink:href="#DejaVuSans-6e" transform="translate(284.765625 0.015625)"/>
     <use xlink:href="#DejaVuSans-67" transform="translate(348.144531 0.015625)"/>
     <use xlink:href="#DejaVuSans-20" transform="translate(411.621094 0.015625)"/>
     <use xlink:href="#DejaVuSans-4d" transform="translate(443.408203 0.015625)"/>
     <use xlink:href="#DejaVuSans-6f" transform="translate(529.6875 0.015625)"/>
     <use xlink:href="#DejaVuSans-6d" transform="translate(590.869141 0.015625)"/>
     <use xlink:href="#DejaVuSans-65" transform="translate(688.28125 0.015625)"/>
     <use xlink:href="#DejaVuSans-6e" transform="translate(749.804688 0.015625)"/>
     <use xlink:href="#DejaVuSans-74" transform="translate(813.183594 0.015625)"/>
     <use xlink:href="#DejaVuSans-20" transform="translate(852.392578 0.015625)"/>
     <use xlink:href="#DejaVuSans-Oblique-4d" transform="translate(884.179688 0.015625)"/>
     <use xlink:href="#DejaVuSans-Oblique-79" transform="translate(970.458984 -16.390625)scale(0.7)"/>
    </g>
   </g>
   <g id="Line3DCollection_2">
    <path d="M 34.64914 85.672558 
L 39.45257 197.50516 
L 187.804782 245.199129 
" style="fill: none; stroke: #b0b0b0; stroke-width: 0.8"/>
    <path d="M 46.683547 76.890396 
L 50.91157 187.899999 
L 198.186736 234.54469 
" style="fill: none; stroke: #b0b0b0; stroke-width: 0.8"/>
    <path d="M 58.449806 68.303916 
L 62.126234 178.499645 
L 208.33574 224.129316 
" style="fill: none; stroke: #b0b0b0; stroke-width: 0.8"/>
    <path d="M 69.956779 59.906651 
L 73.104295 169.297617 
L 218.259547 213.945048 
" style="fill: none; stroke: #b0b0b0; stroke-width: 0.8"/>
    <path d="M 81.212945 51.692414 
L 83.853161 160.287704 
L 227.96557 203.98428 
" style="fill: none; stroke: #b0b0b0; stroke-width: 0.8"/>
    <path d="M 92.226414 43.655286 
L 94.379937 151.463952 
L 237.460902 194.239734 
" style="fill: none; stroke: #b0b0b0; stroke-width: 0.8"/>
    <path d="M 103.004952 35.7896 
L 104.691435 142.82065 
L 246.752328 184.704446 
" style="fill: none; stroke: #b0b0b0; stroke-width: 0.8"/>
   </g>
   <g id="xtick_8">
    <g id="line2d_10">
     <path d="M 186.554995 244.797333 
L 190.307571 246.003754 
" style="fill: none; stroke: #000000; stroke-width: 0.8; stroke-linecap: square"/>
    </g>
    <g id="text_10">
     <!-- −750 -->
     <g transform="translate(186.877624 266.136721)scale(0.1 -0.1)">
      <defs>
       <path id="DejaVuSans-37" d="M 525 4666 
L 3525 4666 
L 3525 4397 
L 1831 0 
L 1172 0 
L 2766 4134 
L 525 4134 
L 525 4666 
z
" transform="scale(0.015625)"/>
       <path id="DejaVuSans-35" d="M 691 4666 
L 3169 4666 
L 3169 4134 
L 1269 4134 
L 1269 2991 
Q 1406 3038 1543 3061 
Q 1681 3084 1819 3084 
Q 2600 3084 3056 2656 
Q 3513 2228 3513 1497 
Q 3513 744 3044 326 
Q 2575 -91 1722 -91 
Q 1428 -91 1123 -41 
Q 819 9 494 109 
L 494 744 
Q 775 591 1075 516 
Q 1375 441 1709 441 
Q 2250 441 2565 725 
Q 2881 1009 2881 1497 
Q 2881 1984 2565 2268 
Q 2250 2553 1709 2553 
Q 1456 2553 1204 2497 
Q 953 2441 691 2322 
L 691 4666 
z
" transform="scale(0.015625)"/>
      </defs>
      <use xlink:href="#DejaVuSans-2212"/>
      <use xlink:href="#DejaVuSans-37" x="83.789062"/>
      <use xlink:href="#DejaVuSans-35" x="147.412109"/>
      <use xlink:href="#DejaVuSans-30" x="211.035156"/>
     </g>
    </g>
   </g>
   <g id="xtick_9">
    <g id="line2d_11">
     <path d="M 196.946731 234.151958 
L 200.669898 235.331152 
" style="fill: none; stroke: #000000; stroke-width: 0.8; stroke-linecap: square"/>
    </g>
    <g id="text_11">
     <!-- −500 -->
     <g transform="translate(197.120296 255.324574)scale(0.1 -0.1)">
      <use xlink:href="#DejaVuSans-2212"/>
      <use xlink:href="#DejaVuSans-35" x="83.789062"/>
      <use xlink:href="#DejaVuSans-30" x="147.412109"/>
      <use xlink:href="#DejaVuSans-30" x="211.035156"/>
     </g>
    </g>
   </g>
   <g id="xtick_10">
    <g id="line2d_12">
     <path d="M 207.105395 223.745345 
L 210.799521 224.898223 
" style="fill: none; stroke: #000000; stroke-width: 0.8; stroke-linecap: square"/>
    </g>
    <g id="text_12">
     <!-- −250 -->
     <g transform="translate(207.133009 244.755172)scale(0.1 -0.1)">
      <use xlink:href="#DejaVuSans-2212"/>
      <use xlink:href="#DejaVuSans-32" x="83.789062"/>
      <use xlink:href="#DejaVuSans-35" x="147.412109"/>
      <use xlink:href="#DejaVuSans-30" x="211.035156"/>
     </g>
    </g>
   </g>
   <g id="xtick_11">
    <g id="line2d_13">
     <path d="M 217.038742 213.569548 
L 220.704191 214.696982 
" style="fill: none; stroke: #000000; stroke-width: 0.8; stroke-linecap: square"/>
    </g>
    <g id="text_13">
     <!-- 0 -->
     <g transform="translate(227.475766 234.420429)scale(0.1 -0.1)">
      <use xlink:href="#DejaVuSans-30"/>
     </g>
    </g>
   </g>
   <g id="xtick_12">
    <g id="line2d_14">
     <path d="M 226.754184 203.616974 
L 230.39132 204.719796 
" style="fill: none; stroke: #000000; stroke-width: 0.8; stroke-linecap: square"/>
    </g>
    <g id="text_14">
     <!-- 250 -->
     <g transform="translate(230.6887 224.312616)scale(0.1 -0.1)">
      <use xlink:href="#DejaVuSans-32"/>
      <use xlink:href="#DejaVuSans-35" x="63.623047"/>
      <use xlink:href="#DejaVuSans-30" x="127.246094"/>
     </g>
    </g>
   </g>
   <g id="xtick_13">
    <g id="line2d_15">
     <path d="M 236.258816 193.880356 
L 239.867996 194.959364 
" style="fill: none; stroke: #000000; stroke-width: 0.8; stroke-linecap: square"/>
    </g>
    <g id="text_15">
     <!-- 500 -->
     <g transform="translate(240.05616 214.424342)scale(0.1 -0.1)">
      <use xlink:href="#DejaVuSans-35"/>
      <use xlink:href="#DejaVuSans-30" x="63.623047"/>
      <use xlink:href="#DejaVuSans-30" x="127.246094"/>
     </g>
    </g>
   </g>
   <g id="xtick_14">
    <g id="line2d_16">
     <path d="M 245.559424 184.352742 
L 249.141004 185.408699 
" style="fill: none; stroke: #000000; stroke-width: 0.8; stroke-linecap: square"/>
    </g>
    <g id="text_16">
     <!-- 750 -->
     <g transform="translate(249.222349 204.748529)scale(0.1 -0.1)">
      <use xlink:href="#DejaVuSans-37"/>
      <use xlink:href="#DejaVuSans-35" x="63.623047"/>
      <use xlink:href="#DejaVuSans-30" x="127.246094"/>
     </g>
    </g>
   </g>
  </g>
  <g id="axis3d_3">
   <g id="line2d_17">
    <path d="M 256.186401 175.022766 
L 261.218702 65.130171 
" style="fill: none; stroke: #000000; stroke-width: 0.8; stroke-linecap: square"/>
   </g>
   <g id="text_17">
    <!-- Axial Force $N$ -->
    <g transform="translate(300.270132 148.962585)rotate(-87.378092)scale(0.1 -0.1)">
     <defs>
      <path id="DejaVuSans-41" d="M 2188 4044 
L 1331 1722 
L 3047 1722 
L 2188 4044 
z
M 1831 4666 
L 2547 4666 
L 4325 0 
L 3669 0 
L 3244 1197 
L 1141 1197 
L 716 0 
L 50 0 
L 1831 4666 
z
" transform="scale(0.015625)"/>
      <path id="DejaVuSans-78" d="M 3513 3500 
L 2247 1797 
L 3578 0 
L 2900 0 
L 1881 1375 
L 863 0 
L 184 0 
L 1544 1831 
L 300 3500 
L 978 3500 
L 1906 2253 
L 2834 3500 
L 3513 3500 
z
" transform="scale(0.015625)"/>
      <path id="DejaVuSans-61" d="M 2194 1759 
Q 1497 1759 1228 1600 
Q 959 1441 959 1056 
Q 959 750 1161 570 
Q 1363 391 1709 391 
Q 2188 391 2477 730 
Q 2766 1069 2766 1631 
L 2766 1759 
L 2194 1759 
z
M 3341 1997 
L 3341 0 
L 2766 0 
L 2766 531 
Q 2569 213 2275 61 
Q 1981 -91 1556 -91 
Q 1019 -91 701 211 
Q 384 513 384 1019 
Q 384 1609 779 1909 
Q 1175 2209 1959 2209 
L 2766 2209 
L 2766 2266 
Q 2766 2663 2505 2880 
Q 2244 3097 1772 3097 
Q 1472 3097 1187 3025 
Q 903 2953 641 2809 
L 641 3341 
Q 956 3463 1253 3523 
Q 1550 3584 1831 3584 
Q 2591 3584 2966 3190 
Q 3341 2797 3341 1997 
z
" transform="scale(0.015625)"/>
      <path id="DejaVuSans-6c" d="M 603 4863 
L 1178 4863 
L 1178 0 
L 603 0 
L 603 4863 
z
" transform="scale(0.015625)"/>
      <path id="DejaVuSans-46" d="M 628 4666 
L 3309 4666 
L 3309 4134 
L 1259 4134 
L 1259 2759 
L 3109 2759 
L 3109 2228 
L 1259 2228 
L 1259 0 
L 628 0 
L 628 4666 
z
" transform="scale(0.015625)"/>
      <path id="DejaVuSans-72" d="M 2631 2963 
Q 2534 3019 2420 3045 
Q 2306 3072 2169 3072 
Q 1681 3072 1420 2755 
Q 1159 2438 1159 1844 
L 1159 0 
L 581 0 
L 581 3500 
L 1159 3500 
L 1159 2956 
Q 1341 3275 1631 3429 
Q 1922 3584 2338 3584 
Q 2397 3584 2469 3576 
Q 2541 3569 2628 3553 
L 2631 2963 
z
" transform="scale(0.015625)"/>
      <path id="DejaVuSans-63" d="M 3122 3366 
L 3122 2828 
Q 2878 2963 2633 3030 
Q 2388 3097 2138 3097 
Q 1578 3097 1268 2742 
Q 959 2388 959 1747 
Q 959 1106 1268 751 
Q 1578 397 2138 397 
Q 2388 397 2633 464 
Q 2878 531 3122 666 
L 3122 134 
Q 2881 22 2623 -34 
Q 2366 -91 2075 -91 
Q 1284 -91 818 406 
Q 353 903 353 1747 
Q 353 2603 823 3093 
Q 1294 3584 2113 3584 
Q 2378 3584 2631 3529 
Q 2884 3475 3122 3366 
z
" transform="scale(0.015625)"/>
      <path id="DejaVuSans-Oblique-4e" d="M 1081 4666 
L 1931 4666 
L 3219 666 
L 4000 4666 
L 4616 4666 
L 3706 0 
L 2853 0 
L 1569 4025 
L 788 0 
L 172 0 
L 1081 4666 
z
" transform="scale(0.015625)"/>
     </defs>
     <use xlink:href="#DejaVuSans-41" transform="translate(0 0.015625)"/>
     <use xlink:href="#DejaVuSans-78" transform="translate(68.408203 0.015625)"/>
     <use xlink:href="#DejaVuSans-69" transform="translate(127.587891 0.015625)"/>
     <use xlink:href="#DejaVuSans-61" transform="translate(155.371094 0.015625)"/>
     <use xlink:href="#DejaVuSans-6c" transform="translate(216.650391 0.015625)"/>
     <use xlink:href="#DejaVuSans-20" transform="translate(244.433594 0.015625)"/>
     <use xlink:href="#DejaVuSans-46" transform="translate(276.220703 0.015625)"/>
     <use xlink:href="#DejaVuSans-6f" transform="translate(333.740234 0.015625)"/>
     <use xlink:href="#DejaVuSans-72" transform="translate(394.921875 0.015625)"/>
     <use xlink:href="#DejaVuSans-63" transform="translate(436.035156 0.015625)"/>
     <use xlink:href="#DejaVuSans-65" transform="translate(491.015625 0.015625)"/>
     <use xlink:href="#DejaVuSans-20" transform="translate(552.539062 0.015625)"/>
     <use xlink:href="#DejaVuSans-Oblique-4e" transform="translate(584.326172 0.015625)"/>
    </g>
   </g>
   <g id="Line3DCollection_3">
    <path d="M 256.282814 172.917346 
L 115.148711 131.99596 
L 27.189487 205.541739 
" style="fill: none; stroke: #b0b0b0; stroke-width: 0.8"/>
    <path d="M 256.912238 159.172321 
L 114.995647 118.68512 
L 26.511644 191.4659 
" style="fill: none; stroke: #b0b0b0; stroke-width: 0.8"/>
    <path d="M 257.54875 145.272532 
L 114.840942 105.231556 
L 25.825879 177.225536 
" style="fill: none; stroke: #b0b0b0; stroke-width: 0.8"/>
    <path d="M 258.192469 131.21535 
L 114.684569 91.632959 
L 25.13205 162.817745 
" style="fill: none; stroke: #b0b0b0; stroke-width: 0.8"/>
    <path d="M 258.843519 116.998085 
L 114.526501 77.886973 
L 24.430017 148.239558 
" style="fill: none; stroke: #b0b0b0; stroke-width: 0.8"/>
    <path d="M 259.502026 102.617988 
L 114.366711 63.991188 
L 23.719631 133.487933 
" style="fill: none; stroke: #b0b0b0; stroke-width: 0.8"/>
    <path d="M 260.168117 88.072245 
L 114.205169 49.943141 
L 23.000743 118.559757 
" style="fill: none; stroke: #b0b0b0; stroke-width: 0.8"/>
    <path d="M 260.841926 73.357977 
L 114.041848 35.740316 
L 22.273199 103.451841 
" style="fill: none; stroke: #b0b0b0; stroke-width: 0.8"/>
   </g>
   <g id="xtick_15">
    <g id="line2d_18">
     <path d="M 255.098262 172.573889 
L 258.654736 173.605077 
" style="fill: none; stroke: #000000; stroke-width: 0.8; stroke-linecap: square"/>
    </g>
    <g id="text_18">
     <!-- 0 -->
     <g transform="translate(271.365529 177.914875)scale(0.1 -0.1)">
      <use xlink:href="#DejaVuSans-30"/>
     </g>
    </g>
   </g>
   <g id="xtick_16">
    <g id="line2d_19">
     <path d="M 255.720807 158.83242 
L 259.297953 159.852939 
" style="fill: none; stroke: #000000; stroke-width: 0.8; stroke-linecap: square"/>
    </g>
    <g id="text_19">
     <!-- 1000 -->
     <g transform="translate(262.551244 164.19681)scale(0.1 -0.1)">
      <defs>
       <path id="DejaVuSans-31" d="M 794 531 
L 1825 531 
L 1825 4091 
L 703 3866 
L 703 4441 
L 1819 4666 
L 2450 4666 
L 2450 531 
L 3481 531 
L 3481 0 
L 794 0 
L 794 531 
z
" transform="scale(0.015625)"/>
      </defs>
      <use xlink:href="#DejaVuSans-31"/>
      <use xlink:href="#DejaVuSans-30" x="63.623047"/>
      <use xlink:href="#DejaVuSans-30" x="127.246094"/>
      <use xlink:href="#DejaVuSans-30" x="190.869141"/>
     </g>
    </g>
   </g>
   <g id="xtick_17">
    <g id="line2d_20">
     <path d="M 256.350359 144.936288 
L 259.948417 145.945831 
" style="fill: none; stroke: #000000; stroke-width: 0.8; stroke-linecap: square"/>
    </g>
    <g id="text_20">
     <!-- 2000 -->
     <g transform="translate(263.288897 150.324752)scale(0.1 -0.1)">
      <use xlink:href="#DejaVuSans-32"/>
      <use xlink:href="#DejaVuSans-30" x="63.623047"/>
      <use xlink:href="#DejaVuSans-30" x="127.246094"/>
      <use xlink:href="#DejaVuSans-30" x="190.869141"/>
     </g>
    </g>
   </g>
   <g id="xtick_18">
    <g id="line2d_21">
     <path d="M 256.987037 130.882867 
L 260.606253 131.88112 
" style="fill: none; stroke: #000000; stroke-width: 0.8; stroke-linecap: square"/>
    </g>
    <g id="text_21">
     <!-- 3000 -->
     <g transform="translate(264.034877 136.296094)scale(0.1 -0.1)">
      <defs>
       <path id="DejaVuSans-33" d="M 2597 2516 
Q 3050 2419 3304 2112 
Q 3559 1806 3559 1356 
Q 3559 666 3084 287 
Q 2609 -91 1734 -91 
Q 1441 -91 1130 -33 
Q 819 25 488 141 
L 488 750 
Q 750 597 1062 519 
Q 1375 441 1716 441 
Q 2309 441 2620 675 
Q 2931 909 2931 1356 
Q 2931 1769 2642 2001 
Q 2353 2234 1838 2234 
L 1294 2234 
L 1294 2753 
L 1863 2753 
Q 2328 2753 2575 2939 
Q 2822 3125 2822 3475 
Q 2822 3834 2567 4026 
Q 2313 4219 1838 4219 
Q 1578 4219 1281 4162 
Q 984 4106 628 3988 
L 628 4550 
Q 988 4650 1302 4700 
Q 1616 4750 1894 4750 
Q 2613 4750 3031 4423 
Q 3450 4097 3450 3541 
Q 3450 3153 3228 2886 
Q 3006 2619 2597 2516 
z
" transform="scale(0.015625)"/>
      </defs>
      <use xlink:href="#DejaVuSans-33"/>
      <use xlink:href="#DejaVuSans-30" x="63.623047"/>
      <use xlink:href="#DejaVuSans-30" x="127.246094"/>
      <use xlink:href="#DejaVuSans-30" x="190.869141"/>
     </g>
    </g>
   </g>
   <g id="xtick_19">
    <g id="line2d_22">
     <path d="M 257.630962 116.669472 
L 261.271586 117.656111 
" style="fill: none; stroke: #000000; stroke-width: 0.8; stroke-linecap: square"/>
    </g>
    <g id="text_22">
     <!-- 4000 -->
     <g transform="translate(264.789327 122.108169)scale(0.1 -0.1)">
      <use xlink:href="#DejaVuSans-34"/>
      <use xlink:href="#DejaVuSans-30" x="63.623047"/>
      <use xlink:href="#DejaVuSans-30" x="127.246094"/>
      <use xlink:href="#DejaVuSans-30" x="190.869141"/>
     </g>
    </g>
   </g>
   <g id="xtick_20">
    <g id="line2d_23">
     <path d="M 258.282259 102.293355 
L 261.944546 103.268048 
" style="fill: none; stroke: #000000; stroke-width: 0.8; stroke-linecap: square"/>
    </g>
    <g id="text_23">
     <!-- 5000 -->
     <g transform="translate(265.55239 107.75825)scale(0.1 -0.1)">
      <use xlink:href="#DejaVuSans-35"/>
      <use xlink:href="#DejaVuSans-30" x="63.623047"/>
      <use xlink:href="#DejaVuSans-30" x="127.246094"/>
      <use xlink:href="#DejaVuSans-30" x="190.869141"/>
     </g>
    </g>
   </g>
   <g id="xtick_21">
    <g id="line2d_24">
     <path d="M 258.941055 87.751706 
L 262.625264 88.714112 
" style="fill: none; stroke: #000000; stroke-width: 0.8; stroke-linecap: square"/>
    </g>
    <g id="text_24">
     <!-- 6000 -->
     <g transform="translate(266.324216 93.243545)scale(0.1 -0.1)">
      <use xlink:href="#DejaVuSans-36"/>
      <use xlink:href="#DejaVuSans-30" x="63.623047"/>
      <use xlink:href="#DejaVuSans-30" x="127.246094"/>
      <use xlink:href="#DejaVuSans-30" x="190.869141"/>
     </g>
    </g>
   </g>
   <g id="xtick_22">
    <g id="line2d_25">
     <path d="M 259.607481 73.041649 
L 263.313875 73.991416 
" style="fill: none; stroke: #000000; stroke-width: 0.8; stroke-linecap: square"/>
    </g>
    <g id="text_25">
     <!-- 7000 -->
     <g transform="translate(267.104957 78.5612)scale(0.1 -0.1)">
      <use xlink:href="#DejaVuSans-37"/>
      <use xlink:href="#DejaVuSans-30" x="63.623047"/>
      <use xlink:href="#DejaVuSans-30" x="127.246094"/>
      <use xlink:href="#DejaVuSans-30" x="190.869141"/>
     </g>
    </g>
   </g>
  </g>
  <g id="axes_1">
   <g id="line2d_26">
    <path d="M 98.688747 175.070132 
L 101.56033 173.312056 
L 103.522396 171.146396 
L 106.560327 169.266679 
L 109.744436 167.187516 
L 113.47652 164.96461 
L 118.111483 162.672234 
L 124.352776 160.945564 
L 131.923793 159.626465 
L 140.878109 159.290227 
L 150.783331 159.65293 
L 161.253169 160.98862 
L 171.870975 163.135994 
L 180.929374 166.799895 
L 188.671649 170.866145 
L 194.564016 175.226795 
L 198.817425 179.553637 
L 200.677777 183.777758 
L 201.126875 187.610458 
L 199.731961 190.987815 
L 197.960863 193.906271 
L 196.135211 196.492889 
L 194.569648 198.910104 
L 191.929861 200.957219 
L 190.479446 203.235512 
L 187.695074 205.117149 
L 185.874795 207.456487 
L 182.882535 209.506428 
L 179.726846 211.795268 
L 175.971551 214.267567 
L 171.220802 216.844862 
L 164.67135 218.805013 
L 156.628619 220.313549 
L 147.040183 220.699621 
L 136.428498 220.283189 
L 125.275104 218.755936 
L 114.09432 216.321167 
L 104.817871 212.224489 
L 97.1202 207.760962 
L 91.515545 203.068589 
L 87.694027 198.506226 
L 86.355508 194.139485 
L 86.405832 190.249921 
L 88.231796 186.878183 
L 90.34681 184.00568 
L 92.449976 181.491008 
L 94.256197 179.16708 
L 97.049873 177.218346 
L 98.688747 175.070132 
" clip-path="url(#p2e1a8a62ea)" style="fill: none; stroke: #1f77b4; stroke-width: 1.5; stroke-linecap: square"/>
   </g>
   <g id="line2d_27">
    <path d="M 91.129054 162.66136 
L 95.025669 160.831569 
L 98.973072 159.093447 
L 103.001764 157.363754 
L 106.448814 155.086936 
L 110.393271 152.562041 
L 115.608438 150.177007 
L 122.204559 147.946952 
L 130.569737 146.402636 
L 140.511665 145.748453 
L 151.663701 146.041177 
L 163.530966 147.421717 
L 175.744381 149.634725 
L 185.820132 153.895144 
L 194.44884 158.497878 
L 200.94394 163.405166 
L 205.219529 168.306107 
L 207.124383 172.98275 
L 206.874769 177.217614 
L 205.593905 180.899899 
L 203.367522 184.06246 
L 201.297239 186.865519 
L 200.495845 189.669185 
L 199.633316 192.444648 
L 198.581137 195.248468 
L 194.757914 197.228767 
L 190.837582 199.125964 
L 186.798074 201.029741 
L 183.391138 203.560036 
L 179.439187 206.398876 
L 174.068002 209.112754 
L 167.138634 211.679163 
L 158.194731 213.473009 
L 147.46505 214.237036 
L 135.409409 213.894855 
L 122.655873 212.28773 
L 109.687398 209.734241 
L 99.359206 204.895674 
L 90.804752 199.779687 
L 84.692787 194.448401 
L 80.99412 189.246629 
L 79.746923 184.393336 
L 80.621724 180.088582 
L 82.427007 176.413111 
L 85.065962 173.305325 
L 87.46873 170.587787 
L 88.603825 167.903734 
L 89.780647 165.279621 
L 91.129054 162.66136 
" clip-path="url(#p2e1a8a62ea)" style="fill: none; stroke: #ff7f0e; stroke-width: 1.5; stroke-linecap: square"/>
   </g>
   <g id="line2d_28">
    <path d="M 85.554043 150.816194 
L 90.587073 149.078177 
L 96.466414 147.881952 
L 100.866031 146.152473 
L 104.63264 143.87182 
L 108.707582 141.208744 
L 113.95258 138.501288 
L 120.82613 136.01537 
L 129.677155 134.279924 
L 140.260717 133.332469 
L 152.233718 133.712829 
L 165.068012 135.018032 
L 178.179313 137.425947 
L 189.125316 141.898309 
L 198.199738 146.896579 
L 205.330036 152.064488 
L 209.45838 157.358491 
L 211.281009 162.317698 
L 210.695188 166.784341 
L 208.814095 170.62464 
L 206.360983 173.90268 
L 204.410313 176.843367 
L 203.779594 179.805013 
L 204.909446 183.205546 
L 204.612715 186.494317 
L 199.601363 188.390233 
L 193.592287 189.704457 
L 189.164901 191.618134 
L 185.426284 194.166572 
L 181.352273 197.178753 
L 175.970977 200.282117 
L 168.74142 203.168657 
L 159.241112 205.205206 
L 147.760419 206.324576 
L 134.739618 205.874557 
L 120.861851 204.336862 
L 106.877826 201.526356 
L 95.626683 196.394988 
L 86.666853 190.792797 
L 79.97013 185.142419 
L 76.539377 179.498313 
L 75.476449 174.338672 
L 76.77531 169.793475 
L 79.24062 165.960542 
L 82.14721 162.742122 
L 84.47267 159.895762 
L 85.484333 157.067347 
L 84.837328 153.866115 
L 85.554043 150.816194 
" clip-path="url(#p2e1a8a62ea)" style="fill: none; stroke: #2ca02c; stroke-width: 1.5; stroke-linecap: square"/>
   </g>
   <g id="line2d_29">
    <path d="M 81.088727 139.25358 
L 89.795326 138.576472 
L 95.68097 137.342692 
L 100.010685 135.53321 
L 103.759678 133.178454 
L 107.877101 130.452407 
L 113.201592 127.670833 
L 120.354684 125.301376 
L 129.395332 123.571781 
L 140.189961 122.623423 
L 152.498579 122.600189 
L 165.83613 123.778984 
L 179.518938 126.157842 
L 190.778526 130.8138 
L 199.945374 136.024674 
L 206.569238 141.485613 
L 210.799845 146.817712 
L 212.706266 151.812896 
L 212.432624 156.311448 
L 210.404577 160.200308 
L 207.80336 163.510074 
L 205.660249 166.46156 
L 204.811247 169.408709 
L 205.854335 172.800205 
L 209.478977 177.261604 
L 200.469286 178.003139 
L 194.458437 179.360682 
L 190.116372 181.366692 
L 186.40853 184.004296 
L 182.299314 187.096727 
L 176.839209 190.296071 
L 169.293168 193.057095 
L 159.573845 195.093613 
L 147.844361 196.217916 
L 134.425687 196.24553 
L 119.957141 194.848693 
L 105.318938 192.055261 
L 93.746357 186.684332 
L 84.730922 180.820073 
L 78.631061 174.83456 
L 75.126469 169.142327 
L 74.010452 163.940945 
L 75.025545 159.361505 
L 77.667463 155.480263 
L 80.742115 152.232088 
L 83.271404 149.37727 
L 84.50612 146.565088 
L 83.955058 143.375446 
L 81.088727 139.25358 
" clip-path="url(#p2e1a8a62ea)" style="fill: none; stroke: #d62728; stroke-width: 1.5; stroke-linecap: square"/>
   </g>
   <g id="line2d_30">
    <path d="M 82.977768 129.494116 
L 90.967176 128.685383 
L 96.179537 127.264035 
L 100.16263 125.343828 
L 103.87442 123.011575 
L 107.938748 120.295922 
L 113.314928 117.612591 
L 120.482815 115.337513 
L 129.484252 113.662253 
L 140.221143 112.813601 
L 152.403068 112.878938 
L 165.660233 113.927865 
L 179.596506 115.940139 
L 190.399859 120.821837 
L 199.315682 125.99467 
L 206.022988 131.286846 
L 210.376428 136.481129 
L 212.318722 141.379142 
L 212.170227 145.794295 
L 210.286424 149.625118 
L 207.613643 152.881434 
L 205.438076 155.782388 
L 204.156247 158.600855 
L 204.456227 161.739898 
L 207.416467 165.876362 
L 199.185116 166.759924 
L 193.908476 168.321429 
L 189.947202 170.44867 
L 186.279274 173.060109 
L 182.228912 176.139844 
L 176.707971 179.224957 
L 169.143031 181.874063 
L 159.468739 183.844654 
L 147.807332 184.849441 
L 134.539092 184.771926 
L 120.164801 183.53108 
L 105.228385 181.169348 
L 94.177836 175.540107 
L 85.430007 169.725363 
L 79.221594 163.930353 
L 75.572598 158.388102 
L 74.40916 153.28917 
L 75.289824 148.795053 
L 77.784314 144.97175 
L 80.926881 141.775874 
L 83.484855 138.969622 
L 85.127089 136.279273 
L 85.260837 133.323956 
L 82.977768 129.494116 
" clip-path="url(#p2e1a8a62ea)" style="fill: none; stroke: #9467bd; stroke-width: 1.5; stroke-linecap: square"/>
   </g>
   <g id="line2d_31">
    <path d="M 85.500413 119.815208 
L 92.531355 118.831845 
L 97.237892 117.324102 
L 100.940305 115.374897 
L 104.479352 113.049146 
L 108.517947 110.434939 
L 113.881813 107.899644 
L 120.96235 105.75674 
L 129.822172 104.236187 
L 140.316042 103.507054 
L 152.150038 103.687267 
L 164.937697 104.808929 
L 178.193556 106.919325 
L 188.844938 111.397381 
L 197.64859 116.263823 
L 204.361872 121.279282 
L 208.768688 126.243649 
L 210.869537 130.945349 
L 210.858783 135.209508 
L 209.177039 138.925052 
L 206.614092 142.09216 
L 204.301861 144.888299 
L 202.767547 147.568669 
L 202.593916 150.486805 
L 204.670973 154.216786 
L 197.475113 155.287706 
L 192.742926 156.940026 
L 189.082377 159.094886 
L 185.598572 161.694085 
L 181.568259 164.652753 
L 176.052654 167.560345 
L 168.582337 170.047838 
L 159.070341 171.829793 
L 147.694989 172.689305 
L 134.838442 172.476563 
L 121.014796 171.156931 
L 106.8613 168.694871 
L 95.94469 163.558881 
L 87.276733 158.109533 
L 81.01485 152.632114 
L 77.265216 147.344146 
L 75.89952 142.454175 
L 76.610568 138.11536 
L 78.881593 134.407021 
L 81.900584 131.297771 
L 84.576945 128.59137 
L 86.444807 126.030361 
L 87.003275 123.278556 
L 85.500413 119.815208 
" clip-path="url(#p2e1a8a62ea)" style="fill: none; stroke: #8c564b; stroke-width: 1.5; stroke-linecap: square"/>
   </g>
   <g id="line2d_32">
    <path d="M 88.536949 110.174338 
L 94.792938 109.113914 
L 99.081587 107.605043 
L 102.503601 105.691518 
L 105.803105 103.413957 
L 109.773049 100.969444 
L 114.989858 98.596957 
L 121.83318 96.592661 
L 130.383277 95.211218 
L 140.466272 94.601829 
L 151.778165 94.847988 
L 163.944434 95.977579 
L 176.380087 98.129951 
L 186.70884 102.183839 
L 195.201403 106.719388 
L 201.736284 111.413018 
L 206.103796 116.076594 
L 208.242719 120.516603 
L 208.300285 124.55927 
L 206.777459 128.090041 
L 204.430658 131.111842 
L 202.022359 133.75214 
L 200.353986 136.263055 
L 199.90908 138.960826 
L 201.379475 142.328548 
L 195.01094 143.478582 
L 190.718655 145.125695 
L 187.349004 147.232883 
L 184.113405 149.768087 
L 180.141649 152.52251 
L 174.777072 155.229438 
L 167.568937 157.542575 
L 158.412391 159.15112 
L 147.518209 159.864422 
L 135.275544 159.576012 
L 122.175407 158.257329 
L 108.956835 155.766237 
L 98.359075 151.149798 
L 89.976928 146.098418 
L 83.84159 140.993008 
L 80.066049 136.038949 
L 78.598683 131.428542 
L 79.186688 127.317894 
L 81.255679 123.79374 
L 84.028947 120.825218 
L 86.77033 118.266632 
L 88.738789 115.863254 
L 89.521568 113.312825 
L 88.536949 110.174338 
" clip-path="url(#p2e1a8a62ea)" style="fill: none; stroke: #e377c2; stroke-width: 1.5; stroke-linecap: square"/>
   </g>
   <g id="line2d_33">
    <path d="M 92.335146 100.633974 
L 98.053843 99.622942 
L 101.948298 98.188855 
L 105.052131 96.373623 
L 108.090065 94.230641 
L 111.837081 91.974715 
L 116.795631 89.829264 
L 123.262499 88.043146 
L 131.269794 86.795913 
L 140.690452 86.246238 
L 151.24929 86.488871 
L 162.583388 87.559138 
L 173.994862 89.692588 
L 183.784488 93.280273 
L 191.726976 97.43971 
L 197.827515 101.75608 
L 201.905354 106.046538 
L 203.944853 110.128742 
L 204.14448 113.848718 
L 202.844404 117.112439 
L 200.670896 119.910231 
L 198.319191 122.341672 
L 196.615291 124.636155 
L 196.05406 127.088755 
L 197.282652 130.143941 
L 191.474997 131.234304 
L 187.586627 132.790675 
L 184.537763 134.777285 
L 181.561689 137.146791 
L 177.810331 139.669954 
L 172.713195 142.097409 
L 165.918946 144.139352 
L 157.381871 145.576724 
L 147.256812 146.213227 
L 135.891421 145.932038 
L 123.751148 144.696016 
L 111.687302 142.252981 
L 101.640498 138.206114 
L 93.78889 133.608288 
L 88.032411 128.940389 
L 84.466693 124.401512 
L 83.008557 120.173457 
L 83.369648 116.395129 
L 85.148996 113.137168 
L 87.698368 110.385677 
L 90.340461 108.024848 
L 92.301775 105.822431 
L 93.150478 103.495077 
L 92.335146 100.633974 
" clip-path="url(#p2e1a8a62ea)" style="fill: none; stroke: #7f7f7f; stroke-width: 1.5; stroke-linecap: square"/>
   </g>
   <g id="line2d_34">
    <path d="M 97.277043 91.289945 
L 102.575166 90.430957 
L 106.102172 89.162664 
L 108.802287 87.503653 
L 111.500019 85.567068 
L 114.958505 83.602807 
L 119.512645 81.765535 
L 125.352274 80.209205 
L 132.547633 79.105402 
L 141.009935 78.603709 
L 150.509991 78.787646 
L 160.694127 79.762915 
L 170.894795 81.7051 
L 179.73036 84.851925 
L 186.88185 88.533077 
L 192.276052 92.382013 
L 195.879259 96.18779 
L 197.691288 99.7982 
L 197.923488 103.084996 
L 196.92719 105.978141 
L 195.093942 108.47152 
L 192.898966 110.62504 
L 191.228119 112.639036 
L 190.740314 114.815169 
L 191.98568 117.561695 
L 186.605387 118.481178 
L 183.081384 119.846314 
L 180.433514 121.645673 
L 177.789808 123.765943 
L 174.319149 125.938684 
L 169.642226 127.991472 
L 163.5359 129.7461 
L 155.915557 130.999395 
L 146.889178 131.571484 
L 136.741177 131.36156 
L 125.910878 130.251944 
L 115.193054 128.059337 
L 106.14453 124.554386 
L 99.062682 120.527328 
L 93.948939 116.398608 
L 90.757542 112.396108 
L 89.411039 108.670435 
L 89.627893 105.337501 
L 91.011222 102.44898 
L 93.151798 99.992837 
L 95.581344 97.895792 
L 97.456225 95.954671 
L 98.177879 93.878734 
L 97.277043 91.289945 
" clip-path="url(#p2e1a8a62ea)" style="fill: none; stroke: #bcbd22; stroke-width: 1.5; stroke-linecap: square"/>
   </g>
   <g id="line2d_35">
    <path d="M 103.70686 82.221713 
L 108.652268 81.616194 
L 111.811341 80.609035 
L 114.041084 79.191195 
L 116.371563 77.587222 
L 119.337203 75.961391 
L 123.242442 74.461569 
L 128.221269 73.205492 
L 134.298587 72.280981 
L 141.44579 71.824019 
L 149.507496 71.907892 
L 158.162039 72.719365 
L 166.818754 74.355291 
L 174.306178 76.999673 
L 180.333464 80.096664 
L 184.738255 83.355447 
L 187.670754 86.541193 
L 189.16395 89.542703 
L 189.445498 92.269004 
L 188.688335 94.677608 
L 187.18624 96.758712 
L 185.38437 98.561797 
L 183.881621 100.228281 
L 183.654878 102.082971 
L 185.149929 104.502097 
L 180.119947 105.1439 
L 176.952312 106.21593 
L 174.7639 107.734735 
L 172.468316 109.466669 
L 169.490421 111.237273 
L 165.492481 112.884269 
L 160.319852 114.273779 
L 153.942117 115.302487 
L 146.396676 115.812839 
L 137.873149 115.719072 
L 128.75635 114.814059 
L 119.73004 113.001476 
L 112.090109 110.104775 
L 106.113725 106.763481 
L 101.916404 103.305874 
L 99.278739 99.982071 
L 98.114692 96.900187 
L 98.150101 94.141724 
L 99.183126 91.736388 
L 100.905892 89.681607 
L 102.877696 87.918665 
L 104.524571 86.303396 
L 104.927577 84.521437 
L 103.70686 82.221713 
" clip-path="url(#p2e1a8a62ea)" style="fill: none; stroke: #17becf; stroke-width: 1.5; stroke-linecap: square"/>
   </g>
   <g id="line2d_36">
    <path d="M 112.391907 73.617279 
L 116.726195 73.298353 
L 119.34255 72.603651 
L 121.116378 71.565975 
L 122.925612 70.377796 
L 125.201351 69.16925 
L 128.172028 68.043934 
L 131.967502 67.111266 
L 136.595771 66.434436 
L 142.018889 66.043981 
L 148.175184 66.052779 
L 154.803996 66.645799 
L 161.514322 67.81136 
L 167.129167 69.891459 
L 171.669 72.248942 
L 174.889305 74.731553 
L 176.986078 77.135167 
L 178.129113 79.371668 
L 178.348856 81.404802 
L 177.765934 83.201162 
L 176.656705 84.755269 
L 175.339911 86.106987 
L 174.291394 87.368322 
L 174.340581 88.807509 
L 176.015761 90.777337 
L 171.607884 91.110966 
L 168.976812 91.839639 
L 167.222541 92.933055 
L 165.430731 94.192464 
L 163.146049 95.481648 
L 160.121745 96.689541 
L 156.214401 97.696174 
L 151.413827 98.429837 
L 145.764483 98.854293 
L 139.342474 98.84472 
L 132.445788 98.20044 
L 125.514404 96.940089 
L 119.818606 94.710254 
L 115.310312 92.212727 
L 112.213818 89.616086 
L 110.288407 87.134144 
L 109.332126 84.852577 
L 109.293216 82.801343 
L 110.034055 81.006829 
L 111.270299 79.467635 
L 112.686 78.138813 
L 113.820445 76.907083 
L 113.881607 75.511292 
L 112.391907 73.617279 
" clip-path="url(#p2e1a8a62ea)" style="fill: none; stroke: #1f77b4; stroke-width: 1.5; stroke-linecap: square"/>
   </g>
  </g>
 </g>
 <defs>
  <clipPath id="p2e1a8a62ea">
   <rect x="7.2" y="7.2" width="266.112" height="266.112"/>
  </clipPath>
 </defs>
</svg>
