<?xml version="1.0" encoding="utf-8" standalone="no"?>
<!DOCTYPE svg PUBLIC "-//W3C//DTD SVG 1.1//EN"
  "http://www.w3.org/Graphics/SVG/1.1/DTD/svg11.dtd">
<svg xmlns:xlink="http://www.w3.org/1999/xlink" width="450.228125pt" height="335.39625pt" viewBox="0 0 450.228125 335.39625" xmlns="http://www.w3.org/2000/svg" version="1.1">
 <metadata>
  <rdf:RDF xmlns:dc="http://purl.org/dc/elements/1.1/" xmlns:cc="http://creativecommons.org/ns#" xmlns:rdf="http://www.w3.org/1999/02/22-rdf-syntax-ns#">
   <cc:Work>
    <dc:type rdf:resource="http://purl.org/dc/dcmitype/StillImage"/>
    <dc:date>2022-07-27T04:41:04.896262</dc:date>
    <dc:format>image/svg+xml</dc:format>
    <dc:creator>
     <cc:Agent>
      <dc:title>Matplotlib v3.5.2, https://matplotlib.org/</dc:title>
     </cc:Agent>
    </dc:creator>
   </cc:Work>
  </rdf:RDF>
 </metadata>
 <defs>
  <style type="text/css">*{stroke-linejoin: round; stroke-linecap: butt}</style>
 </defs>
 <g id="figure_1">
  <g id="patch_1">
   <path d="M 0 335.39625 
L 450.228125 335.39625 
L 450.228125 0 
L 0 0 
z
" style="fill: #ffffff"/>
  </g>
  <g id="axes_1">
   <g id="patch_2">
    <path d="M 56.367188 297.818125 
L 337.910938 297.818125 
L 337.910938 22.318125 
L 56.367188 22.318125 
z
" style="fill: #ffffff"/>
   </g>
   <g id="matplotlib.axis_1">
    <g id="xtick_1">
     <g id="line2d_1">
      <path d="M 102.559234 297.818125 
L 102.559234 22.318125 
" clip-path="url(#p1e78231997)" style="fill: none; stroke: #b0b0b0; stroke-width: 0.8; stroke-linecap: square"/>
     </g>
     <g id="line2d_2">
      <defs>
       <path id="mf3df895b04" d="M 0 0 
L 0 3.5 
" style="stroke: #000000; stroke-width: 0.8"/>
      </defs>
      <g>
       <use xlink:href="#mf3df895b04" x="102.559234" y="297.818125" style="stroke: #000000; stroke-width: 0.8"/>
      </g>
     </g>
     <g id="text_1">
      <!-- −400 -->
      <g transform="translate(88.82564 312.416562)scale(0.1 -0.1)">
       <defs>
        <path id="DejaVuSans-2212" d="M 678 2272 
L 4684 2272 
L 4684 1741 
L 678 1741 
L 678 2272 
z
" transform="scale(0.015625)"/>
        <path id="DejaVuSans-34" d="M 2419 4116 
L 825 1625 
L 2419 1625 
L 2419 4116 
z
M 2253 4666 
L 3047 4666 
L 3047 1625 
L 3713 1625 
L 3713 1100 
L 3047 1100 
L 3047 0 
L 2419 0 
L 2419 1100 
L 313 1100 
L 313 1709 
L 2253 4666 
z
" transform="scale(0.015625)"/>
        <path id="DejaVuSans-30" d="M 2034 4250 
Q 1547 4250 1301 3770 
Q 1056 3291 1056 2328 
Q 1056 1369 1301 889 
Q 1547 409 2034 409 
Q 2525 409 2770 889 
Q 3016 1369 3016 2328 
Q 3016 3291 2770 3770 
Q 2525 4250 2034 4250 
z
M 2034 4750 
Q 2819 4750 3233 4129 
Q 3647 3509 3647 2328 
Q 3647 1150 3233 529 
Q 2819 -91 2034 -91 
Q 1250 -91 836 529 
Q 422 1150 422 2328 
Q 422 3509 836 4129 
Q 1250 4750 2034 4750 
z
" transform="scale(0.015625)"/>
       </defs>
       <use xlink:href="#DejaVuSans-2212"/>
       <use xlink:href="#DejaVuSans-34" x="83.789062"/>
       <use xlink:href="#DejaVuSans-30" x="147.412109"/>
       <use xlink:href="#DejaVuSans-30" x="211.035156"/>
      </g>
     </g>
    </g>
    <g id="xtick_2">
     <g id="line2d_3">
      <path d="M 149.849148 297.818125 
L 149.849148 22.318125 
" clip-path="url(#p1e78231997)" style="fill: none; stroke: #b0b0b0; stroke-width: 0.8; stroke-linecap: square"/>
     </g>
     <g id="line2d_4">
      <g>
       <use xlink:href="#mf3df895b04" x="149.849148" y="297.818125" style="stroke: #000000; stroke-width: 0.8"/>
      </g>
     </g>
     <g id="text_2">
      <!-- −200 -->
      <g transform="translate(136.115555 312.416562)scale(0.1 -0.1)">
       <defs>
        <path id="DejaVuSans-32" d="M 1228 531 
L 3431 531 
L 3431 0 
L 469 0 
L 469 531 
Q 828 903 1448 1529 
Q 2069 2156 2228 2338 
Q 2531 2678 2651 2914 
Q 2772 3150 2772 3378 
Q 2772 3750 2511 3984 
Q 2250 4219 1831 4219 
Q 1534 4219 1204 4116 
Q 875 4013 500 3803 
L 500 4441 
Q 881 4594 1212 4672 
Q 1544 4750 1819 4750 
Q 2544 4750 2975 4387 
Q 3406 4025 3406 3419 
Q 3406 3131 3298 2873 
Q 3191 2616 2906 2266 
Q 2828 2175 2409 1742 
Q 1991 1309 1228 531 
z
" transform="scale(0.015625)"/>
       </defs>
       <use xlink:href="#DejaVuSans-2212"/>
       <use xlink:href="#DejaVuSans-32" x="83.789062"/>
       <use xlink:href="#DejaVuSans-30" x="147.412109"/>
       <use xlink:href="#DejaVuSans-30" x="211.035156"/>
      </g>
     </g>
    </g>
    <g id="xtick_3">
     <g id="line2d_5">
      <path d="M 197.139062 297.818125 
L 197.139062 22.318125 
" clip-path="url(#p1e78231997)" style="fill: none; stroke: #b0b0b0; stroke-width: 0.8; stroke-linecap: square"/>
     </g>
     <g id="line2d_6">
      <g>
       <use xlink:href="#mf3df895b04" x="197.139062" y="297.818125" style="stroke: #000000; stroke-width: 0.8"/>
      </g>
     </g>
     <g id="text_3">
      <!-- 0 -->
      <g transform="translate(193.957812 312.416562)scale(0.1 -0.1)">
       <use xlink:href="#DejaVuSans-30"/>
      </g>
     </g>
    </g>
    <g id="xtick_4">
     <g id="line2d_7">
      <path d="M 244.428977 297.818125 
L 244.428977 22.318125 
" clip-path="url(#p1e78231997)" style="fill: none; stroke: #b0b0b0; stroke-width: 0.8; stroke-linecap: square"/>
     </g>
     <g id="line2d_8">
      <g>
       <use xlink:href="#mf3df895b04" x="244.428977" y="297.818125" style="stroke: #000000; stroke-width: 0.8"/>
      </g>
     </g>
     <g id="text_4">
      <!-- 200 -->
      <g transform="translate(234.885227 312.416562)scale(0.1 -0.1)">
       <use xlink:href="#DejaVuSans-32"/>
       <use xlink:href="#DejaVuSans-30" x="63.623047"/>
       <use xlink:href="#DejaVuSans-30" x="127.246094"/>
      </g>
     </g>
    </g>
    <g id="xtick_5">
     <g id="line2d_9">
      <path d="M 291.718891 297.818125 
L 291.718891 22.318125 
" clip-path="url(#p1e78231997)" style="fill: none; stroke: #b0b0b0; stroke-width: 0.8; stroke-linecap: square"/>
     </g>
     <g id="line2d_10">
      <g>
       <use xlink:href="#mf3df895b04" x="291.718891" y="297.818125" style="stroke: #000000; stroke-width: 0.8"/>
      </g>
     </g>
     <g id="text_5">
      <!-- 400 -->
      <g transform="translate(282.175141 312.416562)scale(0.1 -0.1)">
       <use xlink:href="#DejaVuSans-34"/>
       <use xlink:href="#DejaVuSans-30" x="63.623047"/>
       <use xlink:href="#DejaVuSans-30" x="127.246094"/>
      </g>
     </g>
    </g>
    <g id="text_6">
     <!-- Bending Moment $M_x$ [kN.m] -->
     <g transform="translate(128.139063 326.09625)scale(0.1 -0.1)">
      <defs>
       <path id="DejaVuSans-42" d="M 1259 2228 
L 1259 519 
L 2272 519 
Q 2781 519 3026 730 
Q 3272 941 3272 1375 
Q 3272 1813 3026 2020 
Q 2781 2228 2272 2228 
L 1259 2228 
z
M 1259 4147 
L 1259 2741 
L 2194 2741 
Q 2656 2741 2882 2914 
Q 3109 3088 3109 3444 
Q 3109 3797 2882 3972 
Q 2656 4147 2194 4147 
L 1259 4147 
z
M 628 4666 
L 2241 4666 
Q 2963 4666 3353 4366 
Q 3744 4066 3744 3513 
Q 3744 3084 3544 2831 
Q 3344 2578 2956 2516 
Q 3422 2416 3680 2098 
Q 3938 1781 3938 1306 
Q 3938 681 3513 340 
Q 3088 0 2303 0 
L 628 0 
L 628 4666 
z
" transform="scale(0.015625)"/>
       <path id="DejaVuSans-65" d="M 3597 1894 
L 3597 1613 
L 953 1613 
Q 991 1019 1311 708 
Q 1631 397 2203 397 
Q 2534 397 2845 478 
Q 3156 559 3463 722 
L 3463 178 
Q 3153 47 2828 -22 
Q 2503 -91 2169 -91 
Q 1331 -91 842 396 
Q 353 884 353 1716 
Q 353 2575 817 3079 
Q 1281 3584 2069 3584 
Q 2775 3584 3186 3129 
Q 3597 2675 3597 1894 
z
M 3022 2063 
Q 3016 2534 2758 2815 
Q 2500 3097 2075 3097 
Q 1594 3097 1305 2825 
Q 1016 2553 972 2059 
L 3022 2063 
z
" transform="scale(0.015625)"/>
       <path id="DejaVuSans-6e" d="M 3513 2113 
L 3513 0 
L 2938 0 
L 2938 2094 
Q 2938 2591 2744 2837 
Q 2550 3084 2163 3084 
Q 1697 3084 1428 2787 
Q 1159 2491 1159 1978 
L 1159 0 
L 581 0 
L 581 3500 
L 1159 3500 
L 1159 2956 
Q 1366 3272 1645 3428 
Q 1925 3584 2291 3584 
Q 2894 3584 3203 3211 
Q 3513 2838 3513 2113 
z
" transform="scale(0.015625)"/>
       <path id="DejaVuSans-64" d="M 2906 2969 
L 2906 4863 
L 3481 4863 
L 3481 0 
L 2906 0 
L 2906 525 
Q 2725 213 2448 61 
Q 2172 -91 1784 -91 
Q 1150 -91 751 415 
Q 353 922 353 1747 
Q 353 2572 751 3078 
Q 1150 3584 1784 3584 
Q 2172 3584 2448 3432 
Q 2725 3281 2906 2969 
z
M 947 1747 
Q 947 1113 1208 752 
Q 1469 391 1925 391 
Q 2381 391 2643 752 
Q 2906 1113 2906 1747 
Q 2906 2381 2643 2742 
Q 2381 3103 1925 3103 
Q 1469 3103 1208 2742 
Q 947 2381 947 1747 
z
" transform="scale(0.015625)"/>
       <path id="DejaVuSans-69" d="M 603 3500 
L 1178 3500 
L 1178 0 
L 603 0 
L 603 3500 
z
M 603 4863 
L 1178 4863 
L 1178 4134 
L 603 4134 
L 603 4863 
z
" transform="scale(0.015625)"/>
       <path id="DejaVuSans-67" d="M 2906 1791 
Q 2906 2416 2648 2759 
Q 2391 3103 1925 3103 
Q 1463 3103 1205 2759 
Q 947 2416 947 1791 
Q 947 1169 1205 825 
Q 1463 481 1925 481 
Q 2391 481 2648 825 
Q 2906 1169 2906 1791 
z
M 3481 434 
Q 3481 -459 3084 -895 
Q 2688 -1331 1869 -1331 
Q 1566 -1331 1297 -1286 
Q 1028 -1241 775 -1147 
L 775 -588 
Q 1028 -725 1275 -790 
Q 1522 -856 1778 -856 
Q 2344 -856 2625 -561 
Q 2906 -266 2906 331 
L 2906 616 
Q 2728 306 2450 153 
Q 2172 0 1784 0 
Q 1141 0 747 490 
Q 353 981 353 1791 
Q 353 2603 747 3093 
Q 1141 3584 1784 3584 
Q 2172 3584 2450 3431 
Q 2728 3278 2906 2969 
L 2906 3500 
L 3481 3500 
L 3481 434 
z
" transform="scale(0.015625)"/>
       <path id="DejaVuSans-20" transform="scale(0.015625)"/>
       <path id="DejaVuSans-4d" d="M 628 4666 
L 1569 4666 
L 2759 1491 
L 3956 4666 
L 4897 4666 
L 4897 0 
L 4281 0 
L 4281 4097 
L 3078 897 
L 2444 897 
L 1241 4097 
L 1241 0 
L 628 0 
L 628 4666 
z
" transform="scale(0.015625)"/>
       <path id="DejaVuSans-6f" d="M 1959 3097 
Q 1497 3097 1228 2736 
Q 959 2375 959 1747 
Q 959 1119 1226 758 
Q 1494 397 1959 397 
Q 2419 397 2687 759 
Q 2956 1122 2956 1747 
Q 2956 2369 2687 2733 
Q 2419 3097 1959 3097 
z
M 1959 3584 
Q 2709 3584 3137 3096 
Q 3566 2609 3566 1747 
Q 3566 888 3137 398 
Q 2709 -91 1959 -91 
Q 1206 -91 779 398 
Q 353 888 353 1747 
Q 353 2609 779 3096 
Q 1206 3584 1959 3584 
z
" transform="scale(0.015625)"/>
       <path id="DejaVuSans-6d" d="M 3328 2828 
Q 3544 3216 3844 3400 
Q 4144 3584 4550 3584 
Q 5097 3584 5394 3201 
Q 5691 2819 5691 2113 
L 5691 0 
L 5113 0 
L 5113 2094 
Q 5113 2597 4934 2840 
Q 4756 3084 4391 3084 
Q 3944 3084 3684 2787 
Q 3425 2491 3425 1978 
L 3425 0 
L 2847 0 
L 2847 2094 
Q 2847 2600 2669 2842 
Q 2491 3084 2119 3084 
Q 1678 3084 1418 2786 
Q 1159 2488 1159 1978 
L 1159 0 
L 581 0 
L 581 3500 
L 1159 3500 
L 1159 2956 
Q 1356 3278 1631 3431 
Q 1906 3584 2284 3584 
Q 2666 3584 2933 3390 
Q 3200 3197 3328 2828 
z
" transform="scale(0.015625)"/>
       <path id="DejaVuSans-74" d="M 1172 4494 
L 1172 3500 
L 2356 3500 
L 2356 3053 
L 1172 3053 
L 1172 1153 
Q 1172 725 1289 603 
Q 1406 481 1766 481 
L 2356 481 
L 2356 0 
L 1766 0 
Q 1100 0 847 248 
Q 594 497 594 1153 
L 594 3053 
L 172 3053 
L 172 3500 
L 594 3500 
L 594 4494 
L 1172 4494 
z
" transform="scale(0.015625)"/>
       <path id="DejaVuSans-Oblique-4d" d="M 1081 4666 
L 2028 4666 
L 2572 1522 
L 4378 4666 
L 5350 4666 
L 4441 0 
L 3828 0 
L 4622 4091 
L 2791 897 
L 2175 897 
L 1581 4103 
L 788 0 
L 172 0 
L 1081 4666 
z
" transform="scale(0.015625)"/>
       <path id="DejaVuSans-Oblique-78" d="M 3841 3500 
L 2234 1784 
L 3219 0 
L 2559 0 
L 1819 1388 
L 531 0 
L -166 0 
L 1556 1844 
L 641 3500 
L 1300 3500 
L 1972 2234 
L 3144 3500 
L 3841 3500 
z
" transform="scale(0.015625)"/>
       <path id="DejaVuSans-5b" d="M 550 4863 
L 1875 4863 
L 1875 4416 
L 1125 4416 
L 1125 -397 
L 1875 -397 
L 1875 -844 
L 550 -844 
L 550 4863 
z
" transform="scale(0.015625)"/>
       <path id="DejaVuSans-6b" d="M 581 4863 
L 1159 4863 
L 1159 1991 
L 2875 3500 
L 3609 3500 
L 1753 1863 
L 3688 0 
L 2938 0 
L 1159 1709 
L 1159 0 
L 581 0 
L 581 4863 
z
" transform="scale(0.015625)"/>
       <path id="DejaVuSans-4e" d="M 628 4666 
L 1478 4666 
L 3547 763 
L 3547 4666 
L 4159 4666 
L 4159 0 
L 3309 0 
L 1241 3903 
L 1241 0 
L 628 0 
L 628 4666 
z
" transform="scale(0.015625)"/>
       <path id="DejaVuSans-2e" d="M 684 794 
L 1344 794 
L 1344 0 
L 684 0 
L 684 794 
z
" transform="scale(0.015625)"/>
       <path id="DejaVuSans-5d" d="M 1947 4863 
L 1947 -844 
L 622 -844 
L 622 -397 
L 1369 -397 
L 1369 4416 
L 622 4416 
L 622 4863 
L 1947 4863 
z
" transform="scale(0.015625)"/>
      </defs>
      <use xlink:href="#DejaVuSans-42" transform="translate(0 0.015625)"/>
      <use xlink:href="#DejaVuSans-65" transform="translate(68.603516 0.015625)"/>
      <use xlink:href="#DejaVuSans-6e" transform="translate(130.126953 0.015625)"/>
      <use xlink:href="#DejaVuSans-64" transform="translate(193.505859 0.015625)"/>
      <use xlink:href="#DejaVuSans-69" transform="translate(256.982422 0.015625)"/>
      <use xlink:href="#DejaVuSans-6e" transform="translate(284.765625 0.015625)"/>
      <use xlink:href="#DejaVuSans-67" transform="translate(348.144531 0.015625)"/>
      <use xlink:href="#DejaVuSans-20" transform="translate(411.621094 0.015625)"/>
      <use xlink:href="#DejaVuSans-4d" transform="translate(443.408203 0.015625)"/>
      <use xlink:href="#DejaVuSans-6f" transform="translate(529.6875 0.015625)"/>
      <use xlink:href="#DejaVuSans-6d" transform="translate(590.869141 0.015625)"/>
      <use xlink:href="#DejaVuSans-65" transform="translate(688.28125 0.015625)"/>
      <use xlink:href="#DejaVuSans-6e" transform="translate(749.804688 0.015625)"/>
      <use xlink:href="#DejaVuSans-74" transform="translate(813.183594 0.015625)"/>
      <use xlink:href="#DejaVuSans-20" transform="translate(852.392578 0.015625)"/>
      <use xlink:href="#DejaVuSans-Oblique-4d" transform="translate(884.179688 0.015625)"/>
      <use xlink:href="#DejaVuSans-Oblique-78" transform="translate(970.458984 -16.390625)scale(0.7)"/>
      <use xlink:href="#DejaVuSans-20" transform="translate(1014.619141 0.015625)"/>
      <use xlink:href="#DejaVuSans-5b" transform="translate(1046.40625 0.015625)"/>
      <use xlink:href="#DejaVuSans-6b" transform="translate(1085.419922 0.015625)"/>
      <use xlink:href="#DejaVuSans-4e" transform="translate(1143.330078 0.015625)"/>
      <use xlink:href="#DejaVuSans-2e" transform="translate(1218.134766 0.015625)"/>
      <use xlink:href="#DejaVuSans-6d" transform="translate(1243.546875 0.015625)"/>
      <use xlink:href="#DejaVuSans-5d" transform="translate(1340.958984 0.015625)"/>
     </g>
    </g>
   </g>
   <g id="matplotlib.axis_2">
    <g id="ytick_1">
     <g id="line2d_11">
      <path d="M 56.367188 266.891225 
L 337.910938 266.891225 
" clip-path="url(#p1e78231997)" style="fill: none; stroke: #b0b0b0; stroke-width: 0.8; stroke-linecap: square"/>
     </g>
     <g id="line2d_12">
      <defs>
       <path id="mde41e8e9cc" d="M 0 0 
L -3.5 0 
" style="stroke: #000000; stroke-width: 0.8"/>
      </defs>
      <g>
       <use xlink:href="#mde41e8e9cc" x="56.367188" y="266.891225" style="stroke: #000000; stroke-width: 0.8"/>
      </g>
     </g>
     <g id="text_7">
      <!-- −750 -->
      <g transform="translate(21.9 270.690444)scale(0.1 -0.1)">
       <defs>
        <path id="DejaVuSans-37" d="M 525 4666 
L 3525 4666 
L 3525 4397 
L 1831 0 
L 1172 0 
L 2766 4134 
L 525 4134 
L 525 4666 
z
" transform="scale(0.015625)"/>
        <path id="DejaVuSans-35" d="M 691 4666 
L 3169 4666 
L 3169 4134 
L 1269 4134 
L 1269 2991 
Q 1406 3038 1543 3061 
Q 1681 3084 1819 3084 
Q 2600 3084 3056 2656 
Q 3513 2228 3513 1497 
Q 3513 744 3044 326 
Q 2575 -91 1722 -91 
Q 1428 -91 1123 -41 
Q 819 9 494 109 
L 494 744 
Q 775 591 1075 516 
Q 1375 441 1709 441 
Q 2250 441 2565 725 
Q 2881 1009 2881 1497 
Q 2881 1984 2565 2268 
Q 2250 2553 1709 2553 
Q 1456 2553 1204 2497 
Q 953 2441 691 2322 
L 691 4666 
z
" transform="scale(0.015625)"/>
       </defs>
       <use xlink:href="#DejaVuSans-2212"/>
       <use xlink:href="#DejaVuSans-37" x="83.789062"/>
       <use xlink:href="#DejaVuSans-35" x="147.412109"/>
       <use xlink:href="#DejaVuSans-30" x="211.035156"/>
      </g>
     </g>
    </g>
    <g id="ytick_2">
     <g id="line2d_13">
      <path d="M 56.367188 231.283525 
L 337.910938 231.283525 
" clip-path="url(#p1e78231997)" style="fill: none; stroke: #b0b0b0; stroke-width: 0.8; stroke-linecap: square"/>
     </g>
     <g id="line2d_14">
      <g>
       <use xlink:href="#mde41e8e9cc" x="56.367188" y="231.283525" style="stroke: #000000; stroke-width: 0.8"/>
      </g>
     </g>
     <g id="text_8">
      <!-- −500 -->
      <g transform="translate(21.9 235.082744)scale(0.1 -0.1)">
       <use xlink:href="#DejaVuSans-2212"/>
       <use xlink:href="#DejaVuSans-35" x="83.789062"/>
       <use xlink:href="#DejaVuSans-30" x="147.412109"/>
       <use xlink:href="#DejaVuSans-30" x="211.035156"/>
      </g>
     </g>
    </g>
    <g id="ytick_3">
     <g id="line2d_15">
      <path d="M 56.367188 195.675825 
L 337.910938 195.675825 
" clip-path="url(#p1e78231997)" style="fill: none; stroke: #b0b0b0; stroke-width: 0.8; stroke-linecap: square"/>
     </g>
     <g id="line2d_16">
      <g>
       <use xlink:href="#mde41e8e9cc" x="56.367188" y="195.675825" style="stroke: #000000; stroke-width: 0.8"/>
      </g>
     </g>
     <g id="text_9">
      <!-- −250 -->
      <g transform="translate(21.9 199.475044)scale(0.1 -0.1)">
       <use xlink:href="#DejaVuSans-2212"/>
       <use xlink:href="#DejaVuSans-32" x="83.789062"/>
       <use xlink:href="#DejaVuSans-35" x="147.412109"/>
       <use xlink:href="#DejaVuSans-30" x="211.035156"/>
      </g>
     </g>
    </g>
    <g id="ytick_4">
     <g id="line2d_17">
      <path d="M 56.367188 160.068125 
L 337.910938 160.068125 
" clip-path="url(#p1e78231997)" style="fill: none; stroke: #b0b0b0; stroke-width: 0.8; stroke-linecap: square"/>
     </g>
     <g id="line2d_18">
      <g>
       <use xlink:href="#mde41e8e9cc" x="56.367188" y="160.068125" style="stroke: #000000; stroke-width: 0.8"/>
      </g>
     </g>
     <g id="text_10">
      <!-- 0 -->
      <g transform="translate(43.004688 163.867344)scale(0.1 -0.1)">
       <use xlink:href="#DejaVuSans-30"/>
      </g>
     </g>
    </g>
    <g id="ytick_5">
     <g id="line2d_19">
      <path d="M 56.367188 124.460425 
L 337.910938 124.460425 
" clip-path="url(#p1e78231997)" style="fill: none; stroke: #b0b0b0; stroke-width: 0.8; stroke-linecap: square"/>
     </g>
     <g id="line2d_20">
      <g>
       <use xlink:href="#mde41e8e9cc" x="56.367188" y="124.460425" style="stroke: #000000; stroke-width: 0.8"/>
      </g>
     </g>
     <g id="text_11">
      <!-- 250 -->
      <g transform="translate(30.279688 128.259644)scale(0.1 -0.1)">
       <use xlink:href="#DejaVuSans-32"/>
       <use xlink:href="#DejaVuSans-35" x="63.623047"/>
       <use xlink:href="#DejaVuSans-30" x="127.246094"/>
      </g>
     </g>
    </g>
    <g id="ytick_6">
     <g id="line2d_21">
      <path d="M 56.367188 88.852725 
L 337.910938 88.852725 
" clip-path="url(#p1e78231997)" style="fill: none; stroke: #b0b0b0; stroke-width: 0.8; stroke-linecap: square"/>
     </g>
     <g id="line2d_22">
      <g>
       <use xlink:href="#mde41e8e9cc" x="56.367188" y="88.852725" style="stroke: #000000; stroke-width: 0.8"/>
      </g>
     </g>
     <g id="text_12">
      <!-- 500 -->
      <g transform="translate(30.279688 92.651944)scale(0.1 -0.1)">
       <use xlink:href="#DejaVuSans-35"/>
       <use xlink:href="#DejaVuSans-30" x="63.623047"/>
       <use xlink:href="#DejaVuSans-30" x="127.246094"/>
      </g>
     </g>
    </g>
    <g id="ytick_7">
     <g id="line2d_23">
      <path d="M 56.367188 53.245025 
L 337.910938 53.245025 
" clip-path="url(#p1e78231997)" style="fill: none; stroke: #b0b0b0; stroke-width: 0.8; stroke-linecap: square"/>
     </g>
     <g id="line2d_24">
      <g>
       <use xlink:href="#mde41e8e9cc" x="56.367188" y="53.245025" style="stroke: #000000; stroke-width: 0.8"/>
      </g>
     </g>
     <g id="text_13">
      <!-- 750 -->
      <g transform="translate(30.279688 57.044244)scale(0.1 -0.1)">
       <use xlink:href="#DejaVuSans-37"/>
       <use xlink:href="#DejaVuSans-35" x="63.623047"/>
       <use xlink:href="#DejaVuSans-30" x="127.246094"/>
      </g>
     </g>
    </g>
    <g id="text_14">
     <!-- Bending Moment $M_y$ [kN.m] -->
     <g transform="translate(14.8 229.068125)rotate(-90)scale(0.1 -0.1)">
      <defs>
       <path id="DejaVuSans-Oblique-79" d="M 1588 -325 
Q 1188 -997 936 -1164 
Q 684 -1331 294 -1331 
L -159 -1331 
L -63 -850 
L 269 -850 
Q 509 -850 678 -719 
Q 847 -588 1056 -206 
L 1234 128 
L 459 3500 
L 1069 3500 
L 1650 819 
L 3256 3500 
L 3859 3500 
L 1588 -325 
z
" transform="scale(0.015625)"/>
      </defs>
      <use xlink:href="#DejaVuSans-42" transform="translate(0 0.015625)"/>
      <use xlink:href="#DejaVuSans-65" transform="translate(68.603516 0.015625)"/>
      <use xlink:href="#DejaVuSans-6e" transform="translate(130.126953 0.015625)"/>
      <use xlink:href="#DejaVuSans-64" transform="translate(193.505859 0.015625)"/>
      <use xlink:href="#DejaVuSans-69" transform="translate(256.982422 0.015625)"/>
      <use xlink:href="#DejaVuSans-6e" transform="translate(284.765625 0.015625)"/>
      <use xlink:href="#DejaVuSans-67" transform="translate(348.144531 0.015625)"/>
      <use xlink:href="#DejaVuSans-20" transform="translate(411.621094 0.015625)"/>
      <use xlink:href="#DejaVuSans-4d" transform="translate(443.408203 0.015625)"/>
      <use xlink:href="#DejaVuSans-6f" transform="translate(529.6875 0.015625)"/>
      <use xlink:href="#DejaVuSans-6d" transform="translate(590.869141 0.015625)"/>
      <use xlink:href="#DejaVuSans-65" transform="translate(688.28125 0.015625)"/>
      <use xlink:href="#DejaVuSans-6e" transform="translate(749.804688 0.015625)"/>
      <use xlink:href="#DejaVuSans-74" transform="translate(813.183594 0.015625)"/>
      <use xlink:href="#DejaVuSans-20" transform="translate(852.392578 0.015625)"/>
      <use xlink:href="#DejaVuSans-Oblique-4d" transform="translate(884.179688 0.015625)"/>
      <use xlink:href="#DejaVuSans-Oblique-79" transform="translate(970.458984 -16.390625)scale(0.7)"/>
      <use xlink:href="#DejaVuSans-20" transform="translate(1014.619141 0.015625)"/>
      <use xlink:href="#DejaVuSans-5b" transform="translate(1046.40625 0.015625)"/>
      <use xlink:href="#DejaVuSans-6b" transform="translate(1085.419922 0.015625)"/>
      <use xlink:href="#DejaVuSans-4e" transform="translate(1143.330078 0.015625)"/>
      <use xlink:href="#DejaVuSans-2e" transform="translate(1218.134766 0.015625)"/>
      <use xlink:href="#DejaVuSans-6d" transform="translate(1243.546875 0.015625)"/>
      <use xlink:href="#DejaVuSans-5d" transform="translate(1340.958984 0.015625)"/>
     </g>
    </g>
   </g>
   <g id="line2d_25">
    <path d="M 101.108461 160.068125 
L 105.279612 139.614739 
L 111.519409 122.318629 
L 122.240055 108.563061 
L 131.894333 98.907675 
L 140.852888 90.738256 
L 149.505246 82.999956 
L 157.88809 77.323673 
L 167.0098 71.711165 
L 174.703126 68.338774 
L 182.617375 65.118156 
L 189.547676 62.953541 
L 197.139062 61.059472 
L 204.730449 62.953541 
L 211.66075 65.118156 
L 219.574999 68.338774 
L 227.268325 71.711165 
L 236.390035 77.323673 
L 244.772879 82.999956 
L 253.425237 90.738256 
L 262.383792 98.907675 
L 272.03807 108.563061 
L 282.758716 122.318629 
L 288.998513 139.614739 
L 293.169664 160.068125 
L 288.998513 180.521511 
L 282.758716 197.817621 
L 272.03807 211.573189 
L 262.383792 221.228575 
L 253.425237 229.397994 
L 244.772879 237.136294 
L 236.390035 242.812577 
L 227.268325 248.425085 
L 219.574999 251.797476 
L 211.66075 255.018094 
L 204.730449 257.182709 
L 197.139062 259.076778 
L 189.547676 257.182709 
L 182.617375 255.018094 
L 174.703126 251.797476 
L 167.0098 248.425085 
L 157.88809 242.812577 
L 149.505246 237.136294 
L 140.852888 229.397994 
L 131.894333 221.228575 
L 122.240055 211.573189 
L 111.519409 197.817621 
L 105.279612 180.521511 
L 101.108461 160.068125 
" clip-path="url(#p1e78231997)" style="fill: none; stroke: #1f77b4; stroke-width: 1.5; stroke-linecap: square"/>
   </g>
   <g id="line2d_26">
    <path d="M 73.647623 160.068125 
L 80.760308 139.515862 
L 95.401625 119.574128 
L 110.57217 101.946304 
L 123.621509 88.857867 
L 134.718922 78.260753 
L 145.784185 68.578125 
L 156.246601 60.132114 
L 165.606442 53.811667 
L 174.08881 48.426882 
L 181.379711 45.10264 
L 189.339955 41.694682 
L 197.139063 38.965341 
L 204.93817 41.694682 
L 212.898414 45.10264 
L 220.189315 48.426882 
L 228.671683 53.811667 
L 238.031524 60.132114 
L 248.49394 68.578125 
L 259.559203 78.260753 
L 270.656616 88.857867 
L 283.705955 101.946304 
L 298.8765 119.574128 
L 313.517817 139.515862 
L 320.630502 160.068125 
L 313.517817 180.620388 
L 298.8765 200.562122 
L 283.705955 218.189946 
L 270.656616 231.278383 
L 259.559203 241.875497 
L 248.49394 251.558125 
L 238.031524 260.004136 
L 228.671683 266.324583 
L 220.189315 271.709368 
L 212.898414 275.03361 
L 204.93817 278.441568 
L 197.139062 281.170909 
L 189.339955 278.441568 
L 181.379711 275.03361 
L 174.08881 271.709368 
L 165.606442 266.324583 
L 156.246601 260.004136 
L 145.784185 251.558125 
L 134.718922 241.875497 
L 123.621509 231.278383 
L 110.57217 218.189946 
L 95.401625 200.562122 
L 80.760308 180.620388 
L 73.647623 160.068125 
" clip-path="url(#p1e78231997)" style="fill: none; stroke: #ff7f0e; stroke-width: 1.5; stroke-linecap: square"/>
   </g>
   <g id="line2d_27">
    <path d="M 69.164631 160.068125 
L 82.677804 139.424239 
L 94.981272 121.141889 
L 107.996454 104.183693 
L 123.308293 87.51673 
L 137.359698 74.363163 
L 149.171936 64.889983 
L 158.402198 58.315202 
L 166.614746 52.805383 
L 174.452644 47.992101 
L 181.999854 43.54238 
L 189.400465 39.267397 
L 197.139063 34.840852 
L 204.87766 39.267397 
L 212.278271 43.54238 
L 219.825481 47.992101 
L 227.663379 52.805383 
L 235.875927 58.315202 
L 245.106189 64.889983 
L 256.918427 74.363163 
L 270.969832 87.51673 
L 286.281671 104.183693 
L 299.296853 121.141889 
L 311.600321 139.424239 
L 325.113494 160.068125 
L 311.600321 180.712011 
L 299.296853 198.994361 
L 286.281671 215.952557 
L 270.969832 232.61952 
L 256.918427 245.773087 
L 245.106189 255.246267 
L 235.875927 261.821048 
L 227.663379 267.330867 
L 219.825481 272.144149 
L 212.278271 276.59387 
L 204.87766 280.868853 
L 197.139063 285.295398 
L 189.400465 280.868853 
L 181.999854 276.59387 
L 174.452644 272.144149 
L 166.614746 267.330867 
L 158.402198 261.821048 
L 149.171936 255.246267 
L 137.359698 245.773087 
L 123.308293 232.61952 
L 107.996454 215.952557 
L 94.981272 198.994361 
L 82.677804 180.712011 
L 69.164631 160.068125 
" clip-path="url(#p1e78231997)" style="fill: none; stroke: #2ca02c; stroke-width: 1.5; stroke-linecap: square"/>
   </g>
   <g id="line2d_28">
    <path d="M 82.071198 160.068125 
L 91.991527 141.317032 
L 102.066374 124.087604 
L 113.558901 107.78315 
L 127.730847 91.536138 
L 141.349433 79.290632 
L 152.815943 70.733795 
L 161.558103 64.987506 
L 169.364538 60.452836 
L 176.709307 56.627758 
L 183.694107 53.244144 
L 190.490743 50.047443 
L 197.139063 47.474177 
L 203.787382 50.047443 
L 210.584018 53.244144 
L 217.568818 56.627758 
L 224.913587 60.452836 
L 232.720022 64.987506 
L 241.462182 70.733795 
L 252.928692 79.290632 
L 266.547278 91.536138 
L 280.719224 107.78315 
L 292.211751 124.087604 
L 302.286598 141.317032 
L 312.206927 160.068125 
L 302.286598 178.819218 
L 292.211751 196.048646 
L 280.719224 212.3531 
L 266.547278 228.600112 
L 252.928692 240.845618 
L 241.462182 249.402455 
L 232.720022 255.148744 
L 224.913587 259.683414 
L 217.568818 263.508492 
L 210.584018 266.892106 
L 203.787382 270.088807 
L 197.139063 272.662073 
L 190.490743 270.088807 
L 183.694107 266.892106 
L 176.709307 263.508492 
L 169.364538 259.683414 
L 161.558103 255.148744 
L 152.815943 249.402455 
L 141.349433 240.845618 
L 127.730847 228.600112 
L 113.558901 212.3531 
L 102.066374 196.048646 
L 91.991527 178.819218 
L 82.071198 160.068125 
" clip-path="url(#p1e78231997)" style="fill: none; stroke: #d62728; stroke-width: 1.5; stroke-linecap: square"/>
   </g>
   <g id="line2d_29">
    <path d="M 101.383186 160.068125 
L 110.186122 142.360593 
L 119.510564 126.588142 
L 129.69448 112.62775 
L 138.714049 102.712616 
L 147.160497 95.09121 
L 155.896482 88.424855 
L 164.366741 82.868195 
L 171.768897 78.531335 
L 178.6798 74.921039 
L 185.151675 71.805016 
L 191.135381 69.237463 
L 197.139063 67.813265 
L 203.142744 69.237463 
L 209.12645 71.805016 
L 215.598325 74.921039 
L 222.509228 78.531335 
L 229.911384 82.868195 
L 238.381643 88.424855 
L 247.117628 95.09121 
L 255.564076 102.712616 
L 264.583645 112.62775 
L 274.767561 126.588142 
L 284.092003 142.360593 
L 292.894939 160.068125 
L 284.092003 177.775657 
L 274.767561 193.548108 
L 264.583645 207.5085 
L 255.564076 217.423634 
L 247.117628 225.04504 
L 238.381643 231.711395 
L 229.911384 237.268055 
L 222.509228 241.604915 
L 215.598325 245.215211 
L 209.12645 248.331234 
L 203.142744 250.898787 
L 197.139062 252.322985 
L 191.135381 250.898787 
L 185.151675 248.331234 
L 178.6798 245.215211 
L 171.768897 241.604915 
L 164.366741 237.268055 
L 155.896482 231.711395 
L 147.160497 225.04504 
L 138.714049 217.423634 
L 129.69448 207.5085 
L 119.510564 193.548108 
L 110.186122 177.775657 
L 101.383186 160.068125 
" clip-path="url(#p1e78231997)" style="fill: none; stroke: #9467bd; stroke-width: 1.5; stroke-linecap: square"/>
   </g>
   <g id="line2d_30">
    <path d="M 133.360773 160.068125 
L 141.733177 144.476451 
L 149.667282 133.814281 
L 155.280391 128.063051 
L 159.784505 123.812737 
L 163.713502 120.244705 
L 167.348907 117.021484 
L 170.914697 114.023699 
L 174.937341 110.952087 
L 180.196157 107.574593 
L 186.289795 104.423042 
L 191.692457 102.284795 
L 197.139063 100.932738 
L 202.585668 102.284795 
L 207.98833 104.423042 
L 214.081968 107.574593 
L 219.340784 110.952087 
L 223.363428 114.023699 
L 226.929218 117.021484 
L 230.564623 120.244705 
L 234.49362 123.812737 
L 238.997734 128.063051 
L 244.610843 133.814281 
L 252.544948 144.476451 
L 260.917352 160.068125 
L 252.544948 175.659799 
L 244.610843 186.321969 
L 238.997734 192.073199 
L 234.49362 196.323513 
L 230.564623 199.891545 
L 226.929218 203.114766 
L 223.363428 206.112551 
L 219.340784 209.184163 
L 214.081968 212.561657 
L 207.98833 215.713208 
L 202.585668 217.851455 
L 197.139063 219.203512 
L 191.692457 217.851455 
L 186.289795 215.713208 
L 180.196157 212.561657 
L 174.937341 209.184163 
L 170.914697 206.112551 
L 167.348907 203.114766 
L 163.713502 199.891545 
L 159.784505 196.323513 
L 155.280391 192.073199 
L 149.667282 186.321969 
L 141.733177 175.659799 
L 133.360773 160.068125 
" clip-path="url(#p1e78231997)" style="fill: none; stroke: #8c564b; stroke-width: 1.5; stroke-linecap: square"/>
   </g>
   <g id="patch_3">
    <path d="M 56.367188 297.818125 
L 56.367188 22.318125 
" style="fill: none; stroke: #000000; stroke-width: 0.8; stroke-linejoin: miter; stroke-linecap: square"/>
   </g>
   <g id="patch_4">
    <path d="M 337.910938 297.818125 
L 337.910938 22.318125 
" style="fill: none; stroke: #000000; stroke-width: 0.8; stroke-linejoin: miter; stroke-linecap: square"/>
   </g>
   <g id="patch_5">
    <path d="M 56.367188 297.818125 
L 337.910938 297.818125 
" style="fill: none; stroke: #000000; stroke-width: 0.8; stroke-linejoin: miter; stroke-linecap: square"/>
   </g>
   <g id="patch_6">
    <path d="M 56.367188 22.318125 
L 337.910938 22.318125 
" style="fill: none; stroke: #000000; stroke-width: 0.8; stroke-linejoin: miter; stroke-linecap: square"/>
   </g>
   <g id="text_15">
    <!-- Biaxial Bending Diagram -->
    <g transform="translate(122.844063 16.318125)scale(0.12 -0.12)">
     <defs>
      <path id="DejaVuSans-61" d="M 2194 1759 
Q 1497 1759 1228 1600 
Q 959 1441 959 1056 
Q 959 750 1161 570 
Q 1363 391 1709 391 
Q 2188 391 2477 730 
Q 2766 1069 2766 1631 
L 2766 1759 
L 2194 1759 
z
M 3341 1997 
L 3341 0 
L 2766 0 
L 2766 531 
Q 2569 213 2275 61 
Q 1981 -91 1556 -91 
Q 1019 -91 701 211 
Q 384 513 384 1019 
Q 384 1609 779 1909 
Q 1175 2209 1959 2209 
L 2766 2209 
L 2766 2266 
Q 2766 2663 2505 2880 
Q 2244 3097 1772 3097 
Q 1472 3097 1187 3025 
Q 903 2953 641 2809 
L 641 3341 
Q 956 3463 1253 3523 
Q 1550 3584 1831 3584 
Q 2591 3584 2966 3190 
Q 3341 2797 3341 1997 
z
" transform="scale(0.015625)"/>
      <path id="DejaVuSans-78" d="M 3513 3500 
L 2247 1797 
L 3578 0 
L 2900 0 
L 1881 1375 
L 863 0 
L 184 0 
L 1544 1831 
L 300 3500 
L 978 3500 
L 1906 2253 
L 2834 3500 
L 3513 3500 
z
" transform="scale(0.015625)"/>
      <path id="DejaVuSans-6c" d="M 603 4863 
L 1178 4863 
L 1178 0 
L 603 0 
L 603 4863 
z
" transform="scale(0.015625)"/>
      <path id="DejaVuSans-44" d="M 1259 4147 
L 1259 519 
L 2022 519 
Q 2988 519 3436 956 
Q 3884 1394 3884 2338 
Q 3884 3275 3436 3711 
Q 2988 4147 2022 4147 
L 1259 4147 
z
M 628 4666 
L 1925 4666 
Q 3281 4666 3915 4102 
Q 4550 3538 4550 2338 
Q 4550 1131 3912 565 
Q 3275 0 1925 0 
L 628 0 
L 628 4666 
z
" transform="scale(0.015625)"/>
      <path id="DejaVuSans-72" d="M 2631 2963 
Q 2534 3019 2420 3045 
Q 2306 3072 2169 3072 
Q 1681 3072 1420 2755 
Q 1159 2438 1159 1844 
L 1159 0 
L 581 0 
L 581 3500 
L 1159 3500 
L 1159 2956 
Q 1341 3275 1631 3429 
Q 1922 3584 2338 3584 
Q 2397 3584 2469 3576 
Q 2541 3569 2628 3553 
L 2631 2963 
z
" transform="scale(0.015625)"/>
     </defs>
     <use xlink:href="#DejaVuSans-42"/>
     <use xlink:href="#DejaVuSans-69" x="68.603516"/>
     <use xlink:href="#DejaVuSans-61" x="96.386719"/>
     <use xlink:href="#DejaVuSans-78" x="157.666016"/>
     <use xlink:href="#DejaVuSans-69" x="216.845703"/>
     <use xlink:href="#DejaVuSans-61" x="244.628906"/>
     <use xlink:href="#DejaVuSans-6c" x="305.908203"/>
     <use xlink:href="#DejaVuSans-20" x="333.691406"/>
     <use xlink:href="#DejaVuSans-42" x="365.478516"/>
     <use xlink:href="#DejaVuSans-65" x="434.082031"/>
     <use xlink:href="#DejaVuSans-6e" x="495.605469"/>
     <use xlink:href="#DejaVuSans-64" x="558.984375"/>
     <use xlink:href="#DejaVuSans-69" x="622.460938"/>
     <use xlink:href="#DejaVuSans-6e" x="650.244141"/>
     <use xlink:href="#DejaVuSans-67" x="713.623047"/>
     <use xlink:href="#DejaVuSans-20" x="777.099609"/>
     <use xlink:href="#DejaVuSans-44" x="808.886719"/>
     <use xlink:href="#DejaVuSans-69" x="885.888672"/>
     <use xlink:href="#DejaVuSans-61" x="913.671875"/>
     <use xlink:href="#DejaVuSans-67" x="974.951172"/>
     <use xlink:href="#DejaVuSans-72" x="1038.427734"/>
     <use xlink:href="#DejaVuSans-61" x="1079.541016"/>
     <use xlink:href="#DejaVuSans-6d" x="1140.820312"/>
    </g>
   </g>
   <g id="legend_1">
    <g id="patch_7">
     <path d="M 344.910938 205.6025 
L 441.028125 205.6025 
Q 443.028125 205.6025 443.028125 203.6025 
L 443.028125 116.53375 
Q 443.028125 114.53375 441.028125 114.53375 
L 344.910938 114.53375 
Q 342.910938 114.53375 342.910938 116.53375 
L 342.910938 203.6025 
Q 342.910938 205.6025 344.910938 205.6025 
z
" style="fill: #ffffff; opacity: 0.8; stroke: #cccccc; stroke-linejoin: miter"/>
    </g>
    <g id="line2d_31">
     <path d="M 346.910938 122.632188 
L 356.910938 122.632188 
L 366.910938 122.632188 
" style="fill: none; stroke: #1f77b4; stroke-width: 1.5; stroke-linecap: square"/>
    </g>
    <g id="text_16">
     <!-- N = 0 kN -->
     <g transform="translate(374.910938 126.132188)scale(0.1 -0.1)">
      <defs>
       <path id="DejaVuSans-3d" d="M 678 2906 
L 4684 2906 
L 4684 2381 
L 678 2381 
L 678 2906 
z
M 678 1631 
L 4684 1631 
L 4684 1100 
L 678 1100 
L 678 1631 
z
" transform="scale(0.015625)"/>
      </defs>
      <use xlink:href="#DejaVuSans-4e"/>
      <use xlink:href="#DejaVuSans-20" x="74.804688"/>
      <use xlink:href="#DejaVuSans-3d" x="106.591797"/>
      <use xlink:href="#DejaVuSans-20" x="190.380859"/>
      <use xlink:href="#DejaVuSans-30" x="222.167969"/>
      <use xlink:href="#DejaVuSans-20" x="285.791016"/>
      <use xlink:href="#DejaVuSans-6b" x="317.578125"/>
      <use xlink:href="#DejaVuSans-4e" x="375.488281"/>
     </g>
    </g>
    <g id="line2d_32">
     <path d="M 346.910938 137.310313 
L 356.910938 137.310313 
L 366.910938 137.310313 
" style="fill: none; stroke: #ff7f0e; stroke-width: 1.5; stroke-linecap: square"/>
    </g>
    <g id="text_17">
     <!-- N = 1480 kN -->
     <g transform="translate(374.910938 140.810313)scale(0.1 -0.1)">
      <defs>
       <path id="DejaVuSans-31" d="M 794 531 
L 1825 531 
L 1825 4091 
L 703 3866 
L 703 4441 
L 1819 4666 
L 2450 4666 
L 2450 531 
L 3481 531 
L 3481 0 
L 794 0 
L 794 531 
z
" transform="scale(0.015625)"/>
       <path id="DejaVuSans-38" d="M 2034 2216 
Q 1584 2216 1326 1975 
Q 1069 1734 1069 1313 
Q 1069 891 1326 650 
Q 1584 409 2034 409 
Q 2484 409 2743 651 
Q 3003 894 3003 1313 
Q 3003 1734 2745 1975 
Q 2488 2216 2034 2216 
z
M 1403 2484 
Q 997 2584 770 2862 
Q 544 3141 544 3541 
Q 544 4100 942 4425 
Q 1341 4750 2034 4750 
Q 2731 4750 3128 4425 
Q 3525 4100 3525 3541 
Q 3525 3141 3298 2862 
Q 3072 2584 2669 2484 
Q 3125 2378 3379 2068 
Q 3634 1759 3634 1313 
Q 3634 634 3220 271 
Q 2806 -91 2034 -91 
Q 1263 -91 848 271 
Q 434 634 434 1313 
Q 434 1759 690 2068 
Q 947 2378 1403 2484 
z
M 1172 3481 
Q 1172 3119 1398 2916 
Q 1625 2713 2034 2713 
Q 2441 2713 2670 2916 
Q 2900 3119 2900 3481 
Q 2900 3844 2670 4047 
Q 2441 4250 2034 4250 
Q 1625 4250 1398 4047 
Q 1172 3844 1172 3481 
z
" transform="scale(0.015625)"/>
      </defs>
      <use xlink:href="#DejaVuSans-4e"/>
      <use xlink:href="#DejaVuSans-20" x="74.804688"/>
      <use xlink:href="#DejaVuSans-3d" x="106.591797"/>
      <use xlink:href="#DejaVuSans-20" x="190.380859"/>
      <use xlink:href="#DejaVuSans-31" x="222.167969"/>
      <use xlink:href="#DejaVuSans-34" x="285.791016"/>
      <use xlink:href="#DejaVuSans-38" x="349.414062"/>
      <use xlink:href="#DejaVuSans-30" x="413.037109"/>
      <use xlink:href="#DejaVuSans-20" x="476.660156"/>
      <use xlink:href="#DejaVuSans-6b" x="508.447266"/>
      <use xlink:href="#DejaVuSans-4e" x="566.357422"/>
     </g>
    </g>
    <g id="line2d_33">
     <path d="M 346.910938 151.988438 
L 356.910938 151.988438 
L 366.910938 151.988438 
" style="fill: none; stroke: #2ca02c; stroke-width: 1.5; stroke-linecap: square"/>
    </g>
    <g id="text_18">
     <!-- N = 2960 kN -->
     <g transform="translate(374.910938 155.488438)scale(0.1 -0.1)">
      <defs>
       <path id="DejaVuSans-39" d="M 703 97 
L 703 672 
Q 941 559 1184 500 
Q 1428 441 1663 441 
Q 2288 441 2617 861 
Q 2947 1281 2994 2138 
Q 2813 1869 2534 1725 
Q 2256 1581 1919 1581 
Q 1219 1581 811 2004 
Q 403 2428 403 3163 
Q 403 3881 828 4315 
Q 1253 4750 1959 4750 
Q 2769 4750 3195 4129 
Q 3622 3509 3622 2328 
Q 3622 1225 3098 567 
Q 2575 -91 1691 -91 
Q 1453 -91 1209 -44 
Q 966 3 703 97 
z
M 1959 2075 
Q 2384 2075 2632 2365 
Q 2881 2656 2881 3163 
Q 2881 3666 2632 3958 
Q 2384 4250 1959 4250 
Q 1534 4250 1286 3958 
Q 1038 3666 1038 3163 
Q 1038 2656 1286 2365 
Q 1534 2075 1959 2075 
z
" transform="scale(0.015625)"/>
       <path id="DejaVuSans-36" d="M 2113 2584 
Q 1688 2584 1439 2293 
Q 1191 2003 1191 1497 
Q 1191 994 1439 701 
Q 1688 409 2113 409 
Q 2538 409 2786 701 
Q 3034 994 3034 1497 
Q 3034 2003 2786 2293 
Q 2538 2584 2113 2584 
z
M 3366 4563 
L 3366 3988 
Q 3128 4100 2886 4159 
Q 2644 4219 2406 4219 
Q 1781 4219 1451 3797 
Q 1122 3375 1075 2522 
Q 1259 2794 1537 2939 
Q 1816 3084 2150 3084 
Q 2853 3084 3261 2657 
Q 3669 2231 3669 1497 
Q 3669 778 3244 343 
Q 2819 -91 2113 -91 
Q 1303 -91 875 529 
Q 447 1150 447 2328 
Q 447 3434 972 4092 
Q 1497 4750 2381 4750 
Q 2619 4750 2861 4703 
Q 3103 4656 3366 4563 
z
" transform="scale(0.015625)"/>
      </defs>
      <use xlink:href="#DejaVuSans-4e"/>
      <use xlink:href="#DejaVuSans-20" x="74.804688"/>
      <use xlink:href="#DejaVuSans-3d" x="106.591797"/>
      <use xlink:href="#DejaVuSans-20" x="190.380859"/>
      <use xlink:href="#DejaVuSans-32" x="222.167969"/>
      <use xlink:href="#DejaVuSans-39" x="285.791016"/>
      <use xlink:href="#DejaVuSans-36" x="349.414062"/>
      <use xlink:href="#DejaVuSans-30" x="413.037109"/>
      <use xlink:href="#DejaVuSans-20" x="476.660156"/>
      <use xlink:href="#DejaVuSans-6b" x="508.447266"/>
      <use xlink:href="#DejaVuSans-4e" x="566.357422"/>
     </g>
    </g>
    <g id="line2d_34">
     <path d="M 346.910938 166.666563 
L 356.910938 166.666563 
L 366.910938 166.666563 
" style="fill: none; stroke: #d62728; stroke-width: 1.5; stroke-linecap: square"/>
    </g>
    <g id="text_19">
     <!-- N = 4440 kN -->
     <g transform="translate(374.910938 170.166563)scale(0.1 -0.1)">
      <use xlink:href="#DejaVuSans-4e"/>
      <use xlink:href="#DejaVuSans-20" x="74.804688"/>
      <use xlink:href="#DejaVuSans-3d" x="106.591797"/>
      <use xlink:href="#DejaVuSans-20" x="190.380859"/>
      <use xlink:href="#DejaVuSans-34" x="222.167969"/>
      <use xlink:href="#DejaVuSans-34" x="285.791016"/>
      <use xlink:href="#DejaVuSans-34" x="349.414062"/>
      <use xlink:href="#DejaVuSans-30" x="413.037109"/>
      <use xlink:href="#DejaVuSans-20" x="476.660156"/>
      <use xlink:href="#DejaVuSans-6b" x="508.447266"/>
      <use xlink:href="#DejaVuSans-4e" x="566.357422"/>
     </g>
    </g>
    <g id="line2d_35">
     <path d="M 346.910938 181.344688 
L 356.910938 181.344688 
L 366.910938 181.344688 
" style="fill: none; stroke: #9467bd; stroke-width: 1.5; stroke-linecap: square"/>
    </g>
    <g id="text_20">
     <!-- N = 5920 kN -->
     <g transform="translate(374.910938 184.844688)scale(0.1 -0.1)">
      <use xlink:href="#DejaVuSans-4e"/>
      <use xlink:href="#DejaVuSans-20" x="74.804688"/>
      <use xlink:href="#DejaVuSans-3d" x="106.591797"/>
      <use xlink:href="#DejaVuSans-20" x="190.380859"/>
      <use xlink:href="#DejaVuSans-35" x="222.167969"/>
      <use xlink:href="#DejaVuSans-39" x="285.791016"/>
      <use xlink:href="#DejaVuSans-32" x="349.414062"/>
      <use xlink:href="#DejaVuSans-30" x="413.037109"/>
      <use xlink:href="#DejaVuSans-20" x="476.660156"/>
      <use xlink:href="#DejaVuSans-6b" x="508.447266"/>
      <use xlink:href="#DejaVuSans-4e" x="566.357422"/>
     </g>
    </g>
    <g id="line2d_36">
     <path d="M 346.910938 196.022813 
L 356.910938 196.022813 
L 366.910938 196.022813 
" style="fill: none; stroke: #8c564b; stroke-width: 1.5; stroke-linecap: square"/>
    </g>
    <g id="text_21">
     <!-- N = 7400 kN -->
     <g transform="translate(374.910938 199.522813)scale(0.1 -0.1)">
      <use xlink:href="#DejaVuSans-4e"/>
      <use xlink:href="#DejaVuSans-20" x="74.804688"/>
      <use xlink:href="#DejaVuSans-3d" x="106.591797"/>
      <use xlink:href="#DejaVuSans-20" x="190.380859"/>
      <use xlink:href="#DejaVuSans-37" x="222.167969"/>
      <use xlink:href="#DejaVuSans-34" x="285.791016"/>
      <use xlink:href="#DejaVuSans-30" x="349.414062"/>
      <use xlink:href="#DejaVuSans-30" x="413.037109"/>
      <use xlink:href="#DejaVuSans-20" x="476.660156"/>
      <use xlink:href="#DejaVuSans-6b" x="508.447266"/>
      <use xlink:href="#DejaVuSans-4e" x="566.357422"/>
     </g>
    </g>
   </g>
  </g>
 </g>
 <defs>
  <clipPath id="p1e78231997">
   <rect x="56.367188" y="22.318125" width="281.54375" height="275.5"/>
  </clipPath>
 </defs>
</svg>
