<?xml version="1.0" encoding="utf-8" standalone="no"?>
<!DOCTYPE svg PUBLIC "-//W3C//DTD SVG 1.1//EN"
  "http://www.w3.org/Graphics/SVG/1.1/DTD/svg11.dtd">
<svg xmlns:xlink="http://www.w3.org/1999/xlink" width="423.89805pt" height="338.44625pt" viewBox="0 0 423.89805 338.44625" xmlns="http://www.w3.org/2000/svg" version="1.1">
 <metadata>
  <rdf:RDF xmlns:dc="http://purl.org/dc/elements/1.1/" xmlns:cc="http://creativecommons.org/ns#" xmlns:rdf="http://www.w3.org/1999/02/22-rdf-syntax-ns#">
   <cc:Work>
    <dc:type rdf:resource="http://purl.org/dc/dcmitype/StillImage"/>
    <dc:date>2022-07-19T05:24:19.563000</dc:date>
    <dc:format>image/svg+xml</dc:format>
    <dc:creator>
     <cc:Agent>
      <dc:title>Matplotlib v3.5.2, https://matplotlib.org/</dc:title>
     </cc:Agent>
    </dc:creator>
   </cc:Work>
  </rdf:RDF>
 </metadata>
 <defs>
  <style type="text/css">*{stroke-linejoin: round; stroke-linecap: butt}</style>
 </defs>
 <g id="figure_1">
  <g id="patch_1">
   <path d="M 0 338.44625 
L 423.89805 338.44625 
L 423.89805 0 
L 0 0 
z
" style="fill: #ffffff"/>
  </g>
  <g id="axes_1">
   <g id="patch_2">
    <path d="M 33.2875 314.568125 
L 416.69805 314.568125 
L 416.69805 22.318125 
L 33.2875 22.318125 
z
" style="fill: #ffffff"/>
   </g>
   <g id="matplotlib.axis_1">
    <g id="xtick_1">
     <g id="line2d_1">
      <defs>
       <path id="m659f559455" d="M 0 0 
L 0 3.5 
" style="stroke: #000000; stroke-width: 0.8"/>
      </defs>
      <g>
       <use xlink:href="#m659f559455" x="57.418234" y="314.568125" style="stroke: #000000; stroke-width: 0.8"/>
      </g>
     </g>
     <g id="text_1">
      <!-- −400 -->
      <g transform="translate(43.68464 329.166562)scale(0.1 -0.1)">
       <defs>
        <path id="DejaVuSans-2212" d="M 678 2272 
L 4684 2272 
L 4684 1741 
L 678 1741 
L 678 2272 
z
" transform="scale(0.015625)"/>
        <path id="DejaVuSans-34" d="M 2419 4116 
L 825 1625 
L 2419 1625 
L 2419 4116 
z
M 2253 4666 
L 3047 4666 
L 3047 1625 
L 3713 1625 
L 3713 1100 
L 3047 1100 
L 3047 0 
L 2419 0 
L 2419 1100 
L 313 1100 
L 313 1709 
L 2253 4666 
z
" transform="scale(0.015625)"/>
        <path id="DejaVuSans-30" d="M 2034 4250 
Q 1547 4250 1301 3770 
Q 1056 3291 1056 2328 
Q 1056 1369 1301 889 
Q 1547 409 2034 409 
Q 2525 409 2770 889 
Q 3016 1369 3016 2328 
Q 3016 3291 2770 3770 
Q 2525 4250 2034 4250 
z
M 2034 4750 
Q 2819 4750 3233 4129 
Q 3647 3509 3647 2328 
Q 3647 1150 3233 529 
Q 2819 -91 2034 -91 
Q 1250 -91 836 529 
Q 422 1150 422 2328 
Q 422 3509 836 4129 
Q 1250 4750 2034 4750 
z
" transform="scale(0.015625)"/>
       </defs>
       <use xlink:href="#DejaVuSans-2212"/>
       <use xlink:href="#DejaVuSans-34" x="83.789062"/>
       <use xlink:href="#DejaVuSans-30" x="147.412109"/>
       <use xlink:href="#DejaVuSans-30" x="211.035156"/>
      </g>
     </g>
    </g>
    <g id="xtick_2">
     <g id="line2d_2">
      <g>
       <use xlink:href="#m659f559455" x="118.354431" y="314.568125" style="stroke: #000000; stroke-width: 0.8"/>
      </g>
     </g>
     <g id="text_2">
      <!-- −200 -->
      <g transform="translate(104.620837 329.166562)scale(0.1 -0.1)">
       <defs>
        <path id="DejaVuSans-32" d="M 1228 531 
L 3431 531 
L 3431 0 
L 469 0 
L 469 531 
Q 828 903 1448 1529 
Q 2069 2156 2228 2338 
Q 2531 2678 2651 2914 
Q 2772 3150 2772 3378 
Q 2772 3750 2511 3984 
Q 2250 4219 1831 4219 
Q 1534 4219 1204 4116 
Q 875 4013 500 3803 
L 500 4441 
Q 881 4594 1212 4672 
Q 1544 4750 1819 4750 
Q 2544 4750 2975 4387 
Q 3406 4025 3406 3419 
Q 3406 3131 3298 2873 
Q 3191 2616 2906 2266 
Q 2828 2175 2409 1742 
Q 1991 1309 1228 531 
z
" transform="scale(0.015625)"/>
       </defs>
       <use xlink:href="#DejaVuSans-2212"/>
       <use xlink:href="#DejaVuSans-32" x="83.789062"/>
       <use xlink:href="#DejaVuSans-30" x="147.412109"/>
       <use xlink:href="#DejaVuSans-30" x="211.035156"/>
      </g>
     </g>
    </g>
    <g id="xtick_3">
     <g id="line2d_3">
      <g>
       <use xlink:href="#m659f559455" x="179.290628" y="314.568125" style="stroke: #000000; stroke-width: 0.8"/>
      </g>
     </g>
     <g id="text_3">
      <!-- 0 -->
      <g transform="translate(176.109378 329.166562)scale(0.1 -0.1)">
       <use xlink:href="#DejaVuSans-30"/>
      </g>
     </g>
    </g>
    <g id="xtick_4">
     <g id="line2d_4">
      <g>
       <use xlink:href="#m659f559455" x="240.226824" y="314.568125" style="stroke: #000000; stroke-width: 0.8"/>
      </g>
     </g>
     <g id="text_4">
      <!-- 200 -->
      <g transform="translate(230.683074 329.166562)scale(0.1 -0.1)">
       <use xlink:href="#DejaVuSans-32"/>
       <use xlink:href="#DejaVuSans-30" x="63.623047"/>
       <use xlink:href="#DejaVuSans-30" x="127.246094"/>
      </g>
     </g>
    </g>
    <g id="xtick_5">
     <g id="line2d_5">
      <g>
       <use xlink:href="#m659f559455" x="301.163021" y="314.568125" style="stroke: #000000; stroke-width: 0.8"/>
      </g>
     </g>
     <g id="text_5">
      <!-- 400 -->
      <g transform="translate(291.619271 329.166562)scale(0.1 -0.1)">
       <use xlink:href="#DejaVuSans-34"/>
       <use xlink:href="#DejaVuSans-30" x="63.623047"/>
       <use xlink:href="#DejaVuSans-30" x="127.246094"/>
      </g>
     </g>
    </g>
    <g id="xtick_6">
     <g id="line2d_6">
      <g>
       <use xlink:href="#m659f559455" x="362.099218" y="314.568125" style="stroke: #000000; stroke-width: 0.8"/>
      </g>
     </g>
     <g id="text_6">
      <!-- 600 -->
      <g transform="translate(352.555468 329.166562)scale(0.1 -0.1)">
       <defs>
        <path id="DejaVuSans-36" d="M 2113 2584 
Q 1688 2584 1439 2293 
Q 1191 2003 1191 1497 
Q 1191 994 1439 701 
Q 1688 409 2113 409 
Q 2538 409 2786 701 
Q 3034 994 3034 1497 
Q 3034 2003 2786 2293 
Q 2538 2584 2113 2584 
z
M 3366 4563 
L 3366 3988 
Q 3128 4100 2886 4159 
Q 2644 4219 2406 4219 
Q 1781 4219 1451 3797 
Q 1122 3375 1075 2522 
Q 1259 2794 1537 2939 
Q 1816 3084 2150 3084 
Q 2853 3084 3261 2657 
Q 3669 2231 3669 1497 
Q 3669 778 3244 343 
Q 2819 -91 2113 -91 
Q 1303 -91 875 529 
Q 447 1150 447 2328 
Q 447 3434 972 4092 
Q 1497 4750 2381 4750 
Q 2619 4750 2861 4703 
Q 3103 4656 3366 4563 
z
" transform="scale(0.015625)"/>
       </defs>
       <use xlink:href="#DejaVuSans-36"/>
       <use xlink:href="#DejaVuSans-30" x="63.623047"/>
       <use xlink:href="#DejaVuSans-30" x="127.246094"/>
      </g>
     </g>
    </g>
   </g>
   <g id="matplotlib.axis_2">
    <g id="ytick_1">
     <g id="line2d_7">
      <defs>
       <path id="mabf1244c4c" d="M 0 0 
L -3.5 0 
" style="stroke: #000000; stroke-width: 0.8"/>
      </defs>
      <g>
       <use xlink:href="#mabf1244c4c" x="33.2875" y="301.284034" style="stroke: #000000; stroke-width: 0.8"/>
      </g>
     </g>
     <g id="text_7">
      <!-- 0 -->
      <g transform="translate(19.925 305.083253)scale(0.1 -0.1)">
       <use xlink:href="#DejaVuSans-30"/>
      </g>
     </g>
    </g>
    <g id="ytick_2">
     <g id="line2d_8">
      <g>
       <use xlink:href="#mabf1244c4c" x="33.2875" y="240.347837" style="stroke: #000000; stroke-width: 0.8"/>
      </g>
     </g>
     <g id="text_8">
      <!-- 200 -->
      <g transform="translate(7.2 244.147056)scale(0.1 -0.1)">
       <use xlink:href="#DejaVuSans-32"/>
       <use xlink:href="#DejaVuSans-30" x="63.623047"/>
       <use xlink:href="#DejaVuSans-30" x="127.246094"/>
      </g>
     </g>
    </g>
    <g id="ytick_3">
     <g id="line2d_9">
      <g>
       <use xlink:href="#mabf1244c4c" x="33.2875" y="179.41164" style="stroke: #000000; stroke-width: 0.8"/>
      </g>
     </g>
     <g id="text_9">
      <!-- 400 -->
      <g transform="translate(7.2 183.210859)scale(0.1 -0.1)">
       <use xlink:href="#DejaVuSans-34"/>
       <use xlink:href="#DejaVuSans-30" x="63.623047"/>
       <use xlink:href="#DejaVuSans-30" x="127.246094"/>
      </g>
     </g>
    </g>
    <g id="ytick_4">
     <g id="line2d_10">
      <g>
       <use xlink:href="#mabf1244c4c" x="33.2875" y="118.475444" style="stroke: #000000; stroke-width: 0.8"/>
      </g>
     </g>
     <g id="text_10">
      <!-- 600 -->
      <g transform="translate(7.2 122.274662)scale(0.1 -0.1)">
       <use xlink:href="#DejaVuSans-36"/>
       <use xlink:href="#DejaVuSans-30" x="63.623047"/>
       <use xlink:href="#DejaVuSans-30" x="127.246094"/>
      </g>
     </g>
    </g>
    <g id="ytick_5">
     <g id="line2d_11">
      <g>
       <use xlink:href="#mabf1244c4c" x="33.2875" y="57.539247" style="stroke: #000000; stroke-width: 0.8"/>
      </g>
     </g>
     <g id="text_11">
      <!-- 800 -->
      <g transform="translate(7.2 61.338466)scale(0.1 -0.1)">
       <defs>
        <path id="DejaVuSans-38" d="M 2034 2216 
Q 1584 2216 1326 1975 
Q 1069 1734 1069 1313 
Q 1069 891 1326 650 
Q 1584 409 2034 409 
Q 2484 409 2743 651 
Q 3003 894 3003 1313 
Q 3003 1734 2745 1975 
Q 2488 2216 2034 2216 
z
M 1403 2484 
Q 997 2584 770 2862 
Q 544 3141 544 3541 
Q 544 4100 942 4425 
Q 1341 4750 2034 4750 
Q 2731 4750 3128 4425 
Q 3525 4100 3525 3541 
Q 3525 3141 3298 2862 
Q 3072 2584 2669 2484 
Q 3125 2378 3379 2068 
Q 3634 1759 3634 1313 
Q 3634 634 3220 271 
Q 2806 -91 2034 -91 
Q 1263 -91 848 271 
Q 434 634 434 1313 
Q 434 1759 690 2068 
Q 947 2378 1403 2484 
z
M 1172 3481 
Q 1172 3119 1398 2916 
Q 1625 2713 2034 2713 
Q 2441 2713 2670 2916 
Q 2900 3119 2900 3481 
Q 2900 3844 2670 4047 
Q 2441 4250 2034 4250 
Q 1625 4250 1398 4047 
Q 1172 3844 1172 3481 
z
" transform="scale(0.015625)"/>
       </defs>
       <use xlink:href="#DejaVuSans-38"/>
       <use xlink:href="#DejaVuSans-30" x="63.623047"/>
       <use xlink:href="#DejaVuSans-30" x="127.246094"/>
      </g>
     </g>
    </g>
   </g>
   <g id="line2d_12">
    <path d="M 270.694923 252.979013 
L 270.694923 301.284034 
" clip-path="url(#p05272cbac9)" style="fill: none; stroke: #000000; stroke-width: 1.5; stroke-linecap: square"/>
    <defs>
     <path id="m6e052f67fa" d="M 0 1 
C 0.265203 1 0.51958 0.894634 0.707107 0.707107 
C 0.894634 0.51958 1 0.265203 1 0 
C 1 -0.265203 0.894634 -0.51958 0.707107 -0.707107 
C 0.51958 -0.894634 0.265203 -1 0 -1 
C -0.265203 -1 -0.51958 -0.894634 -0.707107 -0.707107 
C -0.894634 -0.51958 -1 -0.265203 -1 0 
C -1 0.265203 -0.894634 0.51958 -0.707107 0.707107 
C -0.51958 0.894634 -0.265203 1 0 1 
z
" style="stroke: #000000"/>
    </defs>
    <g clip-path="url(#p05272cbac9)">
     <use xlink:href="#m6e052f67fa" x="270.694923" y="252.979013" style="stroke: #000000"/>
     <use xlink:href="#m6e052f67fa" x="270.694923" y="301.284034" style="stroke: #000000"/>
    </g>
   </g>
   <g id="line2d_13">
    <path d="M 270.694923 301.284034 
L 179.290628 301.284034 
" clip-path="url(#p05272cbac9)" style="fill: none; stroke: #000000; stroke-width: 1.5; stroke-linecap: square"/>
    <g clip-path="url(#p05272cbac9)">
     <use xlink:href="#m6e052f67fa" x="270.694923" y="301.284034" style="stroke: #000000"/>
     <use xlink:href="#m6e052f67fa" x="179.290628" y="301.284034" style="stroke: #000000"/>
    </g>
   </g>
   <g id="line2d_14">
    <path d="M 179.290628 301.284034 
L 179.290628 252.979013 
" clip-path="url(#p05272cbac9)" style="fill: none; stroke: #000000; stroke-width: 1.5; stroke-linecap: square"/>
    <g clip-path="url(#p05272cbac9)">
     <use xlink:href="#m6e052f67fa" x="179.290628" y="301.284034" style="stroke: #000000"/>
     <use xlink:href="#m6e052f67fa" x="179.290628" y="252.979013" style="stroke: #000000"/>
    </g>
   </g>
   <g id="line2d_15">
    <path d="M 179.290628 252.979013 
L 270.694923 252.979013 
" clip-path="url(#p05272cbac9)" style="fill: none; stroke: #000000; stroke-width: 1.5; stroke-linecap: square"/>
    <g clip-path="url(#p05272cbac9)">
     <use xlink:href="#m6e052f67fa" x="179.290628" y="252.979013" style="stroke: #000000"/>
     <use xlink:href="#m6e052f67fa" x="270.694923" y="252.979013" style="stroke: #000000"/>
    </g>
   </g>
   <g id="line2d_16">
    <path d="M 193.305953 293.362329 
L 199.399573 287.268709 
" clip-path="url(#p05272cbac9)" style="fill: none; stroke: #000000; stroke-width: 1.5; stroke-linecap: square"/>
    <g clip-path="url(#p05272cbac9)">
     <use xlink:href="#m6e052f67fa" x="193.305953" y="293.362329" style="stroke: #000000"/>
     <use xlink:href="#m6e052f67fa" x="199.399573" y="287.268709" style="stroke: #000000"/>
    </g>
   </g>
   <g id="line2d_17">
    <path d="M 199.399573 287.268709 
L 193.305953 281.175089 
" clip-path="url(#p05272cbac9)" style="fill: none; stroke: #000000; stroke-width: 1.5; stroke-linecap: square"/>
    <g clip-path="url(#p05272cbac9)">
     <use xlink:href="#m6e052f67fa" x="199.399573" y="287.268709" style="stroke: #000000"/>
     <use xlink:href="#m6e052f67fa" x="193.305953" y="281.175089" style="stroke: #000000"/>
    </g>
   </g>
   <g id="line2d_18">
    <path d="M 193.305953 281.175089 
L 187.212333 287.268709 
" clip-path="url(#p05272cbac9)" style="fill: none; stroke: #000000; stroke-width: 1.5; stroke-linecap: square"/>
    <g clip-path="url(#p05272cbac9)">
     <use xlink:href="#m6e052f67fa" x="193.305953" y="281.175089" style="stroke: #000000"/>
     <use xlink:href="#m6e052f67fa" x="187.212333" y="287.268709" style="stroke: #000000"/>
    </g>
   </g>
   <g id="line2d_19">
    <path d="M 187.212333 287.268709 
L 193.305953 293.362329 
" clip-path="url(#p05272cbac9)" style="fill: none; stroke: #000000; stroke-width: 1.5; stroke-linecap: square"/>
    <g clip-path="url(#p05272cbac9)">
     <use xlink:href="#m6e052f67fa" x="187.212333" y="287.268709" style="stroke: #000000"/>
     <use xlink:href="#m6e052f67fa" x="193.305953" y="293.362329" style="stroke: #000000"/>
    </g>
   </g>
   <g id="line2d_20">
    <path d="M 218.899156 287.268709 
L 224.992775 293.362329 
" clip-path="url(#p05272cbac9)" style="fill: none; stroke: #000000; stroke-width: 1.5; stroke-linecap: square"/>
    <g clip-path="url(#p05272cbac9)">
     <use xlink:href="#m6e052f67fa" x="218.899156" y="287.268709" style="stroke: #000000"/>
     <use xlink:href="#m6e052f67fa" x="224.992775" y="293.362329" style="stroke: #000000"/>
    </g>
   </g>
   <g id="line2d_21">
    <path d="M 224.992775 293.362329 
L 231.086395 287.268709 
" clip-path="url(#p05272cbac9)" style="fill: none; stroke: #000000; stroke-width: 1.5; stroke-linecap: square"/>
    <g clip-path="url(#p05272cbac9)">
     <use xlink:href="#m6e052f67fa" x="224.992775" y="293.362329" style="stroke: #000000"/>
     <use xlink:href="#m6e052f67fa" x="231.086395" y="287.268709" style="stroke: #000000"/>
    </g>
   </g>
   <g id="line2d_22">
    <path d="M 231.086395 287.268709 
L 224.992775 281.175089 
" clip-path="url(#p05272cbac9)" style="fill: none; stroke: #000000; stroke-width: 1.5; stroke-linecap: square"/>
    <g clip-path="url(#p05272cbac9)">
     <use xlink:href="#m6e052f67fa" x="231.086395" y="287.268709" style="stroke: #000000"/>
     <use xlink:href="#m6e052f67fa" x="224.992775" y="281.175089" style="stroke: #000000"/>
    </g>
   </g>
   <g id="line2d_23">
    <path d="M 224.992775 281.175089 
L 218.899156 287.268709 
" clip-path="url(#p05272cbac9)" style="fill: none; stroke: #000000; stroke-width: 1.5; stroke-linecap: square"/>
    <g clip-path="url(#p05272cbac9)">
     <use xlink:href="#m6e052f67fa" x="224.992775" y="281.175089" style="stroke: #000000"/>
     <use xlink:href="#m6e052f67fa" x="218.899156" y="287.268709" style="stroke: #000000"/>
    </g>
   </g>
   <g id="line2d_24">
    <path d="M 256.679598 281.175089 
L 250.585978 287.268709 
" clip-path="url(#p05272cbac9)" style="fill: none; stroke: #000000; stroke-width: 1.5; stroke-linecap: square"/>
    <g clip-path="url(#p05272cbac9)">
     <use xlink:href="#m6e052f67fa" x="256.679598" y="281.175089" style="stroke: #000000"/>
     <use xlink:href="#m6e052f67fa" x="250.585978" y="287.268709" style="stroke: #000000"/>
    </g>
   </g>
   <g id="line2d_25">
    <path d="M 250.585978 287.268709 
L 256.679598 293.362329 
" clip-path="url(#p05272cbac9)" style="fill: none; stroke: #000000; stroke-width: 1.5; stroke-linecap: square"/>
    <g clip-path="url(#p05272cbac9)">
     <use xlink:href="#m6e052f67fa" x="250.585978" y="287.268709" style="stroke: #000000"/>
     <use xlink:href="#m6e052f67fa" x="256.679598" y="293.362329" style="stroke: #000000"/>
    </g>
   </g>
   <g id="line2d_26">
    <path d="M 256.679598 293.362329 
L 262.773217 287.268709 
" clip-path="url(#p05272cbac9)" style="fill: none; stroke: #000000; stroke-width: 1.5; stroke-linecap: square"/>
    <g clip-path="url(#p05272cbac9)">
     <use xlink:href="#m6e052f67fa" x="256.679598" y="293.362329" style="stroke: #000000"/>
     <use xlink:href="#m6e052f67fa" x="262.773217" y="287.268709" style="stroke: #000000"/>
    </g>
   </g>
   <g id="line2d_27">
    <path d="M 262.773217 287.268709 
L 256.679598 281.175089 
" clip-path="url(#p05272cbac9)" style="fill: none; stroke: #000000; stroke-width: 1.5; stroke-linecap: square"/>
    <g clip-path="url(#p05272cbac9)">
     <use xlink:href="#m6e052f67fa" x="262.773217" y="287.268709" style="stroke: #000000"/>
     <use xlink:href="#m6e052f67fa" x="256.679598" y="281.175089" style="stroke: #000000"/>
    </g>
   </g>
   <g id="line2d_28">
    <path d="M 56.808872 38.649026 
L 53.762062 41.695836 
" clip-path="url(#p05272cbac9)" style="fill: none; stroke: #000000; stroke-width: 1.5; stroke-linecap: square"/>
    <g clip-path="url(#p05272cbac9)">
     <use xlink:href="#m6e052f67fa" x="56.808872" y="38.649026" style="stroke: #000000"/>
     <use xlink:href="#m6e052f67fa" x="53.762062" y="41.695836" style="stroke: #000000"/>
    </g>
   </g>
   <g id="line2d_29">
    <path d="M 53.762062 41.695836 
L 50.715252 38.649026 
" clip-path="url(#p05272cbac9)" style="fill: none; stroke: #000000; stroke-width: 1.5; stroke-linecap: square"/>
    <g clip-path="url(#p05272cbac9)">
     <use xlink:href="#m6e052f67fa" x="53.762062" y="41.695836" style="stroke: #000000"/>
     <use xlink:href="#m6e052f67fa" x="50.715252" y="38.649026" style="stroke: #000000"/>
    </g>
   </g>
   <g id="line2d_30">
    <path d="M 50.715252 38.649026 
L 53.762062 35.602216 
" clip-path="url(#p05272cbac9)" style="fill: none; stroke: #000000; stroke-width: 1.5; stroke-linecap: square"/>
    <g clip-path="url(#p05272cbac9)">
     <use xlink:href="#m6e052f67fa" x="50.715252" y="38.649026" style="stroke: #000000"/>
     <use xlink:href="#m6e052f67fa" x="53.762062" y="35.602216" style="stroke: #000000"/>
    </g>
   </g>
   <g id="line2d_31">
    <path d="M 53.762062 35.602216 
L 56.808872 38.649026 
" clip-path="url(#p05272cbac9)" style="fill: none; stroke: #000000; stroke-width: 1.5; stroke-linecap: square"/>
    <g clip-path="url(#p05272cbac9)">
     <use xlink:href="#m6e052f67fa" x="53.762062" y="35.602216" style="stroke: #000000"/>
     <use xlink:href="#m6e052f67fa" x="56.808872" y="38.649026" style="stroke: #000000"/>
    </g>
   </g>
   <g id="line2d_32">
    <path d="M 122.254347 35.602216 
L 125.301157 38.649026 
" clip-path="url(#p05272cbac9)" style="fill: none; stroke: #000000; stroke-width: 1.5; stroke-linecap: square"/>
    <g clip-path="url(#p05272cbac9)">
     <use xlink:href="#m6e052f67fa" x="122.254347" y="35.602216" style="stroke: #000000"/>
     <use xlink:href="#m6e052f67fa" x="125.301157" y="38.649026" style="stroke: #000000"/>
    </g>
   </g>
   <g id="line2d_33">
    <path d="M 125.301157 38.649026 
L 122.254347 41.695836 
" clip-path="url(#p05272cbac9)" style="fill: none; stroke: #000000; stroke-width: 1.5; stroke-linecap: square"/>
    <g clip-path="url(#p05272cbac9)">
     <use xlink:href="#m6e052f67fa" x="125.301157" y="38.649026" style="stroke: #000000"/>
     <use xlink:href="#m6e052f67fa" x="122.254347" y="41.695836" style="stroke: #000000"/>
    </g>
   </g>
   <g id="line2d_34">
    <path d="M 122.254347 41.695836 
L 119.207538 38.649026 
" clip-path="url(#p05272cbac9)" style="fill: none; stroke: #000000; stroke-width: 1.5; stroke-linecap: square"/>
    <g clip-path="url(#p05272cbac9)">
     <use xlink:href="#m6e052f67fa" x="122.254347" y="41.695836" style="stroke: #000000"/>
     <use xlink:href="#m6e052f67fa" x="119.207538" y="38.649026" style="stroke: #000000"/>
    </g>
   </g>
   <g id="line2d_35">
    <path d="M 119.207538 38.649026 
L 122.254347 35.602216 
" clip-path="url(#p05272cbac9)" style="fill: none; stroke: #000000; stroke-width: 1.5; stroke-linecap: square"/>
    <g clip-path="url(#p05272cbac9)">
     <use xlink:href="#m6e052f67fa" x="119.207538" y="38.649026" style="stroke: #000000"/>
     <use xlink:href="#m6e052f67fa" x="122.254347" y="35.602216" style="stroke: #000000"/>
    </g>
   </g>
   <g id="line2d_36">
    <path d="M 187.699823 38.649026 
L 190.746633 35.602216 
" clip-path="url(#p05272cbac9)" style="fill: none; stroke: #000000; stroke-width: 1.5; stroke-linecap: square"/>
    <g clip-path="url(#p05272cbac9)">
     <use xlink:href="#m6e052f67fa" x="187.699823" y="38.649026" style="stroke: #000000"/>
     <use xlink:href="#m6e052f67fa" x="190.746633" y="35.602216" style="stroke: #000000"/>
    </g>
   </g>
   <g id="line2d_37">
    <path d="M 190.746633 35.602216 
L 193.793442 38.649026 
" clip-path="url(#p05272cbac9)" style="fill: none; stroke: #000000; stroke-width: 1.5; stroke-linecap: square"/>
    <g clip-path="url(#p05272cbac9)">
     <use xlink:href="#m6e052f67fa" x="190.746633" y="35.602216" style="stroke: #000000"/>
     <use xlink:href="#m6e052f67fa" x="193.793442" y="38.649026" style="stroke: #000000"/>
    </g>
   </g>
   <g id="line2d_38">
    <path d="M 193.793442 38.649026 
L 190.746633 41.695836 
" clip-path="url(#p05272cbac9)" style="fill: none; stroke: #000000; stroke-width: 1.5; stroke-linecap: square"/>
    <g clip-path="url(#p05272cbac9)">
     <use xlink:href="#m6e052f67fa" x="193.793442" y="38.649026" style="stroke: #000000"/>
     <use xlink:href="#m6e052f67fa" x="190.746633" y="41.695836" style="stroke: #000000"/>
    </g>
   </g>
   <g id="line2d_39">
    <path d="M 190.746633 41.695836 
L 187.699823 38.649026 
" clip-path="url(#p05272cbac9)" style="fill: none; stroke: #000000; stroke-width: 1.5; stroke-linecap: square"/>
    <g clip-path="url(#p05272cbac9)">
     <use xlink:href="#m6e052f67fa" x="190.746633" y="41.695836" style="stroke: #000000"/>
     <use xlink:href="#m6e052f67fa" x="187.699823" y="38.649026" style="stroke: #000000"/>
    </g>
   </g>
   <g id="line2d_40">
    <path d="M 259.238918 41.695836 
L 256.192108 38.649026 
" clip-path="url(#p05272cbac9)" style="fill: none; stroke: #000000; stroke-width: 1.5; stroke-linecap: square"/>
    <g clip-path="url(#p05272cbac9)">
     <use xlink:href="#m6e052f67fa" x="259.238918" y="41.695836" style="stroke: #000000"/>
     <use xlink:href="#m6e052f67fa" x="256.192108" y="38.649026" style="stroke: #000000"/>
    </g>
   </g>
   <g id="line2d_41">
    <path d="M 256.192108 38.649026 
L 259.238918 35.602216 
" clip-path="url(#p05272cbac9)" style="fill: none; stroke: #000000; stroke-width: 1.5; stroke-linecap: square"/>
    <g clip-path="url(#p05272cbac9)">
     <use xlink:href="#m6e052f67fa" x="256.192108" y="38.649026" style="stroke: #000000"/>
     <use xlink:href="#m6e052f67fa" x="259.238918" y="35.602216" style="stroke: #000000"/>
    </g>
   </g>
   <g id="line2d_42">
    <path d="M 259.238918 35.602216 
L 262.285728 38.649026 
" clip-path="url(#p05272cbac9)" style="fill: none; stroke: #000000; stroke-width: 1.5; stroke-linecap: square"/>
    <g clip-path="url(#p05272cbac9)">
     <use xlink:href="#m6e052f67fa" x="259.238918" y="35.602216" style="stroke: #000000"/>
     <use xlink:href="#m6e052f67fa" x="262.285728" y="38.649026" style="stroke: #000000"/>
    </g>
   </g>
   <g id="line2d_43">
    <path d="M 262.285728 38.649026 
L 259.238918 41.695836 
" clip-path="url(#p05272cbac9)" style="fill: none; stroke: #000000; stroke-width: 1.5; stroke-linecap: square"/>
    <g clip-path="url(#p05272cbac9)">
     <use xlink:href="#m6e052f67fa" x="262.285728" y="38.649026" style="stroke: #000000"/>
     <use xlink:href="#m6e052f67fa" x="259.238918" y="41.695836" style="stroke: #000000"/>
    </g>
   </g>
   <g id="line2d_44">
    <path d="M 330.778013 38.649026 
L 327.731203 41.695836 
" clip-path="url(#p05272cbac9)" style="fill: none; stroke: #000000; stroke-width: 1.5; stroke-linecap: square"/>
    <g clip-path="url(#p05272cbac9)">
     <use xlink:href="#m6e052f67fa" x="330.778013" y="38.649026" style="stroke: #000000"/>
     <use xlink:href="#m6e052f67fa" x="327.731203" y="41.695836" style="stroke: #000000"/>
    </g>
   </g>
   <g id="line2d_45">
    <path d="M 327.731203 41.695836 
L 324.684393 38.649026 
" clip-path="url(#p05272cbac9)" style="fill: none; stroke: #000000; stroke-width: 1.5; stroke-linecap: square"/>
    <g clip-path="url(#p05272cbac9)">
     <use xlink:href="#m6e052f67fa" x="327.731203" y="41.695836" style="stroke: #000000"/>
     <use xlink:href="#m6e052f67fa" x="324.684393" y="38.649026" style="stroke: #000000"/>
    </g>
   </g>
   <g id="line2d_46">
    <path d="M 324.684393 38.649026 
L 327.731203 35.602216 
" clip-path="url(#p05272cbac9)" style="fill: none; stroke: #000000; stroke-width: 1.5; stroke-linecap: square"/>
    <g clip-path="url(#p05272cbac9)">
     <use xlink:href="#m6e052f67fa" x="324.684393" y="38.649026" style="stroke: #000000"/>
     <use xlink:href="#m6e052f67fa" x="327.731203" y="35.602216" style="stroke: #000000"/>
    </g>
   </g>
   <g id="line2d_47">
    <path d="M 327.731203 35.602216 
L 330.778013 38.649026 
" clip-path="url(#p05272cbac9)" style="fill: none; stroke: #000000; stroke-width: 1.5; stroke-linecap: square"/>
    <g clip-path="url(#p05272cbac9)">
     <use xlink:href="#m6e052f67fa" x="327.731203" y="35.602216" style="stroke: #000000"/>
     <use xlink:href="#m6e052f67fa" x="330.778013" y="38.649026" style="stroke: #000000"/>
    </g>
   </g>
   <g id="line2d_48">
    <path d="M 396.223488 35.602216 
L 399.270298 38.649026 
" clip-path="url(#p05272cbac9)" style="fill: none; stroke: #000000; stroke-width: 1.5; stroke-linecap: square"/>
    <g clip-path="url(#p05272cbac9)">
     <use xlink:href="#m6e052f67fa" x="396.223488" y="35.602216" style="stroke: #000000"/>
     <use xlink:href="#m6e052f67fa" x="399.270298" y="38.649026" style="stroke: #000000"/>
    </g>
   </g>
   <g id="line2d_49">
    <path d="M 399.270298 38.649026 
L 396.223488 41.695836 
" clip-path="url(#p05272cbac9)" style="fill: none; stroke: #000000; stroke-width: 1.5; stroke-linecap: square"/>
    <g clip-path="url(#p05272cbac9)">
     <use xlink:href="#m6e052f67fa" x="399.270298" y="38.649026" style="stroke: #000000"/>
     <use xlink:href="#m6e052f67fa" x="396.223488" y="41.695836" style="stroke: #000000"/>
    </g>
   </g>
   <g id="line2d_50">
    <path d="M 396.223488 41.695836 
L 393.176678 38.649026 
" clip-path="url(#p05272cbac9)" style="fill: none; stroke: #000000; stroke-width: 1.5; stroke-linecap: square"/>
    <g clip-path="url(#p05272cbac9)">
     <use xlink:href="#m6e052f67fa" x="396.223488" y="41.695836" style="stroke: #000000"/>
     <use xlink:href="#m6e052f67fa" x="393.176678" y="38.649026" style="stroke: #000000"/>
    </g>
   </g>
   <g id="line2d_51">
    <path d="M 393.176678 38.649026 
L 396.223488 35.602216 
" clip-path="url(#p05272cbac9)" style="fill: none; stroke: #000000; stroke-width: 1.5; stroke-linecap: square"/>
    <g clip-path="url(#p05272cbac9)">
     <use xlink:href="#m6e052f67fa" x="393.176678" y="38.649026" style="stroke: #000000"/>
     <use xlink:href="#m6e052f67fa" x="396.223488" y="35.602216" style="stroke: #000000"/>
    </g>
   </g>
   <g id="line2d_52">
    <path d="M 187.212333 287.268709 
L 193.305953 281.175089 
" clip-path="url(#p05272cbac9)" style="fill: none; stroke: #000000; stroke-width: 1.5; stroke-linecap: square"/>
    <g clip-path="url(#p05272cbac9)">
     <use xlink:href="#m6e052f67fa" x="187.212333" y="287.268709" style="stroke: #000000"/>
     <use xlink:href="#m6e052f67fa" x="193.305953" y="281.175089" style="stroke: #000000"/>
    </g>
   </g>
   <g id="line2d_53">
    <path d="M 193.305953 281.175089 
L 199.399573 287.268709 
" clip-path="url(#p05272cbac9)" style="fill: none; stroke: #000000; stroke-width: 1.5; stroke-linecap: square"/>
    <g clip-path="url(#p05272cbac9)">
     <use xlink:href="#m6e052f67fa" x="193.305953" y="281.175089" style="stroke: #000000"/>
     <use xlink:href="#m6e052f67fa" x="199.399573" y="287.268709" style="stroke: #000000"/>
    </g>
   </g>
   <g id="line2d_54">
    <path d="M 199.399573 287.268709 
L 193.305953 293.362329 
" clip-path="url(#p05272cbac9)" style="fill: none; stroke: #000000; stroke-width: 1.5; stroke-linecap: square"/>
    <g clip-path="url(#p05272cbac9)">
     <use xlink:href="#m6e052f67fa" x="199.399573" y="287.268709" style="stroke: #000000"/>
     <use xlink:href="#m6e052f67fa" x="193.305953" y="293.362329" style="stroke: #000000"/>
    </g>
   </g>
   <g id="line2d_55">
    <path d="M 193.305953 293.362329 
L 187.212333 287.268709 
" clip-path="url(#p05272cbac9)" style="fill: none; stroke: #000000; stroke-width: 1.5; stroke-linecap: square"/>
    <g clip-path="url(#p05272cbac9)">
     <use xlink:href="#m6e052f67fa" x="193.305953" y="293.362329" style="stroke: #000000"/>
     <use xlink:href="#m6e052f67fa" x="187.212333" y="287.268709" style="stroke: #000000"/>
    </g>
   </g>
   <g id="line2d_56">
    <path d="M 224.992775 293.362329 
L 218.899156 287.268709 
" clip-path="url(#p05272cbac9)" style="fill: none; stroke: #000000; stroke-width: 1.5; stroke-linecap: square"/>
    <g clip-path="url(#p05272cbac9)">
     <use xlink:href="#m6e052f67fa" x="224.992775" y="293.362329" style="stroke: #000000"/>
     <use xlink:href="#m6e052f67fa" x="218.899156" y="287.268709" style="stroke: #000000"/>
    </g>
   </g>
   <g id="line2d_57">
    <path d="M 218.899156 287.268709 
L 224.992775 281.175089 
" clip-path="url(#p05272cbac9)" style="fill: none; stroke: #000000; stroke-width: 1.5; stroke-linecap: square"/>
    <g clip-path="url(#p05272cbac9)">
     <use xlink:href="#m6e052f67fa" x="218.899156" y="287.268709" style="stroke: #000000"/>
     <use xlink:href="#m6e052f67fa" x="224.992775" y="281.175089" style="stroke: #000000"/>
    </g>
   </g>
   <g id="line2d_58">
    <path d="M 224.992775 281.175089 
L 231.086395 287.268709 
" clip-path="url(#p05272cbac9)" style="fill: none; stroke: #000000; stroke-width: 1.5; stroke-linecap: square"/>
    <g clip-path="url(#p05272cbac9)">
     <use xlink:href="#m6e052f67fa" x="224.992775" y="281.175089" style="stroke: #000000"/>
     <use xlink:href="#m6e052f67fa" x="231.086395" y="287.268709" style="stroke: #000000"/>
    </g>
   </g>
   <g id="line2d_59">
    <path d="M 231.086395 287.268709 
L 224.992775 293.362329 
" clip-path="url(#p05272cbac9)" style="fill: none; stroke: #000000; stroke-width: 1.5; stroke-linecap: square"/>
    <g clip-path="url(#p05272cbac9)">
     <use xlink:href="#m6e052f67fa" x="231.086395" y="287.268709" style="stroke: #000000"/>
     <use xlink:href="#m6e052f67fa" x="224.992775" y="293.362329" style="stroke: #000000"/>
    </g>
   </g>
   <g id="line2d_60">
    <path d="M 262.773217 287.268709 
L 256.679598 281.175089 
" clip-path="url(#p05272cbac9)" style="fill: none; stroke: #000000; stroke-width: 1.5; stroke-linecap: square"/>
    <g clip-path="url(#p05272cbac9)">
     <use xlink:href="#m6e052f67fa" x="262.773217" y="287.268709" style="stroke: #000000"/>
     <use xlink:href="#m6e052f67fa" x="256.679598" y="281.175089" style="stroke: #000000"/>
    </g>
   </g>
   <g id="line2d_61">
    <path d="M 256.679598 281.175089 
L 250.585978 287.268709 
" clip-path="url(#p05272cbac9)" style="fill: none; stroke: #000000; stroke-width: 1.5; stroke-linecap: square"/>
    <g clip-path="url(#p05272cbac9)">
     <use xlink:href="#m6e052f67fa" x="256.679598" y="281.175089" style="stroke: #000000"/>
     <use xlink:href="#m6e052f67fa" x="250.585978" y="287.268709" style="stroke: #000000"/>
    </g>
   </g>
   <g id="line2d_62">
    <path d="M 250.585978 287.268709 
L 256.679598 293.362329 
" clip-path="url(#p05272cbac9)" style="fill: none; stroke: #000000; stroke-width: 1.5; stroke-linecap: square"/>
    <g clip-path="url(#p05272cbac9)">
     <use xlink:href="#m6e052f67fa" x="250.585978" y="287.268709" style="stroke: #000000"/>
     <use xlink:href="#m6e052f67fa" x="256.679598" y="293.362329" style="stroke: #000000"/>
    </g>
   </g>
   <g id="line2d_63">
    <path d="M 256.679598 293.362329 
L 262.773217 287.268709 
" clip-path="url(#p05272cbac9)" style="fill: none; stroke: #000000; stroke-width: 1.5; stroke-linecap: square"/>
    <g clip-path="url(#p05272cbac9)">
     <use xlink:href="#m6e052f67fa" x="256.679598" y="293.362329" style="stroke: #000000"/>
     <use xlink:href="#m6e052f67fa" x="262.773217" y="287.268709" style="stroke: #000000"/>
    </g>
   </g>
   <g id="patch_3">
    <path d="M 33.2875 314.568125 
L 33.2875 22.318125 
" style="fill: none; stroke: #000000; stroke-width: 0.8; stroke-linejoin: miter; stroke-linecap: square"/>
   </g>
   <g id="patch_4">
    <path d="M 416.69805 314.568125 
L 416.69805 22.318125 
" style="fill: none; stroke: #000000; stroke-width: 0.8; stroke-linejoin: miter; stroke-linecap: square"/>
   </g>
   <g id="patch_5">
    <path d="M 33.2875 314.568125 
L 416.69805 314.568125 
" style="fill: none; stroke: #000000; stroke-width: 0.8; stroke-linejoin: miter; stroke-linecap: square"/>
   </g>
   <g id="patch_6">
    <path d="M 33.2875 22.318125 
L 416.69805 22.318125 
" style="fill: none; stroke: #000000; stroke-width: 0.8; stroke-linejoin: miter; stroke-linecap: square"/>
   </g>
   <g id="text_12">
    <!-- Cracked Geometries -->
    <g transform="translate(163.844338 16.318125)scale(0.12 -0.12)">
     <defs>
      <path id="DejaVuSans-43" d="M 4122 4306 
L 4122 3641 
Q 3803 3938 3442 4084 
Q 3081 4231 2675 4231 
Q 1875 4231 1450 3742 
Q 1025 3253 1025 2328 
Q 1025 1406 1450 917 
Q 1875 428 2675 428 
Q 3081 428 3442 575 
Q 3803 722 4122 1019 
L 4122 359 
Q 3791 134 3420 21 
Q 3050 -91 2638 -91 
Q 1578 -91 968 557 
Q 359 1206 359 2328 
Q 359 3453 968 4101 
Q 1578 4750 2638 4750 
Q 3056 4750 3426 4639 
Q 3797 4528 4122 4306 
z
" transform="scale(0.015625)"/>
      <path id="DejaVuSans-72" d="M 2631 2963 
Q 2534 3019 2420 3045 
Q 2306 3072 2169 3072 
Q 1681 3072 1420 2755 
Q 1159 2438 1159 1844 
L 1159 0 
L 581 0 
L 581 3500 
L 1159 3500 
L 1159 2956 
Q 1341 3275 1631 3429 
Q 1922 3584 2338 3584 
Q 2397 3584 2469 3576 
Q 2541 3569 2628 3553 
L 2631 2963 
z
" transform="scale(0.015625)"/>
      <path id="DejaVuSans-61" d="M 2194 1759 
Q 1497 1759 1228 1600 
Q 959 1441 959 1056 
Q 959 750 1161 570 
Q 1363 391 1709 391 
Q 2188 391 2477 730 
Q 2766 1069 2766 1631 
L 2766 1759 
L 2194 1759 
z
M 3341 1997 
L 3341 0 
L 2766 0 
L 2766 531 
Q 2569 213 2275 61 
Q 1981 -91 1556 -91 
Q 1019 -91 701 211 
Q 384 513 384 1019 
Q 384 1609 779 1909 
Q 1175 2209 1959 2209 
L 2766 2209 
L 2766 2266 
Q 2766 2663 2505 2880 
Q 2244 3097 1772 3097 
Q 1472 3097 1187 3025 
Q 903 2953 641 2809 
L 641 3341 
Q 956 3463 1253 3523 
Q 1550 3584 1831 3584 
Q 2591 3584 2966 3190 
Q 3341 2797 3341 1997 
z
" transform="scale(0.015625)"/>
      <path id="DejaVuSans-63" d="M 3122 3366 
L 3122 2828 
Q 2878 2963 2633 3030 
Q 2388 3097 2138 3097 
Q 1578 3097 1268 2742 
Q 959 2388 959 1747 
Q 959 1106 1268 751 
Q 1578 397 2138 397 
Q 2388 397 2633 464 
Q 2878 531 3122 666 
L 3122 134 
Q 2881 22 2623 -34 
Q 2366 -91 2075 -91 
Q 1284 -91 818 406 
Q 353 903 353 1747 
Q 353 2603 823 3093 
Q 1294 3584 2113 3584 
Q 2378 3584 2631 3529 
Q 2884 3475 3122 3366 
z
" transform="scale(0.015625)"/>
      <path id="DejaVuSans-6b" d="M 581 4863 
L 1159 4863 
L 1159 1991 
L 2875 3500 
L 3609 3500 
L 1753 1863 
L 3688 0 
L 2938 0 
L 1159 1709 
L 1159 0 
L 581 0 
L 581 4863 
z
" transform="scale(0.015625)"/>
      <path id="DejaVuSans-65" d="M 3597 1894 
L 3597 1613 
L 953 1613 
Q 991 1019 1311 708 
Q 1631 397 2203 397 
Q 2534 397 2845 478 
Q 3156 559 3463 722 
L 3463 178 
Q 3153 47 2828 -22 
Q 2503 -91 2169 -91 
Q 1331 -91 842 396 
Q 353 884 353 1716 
Q 353 2575 817 3079 
Q 1281 3584 2069 3584 
Q 2775 3584 3186 3129 
Q 3597 2675 3597 1894 
z
M 3022 2063 
Q 3016 2534 2758 2815 
Q 2500 3097 2075 3097 
Q 1594 3097 1305 2825 
Q 1016 2553 972 2059 
L 3022 2063 
z
" transform="scale(0.015625)"/>
      <path id="DejaVuSans-64" d="M 2906 2969 
L 2906 4863 
L 3481 4863 
L 3481 0 
L 2906 0 
L 2906 525 
Q 2725 213 2448 61 
Q 2172 -91 1784 -91 
Q 1150 -91 751 415 
Q 353 922 353 1747 
Q 353 2572 751 3078 
Q 1150 3584 1784 3584 
Q 2172 3584 2448 3432 
Q 2725 3281 2906 2969 
z
M 947 1747 
Q 947 1113 1208 752 
Q 1469 391 1925 391 
Q 2381 391 2643 752 
Q 2906 1113 2906 1747 
Q 2906 2381 2643 2742 
Q 2381 3103 1925 3103 
Q 1469 3103 1208 2742 
Q 947 2381 947 1747 
z
" transform="scale(0.015625)"/>
      <path id="DejaVuSans-20" transform="scale(0.015625)"/>
      <path id="DejaVuSans-47" d="M 3809 666 
L 3809 1919 
L 2778 1919 
L 2778 2438 
L 4434 2438 
L 4434 434 
Q 4069 175 3628 42 
Q 3188 -91 2688 -91 
Q 1594 -91 976 548 
Q 359 1188 359 2328 
Q 359 3472 976 4111 
Q 1594 4750 2688 4750 
Q 3144 4750 3555 4637 
Q 3966 4525 4313 4306 
L 4313 3634 
Q 3963 3931 3569 4081 
Q 3175 4231 2741 4231 
Q 1884 4231 1454 3753 
Q 1025 3275 1025 2328 
Q 1025 1384 1454 906 
Q 1884 428 2741 428 
Q 3075 428 3337 486 
Q 3600 544 3809 666 
z
" transform="scale(0.015625)"/>
      <path id="DejaVuSans-6f" d="M 1959 3097 
Q 1497 3097 1228 2736 
Q 959 2375 959 1747 
Q 959 1119 1226 758 
Q 1494 397 1959 397 
Q 2419 397 2687 759 
Q 2956 1122 2956 1747 
Q 2956 2369 2687 2733 
Q 2419 3097 1959 3097 
z
M 1959 3584 
Q 2709 3584 3137 3096 
Q 3566 2609 3566 1747 
Q 3566 888 3137 398 
Q 2709 -91 1959 -91 
Q 1206 -91 779 398 
Q 353 888 353 1747 
Q 353 2609 779 3096 
Q 1206 3584 1959 3584 
z
" transform="scale(0.015625)"/>
      <path id="DejaVuSans-6d" d="M 3328 2828 
Q 3544 3216 3844 3400 
Q 4144 3584 4550 3584 
Q 5097 3584 5394 3201 
Q 5691 2819 5691 2113 
L 5691 0 
L 5113 0 
L 5113 2094 
Q 5113 2597 4934 2840 
Q 4756 3084 4391 3084 
Q 3944 3084 3684 2787 
Q 3425 2491 3425 1978 
L 3425 0 
L 2847 0 
L 2847 2094 
Q 2847 2600 2669 2842 
Q 2491 3084 2119 3084 
Q 1678 3084 1418 2786 
Q 1159 2488 1159 1978 
L 1159 0 
L 581 0 
L 581 3500 
L 1159 3500 
L 1159 2956 
Q 1356 3278 1631 3431 
Q 1906 3584 2284 3584 
Q 2666 3584 2933 3390 
Q 3200 3197 3328 2828 
z
" transform="scale(0.015625)"/>
      <path id="DejaVuSans-74" d="M 1172 4494 
L 1172 3500 
L 2356 3500 
L 2356 3053 
L 1172 3053 
L 1172 1153 
Q 1172 725 1289 603 
Q 1406 481 1766 481 
L 2356 481 
L 2356 0 
L 1766 0 
Q 1100 0 847 248 
Q 594 497 594 1153 
L 594 3053 
L 172 3053 
L 172 3500 
L 594 3500 
L 594 4494 
L 1172 4494 
z
" transform="scale(0.015625)"/>
      <path id="DejaVuSans-69" d="M 603 3500 
L 1178 3500 
L 1178 0 
L 603 0 
L 603 3500 
z
M 603 4863 
L 1178 4863 
L 1178 4134 
L 603 4134 
L 603 4863 
z
" transform="scale(0.015625)"/>
      <path id="DejaVuSans-73" d="M 2834 3397 
L 2834 2853 
Q 2591 2978 2328 3040 
Q 2066 3103 1784 3103 
Q 1356 3103 1142 2972 
Q 928 2841 928 2578 
Q 928 2378 1081 2264 
Q 1234 2150 1697 2047 
L 1894 2003 
Q 2506 1872 2764 1633 
Q 3022 1394 3022 966 
Q 3022 478 2636 193 
Q 2250 -91 1575 -91 
Q 1294 -91 989 -36 
Q 684 19 347 128 
L 347 722 
Q 666 556 975 473 
Q 1284 391 1588 391 
Q 1994 391 2212 530 
Q 2431 669 2431 922 
Q 2431 1156 2273 1281 
Q 2116 1406 1581 1522 
L 1381 1569 
Q 847 1681 609 1914 
Q 372 2147 372 2553 
Q 372 3047 722 3315 
Q 1072 3584 1716 3584 
Q 2034 3584 2315 3537 
Q 2597 3491 2834 3397 
z
" transform="scale(0.015625)"/>
     </defs>
     <use xlink:href="#DejaVuSans-43"/>
     <use xlink:href="#DejaVuSans-72" x="69.824219"/>
     <use xlink:href="#DejaVuSans-61" x="110.9375"/>
     <use xlink:href="#DejaVuSans-63" x="172.216797"/>
     <use xlink:href="#DejaVuSans-6b" x="227.197266"/>
     <use xlink:href="#DejaVuSans-65" x="281.482422"/>
     <use xlink:href="#DejaVuSans-64" x="343.005859"/>
     <use xlink:href="#DejaVuSans-20" x="406.482422"/>
     <use xlink:href="#DejaVuSans-47" x="438.269531"/>
     <use xlink:href="#DejaVuSans-65" x="515.759766"/>
     <use xlink:href="#DejaVuSans-6f" x="577.283203"/>
     <use xlink:href="#DejaVuSans-6d" x="638.464844"/>
     <use xlink:href="#DejaVuSans-65" x="735.876953"/>
     <use xlink:href="#DejaVuSans-74" x="797.400391"/>
     <use xlink:href="#DejaVuSans-72" x="836.609375"/>
     <use xlink:href="#DejaVuSans-69" x="877.722656"/>
     <use xlink:href="#DejaVuSans-65" x="905.505859"/>
     <use xlink:href="#DejaVuSans-73" x="967.029297"/>
    </g>
   </g>
  </g>
 </g>
 <defs>
  <clipPath id="p05272cbac9">
   <rect x="33.2875" y="22.318125" width="383.41055" height="292.25"/>
  </clipPath>
 </defs>
</svg>
