<?xml version="1.0" encoding="utf-8" standalone="no"?>
<!DOCTYPE svg PUBLIC "-//W3C//DTD SVG 1.1//EN"
  "http://www.w3.org/Graphics/SVG/1.1/DTD/svg11.dtd">
<svg xmlns:xlink="http://www.w3.org/1999/xlink" width="450.610937pt" height="333.898125pt" viewBox="0 0 450.610937 333.898125" xmlns="http://www.w3.org/2000/svg" version="1.1">
 <metadata>
  <rdf:RDF xmlns:dc="http://purl.org/dc/elements/1.1/" xmlns:cc="http://creativecommons.org/ns#" xmlns:rdf="http://www.w3.org/1999/02/22-rdf-syntax-ns#">
   <cc:Work>
    <dc:type rdf:resource="http://purl.org/dc/dcmitype/StillImage"/>
    <dc:date>2022-10-24T11:58:55.510718</dc:date>
    <dc:format>image/svg+xml</dc:format>
    <dc:creator>
     <cc:Agent>
      <dc:title>Matplotlib v3.6.1, https://matplotlib.org/</dc:title>
     </cc:Agent>
    </dc:creator>
   </cc:Work>
  </rdf:RDF>
 </metadata>
 <defs>
  <style type="text/css">*{stroke-linejoin: round; stroke-linecap: butt}</style>
 </defs>
 <g id="figure_1">
  <g id="patch_1">
   <path d="M 0 333.898125 
L 450.610937 333.898125 
L 450.610937 0 
L 0 0 
z
" style="fill: #ffffff"/>
  </g>
  <g id="axes_1">
   <g id="patch_2">
    <path d="M 56.367188 296.32 
L 443.410937 296.32 
L 443.410937 22.32 
L 56.367188 22.32 
z
" style="fill: #ffffff"/>
   </g>
   <g id="matplotlib.axis_1">
    <g id="xtick_1">
     <g id="line2d_1">
      <path d="M 76.618081 296.32 
L 76.618081 22.32 
" clip-path="url(#pa070707d88)" style="fill: none; stroke: #b0b0b0; stroke-width: 0.8; stroke-linecap: square"/>
     </g>
     <g id="line2d_2">
      <defs>
       <path id="m233c0283f5" d="M 0 0 
L 0 3.5 
" style="stroke: #000000; stroke-width: 0.8"/>
      </defs>
      <g>
       <use xlink:href="#m233c0283f5" x="76.618081" y="296.32" style="stroke: #000000; stroke-width: 0.8"/>
      </g>
     </g>
     <g id="text_1">
      <!-- −400 -->
      <g transform="translate(62.884487 310.918437) scale(0.1 -0.1)">
       <defs>
        <path id="DejaVuSans-2212" d="M 678 2272 
L 4684 2272 
L 4684 1741 
L 678 1741 
L 678 2272 
z
" transform="scale(0.015625)"/>
        <path id="DejaVuSans-34" d="M 2419 4116 
L 825 1625 
L 2419 1625 
L 2419 4116 
z
M 2253 4666 
L 3047 4666 
L 3047 1625 
L 3713 1625 
L 3713 1100 
L 3047 1100 
L 3047 0 
L 2419 0 
L 2419 1100 
L 313 1100 
L 313 1709 
L 2253 4666 
z
" transform="scale(0.015625)"/>
        <path id="DejaVuSans-30" d="M 2034 4250 
Q 1547 4250 1301 3770 
Q 1056 3291 1056 2328 
Q 1056 1369 1301 889 
Q 1547 409 2034 409 
Q 2525 409 2770 889 
Q 3016 1369 3016 2328 
Q 3016 3291 2770 3770 
Q 2525 4250 2034 4250 
z
M 2034 4750 
Q 2819 4750 3233 4129 
Q 3647 3509 3647 2328 
Q 3647 1150 3233 529 
Q 2819 -91 2034 -91 
Q 1250 -91 836 529 
Q 422 1150 422 2328 
Q 422 3509 836 4129 
Q 1250 4750 2034 4750 
z
" transform="scale(0.015625)"/>
       </defs>
       <use xlink:href="#DejaVuSans-2212"/>
       <use xlink:href="#DejaVuSans-34" x="83.789062"/>
       <use xlink:href="#DejaVuSans-30" x="147.412109"/>
       <use xlink:href="#DejaVuSans-30" x="211.035156"/>
      </g>
     </g>
    </g>
    <g id="xtick_2">
     <g id="line2d_3">
      <path d="M 119.935826 296.32 
L 119.935826 22.32 
" clip-path="url(#pa070707d88)" style="fill: none; stroke: #b0b0b0; stroke-width: 0.8; stroke-linecap: square"/>
     </g>
     <g id="line2d_4">
      <g>
       <use xlink:href="#m233c0283f5" x="119.935826" y="296.32" style="stroke: #000000; stroke-width: 0.8"/>
      </g>
     </g>
     <g id="text_2">
      <!-- −300 -->
      <g transform="translate(106.202232 310.918437) scale(0.1 -0.1)">
       <defs>
        <path id="DejaVuSans-33" d="M 2597 2516 
Q 3050 2419 3304 2112 
Q 3559 1806 3559 1356 
Q 3559 666 3084 287 
Q 2609 -91 1734 -91 
Q 1441 -91 1130 -33 
Q 819 25 488 141 
L 488 750 
Q 750 597 1062 519 
Q 1375 441 1716 441 
Q 2309 441 2620 675 
Q 2931 909 2931 1356 
Q 2931 1769 2642 2001 
Q 2353 2234 1838 2234 
L 1294 2234 
L 1294 2753 
L 1863 2753 
Q 2328 2753 2575 2939 
Q 2822 3125 2822 3475 
Q 2822 3834 2567 4026 
Q 2313 4219 1838 4219 
Q 1578 4219 1281 4162 
Q 984 4106 628 3988 
L 628 4550 
Q 988 4650 1302 4700 
Q 1616 4750 1894 4750 
Q 2613 4750 3031 4423 
Q 3450 4097 3450 3541 
Q 3450 3153 3228 2886 
Q 3006 2619 2597 2516 
z
" transform="scale(0.015625)"/>
       </defs>
       <use xlink:href="#DejaVuSans-2212"/>
       <use xlink:href="#DejaVuSans-33" x="83.789062"/>
       <use xlink:href="#DejaVuSans-30" x="147.412109"/>
       <use xlink:href="#DejaVuSans-30" x="211.035156"/>
      </g>
     </g>
    </g>
    <g id="xtick_3">
     <g id="line2d_5">
      <path d="M 163.253572 296.32 
L 163.253572 22.32 
" clip-path="url(#pa070707d88)" style="fill: none; stroke: #b0b0b0; stroke-width: 0.8; stroke-linecap: square"/>
     </g>
     <g id="line2d_6">
      <g>
       <use xlink:href="#m233c0283f5" x="163.253572" y="296.32" style="stroke: #000000; stroke-width: 0.8"/>
      </g>
     </g>
     <g id="text_3">
      <!-- −200 -->
      <g transform="translate(149.519978 310.918437) scale(0.1 -0.1)">
       <defs>
        <path id="DejaVuSans-32" d="M 1228 531 
L 3431 531 
L 3431 0 
L 469 0 
L 469 531 
Q 828 903 1448 1529 
Q 2069 2156 2228 2338 
Q 2531 2678 2651 2914 
Q 2772 3150 2772 3378 
Q 2772 3750 2511 3984 
Q 2250 4219 1831 4219 
Q 1534 4219 1204 4116 
Q 875 4013 500 3803 
L 500 4441 
Q 881 4594 1212 4672 
Q 1544 4750 1819 4750 
Q 2544 4750 2975 4387 
Q 3406 4025 3406 3419 
Q 3406 3131 3298 2873 
Q 3191 2616 2906 2266 
Q 2828 2175 2409 1742 
Q 1991 1309 1228 531 
z
" transform="scale(0.015625)"/>
       </defs>
       <use xlink:href="#DejaVuSans-2212"/>
       <use xlink:href="#DejaVuSans-32" x="83.789062"/>
       <use xlink:href="#DejaVuSans-30" x="147.412109"/>
       <use xlink:href="#DejaVuSans-30" x="211.035156"/>
      </g>
     </g>
    </g>
    <g id="xtick_4">
     <g id="line2d_7">
      <path d="M 206.571317 296.32 
L 206.571317 22.32 
" clip-path="url(#pa070707d88)" style="fill: none; stroke: #b0b0b0; stroke-width: 0.8; stroke-linecap: square"/>
     </g>
     <g id="line2d_8">
      <g>
       <use xlink:href="#m233c0283f5" x="206.571317" y="296.32" style="stroke: #000000; stroke-width: 0.8"/>
      </g>
     </g>
     <g id="text_4">
      <!-- −100 -->
      <g transform="translate(192.837723 310.918437) scale(0.1 -0.1)">
       <defs>
        <path id="DejaVuSans-31" d="M 794 531 
L 1825 531 
L 1825 4091 
L 703 3866 
L 703 4441 
L 1819 4666 
L 2450 4666 
L 2450 531 
L 3481 531 
L 3481 0 
L 794 0 
L 794 531 
z
" transform="scale(0.015625)"/>
       </defs>
       <use xlink:href="#DejaVuSans-2212"/>
       <use xlink:href="#DejaVuSans-31" x="83.789062"/>
       <use xlink:href="#DejaVuSans-30" x="147.412109"/>
       <use xlink:href="#DejaVuSans-30" x="211.035156"/>
      </g>
     </g>
    </g>
    <g id="xtick_5">
     <g id="line2d_9">
      <path d="M 249.889062 296.32 
L 249.889062 22.32 
" clip-path="url(#pa070707d88)" style="fill: none; stroke: #b0b0b0; stroke-width: 0.8; stroke-linecap: square"/>
     </g>
     <g id="line2d_10">
      <g>
       <use xlink:href="#m233c0283f5" x="249.889062" y="296.32" style="stroke: #000000; stroke-width: 0.8"/>
      </g>
     </g>
     <g id="text_5">
      <!-- 0 -->
      <g transform="translate(246.707812 310.918437) scale(0.1 -0.1)">
       <use xlink:href="#DejaVuSans-30"/>
      </g>
     </g>
    </g>
    <g id="xtick_6">
     <g id="line2d_11">
      <path d="M 293.206808 296.32 
L 293.206808 22.32 
" clip-path="url(#pa070707d88)" style="fill: none; stroke: #b0b0b0; stroke-width: 0.8; stroke-linecap: square"/>
     </g>
     <g id="line2d_12">
      <g>
       <use xlink:href="#m233c0283f5" x="293.206808" y="296.32" style="stroke: #000000; stroke-width: 0.8"/>
      </g>
     </g>
     <g id="text_6">
      <!-- 100 -->
      <g transform="translate(283.663058 310.918437) scale(0.1 -0.1)">
       <use xlink:href="#DejaVuSans-31"/>
       <use xlink:href="#DejaVuSans-30" x="63.623047"/>
       <use xlink:href="#DejaVuSans-30" x="127.246094"/>
      </g>
     </g>
    </g>
    <g id="xtick_7">
     <g id="line2d_13">
      <path d="M 336.524553 296.32 
L 336.524553 22.32 
" clip-path="url(#pa070707d88)" style="fill: none; stroke: #b0b0b0; stroke-width: 0.8; stroke-linecap: square"/>
     </g>
     <g id="line2d_14">
      <g>
       <use xlink:href="#m233c0283f5" x="336.524553" y="296.32" style="stroke: #000000; stroke-width: 0.8"/>
      </g>
     </g>
     <g id="text_7">
      <!-- 200 -->
      <g transform="translate(326.980803 310.918437) scale(0.1 -0.1)">
       <use xlink:href="#DejaVuSans-32"/>
       <use xlink:href="#DejaVuSans-30" x="63.623047"/>
       <use xlink:href="#DejaVuSans-30" x="127.246094"/>
      </g>
     </g>
    </g>
    <g id="xtick_8">
     <g id="line2d_15">
      <path d="M 379.842299 296.32 
L 379.842299 22.32 
" clip-path="url(#pa070707d88)" style="fill: none; stroke: #b0b0b0; stroke-width: 0.8; stroke-linecap: square"/>
     </g>
     <g id="line2d_16">
      <g>
       <use xlink:href="#m233c0283f5" x="379.842299" y="296.32" style="stroke: #000000; stroke-width: 0.8"/>
      </g>
     </g>
     <g id="text_8">
      <!-- 300 -->
      <g transform="translate(370.298549 310.918437) scale(0.1 -0.1)">
       <use xlink:href="#DejaVuSans-33"/>
       <use xlink:href="#DejaVuSans-30" x="63.623047"/>
       <use xlink:href="#DejaVuSans-30" x="127.246094"/>
      </g>
     </g>
    </g>
    <g id="xtick_9">
     <g id="line2d_17">
      <path d="M 423.160044 296.32 
L 423.160044 22.32 
" clip-path="url(#pa070707d88)" style="fill: none; stroke: #b0b0b0; stroke-width: 0.8; stroke-linecap: square"/>
     </g>
     <g id="line2d_18">
      <g>
       <use xlink:href="#m233c0283f5" x="423.160044" y="296.32" style="stroke: #000000; stroke-width: 0.8"/>
      </g>
     </g>
     <g id="text_9">
      <!-- 400 -->
      <g transform="translate(413.616294 310.918437) scale(0.1 -0.1)">
       <use xlink:href="#DejaVuSans-34"/>
       <use xlink:href="#DejaVuSans-30" x="63.623047"/>
       <use xlink:href="#DejaVuSans-30" x="127.246094"/>
      </g>
     </g>
    </g>
    <g id="text_10">
     <!-- Bending Moment $M_x$ -->
     <g transform="translate(199.139062 324.598125) scale(0.1 -0.1)">
      <defs>
       <path id="DejaVuSans-42" d="M 1259 2228 
L 1259 519 
L 2272 519 
Q 2781 519 3026 730 
Q 3272 941 3272 1375 
Q 3272 1813 3026 2020 
Q 2781 2228 2272 2228 
L 1259 2228 
z
M 1259 4147 
L 1259 2741 
L 2194 2741 
Q 2656 2741 2882 2914 
Q 3109 3088 3109 3444 
Q 3109 3797 2882 3972 
Q 2656 4147 2194 4147 
L 1259 4147 
z
M 628 4666 
L 2241 4666 
Q 2963 4666 3353 4366 
Q 3744 4066 3744 3513 
Q 3744 3084 3544 2831 
Q 3344 2578 2956 2516 
Q 3422 2416 3680 2098 
Q 3938 1781 3938 1306 
Q 3938 681 3513 340 
Q 3088 0 2303 0 
L 628 0 
L 628 4666 
z
" transform="scale(0.015625)"/>
       <path id="DejaVuSans-65" d="M 3597 1894 
L 3597 1613 
L 953 1613 
Q 991 1019 1311 708 
Q 1631 397 2203 397 
Q 2534 397 2845 478 
Q 3156 559 3463 722 
L 3463 178 
Q 3153 47 2828 -22 
Q 2503 -91 2169 -91 
Q 1331 -91 842 396 
Q 353 884 353 1716 
Q 353 2575 817 3079 
Q 1281 3584 2069 3584 
Q 2775 3584 3186 3129 
Q 3597 2675 3597 1894 
z
M 3022 2063 
Q 3016 2534 2758 2815 
Q 2500 3097 2075 3097 
Q 1594 3097 1305 2825 
Q 1016 2553 972 2059 
L 3022 2063 
z
" transform="scale(0.015625)"/>
       <path id="DejaVuSans-6e" d="M 3513 2113 
L 3513 0 
L 2938 0 
L 2938 2094 
Q 2938 2591 2744 2837 
Q 2550 3084 2163 3084 
Q 1697 3084 1428 2787 
Q 1159 2491 1159 1978 
L 1159 0 
L 581 0 
L 581 3500 
L 1159 3500 
L 1159 2956 
Q 1366 3272 1645 3428 
Q 1925 3584 2291 3584 
Q 2894 3584 3203 3211 
Q 3513 2838 3513 2113 
z
" transform="scale(0.015625)"/>
       <path id="DejaVuSans-64" d="M 2906 2969 
L 2906 4863 
L 3481 4863 
L 3481 0 
L 2906 0 
L 2906 525 
Q 2725 213 2448 61 
Q 2172 -91 1784 -91 
Q 1150 -91 751 415 
Q 353 922 353 1747 
Q 353 2572 751 3078 
Q 1150 3584 1784 3584 
Q 2172 3584 2448 3432 
Q 2725 3281 2906 2969 
z
M 947 1747 
Q 947 1113 1208 752 
Q 1469 391 1925 391 
Q 2381 391 2643 752 
Q 2906 1113 2906 1747 
Q 2906 2381 2643 2742 
Q 2381 3103 1925 3103 
Q 1469 3103 1208 2742 
Q 947 2381 947 1747 
z
" transform="scale(0.015625)"/>
       <path id="DejaVuSans-69" d="M 603 3500 
L 1178 3500 
L 1178 0 
L 603 0 
L 603 3500 
z
M 603 4863 
L 1178 4863 
L 1178 4134 
L 603 4134 
L 603 4863 
z
" transform="scale(0.015625)"/>
       <path id="DejaVuSans-67" d="M 2906 1791 
Q 2906 2416 2648 2759 
Q 2391 3103 1925 3103 
Q 1463 3103 1205 2759 
Q 947 2416 947 1791 
Q 947 1169 1205 825 
Q 1463 481 1925 481 
Q 2391 481 2648 825 
Q 2906 1169 2906 1791 
z
M 3481 434 
Q 3481 -459 3084 -895 
Q 2688 -1331 1869 -1331 
Q 1566 -1331 1297 -1286 
Q 1028 -1241 775 -1147 
L 775 -588 
Q 1028 -725 1275 -790 
Q 1522 -856 1778 -856 
Q 2344 -856 2625 -561 
Q 2906 -266 2906 331 
L 2906 616 
Q 2728 306 2450 153 
Q 2172 0 1784 0 
Q 1141 0 747 490 
Q 353 981 353 1791 
Q 353 2603 747 3093 
Q 1141 3584 1784 3584 
Q 2172 3584 2450 3431 
Q 2728 3278 2906 2969 
L 2906 3500 
L 3481 3500 
L 3481 434 
z
" transform="scale(0.015625)"/>
       <path id="DejaVuSans-20" transform="scale(0.015625)"/>
       <path id="DejaVuSans-4d" d="M 628 4666 
L 1569 4666 
L 2759 1491 
L 3956 4666 
L 4897 4666 
L 4897 0 
L 4281 0 
L 4281 4097 
L 3078 897 
L 2444 897 
L 1241 4097 
L 1241 0 
L 628 0 
L 628 4666 
z
" transform="scale(0.015625)"/>
       <path id="DejaVuSans-6f" d="M 1959 3097 
Q 1497 3097 1228 2736 
Q 959 2375 959 1747 
Q 959 1119 1226 758 
Q 1494 397 1959 397 
Q 2419 397 2687 759 
Q 2956 1122 2956 1747 
Q 2956 2369 2687 2733 
Q 2419 3097 1959 3097 
z
M 1959 3584 
Q 2709 3584 3137 3096 
Q 3566 2609 3566 1747 
Q 3566 888 3137 398 
Q 2709 -91 1959 -91 
Q 1206 -91 779 398 
Q 353 888 353 1747 
Q 353 2609 779 3096 
Q 1206 3584 1959 3584 
z
" transform="scale(0.015625)"/>
       <path id="DejaVuSans-6d" d="M 3328 2828 
Q 3544 3216 3844 3400 
Q 4144 3584 4550 3584 
Q 5097 3584 5394 3201 
Q 5691 2819 5691 2113 
L 5691 0 
L 5113 0 
L 5113 2094 
Q 5113 2597 4934 2840 
Q 4756 3084 4391 3084 
Q 3944 3084 3684 2787 
Q 3425 2491 3425 1978 
L 3425 0 
L 2847 0 
L 2847 2094 
Q 2847 2600 2669 2842 
Q 2491 3084 2119 3084 
Q 1678 3084 1418 2786 
Q 1159 2488 1159 1978 
L 1159 0 
L 581 0 
L 581 3500 
L 1159 3500 
L 1159 2956 
Q 1356 3278 1631 3431 
Q 1906 3584 2284 3584 
Q 2666 3584 2933 3390 
Q 3200 3197 3328 2828 
z
" transform="scale(0.015625)"/>
       <path id="DejaVuSans-74" d="M 1172 4494 
L 1172 3500 
L 2356 3500 
L 2356 3053 
L 1172 3053 
L 1172 1153 
Q 1172 725 1289 603 
Q 1406 481 1766 481 
L 2356 481 
L 2356 0 
L 1766 0 
Q 1100 0 847 248 
Q 594 497 594 1153 
L 594 3053 
L 172 3053 
L 172 3500 
L 594 3500 
L 594 4494 
L 1172 4494 
z
" transform="scale(0.015625)"/>
       <path id="DejaVuSans-Oblique-4d" d="M 1081 4666 
L 2028 4666 
L 2572 1522 
L 4378 4666 
L 5350 4666 
L 4441 0 
L 3828 0 
L 4622 4091 
L 2791 897 
L 2175 897 
L 1581 4103 
L 788 0 
L 172 0 
L 1081 4666 
z
" transform="scale(0.015625)"/>
       <path id="DejaVuSans-Oblique-78" d="M 3841 3500 
L 2234 1784 
L 3219 0 
L 2559 0 
L 1819 1388 
L 531 0 
L -166 0 
L 1556 1844 
L 641 3500 
L 1300 3500 
L 1972 2234 
L 3144 3500 
L 3841 3500 
z
" transform="scale(0.015625)"/>
      </defs>
      <use xlink:href="#DejaVuSans-42" transform="translate(0 0.015625)"/>
      <use xlink:href="#DejaVuSans-65" transform="translate(68.603516 0.015625)"/>
      <use xlink:href="#DejaVuSans-6e" transform="translate(130.126953 0.015625)"/>
      <use xlink:href="#DejaVuSans-64" transform="translate(193.505859 0.015625)"/>
      <use xlink:href="#DejaVuSans-69" transform="translate(256.982422 0.015625)"/>
      <use xlink:href="#DejaVuSans-6e" transform="translate(284.765625 0.015625)"/>
      <use xlink:href="#DejaVuSans-67" transform="translate(348.144531 0.015625)"/>
      <use xlink:href="#DejaVuSans-20" transform="translate(411.621094 0.015625)"/>
      <use xlink:href="#DejaVuSans-4d" transform="translate(443.408203 0.015625)"/>
      <use xlink:href="#DejaVuSans-6f" transform="translate(529.6875 0.015625)"/>
      <use xlink:href="#DejaVuSans-6d" transform="translate(590.869141 0.015625)"/>
      <use xlink:href="#DejaVuSans-65" transform="translate(688.28125 0.015625)"/>
      <use xlink:href="#DejaVuSans-6e" transform="translate(749.804688 0.015625)"/>
      <use xlink:href="#DejaVuSans-74" transform="translate(813.183594 0.015625)"/>
      <use xlink:href="#DejaVuSans-20" transform="translate(852.392578 0.015625)"/>
      <use xlink:href="#DejaVuSans-Oblique-4d" transform="translate(884.179688 0.015625)"/>
      <use xlink:href="#DejaVuSans-Oblique-78" transform="translate(970.458984 -16.390625) scale(0.7)"/>
     </g>
    </g>
   </g>
   <g id="matplotlib.axis_2">
    <g id="ytick_1">
     <g id="line2d_19">
      <path d="M 56.367188 266.820352 
L 443.410937 266.820352 
" clip-path="url(#pa070707d88)" style="fill: none; stroke: #b0b0b0; stroke-width: 0.8; stroke-linecap: square"/>
     </g>
     <g id="line2d_20">
      <defs>
       <path id="m7bdb9f77fd" d="M 0 0 
L -3.5 0 
" style="stroke: #000000; stroke-width: 0.8"/>
      </defs>
      <g>
       <use xlink:href="#m7bdb9f77fd" x="56.367188" y="266.820352" style="stroke: #000000; stroke-width: 0.8"/>
      </g>
     </g>
     <g id="text_11">
      <!-- −600 -->
      <g transform="translate(21.9 270.619571) scale(0.1 -0.1)">
       <defs>
        <path id="DejaVuSans-36" d="M 2113 2584 
Q 1688 2584 1439 2293 
Q 1191 2003 1191 1497 
Q 1191 994 1439 701 
Q 1688 409 2113 409 
Q 2538 409 2786 701 
Q 3034 994 3034 1497 
Q 3034 2003 2786 2293 
Q 2538 2584 2113 2584 
z
M 3366 4563 
L 3366 3988 
Q 3128 4100 2886 4159 
Q 2644 4219 2406 4219 
Q 1781 4219 1451 3797 
Q 1122 3375 1075 2522 
Q 1259 2794 1537 2939 
Q 1816 3084 2150 3084 
Q 2853 3084 3261 2657 
Q 3669 2231 3669 1497 
Q 3669 778 3244 343 
Q 2819 -91 2113 -91 
Q 1303 -91 875 529 
Q 447 1150 447 2328 
Q 447 3434 972 4092 
Q 1497 4750 2381 4750 
Q 2619 4750 2861 4703 
Q 3103 4656 3366 4563 
z
" transform="scale(0.015625)"/>
       </defs>
       <use xlink:href="#DejaVuSans-2212"/>
       <use xlink:href="#DejaVuSans-36" x="83.789062"/>
       <use xlink:href="#DejaVuSans-30" x="147.412109"/>
       <use xlink:href="#DejaVuSans-30" x="211.035156"/>
      </g>
     </g>
    </g>
    <g id="ytick_2">
     <g id="line2d_21">
      <path d="M 56.367188 230.986901 
L 443.410937 230.986901 
" clip-path="url(#pa070707d88)" style="fill: none; stroke: #b0b0b0; stroke-width: 0.8; stroke-linecap: square"/>
     </g>
     <g id="line2d_22">
      <g>
       <use xlink:href="#m7bdb9f77fd" x="56.367188" y="230.986901" style="stroke: #000000; stroke-width: 0.8"/>
      </g>
     </g>
     <g id="text_12">
      <!-- −400 -->
      <g transform="translate(21.9 234.78612) scale(0.1 -0.1)">
       <use xlink:href="#DejaVuSans-2212"/>
       <use xlink:href="#DejaVuSans-34" x="83.789062"/>
       <use xlink:href="#DejaVuSans-30" x="147.412109"/>
       <use xlink:href="#DejaVuSans-30" x="211.035156"/>
      </g>
     </g>
    </g>
    <g id="ytick_3">
     <g id="line2d_23">
      <path d="M 56.367188 195.153451 
L 443.410937 195.153451 
" clip-path="url(#pa070707d88)" style="fill: none; stroke: #b0b0b0; stroke-width: 0.8; stroke-linecap: square"/>
     </g>
     <g id="line2d_24">
      <g>
       <use xlink:href="#m7bdb9f77fd" x="56.367188" y="195.153451" style="stroke: #000000; stroke-width: 0.8"/>
      </g>
     </g>
     <g id="text_13">
      <!-- −200 -->
      <g transform="translate(21.9 198.952669) scale(0.1 -0.1)">
       <use xlink:href="#DejaVuSans-2212"/>
       <use xlink:href="#DejaVuSans-32" x="83.789062"/>
       <use xlink:href="#DejaVuSans-30" x="147.412109"/>
       <use xlink:href="#DejaVuSans-30" x="211.035156"/>
      </g>
     </g>
    </g>
    <g id="ytick_4">
     <g id="line2d_25">
      <path d="M 56.367188 159.32 
L 443.410937 159.32 
" clip-path="url(#pa070707d88)" style="fill: none; stroke: #b0b0b0; stroke-width: 0.8; stroke-linecap: square"/>
     </g>
     <g id="line2d_26">
      <g>
       <use xlink:href="#m7bdb9f77fd" x="56.367188" y="159.32" style="stroke: #000000; stroke-width: 0.8"/>
      </g>
     </g>
     <g id="text_14">
      <!-- 0 -->
      <g transform="translate(43.004688 163.119219) scale(0.1 -0.1)">
       <use xlink:href="#DejaVuSans-30"/>
      </g>
     </g>
    </g>
    <g id="ytick_5">
     <g id="line2d_27">
      <path d="M 56.367188 123.486549 
L 443.410937 123.486549 
" clip-path="url(#pa070707d88)" style="fill: none; stroke: #b0b0b0; stroke-width: 0.8; stroke-linecap: square"/>
     </g>
     <g id="line2d_28">
      <g>
       <use xlink:href="#m7bdb9f77fd" x="56.367188" y="123.486549" style="stroke: #000000; stroke-width: 0.8"/>
      </g>
     </g>
     <g id="text_15">
      <!-- 200 -->
      <g transform="translate(30.279688 127.285768) scale(0.1 -0.1)">
       <use xlink:href="#DejaVuSans-32"/>
       <use xlink:href="#DejaVuSans-30" x="63.623047"/>
       <use xlink:href="#DejaVuSans-30" x="127.246094"/>
      </g>
     </g>
    </g>
    <g id="ytick_6">
     <g id="line2d_29">
      <path d="M 56.367188 87.653099 
L 443.410937 87.653099 
" clip-path="url(#pa070707d88)" style="fill: none; stroke: #b0b0b0; stroke-width: 0.8; stroke-linecap: square"/>
     </g>
     <g id="line2d_30">
      <g>
       <use xlink:href="#m7bdb9f77fd" x="56.367188" y="87.653099" style="stroke: #000000; stroke-width: 0.8"/>
      </g>
     </g>
     <g id="text_16">
      <!-- 400 -->
      <g transform="translate(30.279688 91.452317) scale(0.1 -0.1)">
       <use xlink:href="#DejaVuSans-34"/>
       <use xlink:href="#DejaVuSans-30" x="63.623047"/>
       <use xlink:href="#DejaVuSans-30" x="127.246094"/>
      </g>
     </g>
    </g>
    <g id="ytick_7">
     <g id="line2d_31">
      <path d="M 56.367188 51.819648 
L 443.410937 51.819648 
" clip-path="url(#pa070707d88)" style="fill: none; stroke: #b0b0b0; stroke-width: 0.8; stroke-linecap: square"/>
     </g>
     <g id="line2d_32">
      <g>
       <use xlink:href="#m7bdb9f77fd" x="56.367188" y="51.819648" style="stroke: #000000; stroke-width: 0.8"/>
      </g>
     </g>
     <g id="text_17">
      <!-- 600 -->
      <g transform="translate(30.279688 55.618867) scale(0.1 -0.1)">
       <use xlink:href="#DejaVuSans-36"/>
       <use xlink:href="#DejaVuSans-30" x="63.623047"/>
       <use xlink:href="#DejaVuSans-30" x="127.246094"/>
      </g>
     </g>
    </g>
    <g id="text_18">
     <!-- Bending Moment $M_y$ -->
     <g transform="translate(14.8 210.07) rotate(-90) scale(0.1 -0.1)">
      <defs>
       <path id="DejaVuSans-Oblique-79" d="M 1588 -325 
Q 1188 -997 936 -1164 
Q 684 -1331 294 -1331 
L -159 -1331 
L -63 -850 
L 269 -850 
Q 509 -850 678 -719 
Q 847 -588 1056 -206 
L 1234 128 
L 459 3500 
L 1069 3500 
L 1650 819 
L 3256 3500 
L 3859 3500 
L 1588 -325 
z
" transform="scale(0.015625)"/>
      </defs>
      <use xlink:href="#DejaVuSans-42" transform="translate(0 0.015625)"/>
      <use xlink:href="#DejaVuSans-65" transform="translate(68.603516 0.015625)"/>
      <use xlink:href="#DejaVuSans-6e" transform="translate(130.126953 0.015625)"/>
      <use xlink:href="#DejaVuSans-64" transform="translate(193.505859 0.015625)"/>
      <use xlink:href="#DejaVuSans-69" transform="translate(256.982422 0.015625)"/>
      <use xlink:href="#DejaVuSans-6e" transform="translate(284.765625 0.015625)"/>
      <use xlink:href="#DejaVuSans-67" transform="translate(348.144531 0.015625)"/>
      <use xlink:href="#DejaVuSans-20" transform="translate(411.621094 0.015625)"/>
      <use xlink:href="#DejaVuSans-4d" transform="translate(443.408203 0.015625)"/>
      <use xlink:href="#DejaVuSans-6f" transform="translate(529.6875 0.015625)"/>
      <use xlink:href="#DejaVuSans-6d" transform="translate(590.869141 0.015625)"/>
      <use xlink:href="#DejaVuSans-65" transform="translate(688.28125 0.015625)"/>
      <use xlink:href="#DejaVuSans-6e" transform="translate(749.804688 0.015625)"/>
      <use xlink:href="#DejaVuSans-74" transform="translate(813.183594 0.015625)"/>
      <use xlink:href="#DejaVuSans-20" transform="translate(852.392578 0.015625)"/>
      <use xlink:href="#DejaVuSans-Oblique-4d" transform="translate(884.179688 0.015625)"/>
      <use xlink:href="#DejaVuSans-Oblique-79" transform="translate(970.458984 -16.390625) scale(0.7)"/>
     </g>
    </g>
   </g>
   <g id="line2d_33">
    <path d="M 73.960085 159.32 
L 81.601834 133.591176 
L 93.033094 111.833946 
L 112.673389 94.530439 
L 130.360188 82.384727 
L 146.772342 72.108219 
L 162.623535 62.374022 
L 177.980833 55.233105 
L 194.692005 48.173295 
L 208.78624 43.931065 
L 223.285163 39.879506 
L 235.981615 37.156937 
L 249.889062 34.774545 
L 263.79651 37.156937 
L 276.492962 39.879506 
L 290.991885 43.931065 
L 305.086119 48.173295 
L 321.797292 55.233105 
L 337.15459 62.374022 
L 353.005783 72.108219 
L 369.417937 82.384727 
L 387.104736 94.530439 
L 406.745031 111.833946 
L 418.176291 133.591176 
L 425.81804 159.32 
L 418.176291 185.048824 
L 406.745031 206.806054 
L 387.104736 224.109561 
L 369.417937 236.255273 
L 353.005783 246.531781 
L 337.15459 256.265978 
L 321.797292 263.406895 
L 305.086119 270.466705 
L 290.991885 274.708935 
L 276.492962 278.760494 
L 263.79651 281.483063 
L 249.889062 283.865455 
L 235.981615 281.483063 
L 223.285163 278.760494 
L 208.78624 274.708935 
L 194.692005 270.466705 
L 177.980833 263.406895 
L 162.623535 256.265978 
L 146.772342 246.531781 
L 130.360188 236.255273 
L 112.673389 224.109561 
L 93.033094 206.806054 
L 81.601834 185.048824 
L 73.960085 159.32 
" clip-path="url(#pa070707d88)" style="fill: none; stroke: #1f77b4; stroke-width: 1.5; stroke-linecap: square"/>
    <defs>
     <path id="ma97dec6d00" d="M 0 3 
C 0.795609 3 1.55874 2.683901 2.12132 2.12132 
C 2.683901 1.55874 3 0.795609 3 0 
C 3 -0.795609 2.683901 -1.55874 2.12132 -2.12132 
C 1.55874 -2.683901 0.795609 -3 0 -3 
C -0.795609 -3 -1.55874 -2.683901 -2.12132 -2.12132 
C -2.683901 -1.55874 -3 -0.795609 -3 0 
C -3 0.795609 -2.683901 1.55874 -2.12132 2.12132 
C -1.55874 2.683901 -0.795609 3 0 3 
z
" style="stroke: #1f77b4"/>
    </defs>
    <g clip-path="url(#pa070707d88)">
     <use xlink:href="#ma97dec6d00" x="73.960085" y="159.32" style="fill: #1f77b4; stroke: #1f77b4"/>
     <use xlink:href="#ma97dec6d00" x="81.601834" y="133.591176" style="fill: #1f77b4; stroke: #1f77b4"/>
     <use xlink:href="#ma97dec6d00" x="93.033094" y="111.833946" style="fill: #1f77b4; stroke: #1f77b4"/>
     <use xlink:href="#ma97dec6d00" x="112.673389" y="94.530439" style="fill: #1f77b4; stroke: #1f77b4"/>
     <use xlink:href="#ma97dec6d00" x="130.360188" y="82.384727" style="fill: #1f77b4; stroke: #1f77b4"/>
     <use xlink:href="#ma97dec6d00" x="146.772342" y="72.108219" style="fill: #1f77b4; stroke: #1f77b4"/>
     <use xlink:href="#ma97dec6d00" x="162.623535" y="62.374022" style="fill: #1f77b4; stroke: #1f77b4"/>
     <use xlink:href="#ma97dec6d00" x="177.980833" y="55.233105" style="fill: #1f77b4; stroke: #1f77b4"/>
     <use xlink:href="#ma97dec6d00" x="194.692005" y="48.173295" style="fill: #1f77b4; stroke: #1f77b4"/>
     <use xlink:href="#ma97dec6d00" x="208.78624" y="43.931065" style="fill: #1f77b4; stroke: #1f77b4"/>
     <use xlink:href="#ma97dec6d00" x="223.285163" y="39.879506" style="fill: #1f77b4; stroke: #1f77b4"/>
     <use xlink:href="#ma97dec6d00" x="235.981615" y="37.156937" style="fill: #1f77b4; stroke: #1f77b4"/>
     <use xlink:href="#ma97dec6d00" x="249.889062" y="34.774545" style="fill: #1f77b4; stroke: #1f77b4"/>
     <use xlink:href="#ma97dec6d00" x="263.79651" y="37.156937" style="fill: #1f77b4; stroke: #1f77b4"/>
     <use xlink:href="#ma97dec6d00" x="276.492962" y="39.879506" style="fill: #1f77b4; stroke: #1f77b4"/>
     <use xlink:href="#ma97dec6d00" x="290.991885" y="43.931065" style="fill: #1f77b4; stroke: #1f77b4"/>
     <use xlink:href="#ma97dec6d00" x="305.086119" y="48.173295" style="fill: #1f77b4; stroke: #1f77b4"/>
     <use xlink:href="#ma97dec6d00" x="321.797292" y="55.233105" style="fill: #1f77b4; stroke: #1f77b4"/>
     <use xlink:href="#ma97dec6d00" x="337.15459" y="62.374022" style="fill: #1f77b4; stroke: #1f77b4"/>
     <use xlink:href="#ma97dec6d00" x="353.005783" y="72.108219" style="fill: #1f77b4; stroke: #1f77b4"/>
     <use xlink:href="#ma97dec6d00" x="369.417937" y="82.384727" style="fill: #1f77b4; stroke: #1f77b4"/>
     <use xlink:href="#ma97dec6d00" x="387.104736" y="94.530439" style="fill: #1f77b4; stroke: #1f77b4"/>
     <use xlink:href="#ma97dec6d00" x="406.745031" y="111.833946" style="fill: #1f77b4; stroke: #1f77b4"/>
     <use xlink:href="#ma97dec6d00" x="418.176291" y="133.591176" style="fill: #1f77b4; stroke: #1f77b4"/>
     <use xlink:href="#ma97dec6d00" x="425.81804" y="159.32" style="fill: #1f77b4; stroke: #1f77b4"/>
     <use xlink:href="#ma97dec6d00" x="418.176291" y="185.048824" style="fill: #1f77b4; stroke: #1f77b4"/>
     <use xlink:href="#ma97dec6d00" x="406.745031" y="206.806054" style="fill: #1f77b4; stroke: #1f77b4"/>
     <use xlink:href="#ma97dec6d00" x="387.104736" y="224.109561" style="fill: #1f77b4; stroke: #1f77b4"/>
     <use xlink:href="#ma97dec6d00" x="369.417937" y="236.255273" style="fill: #1f77b4; stroke: #1f77b4"/>
     <use xlink:href="#ma97dec6d00" x="353.005783" y="246.531781" style="fill: #1f77b4; stroke: #1f77b4"/>
     <use xlink:href="#ma97dec6d00" x="337.15459" y="256.265978" style="fill: #1f77b4; stroke: #1f77b4"/>
     <use xlink:href="#ma97dec6d00" x="321.797292" y="263.406895" style="fill: #1f77b4; stroke: #1f77b4"/>
     <use xlink:href="#ma97dec6d00" x="305.086119" y="270.466705" style="fill: #1f77b4; stroke: #1f77b4"/>
     <use xlink:href="#ma97dec6d00" x="290.991885" y="274.708935" style="fill: #1f77b4; stroke: #1f77b4"/>
     <use xlink:href="#ma97dec6d00" x="276.492962" y="278.760494" style="fill: #1f77b4; stroke: #1f77b4"/>
     <use xlink:href="#ma97dec6d00" x="263.79651" y="281.483063" style="fill: #1f77b4; stroke: #1f77b4"/>
     <use xlink:href="#ma97dec6d00" x="249.889062" y="283.865455" style="fill: #1f77b4; stroke: #1f77b4"/>
     <use xlink:href="#ma97dec6d00" x="235.981615" y="281.483063" style="fill: #1f77b4; stroke: #1f77b4"/>
     <use xlink:href="#ma97dec6d00" x="223.285163" y="278.760494" style="fill: #1f77b4; stroke: #1f77b4"/>
     <use xlink:href="#ma97dec6d00" x="208.78624" y="274.708935" style="fill: #1f77b4; stroke: #1f77b4"/>
     <use xlink:href="#ma97dec6d00" x="194.692005" y="270.466705" style="fill: #1f77b4; stroke: #1f77b4"/>
     <use xlink:href="#ma97dec6d00" x="177.980833" y="263.406895" style="fill: #1f77b4; stroke: #1f77b4"/>
     <use xlink:href="#ma97dec6d00" x="162.623535" y="256.265978" style="fill: #1f77b4; stroke: #1f77b4"/>
     <use xlink:href="#ma97dec6d00" x="146.772342" y="246.531781" style="fill: #1f77b4; stroke: #1f77b4"/>
     <use xlink:href="#ma97dec6d00" x="130.360188" y="236.255273" style="fill: #1f77b4; stroke: #1f77b4"/>
     <use xlink:href="#ma97dec6d00" x="112.673389" y="224.109561" style="fill: #1f77b4; stroke: #1f77b4"/>
     <use xlink:href="#ma97dec6d00" x="93.033094" y="206.806054" style="fill: #1f77b4; stroke: #1f77b4"/>
     <use xlink:href="#ma97dec6d00" x="81.601834" y="185.048824" style="fill: #1f77b4; stroke: #1f77b4"/>
     <use xlink:href="#ma97dec6d00" x="73.960085" y="159.32" style="fill: #1f77b4; stroke: #1f77b4"/>
    </g>
   </g>
   <g id="patch_3">
    <path d="M 56.367188 296.32 
L 56.367188 22.32 
" style="fill: none; stroke: #000000; stroke-width: 0.8; stroke-linejoin: miter; stroke-linecap: square"/>
   </g>
   <g id="patch_4">
    <path d="M 443.410937 296.32 
L 443.410937 22.32 
" style="fill: none; stroke: #000000; stroke-width: 0.8; stroke-linejoin: miter; stroke-linecap: square"/>
   </g>
   <g id="patch_5">
    <path d="M 56.367188 296.32 
L 443.410937 296.32 
" style="fill: none; stroke: #000000; stroke-width: 0.8; stroke-linejoin: miter; stroke-linecap: square"/>
   </g>
   <g id="patch_6">
    <path d="M 56.367188 22.32 
L 443.410937 22.32 
" style="fill: none; stroke: #000000; stroke-width: 0.8; stroke-linejoin: miter; stroke-linecap: square"/>
   </g>
   <g id="text_19">
    <!-- Biaxial Bending Diagram, $N = 0.000e+00$ -->
    <g transform="translate(124.009062 16.32) scale(0.12 -0.12)">
     <defs>
      <path id="DejaVuSans-61" d="M 2194 1759 
Q 1497 1759 1228 1600 
Q 959 1441 959 1056 
Q 959 750 1161 570 
Q 1363 391 1709 391 
Q 2188 391 2477 730 
Q 2766 1069 2766 1631 
L 2766 1759 
L 2194 1759 
z
M 3341 1997 
L 3341 0 
L 2766 0 
L 2766 531 
Q 2569 213 2275 61 
Q 1981 -91 1556 -91 
Q 1019 -91 701 211 
Q 384 513 384 1019 
Q 384 1609 779 1909 
Q 1175 2209 1959 2209 
L 2766 2209 
L 2766 2266 
Q 2766 2663 2505 2880 
Q 2244 3097 1772 3097 
Q 1472 3097 1187 3025 
Q 903 2953 641 2809 
L 641 3341 
Q 956 3463 1253 3523 
Q 1550 3584 1831 3584 
Q 2591 3584 2966 3190 
Q 3341 2797 3341 1997 
z
" transform="scale(0.015625)"/>
      <path id="DejaVuSans-78" d="M 3513 3500 
L 2247 1797 
L 3578 0 
L 2900 0 
L 1881 1375 
L 863 0 
L 184 0 
L 1544 1831 
L 300 3500 
L 978 3500 
L 1906 2253 
L 2834 3500 
L 3513 3500 
z
" transform="scale(0.015625)"/>
      <path id="DejaVuSans-6c" d="M 603 4863 
L 1178 4863 
L 1178 0 
L 603 0 
L 603 4863 
z
" transform="scale(0.015625)"/>
      <path id="DejaVuSans-44" d="M 1259 4147 
L 1259 519 
L 2022 519 
Q 2988 519 3436 956 
Q 3884 1394 3884 2338 
Q 3884 3275 3436 3711 
Q 2988 4147 2022 4147 
L 1259 4147 
z
M 628 4666 
L 1925 4666 
Q 3281 4666 3915 4102 
Q 4550 3538 4550 2338 
Q 4550 1131 3912 565 
Q 3275 0 1925 0 
L 628 0 
L 628 4666 
z
" transform="scale(0.015625)"/>
      <path id="DejaVuSans-72" d="M 2631 2963 
Q 2534 3019 2420 3045 
Q 2306 3072 2169 3072 
Q 1681 3072 1420 2755 
Q 1159 2438 1159 1844 
L 1159 0 
L 581 0 
L 581 3500 
L 1159 3500 
L 1159 2956 
Q 1341 3275 1631 3429 
Q 1922 3584 2338 3584 
Q 2397 3584 2469 3576 
Q 2541 3569 2628 3553 
L 2631 2963 
z
" transform="scale(0.015625)"/>
      <path id="DejaVuSans-2c" d="M 750 794 
L 1409 794 
L 1409 256 
L 897 -744 
L 494 -744 
L 750 256 
L 750 794 
z
" transform="scale(0.015625)"/>
      <path id="DejaVuSans-Oblique-4e" d="M 1081 4666 
L 1931 4666 
L 3219 666 
L 4000 4666 
L 4616 4666 
L 3706 0 
L 2853 0 
L 1569 4025 
L 788 0 
L 172 0 
L 1081 4666 
z
" transform="scale(0.015625)"/>
      <path id="DejaVuSans-3d" d="M 678 2906 
L 4684 2906 
L 4684 2381 
L 678 2381 
L 678 2906 
z
M 678 1631 
L 4684 1631 
L 4684 1100 
L 678 1100 
L 678 1631 
z
" transform="scale(0.015625)"/>
      <path id="DejaVuSans-2e" d="M 684 794 
L 1344 794 
L 1344 0 
L 684 0 
L 684 794 
z
" transform="scale(0.015625)"/>
      <path id="DejaVuSans-Oblique-65" d="M 3078 2063 
Q 3088 2113 3092 2166 
Q 3097 2219 3097 2272 
Q 3097 2653 2873 2875 
Q 2650 3097 2266 3097 
Q 1838 3097 1509 2826 
Q 1181 2556 1013 2059 
L 3078 2063 
z
M 3578 1613 
L 903 1613 
Q 884 1494 878 1425 
Q 872 1356 872 1306 
Q 872 872 1139 634 
Q 1406 397 1894 397 
Q 2269 397 2603 481 
Q 2938 566 3225 728 
L 3116 159 
Q 2806 34 2476 -28 
Q 2147 -91 1806 -91 
Q 1078 -91 686 257 
Q 294 606 294 1247 
Q 294 1794 489 2264 
Q 684 2734 1063 3103 
Q 1306 3334 1642 3459 
Q 1978 3584 2356 3584 
Q 2950 3584 3301 3228 
Q 3653 2872 3653 2272 
Q 3653 2128 3634 1964 
Q 3616 1800 3578 1613 
z
" transform="scale(0.015625)"/>
      <path id="DejaVuSans-2b" d="M 2944 4013 
L 2944 2272 
L 4684 2272 
L 4684 1741 
L 2944 1741 
L 2944 0 
L 2419 0 
L 2419 1741 
L 678 1741 
L 678 2272 
L 2419 2272 
L 2419 4013 
L 2944 4013 
z
" transform="scale(0.015625)"/>
     </defs>
     <use xlink:href="#DejaVuSans-42" transform="translate(0 0.015625)"/>
     <use xlink:href="#DejaVuSans-69" transform="translate(68.603516 0.015625)"/>
     <use xlink:href="#DejaVuSans-61" transform="translate(96.386719 0.015625)"/>
     <use xlink:href="#DejaVuSans-78" transform="translate(157.666016 0.015625)"/>
     <use xlink:href="#DejaVuSans-69" transform="translate(216.845703 0.015625)"/>
     <use xlink:href="#DejaVuSans-61" transform="translate(244.628906 0.015625)"/>
     <use xlink:href="#DejaVuSans-6c" transform="translate(305.908203 0.015625)"/>
     <use xlink:href="#DejaVuSans-20" transform="translate(333.691406 0.015625)"/>
     <use xlink:href="#DejaVuSans-42" transform="translate(365.478516 0.015625)"/>
     <use xlink:href="#DejaVuSans-65" transform="translate(434.082031 0.015625)"/>
     <use xlink:href="#DejaVuSans-6e" transform="translate(495.605469 0.015625)"/>
     <use xlink:href="#DejaVuSans-64" transform="translate(558.984375 0.015625)"/>
     <use xlink:href="#DejaVuSans-69" transform="translate(622.460938 0.015625)"/>
     <use xlink:href="#DejaVuSans-6e" transform="translate(650.244141 0.015625)"/>
     <use xlink:href="#DejaVuSans-67" transform="translate(713.623047 0.015625)"/>
     <use xlink:href="#DejaVuSans-20" transform="translate(777.099609 0.015625)"/>
     <use xlink:href="#DejaVuSans-44" transform="translate(808.886719 0.015625)"/>
     <use xlink:href="#DejaVuSans-69" transform="translate(885.888672 0.015625)"/>
     <use xlink:href="#DejaVuSans-61" transform="translate(913.671875 0.015625)"/>
     <use xlink:href="#DejaVuSans-67" transform="translate(974.951172 0.015625)"/>
     <use xlink:href="#DejaVuSans-72" transform="translate(1038.427734 0.015625)"/>
     <use xlink:href="#DejaVuSans-61" transform="translate(1079.541016 0.015625)"/>
     <use xlink:href="#DejaVuSans-6d" transform="translate(1140.820312 0.015625)"/>
     <use xlink:href="#DejaVuSans-2c" transform="translate(1238.232422 0.015625)"/>
     <use xlink:href="#DejaVuSans-20" transform="translate(1270.019531 0.015625)"/>
     <use xlink:href="#DejaVuSans-Oblique-4e" transform="translate(1301.806641 0.015625)"/>
     <use xlink:href="#DejaVuSans-3d" transform="translate(1396.09375 0.015625)"/>
     <use xlink:href="#DejaVuSans-30" transform="translate(1499.365234 0.015625)"/>
     <use xlink:href="#DejaVuSans-2e" transform="translate(1562.988281 0.015625)"/>
     <use xlink:href="#DejaVuSans-30" transform="translate(1594.775391 0.015625)"/>
     <use xlink:href="#DejaVuSans-30" transform="translate(1658.398438 0.015625)"/>
     <use xlink:href="#DejaVuSans-30" transform="translate(1722.021484 0.015625)"/>
     <use xlink:href="#DejaVuSans-Oblique-65" transform="translate(1785.644531 0.015625)"/>
     <use xlink:href="#DejaVuSans-2b" transform="translate(1866.650391 0.015625)"/>
     <use xlink:href="#DejaVuSans-30" transform="translate(1969.921875 0.015625)"/>
     <use xlink:href="#DejaVuSans-30" transform="translate(2033.544922 0.015625)"/>
    </g>
   </g>
  </g>
 </g>
 <defs>
  <clipPath id="pa070707d88">
   <rect x="56.367188" y="22.32" width="387.04375" height="274"/>
  </clipPath>
 </defs>
</svg>
