<?xml version="1.0" encoding="utf-8" standalone="no"?>
<!DOCTYPE svg PUBLIC "-//W3C//DTD SVG 1.1//EN"
  "http://www.w3.org/Graphics/SVG/1.1/DTD/svg11.dtd">
<svg xmlns:xlink="http://www.w3.org/1999/xlink" width="934.4pt" height="934.4pt" viewBox="0 0 934.4 934.4" xmlns="http://www.w3.org/2000/svg" version="1.1">
 <metadata>
  <rdf:RDF xmlns:dc="http://purl.org/dc/elements/1.1/" xmlns:cc="http://creativecommons.org/ns#" xmlns:rdf="http://www.w3.org/1999/02/22-rdf-syntax-ns#">
   <cc:Work>
    <dc:type rdf:resource="http://purl.org/dc/dcmitype/StillImage"/>
    <dc:date>2022-12-20T06:12:56.287224</dc:date>
    <dc:format>image/svg+xml</dc:format>
    <dc:creator>
     <cc:Agent>
      <dc:title>Matplotlib v3.6.2, https://matplotlib.org/</dc:title>
     </cc:Agent>
    </dc:creator>
   </cc:Work>
  </rdf:RDF>
 </metadata>
 <defs>
  <style type="text/css">*{stroke-linejoin: round; stroke-linecap: butt}</style>
 </defs>
 <g id="figure_1">
  <g id="patch_1">
   <path d="M 0 934.4 
L 934.4 934.4 
L 934.4 -0 
L 0 -0 
z
" style="fill: #ffffff"/>
  </g>
  <g id="patch_2">
   <path d="M 7.2 927.2 
L 927.2 927.2 
L 927.2 7.2 
L 7.2 7.2 
z
" style="fill: #ffffff"/>
  </g>
  <g id="pane3d_1">
   <g id="patch_3">
    <path d="M 76.666344 700.357484 
L 380.480391 445.694526 
L 376.257084 78.425017 
L 57.90397 310.744619 
" style="fill: #f2f2f2; opacity: 0.5; stroke: #f2f2f2; stroke-linejoin: miter"/>
   </g>
  </g>
  <g id="pane3d_2">
   <g id="patch_4">
    <path d="M 380.480391 445.694526 
L 867.993532 587.39535 
L 885.391158 207.475663 
L 376.257084 78.425017 
" style="fill: #e6e6e6; opacity: 0.5; stroke: #e6e6e6; stroke-linejoin: miter"/>
   </g>
  </g>
  <g id="pane3d_3">
   <g id="patch_5">
    <path d="M 76.666344 700.357484 
L 593.454086 869.140359 
L 867.993532 587.39535 
L 380.480391 445.694526 
" style="fill: #ececec; opacity: 0.5; stroke: #ececec; stroke-linejoin: miter"/>
   </g>
  </g>
  <g id="axis3d_1">
   <g id="line2d_1">
    <path d="M 76.666344 700.357484 
L 593.454086 869.140359 
" style="fill: none; stroke: #000000; stroke-width: 0.8; stroke-linecap: square"/>
   </g>
   <g id="text_1">
    <!-- Bending Moment $M_x$ (kNm) -->
    <g transform="translate(246.796345 799.169518) rotate(-341.912962) scale(0.1 -0.1)">
     <defs>
      <path id="DejaVuSans-42" d="M 1259 2228 
L 1259 519 
L 2272 519 
Q 2781 519 3026 730 
Q 3272 941 3272 1375 
Q 3272 1813 3026 2020 
Q 2781 2228 2272 2228 
L 1259 2228 
z
M 1259 4147 
L 1259 2741 
L 2194 2741 
Q 2656 2741 2882 2914 
Q 3109 3088 3109 3444 
Q 3109 3797 2882 3972 
Q 2656 4147 2194 4147 
L 1259 4147 
z
M 628 4666 
L 2241 4666 
Q 2963 4666 3353 4366 
Q 3744 4066 3744 3513 
Q 3744 3084 3544 2831 
Q 3344 2578 2956 2516 
Q 3422 2416 3680 2098 
Q 3938 1781 3938 1306 
Q 3938 681 3513 340 
Q 3088 0 2303 0 
L 628 0 
L 628 4666 
z
" transform="scale(0.015625)"/>
      <path id="DejaVuSans-65" d="M 3597 1894 
L 3597 1613 
L 953 1613 
Q 991 1019 1311 708 
Q 1631 397 2203 397 
Q 2534 397 2845 478 
Q 3156 559 3463 722 
L 3463 178 
Q 3153 47 2828 -22 
Q 2503 -91 2169 -91 
Q 1331 -91 842 396 
Q 353 884 353 1716 
Q 353 2575 817 3079 
Q 1281 3584 2069 3584 
Q 2775 3584 3186 3129 
Q 3597 2675 3597 1894 
z
M 3022 2063 
Q 3016 2534 2758 2815 
Q 2500 3097 2075 3097 
Q 1594 3097 1305 2825 
Q 1016 2553 972 2059 
L 3022 2063 
z
" transform="scale(0.015625)"/>
      <path id="DejaVuSans-6e" d="M 3513 2113 
L 3513 0 
L 2938 0 
L 2938 2094 
Q 2938 2591 2744 2837 
Q 2550 3084 2163 3084 
Q 1697 3084 1428 2787 
Q 1159 2491 1159 1978 
L 1159 0 
L 581 0 
L 581 3500 
L 1159 3500 
L 1159 2956 
Q 1366 3272 1645 3428 
Q 1925 3584 2291 3584 
Q 2894 3584 3203 3211 
Q 3513 2838 3513 2113 
z
" transform="scale(0.015625)"/>
      <path id="DejaVuSans-64" d="M 2906 2969 
L 2906 4863 
L 3481 4863 
L 3481 0 
L 2906 0 
L 2906 525 
Q 2725 213 2448 61 
Q 2172 -91 1784 -91 
Q 1150 -91 751 415 
Q 353 922 353 1747 
Q 353 2572 751 3078 
Q 1150 3584 1784 3584 
Q 2172 3584 2448 3432 
Q 2725 3281 2906 2969 
z
M 947 1747 
Q 947 1113 1208 752 
Q 1469 391 1925 391 
Q 2381 391 2643 752 
Q 2906 1113 2906 1747 
Q 2906 2381 2643 2742 
Q 2381 3103 1925 3103 
Q 1469 3103 1208 2742 
Q 947 2381 947 1747 
z
" transform="scale(0.015625)"/>
      <path id="DejaVuSans-69" d="M 603 3500 
L 1178 3500 
L 1178 0 
L 603 0 
L 603 3500 
z
M 603 4863 
L 1178 4863 
L 1178 4134 
L 603 4134 
L 603 4863 
z
" transform="scale(0.015625)"/>
      <path id="DejaVuSans-67" d="M 2906 1791 
Q 2906 2416 2648 2759 
Q 2391 3103 1925 3103 
Q 1463 3103 1205 2759 
Q 947 2416 947 1791 
Q 947 1169 1205 825 
Q 1463 481 1925 481 
Q 2391 481 2648 825 
Q 2906 1169 2906 1791 
z
M 3481 434 
Q 3481 -459 3084 -895 
Q 2688 -1331 1869 -1331 
Q 1566 -1331 1297 -1286 
Q 1028 -1241 775 -1147 
L 775 -588 
Q 1028 -725 1275 -790 
Q 1522 -856 1778 -856 
Q 2344 -856 2625 -561 
Q 2906 -266 2906 331 
L 2906 616 
Q 2728 306 2450 153 
Q 2172 0 1784 0 
Q 1141 0 747 490 
Q 353 981 353 1791 
Q 353 2603 747 3093 
Q 1141 3584 1784 3584 
Q 2172 3584 2450 3431 
Q 2728 3278 2906 2969 
L 2906 3500 
L 3481 3500 
L 3481 434 
z
" transform="scale(0.015625)"/>
      <path id="DejaVuSans-20" transform="scale(0.015625)"/>
      <path id="DejaVuSans-4d" d="M 628 4666 
L 1569 4666 
L 2759 1491 
L 3956 4666 
L 4897 4666 
L 4897 0 
L 4281 0 
L 4281 4097 
L 3078 897 
L 2444 897 
L 1241 4097 
L 1241 0 
L 628 0 
L 628 4666 
z
" transform="scale(0.015625)"/>
      <path id="DejaVuSans-6f" d="M 1959 3097 
Q 1497 3097 1228 2736 
Q 959 2375 959 1747 
Q 959 1119 1226 758 
Q 1494 397 1959 397 
Q 2419 397 2687 759 
Q 2956 1122 2956 1747 
Q 2956 2369 2687 2733 
Q 2419 3097 1959 3097 
z
M 1959 3584 
Q 2709 3584 3137 3096 
Q 3566 2609 3566 1747 
Q 3566 888 3137 398 
Q 2709 -91 1959 -91 
Q 1206 -91 779 398 
Q 353 888 353 1747 
Q 353 2609 779 3096 
Q 1206 3584 1959 3584 
z
" transform="scale(0.015625)"/>
      <path id="DejaVuSans-6d" d="M 3328 2828 
Q 3544 3216 3844 3400 
Q 4144 3584 4550 3584 
Q 5097 3584 5394 3201 
Q 5691 2819 5691 2113 
L 5691 0 
L 5113 0 
L 5113 2094 
Q 5113 2597 4934 2840 
Q 4756 3084 4391 3084 
Q 3944 3084 3684 2787 
Q 3425 2491 3425 1978 
L 3425 0 
L 2847 0 
L 2847 2094 
Q 2847 2600 2669 2842 
Q 2491 3084 2119 3084 
Q 1678 3084 1418 2786 
Q 1159 2488 1159 1978 
L 1159 0 
L 581 0 
L 581 3500 
L 1159 3500 
L 1159 2956 
Q 1356 3278 1631 3431 
Q 1906 3584 2284 3584 
Q 2666 3584 2933 3390 
Q 3200 3197 3328 2828 
z
" transform="scale(0.015625)"/>
      <path id="DejaVuSans-74" d="M 1172 4494 
L 1172 3500 
L 2356 3500 
L 2356 3053 
L 1172 3053 
L 1172 1153 
Q 1172 725 1289 603 
Q 1406 481 1766 481 
L 2356 481 
L 2356 0 
L 1766 0 
Q 1100 0 847 248 
Q 594 497 594 1153 
L 594 3053 
L 172 3053 
L 172 3500 
L 594 3500 
L 594 4494 
L 1172 4494 
z
" transform="scale(0.015625)"/>
      <path id="DejaVuSans-Oblique-4d" d="M 1081 4666 
L 2028 4666 
L 2572 1522 
L 4378 4666 
L 5350 4666 
L 4441 0 
L 3828 0 
L 4622 4091 
L 2791 897 
L 2175 897 
L 1581 4103 
L 788 0 
L 172 0 
L 1081 4666 
z
" transform="scale(0.015625)"/>
      <path id="DejaVuSans-Oblique-78" d="M 3841 3500 
L 2234 1784 
L 3219 0 
L 2559 0 
L 1819 1388 
L 531 0 
L -166 0 
L 1556 1844 
L 641 3500 
L 1300 3500 
L 1972 2234 
L 3144 3500 
L 3841 3500 
z
" transform="scale(0.015625)"/>
      <path id="DejaVuSans-28" d="M 1984 4856 
Q 1566 4138 1362 3434 
Q 1159 2731 1159 2009 
Q 1159 1288 1364 580 
Q 1569 -128 1984 -844 
L 1484 -844 
Q 1016 -109 783 600 
Q 550 1309 550 2009 
Q 550 2706 781 3412 
Q 1013 4119 1484 4856 
L 1984 4856 
z
" transform="scale(0.015625)"/>
      <path id="DejaVuSans-6b" d="M 581 4863 
L 1159 4863 
L 1159 1991 
L 2875 3500 
L 3609 3500 
L 1753 1863 
L 3688 0 
L 2938 0 
L 1159 1709 
L 1159 0 
L 581 0 
L 581 4863 
z
" transform="scale(0.015625)"/>
      <path id="DejaVuSans-4e" d="M 628 4666 
L 1478 4666 
L 3547 763 
L 3547 4666 
L 4159 4666 
L 4159 0 
L 3309 0 
L 1241 3903 
L 1241 0 
L 628 0 
L 628 4666 
z
" transform="scale(0.015625)"/>
      <path id="DejaVuSans-29" d="M 513 4856 
L 1013 4856 
Q 1481 4119 1714 3412 
Q 1947 2706 1947 2009 
Q 1947 1309 1714 600 
Q 1481 -109 1013 -844 
L 513 -844 
Q 928 -128 1133 580 
Q 1338 1288 1338 2009 
Q 1338 2731 1133 3434 
Q 928 4138 513 4856 
z
" transform="scale(0.015625)"/>
     </defs>
     <use xlink:href="#DejaVuSans-42" transform="translate(0 0.015625)"/>
     <use xlink:href="#DejaVuSans-65" transform="translate(68.603516 0.015625)"/>
     <use xlink:href="#DejaVuSans-6e" transform="translate(130.126953 0.015625)"/>
     <use xlink:href="#DejaVuSans-64" transform="translate(193.505859 0.015625)"/>
     <use xlink:href="#DejaVuSans-69" transform="translate(256.982422 0.015625)"/>
     <use xlink:href="#DejaVuSans-6e" transform="translate(284.765625 0.015625)"/>
     <use xlink:href="#DejaVuSans-67" transform="translate(348.144531 0.015625)"/>
     <use xlink:href="#DejaVuSans-20" transform="translate(411.621094 0.015625)"/>
     <use xlink:href="#DejaVuSans-4d" transform="translate(443.408203 0.015625)"/>
     <use xlink:href="#DejaVuSans-6f" transform="translate(529.6875 0.015625)"/>
     <use xlink:href="#DejaVuSans-6d" transform="translate(590.869141 0.015625)"/>
     <use xlink:href="#DejaVuSans-65" transform="translate(688.28125 0.015625)"/>
     <use xlink:href="#DejaVuSans-6e" transform="translate(749.804688 0.015625)"/>
     <use xlink:href="#DejaVuSans-74" transform="translate(813.183594 0.015625)"/>
     <use xlink:href="#DejaVuSans-20" transform="translate(852.392578 0.015625)"/>
     <use xlink:href="#DejaVuSans-Oblique-4d" transform="translate(884.179688 0.015625)"/>
     <use xlink:href="#DejaVuSans-Oblique-78" transform="translate(970.458984 -16.390625) scale(0.7)"/>
     <use xlink:href="#DejaVuSans-20" transform="translate(1014.619141 0.015625)"/>
     <use xlink:href="#DejaVuSans-28" transform="translate(1046.40625 0.015625)"/>
     <use xlink:href="#DejaVuSans-6b" transform="translate(1085.419922 0.015625)"/>
     <use xlink:href="#DejaVuSans-4e" transform="translate(1143.330078 0.015625)"/>
     <use xlink:href="#DejaVuSans-6d" transform="translate(1218.134766 0.015625)"/>
     <use xlink:href="#DejaVuSans-29" transform="translate(1315.546875 0.015625)"/>
    </g>
   </g>
   <g id="Line3DCollection_1">
    <path d="M 139.477585 720.871635 
L 439.963741 462.983988 
L 438.263438 94.14182 
" style="fill: none; stroke: #b0b0b0; stroke-width: 0.8"/>
    <path d="M 232.944484 751.397924 
L 528.360259 488.677365 
L 530.468303 117.513065 
" style="fill: none; stroke: #b0b0b0; stroke-width: 0.8"/>
    <path d="M 328.248171 782.524108 
L 618.348555 514.83341 
L 624.406027 141.32354 
" style="fill: none; stroke: #b0b0b0; stroke-width: 0.8"/>
    <path d="M 425.443328 814.268046 
L 709.972015 541.464733 
L 720.125926 165.585744 
" style="fill: none; stroke: #b0b0b0; stroke-width: 0.8"/>
    <path d="M 524.586827 846.648312 
L 803.275616 568.584407 
L 817.679202 190.312656 
" style="fill: none; stroke: #b0b0b0; stroke-width: 0.8"/>
   </g>
   <g id="xtick_1">
    <g id="line2d_2">
     <path d="M 142.094901 718.625363 
L 134.231684 725.373848 
" style="fill: none; stroke: #000000; stroke-width: 0.8; stroke-linecap: square"/>
    </g>
    <g id="text_2">
     <!-- −1000 -->
     <g transform="translate(115.062694 744.202086) scale(0.1 -0.1)">
      <defs>
       <path id="DejaVuSans-2212" d="M 678 2272 
L 4684 2272 
L 4684 1741 
L 678 1741 
L 678 2272 
z
" transform="scale(0.015625)"/>
       <path id="DejaVuSans-31" d="M 794 531 
L 1825 531 
L 1825 4091 
L 703 3866 
L 703 4441 
L 1819 4666 
L 2450 4666 
L 2450 531 
L 3481 531 
L 3481 0 
L 794 0 
L 794 531 
z
" transform="scale(0.015625)"/>
       <path id="DejaVuSans-30" d="M 2034 4250 
Q 1547 4250 1301 3770 
Q 1056 3291 1056 2328 
Q 1056 1369 1301 889 
Q 1547 409 2034 409 
Q 2525 409 2770 889 
Q 3016 1369 3016 2328 
Q 3016 3291 2770 3770 
Q 2525 4250 2034 4250 
z
M 2034 4750 
Q 2819 4750 3233 4129 
Q 3647 3509 3647 2328 
Q 3647 1150 3233 529 
Q 2819 -91 2034 -91 
Q 1250 -91 836 529 
Q 422 1150 422 2328 
Q 422 3509 836 4129 
Q 1250 4750 2034 4750 
z
" transform="scale(0.015625)"/>
      </defs>
      <use xlink:href="#DejaVuSans-2212"/>
      <use xlink:href="#DejaVuSans-31" x="83.789062"/>
      <use xlink:href="#DejaVuSans-30" x="147.412109"/>
      <use xlink:href="#DejaVuSans-30" x="211.035156"/>
      <use xlink:href="#DejaVuSans-30" x="274.658203"/>
     </g>
    </g>
   </g>
   <g id="xtick_2">
    <g id="line2d_3">
     <path d="M 235.519676 749.107742 
L 227.782905 755.988243 
" style="fill: none; stroke: #000000; stroke-width: 0.8; stroke-linecap: square"/>
    </g>
    <g id="text_3">
     <!-- −500 -->
     <g transform="translate(211.739329 774.914782) scale(0.1 -0.1)">
      <defs>
       <path id="DejaVuSans-35" d="M 691 4666 
L 3169 4666 
L 3169 4134 
L 1269 4134 
L 1269 2991 
Q 1406 3038 1543 3061 
Q 1681 3084 1819 3084 
Q 2600 3084 3056 2656 
Q 3513 2228 3513 1497 
Q 3513 744 3044 326 
Q 2575 -91 1722 -91 
Q 1428 -91 1123 -41 
Q 819 9 494 109 
L 494 744 
Q 775 591 1075 516 
Q 1375 441 1709 441 
Q 2250 441 2565 725 
Q 2881 1009 2881 1497 
Q 2881 1984 2565 2268 
Q 2250 2553 1709 2553 
Q 1456 2553 1204 2497 
Q 953 2441 691 2322 
L 691 4666 
z
" transform="scale(0.015625)"/>
      </defs>
      <use xlink:href="#DejaVuSans-2212"/>
      <use xlink:href="#DejaVuSans-35" x="83.789062"/>
      <use xlink:href="#DejaVuSans-30" x="147.412109"/>
      <use xlink:href="#DejaVuSans-30" x="211.035156"/>
     </g>
    </g>
   </g>
   <g id="xtick_3">
    <g id="line2d_4">
     <path d="M 330.779071 780.188715 
L 323.175262 787.205145 
" style="fill: none; stroke: #000000; stroke-width: 0.8; stroke-linecap: square"/>
    </g>
    <g id="text_4">
     <!-- 0 -->
     <g transform="translate(317.626422 806.231698) scale(0.1 -0.1)">
      <use xlink:href="#DejaVuSans-30"/>
     </g>
    </g>
   </g>
   <g id="xtick_4">
    <g id="line2d_5">
     <path d="M 427.927662 811.88609 
L 420.463645 819.042517 
" style="fill: none; stroke: #000000; stroke-width: 0.8; stroke-linecap: square"/>
    </g>
    <g id="text_5">
     <!-- 500 -->
     <g transform="translate(408.492853 838.170843) scale(0.1 -0.1)">
      <use xlink:href="#DejaVuSans-35"/>
      <use xlink:href="#DejaVuSans-30" x="63.623047"/>
      <use xlink:href="#DejaVuSans-30" x="127.246094"/>
     </g>
    </g>
   </g>
   <g id="xtick_5">
    <g id="line2d_6">
     <path d="M 527.022212 844.218388 
L 519.705151 851.519043 
" style="fill: none; stroke: #000000; stroke-width: 0.8; stroke-linecap: square"/>
    </g>
    <g id="text_6">
     <!-- 1000 -->
     <g transform="translate(504.491736 870.750945) scale(0.1 -0.1)">
      <use xlink:href="#DejaVuSans-31"/>
      <use xlink:href="#DejaVuSans-30" x="63.623047"/>
      <use xlink:href="#DejaVuSans-30" x="127.246094"/>
      <use xlink:href="#DejaVuSans-30" x="190.869141"/>
     </g>
    </g>
   </g>
  </g>
  <g id="axis3d_2">
   <g id="line2d_7">
    <path d="M 867.993532 587.39535 
L 593.454086 869.140359 
" style="fill: none; stroke: #000000; stroke-width: 0.8; stroke-linecap: square"/>
   </g>
   <g id="text_7">
    <!-- Bending Moment $M_y$ (kNm) -->
    <g transform="translate(718.147901 800.037686) rotate(-45.742112) scale(0.1 -0.1)">
     <defs>
      <path id="DejaVuSans-Oblique-79" d="M 1588 -325 
Q 1188 -997 936 -1164 
Q 684 -1331 294 -1331 
L -159 -1331 
L -63 -850 
L 269 -850 
Q 509 -850 678 -719 
Q 847 -588 1056 -206 
L 1234 128 
L 459 3500 
L 1069 3500 
L 1650 819 
L 3256 3500 
L 3859 3500 
L 1588 -325 
z
" transform="scale(0.015625)"/>
     </defs>
     <use xlink:href="#DejaVuSans-42" transform="translate(0 0.015625)"/>
     <use xlink:href="#DejaVuSans-65" transform="translate(68.603516 0.015625)"/>
     <use xlink:href="#DejaVuSans-6e" transform="translate(130.126953 0.015625)"/>
     <use xlink:href="#DejaVuSans-64" transform="translate(193.505859 0.015625)"/>
     <use xlink:href="#DejaVuSans-69" transform="translate(256.982422 0.015625)"/>
     <use xlink:href="#DejaVuSans-6e" transform="translate(284.765625 0.015625)"/>
     <use xlink:href="#DejaVuSans-67" transform="translate(348.144531 0.015625)"/>
     <use xlink:href="#DejaVuSans-20" transform="translate(411.621094 0.015625)"/>
     <use xlink:href="#DejaVuSans-4d" transform="translate(443.408203 0.015625)"/>
     <use xlink:href="#DejaVuSans-6f" transform="translate(529.6875 0.015625)"/>
     <use xlink:href="#DejaVuSans-6d" transform="translate(590.869141 0.015625)"/>
     <use xlink:href="#DejaVuSans-65" transform="translate(688.28125 0.015625)"/>
     <use xlink:href="#DejaVuSans-6e" transform="translate(749.804688 0.015625)"/>
     <use xlink:href="#DejaVuSans-74" transform="translate(813.183594 0.015625)"/>
     <use xlink:href="#DejaVuSans-20" transform="translate(852.392578 0.015625)"/>
     <use xlink:href="#DejaVuSans-Oblique-4d" transform="translate(884.179688 0.015625)"/>
     <use xlink:href="#DejaVuSans-Oblique-79" transform="translate(970.458984 -16.390625) scale(0.7)"/>
     <use xlink:href="#DejaVuSans-20" transform="translate(1014.619141 0.015625)"/>
     <use xlink:href="#DejaVuSans-28" transform="translate(1046.40625 0.015625)"/>
     <use xlink:href="#DejaVuSans-6b" transform="translate(1085.419922 0.015625)"/>
     <use xlink:href="#DejaVuSans-4e" transform="translate(1143.330078 0.015625)"/>
     <use xlink:href="#DejaVuSans-6d" transform="translate(1218.134766 0.015625)"/>
     <use xlink:href="#DejaVuSans-29" transform="translate(1315.546875 0.015625)"/>
    </g>
   </g>
   <g id="Line3DCollection_2">
    <path d="M 101.680368 278.798598 
L 118.306858 665.45358 
L 631.225836 830.377252 
" style="fill: none; stroke: #b0b0b0; stroke-width: 0.8"/>
    <path d="M 163.953873 233.35423 
L 177.61687 615.738752 
L 684.946452 775.246684 
" style="fill: none; stroke: #b0b0b0; stroke-width: 0.8"/>
    <path d="M 224.16217 189.416958 
L 235.043732 567.602417 
L 736.873157 721.957111 
" style="fill: none; stroke: #b0b0b0; stroke-width: 0.8"/>
    <path d="M 282.406315 146.913034 
L 290.675731 520.970572 
L 787.09433 670.417833 
" style="fill: none; stroke: #b0b0b0; stroke-width: 0.8"/>
    <path d="M 338.78088 105.773444 
L 344.595719 475.773769 
L 835.692642 620.544009 
" style="fill: none; stroke: #b0b0b0; stroke-width: 0.8"/>
   </g>
   <g id="xtick_6">
    <g id="line2d_8">
     <path d="M 626.904744 828.987851 
L 639.879129 833.159627 
" style="fill: none; stroke: #000000; stroke-width: 0.8; stroke-linecap: square"/>
    </g>
    <g id="text_8">
     <!-- −1000 -->
     <g transform="translate(627.113406 851.310782) scale(0.1 -0.1)">
      <use xlink:href="#DejaVuSans-2212"/>
      <use xlink:href="#DejaVuSans-31" x="83.789062"/>
      <use xlink:href="#DejaVuSans-30" x="147.412109"/>
      <use xlink:href="#DejaVuSans-30" x="211.035156"/>
      <use xlink:href="#DejaVuSans-30" x="274.658203"/>
     </g>
    </g>
   </g>
   <g id="xtick_7">
    <g id="line2d_9">
     <path d="M 680.676104 773.904057 
L 693.497942 777.935331 
" style="fill: none; stroke: #000000; stroke-width: 0.8; stroke-linecap: square"/>
    </g>
    <g id="text_9">
     <!-- −500 -->
     <g transform="translate(683.806936 795.944417) scale(0.1 -0.1)">
      <use xlink:href="#DejaVuSans-2212"/>
      <use xlink:href="#DejaVuSans-35" x="83.789062"/>
      <use xlink:href="#DejaVuSans-30" x="147.412109"/>
      <use xlink:href="#DejaVuSans-30" x="211.035156"/>
     </g>
    </g>
   </g>
   <g id="xtick_8">
    <g id="line2d_10">
     <path d="M 732.6526 720.658936 
L 745.324758 724.556689 
" style="fill: none; stroke: #000000; stroke-width: 0.8; stroke-linecap: square"/>
    </g>
    <g id="text_10">
     <!-- 0 -->
     <g transform="translate(746.084308 742.427228) scale(0.1 -0.1)">
      <use xlink:href="#DejaVuSans-30"/>
     </g>
    </g>
   </g>
   <g id="xtick_9">
    <g id="line2d_11">
     <path d="M 782.922624 669.161937 
L 795.447939 672.932694 
" style="fill: none; stroke: #000000; stroke-width: 0.8; stroke-linecap: square"/>
    </g>
    <g id="text_11">
     <!-- 500 -->
     <g transform="translate(789.747652 690.668097) scale(0.1 -0.1)">
      <use xlink:href="#DejaVuSans-35"/>
      <use xlink:href="#DejaVuSans-30" x="63.623047"/>
      <use xlink:href="#DejaVuSans-30" x="127.246094"/>
     </g>
    </g>
   </g>
   <g id="xtick_10">
    <g id="line2d_12">
     <path d="M 831.568859 619.328361 
L 843.950126 622.978229 
" style="fill: none; stroke: #000000; stroke-width: 0.8; stroke-linecap: square"/>
    </g>
    <g id="text_12">
     <!-- 1000 -->
     <g transform="translate(834.975435 640.581795) scale(0.1 -0.1)">
      <use xlink:href="#DejaVuSans-31"/>
      <use xlink:href="#DejaVuSans-30" x="63.623047"/>
      <use xlink:href="#DejaVuSans-30" x="127.246094"/>
      <use xlink:href="#DejaVuSans-30" x="190.869141"/>
     </g>
    </g>
   </g>
  </g>
  <g id="axis3d_3">
   <g id="line2d_13">
    <path d="M 867.993532 587.39535 
L 885.391158 207.475663 
" style="fill: none; stroke: #000000; stroke-width: 0.8; stroke-linecap: square"/>
   </g>
   <g id="text_13">
    <!-- Axial Force $N$ (kN) -->
    <g transform="translate(917.762308 441.341205) rotate(-87.378092) scale(0.1 -0.1)">
     <defs>
      <path id="DejaVuSans-41" d="M 2188 4044 
L 1331 1722 
L 3047 1722 
L 2188 4044 
z
M 1831 4666 
L 2547 4666 
L 4325 0 
L 3669 0 
L 3244 1197 
L 1141 1197 
L 716 0 
L 50 0 
L 1831 4666 
z
" transform="scale(0.015625)"/>
      <path id="DejaVuSans-78" d="M 3513 3500 
L 2247 1797 
L 3578 0 
L 2900 0 
L 1881 1375 
L 863 0 
L 184 0 
L 1544 1831 
L 300 3500 
L 978 3500 
L 1906 2253 
L 2834 3500 
L 3513 3500 
z
" transform="scale(0.015625)"/>
      <path id="DejaVuSans-61" d="M 2194 1759 
Q 1497 1759 1228 1600 
Q 959 1441 959 1056 
Q 959 750 1161 570 
Q 1363 391 1709 391 
Q 2188 391 2477 730 
Q 2766 1069 2766 1631 
L 2766 1759 
L 2194 1759 
z
M 3341 1997 
L 3341 0 
L 2766 0 
L 2766 531 
Q 2569 213 2275 61 
Q 1981 -91 1556 -91 
Q 1019 -91 701 211 
Q 384 513 384 1019 
Q 384 1609 779 1909 
Q 1175 2209 1959 2209 
L 2766 2209 
L 2766 2266 
Q 2766 2663 2505 2880 
Q 2244 3097 1772 3097 
Q 1472 3097 1187 3025 
Q 903 2953 641 2809 
L 641 3341 
Q 956 3463 1253 3523 
Q 1550 3584 1831 3584 
Q 2591 3584 2966 3190 
Q 3341 2797 3341 1997 
z
" transform="scale(0.015625)"/>
      <path id="DejaVuSans-6c" d="M 603 4863 
L 1178 4863 
L 1178 0 
L 603 0 
L 603 4863 
z
" transform="scale(0.015625)"/>
      <path id="DejaVuSans-46" d="M 628 4666 
L 3309 4666 
L 3309 4134 
L 1259 4134 
L 1259 2759 
L 3109 2759 
L 3109 2228 
L 1259 2228 
L 1259 0 
L 628 0 
L 628 4666 
z
" transform="scale(0.015625)"/>
      <path id="DejaVuSans-72" d="M 2631 2963 
Q 2534 3019 2420 3045 
Q 2306 3072 2169 3072 
Q 1681 3072 1420 2755 
Q 1159 2438 1159 1844 
L 1159 0 
L 581 0 
L 581 3500 
L 1159 3500 
L 1159 2956 
Q 1341 3275 1631 3429 
Q 1922 3584 2338 3584 
Q 2397 3584 2469 3576 
Q 2541 3569 2628 3553 
L 2631 2963 
z
" transform="scale(0.015625)"/>
      <path id="DejaVuSans-63" d="M 3122 3366 
L 3122 2828 
Q 2878 2963 2633 3030 
Q 2388 3097 2138 3097 
Q 1578 3097 1268 2742 
Q 959 2388 959 1747 
Q 959 1106 1268 751 
Q 1578 397 2138 397 
Q 2388 397 2633 464 
Q 2878 531 3122 666 
L 3122 134 
Q 2881 22 2623 -34 
Q 2366 -91 2075 -91 
Q 1284 -91 818 406 
Q 353 903 353 1747 
Q 353 2603 823 3093 
Q 1294 3584 2113 3584 
Q 2378 3584 2631 3529 
Q 2884 3475 3122 3366 
z
" transform="scale(0.015625)"/>
      <path id="DejaVuSans-Oblique-4e" d="M 1081 4666 
L 1931 4666 
L 3219 666 
L 4000 4666 
L 4616 4666 
L 3706 0 
L 2853 0 
L 1569 4025 
L 788 0 
L 172 0 
L 1081 4666 
z
" transform="scale(0.015625)"/>
     </defs>
     <use xlink:href="#DejaVuSans-41" transform="translate(0 0.015625)"/>
     <use xlink:href="#DejaVuSans-78" transform="translate(68.408203 0.015625)"/>
     <use xlink:href="#DejaVuSans-69" transform="translate(127.587891 0.015625)"/>
     <use xlink:href="#DejaVuSans-61" transform="translate(155.371094 0.015625)"/>
     <use xlink:href="#DejaVuSans-6c" transform="translate(216.650391 0.015625)"/>
     <use xlink:href="#DejaVuSans-20" transform="translate(244.433594 0.015625)"/>
     <use xlink:href="#DejaVuSans-46" transform="translate(276.220703 0.015625)"/>
     <use xlink:href="#DejaVuSans-6f" transform="translate(333.740234 0.015625)"/>
     <use xlink:href="#DejaVuSans-72" transform="translate(394.921875 0.015625)"/>
     <use xlink:href="#DejaVuSans-63" transform="translate(436.035156 0.015625)"/>
     <use xlink:href="#DejaVuSans-65" transform="translate(491.015625 0.015625)"/>
     <use xlink:href="#DejaVuSans-20" transform="translate(552.539062 0.015625)"/>
     <use xlink:href="#DejaVuSans-Oblique-4e" transform="translate(584.326172 0.015625)"/>
     <use xlink:href="#DejaVuSans-20" transform="translate(659.130859 0.015625)"/>
     <use xlink:href="#DejaVuSans-28" transform="translate(690.917969 0.015625)"/>
     <use xlink:href="#DejaVuSans-6b" transform="translate(729.931641 0.015625)"/>
     <use xlink:href="#DejaVuSans-4e" transform="translate(787.841797 0.015625)"/>
     <use xlink:href="#DejaVuSans-29" transform="translate(862.646484 0.015625)"/>
    </g>
   </g>
   <g id="Line3DCollection_3">
    <path d="M 870.927777 523.318945 
L 379.766846 383.642885 
L 73.506358 634.738307 
" style="fill: none; stroke: #b0b0b0; stroke-width: 0.8"/>
    <path d="M 873.725776 462.217794 
L 379.086907 324.513654 
L 70.491424 572.131269 
" style="fill: none; stroke: #b0b0b0; stroke-width: 0.8"/>
    <path d="M 876.564078 400.236529 
L 378.397646 264.573736 
L 67.431393 508.587734 
" style="fill: none; stroke: #b0b0b0; stroke-width: 0.8"/>
    <path d="M 879.44356 337.355997 
L 377.698869 203.806343 
L 64.325244 444.086532 
" style="fill: none; stroke: #b0b0b0; stroke-width: 0.8"/>
    <path d="M 882.365125 273.556483 
L 376.990379 142.194222 
L 61.171926 378.605849 
" style="fill: none; stroke: #b0b0b0; stroke-width: 0.8"/>
   </g>
   <g id="xtick_11">
    <g id="line2d_14">
     <path d="M 866.804127 522.146263 
L 879.184959 525.667117 
" style="fill: none; stroke: #000000; stroke-width: 0.8; stroke-linecap: square"/>
    </g>
    <g id="text_14">
     <!-- 0 -->
     <g transform="translate(886.169618 528.343224) scale(0.1 -0.1)">
      <use xlink:href="#DejaVuSans-30"/>
     </g>
    </g>
   </g>
   <g id="xtick_12">
    <g id="line2d_15">
     <path d="M 869.571527 461.061279 
L 882.0443 464.533615 
" style="fill: none; stroke: #000000; stroke-width: 0.8; stroke-linecap: square"/>
    </g>
    <g id="text_15">
     <!-- 2000 -->
     <g transform="translate(879.553019 467.277568) scale(0.1 -0.1)">
      <defs>
       <path id="DejaVuSans-32" d="M 1228 531 
L 3431 531 
L 3431 0 
L 469 0 
L 469 531 
Q 828 903 1448 1529 
Q 2069 2156 2228 2338 
Q 2531 2678 2651 2914 
Q 2772 3150 2772 3378 
Q 2772 3750 2511 3984 
Q 2250 4219 1831 4219 
Q 1534 4219 1204 4116 
Q 875 4013 500 3803 
L 500 4441 
Q 881 4594 1212 4672 
Q 1544 4750 1819 4750 
Q 2544 4750 2975 4387 
Q 3406 4025 3406 3419 
Q 3406 3131 3298 2873 
Q 3191 2616 2906 2266 
Q 2828 2175 2409 1742 
Q 1991 1309 1228 531 
z
" transform="scale(0.015625)"/>
      </defs>
      <use xlink:href="#DejaVuSans-32"/>
      <use xlink:href="#DejaVuSans-30" x="63.623047"/>
      <use xlink:href="#DejaVuSans-30" x="127.246094"/>
      <use xlink:href="#DejaVuSans-30" x="190.869141"/>
     </g>
    </g>
   </g>
   <g id="xtick_13">
    <g id="line2d_16">
     <path d="M 872.378774 399.09677 
L 884.944862 402.51882 
" style="fill: none; stroke: #000000; stroke-width: 0.8; stroke-linecap: square"/>
    </g>
    <g id="text_16">
     <!-- 4000 -->
     <g transform="translate(882.522297 405.333091) scale(0.1 -0.1)">
      <defs>
       <path id="DejaVuSans-34" d="M 2419 4116 
L 825 1625 
L 2419 1625 
L 2419 4116 
z
M 2253 4666 
L 3047 4666 
L 3047 1625 
L 3713 1625 
L 3713 1100 
L 3047 1100 
L 3047 0 
L 2419 0 
L 2419 1100 
L 313 1100 
L 313 1709 
L 2253 4666 
z
" transform="scale(0.015625)"/>
      </defs>
      <use xlink:href="#DejaVuSans-34"/>
      <use xlink:href="#DejaVuSans-30" x="63.623047"/>
      <use xlink:href="#DejaVuSans-30" x="127.246094"/>
      <use xlink:href="#DejaVuSans-30" x="190.869141"/>
     </g>
    </g>
   </g>
   <g id="xtick_14">
    <g id="line2d_17">
     <path d="M 875.226733 336.233602 
L 887.887541 339.603536 
" style="fill: none; stroke: #000000; stroke-width: 0.8; stroke-linecap: square"/>
    </g>
    <g id="text_17">
     <!-- 6000 -->
     <g transform="translate(885.534616 342.490684) scale(0.1 -0.1)">
      <defs>
       <path id="DejaVuSans-36" d="M 2113 2584 
Q 1688 2584 1439 2293 
Q 1191 2003 1191 1497 
Q 1191 994 1439 701 
Q 1688 409 2113 409 
Q 2538 409 2786 701 
Q 3034 994 3034 1497 
Q 3034 2003 2786 2293 
Q 2538 2584 2113 2584 
z
M 3366 4563 
L 3366 3988 
Q 3128 4100 2886 4159 
Q 2644 4219 2406 4219 
Q 1781 4219 1451 3797 
Q 1122 3375 1075 2522 
Q 1259 2794 1537 2939 
Q 1816 3084 2150 3084 
Q 2853 3084 3261 2657 
Q 3669 2231 3669 1497 
Q 3669 778 3244 343 
Q 2819 -91 2113 -91 
Q 1303 -91 875 529 
Q 447 1150 447 2328 
Q 447 3434 972 4092 
Q 1497 4750 2381 4750 
Q 2619 4750 2861 4703 
Q 3103 4656 3366 4563 
z
" transform="scale(0.015625)"/>
      </defs>
      <use xlink:href="#DejaVuSans-36"/>
      <use xlink:href="#DejaVuSans-30" x="63.623047"/>
      <use xlink:href="#DejaVuSans-30" x="127.246094"/>
      <use xlink:href="#DejaVuSans-30" x="190.869141"/>
     </g>
    </g>
   </g>
   <g id="xtick_15">
    <g id="line2d_18">
     <path d="M 878.116297 272.452083 
L 890.873262 275.768006 
" style="fill: none; stroke: #000000; stroke-width: 0.8; stroke-linecap: square"/>
    </g>
    <g id="text_18">
     <!-- 8000 -->
     <g transform="translate(888.59092 278.730681) scale(0.1 -0.1)">
      <defs>
       <path id="DejaVuSans-38" d="M 2034 2216 
Q 1584 2216 1326 1975 
Q 1069 1734 1069 1313 
Q 1069 891 1326 650 
Q 1584 409 2034 409 
Q 2484 409 2743 651 
Q 3003 894 3003 1313 
Q 3003 1734 2745 1975 
Q 2488 2216 2034 2216 
z
M 1403 2484 
Q 997 2584 770 2862 
Q 544 3141 544 3541 
Q 544 4100 942 4425 
Q 1341 4750 2034 4750 
Q 2731 4750 3128 4425 
Q 3525 4100 3525 3541 
Q 3525 3141 3298 2862 
Q 3072 2584 2669 2484 
Q 3125 2378 3379 2068 
Q 3634 1759 3634 1313 
Q 3634 634 3220 271 
Q 2806 -91 2034 -91 
Q 1263 -91 848 271 
Q 434 634 434 1313 
Q 434 1759 690 2068 
Q 947 2378 1403 2484 
z
M 1172 3481 
Q 1172 3119 1398 2916 
Q 1625 2713 2034 2713 
Q 2441 2713 2670 2916 
Q 2900 3119 2900 3481 
Q 2900 3844 2670 4047 
Q 2441 4250 2034 4250 
Q 1625 4250 1398 4047 
Q 1172 3844 1172 3481 
z
" transform="scale(0.015625)"/>
      </defs>
      <use xlink:href="#DejaVuSans-38"/>
      <use xlink:href="#DejaVuSans-30" x="63.623047"/>
      <use xlink:href="#DejaVuSans-30" x="127.246094"/>
      <use xlink:href="#DejaVuSans-30" x="190.869141"/>
     </g>
    </g>
   </g>
  </g>
  <g id="axes_1">
   <g id="line2d_19">
    <path d="M 479.632432 266.15257 
L 653.75402 313.115552 
L 663.761305 328.835536 
L 672.499675 343.986003 
L 689.473026 379.771513 
L 701.156008 415.797583 
L 705.973381 439.280942 
L 707.700838 451.798506 
L 709.342585 488.924287 
L 708.964122 501.429634 
L 698.760369 519.753929 
L 677.454729 548.173497 
L 645.692217 571.36151 
L 604.155984 594.234724 
L 572.995253 606.100758 
L 548.760248 614.443765 
L 479.632433 635.469145 
" clip-path="url(#p7624b29578)" style="fill: none; stroke: #000000; stroke-width: 0.5; stroke-linecap: square"/>
   </g>
   <g id="line2d_20">
    <path d="M 479.632432 266.15257 
L 615.364439 332.374036 
L 616.723164 334.528427 
L 642.42895 383.526933 
L 656.934645 430.580802 
L 660.426971 459.947711 
L 660.569952 475.498328 
L 653.799237 520.608421 
L 649.524778 535.332796 
L 635.874167 562.675441 
L 600.711316 595.99255 
L 554.656514 621.932948 
L 540.915268 626.757356 
L 515.110543 634.594874 
L 486.245474 638.103588 
L 479.632432 635.469145 
" clip-path="url(#p7624b29578)" style="fill: none; stroke: #000000; stroke-width: 0.5; stroke-linecap: square"/>
   </g>
   <g id="line2d_21">
    <path d="M 479.632432 266.15257 
L 557.274921 348.640589 
L 570.542601 382.721614 
L 590.643764 442.541956 
L 594.310925 480.209033 
L 592.919735 499.560584 
L 577.486153 552.522093 
L 571.115361 568.152818 
L 558.239847 594.894753 
L 539.592847 620.907073 
L 519.653998 633.974057 
L 518.51866 634.476296 
L 497.784677 639.747142 
L 484.908197 637.953927 
L 479.632432 635.469145 
" clip-path="url(#p7624b29578)" style="fill: none; stroke: #000000; stroke-width: 0.5; stroke-linecap: square"/>
   </g>
   <g id="line2d_22">
    <path d="M 479.632432 266.15257 
L 500.736309 355.961865 
L 496.619159 392.418092 
L 486.807121 456.46632 
L 485.649942 494.974856 
L 487.033654 514.044513 
L 497.478743 563.656847 
L 500.782501 577.989745 
L 503.825041 602.568904 
L 501.923296 626.260847 
L 498.668934 636.966592 
L 498.522696 637.328101 
L 493.198545 640.401708 
L 484.617956 637.995303 
L 479.632432 635.469145 
" clip-path="url(#p7624b29578)" style="fill: none; stroke: #000000; stroke-width: 0.5; stroke-linecap: square"/>
   </g>
   <g id="line2d_23">
    <path d="M 479.632432 266.15257 
L 432.561527 355.970413 
L 431.792187 358.41973 
L 417.380104 413.154708 
L 409.661753 463.704053 
L 408.319304 494.07256 
L 408.560282 509.794565 
L 413.831499 553.764715 
L 416.833317 567.638418 
L 424.367961 592.292813 
L 444.323681 618.100002 
L 468.098439 634.247826 
L 473.298319 636.386501 
L 481.180176 639.433407 
L 484.625671 638.334529 
L 479.632432 635.469145 
" clip-path="url(#p7624b29578)" style="fill: none; stroke: #000000; stroke-width: 0.5; stroke-linecap: square"/>
   </g>
   <g id="line2d_24">
    <path d="M 479.632432 266.15257 
L 377.798194 348.550511 
L 371.865069 366.550996 
L 366.677009 383.735302 
L 356.580385 423.635212 
L 349.615844 462.741029 
L 346.740531 487.660385 
L 345.70897 500.767204 
L 344.728344 538.890042 
L 344.954424 551.526361 
L 351.044941 567.885529 
L 363.732133 591.976064 
L 382.571444 608.330999 
L 407.073704 622.083144 
L 425.35641 627.014284 
L 439.517364 629.943488 
L 479.632432 635.469145 
" clip-path="url(#p7624b29578)" style="fill: none; stroke: #000000; stroke-width: 0.5; stroke-linecap: square"/>
   </g>
   <g id="line2d_25">
    <path d="M 479.632432 266.15257 
L 338.026747 329.494322 
L 337.177453 331.895775 
L 320.750187 385.491196 
L 310.616619 434.81999 
L 307.182715 464.263532 
L 306.475827 479.544365 
L 308.020735 521.956149 
L 309.612623 535.265278 
L 318.593133 560.116889 
L 340.469818 586.301598 
L 373.253604 605.123176 
L 386.637734 609.77032 
L 415.416958 619.231323 
L 458.247801 630.237117 
L 479.632432 635.469145 
" clip-path="url(#p7624b29578)" style="fill: none; stroke: #000000; stroke-width: 0.5; stroke-linecap: square"/>
   </g>
   <g id="line2d_26">
    <path d="M 479.632432 266.15257 
L 306.046142 301.808665 
L 291.603023 334.618959 
L 276.45598 395.751047 
L 272.489773 432.616827 
L 272.211474 450.797435 
L 278.343088 498.116313 
L 282.759709 512.490147 
L 298.554691 540.413234 
L 333.523874 574.859689 
L 373.521603 598.620499 
L 375.732293 599.699182 
L 421.474727 618.388176 
L 460.569551 630.613798 
L 479.632432 635.469145 
" clip-path="url(#p7624b29578)" style="fill: none; stroke: #000000; stroke-width: 0.5; stroke-linecap: square"/>
   </g>
   <g id="line2d_27">
    <path d="M 479.632432 266.15257 
L 292.947327 275.725468 
L 274.714978 300.220531 
L 253.109707 346.590128 
L 248.153979 380.545804 
L 248.496459 399.7202 
L 260.283171 458.758325 
L 266.807916 477.669938 
L 286.025394 513.124284 
L 324.575819 555.638784 
L 368.361182 587.759545 
L 370.805763 589.34276 
L 420.300776 615.981757 
L 460.492915 630.460132 
L 479.632432 635.469145 
" clip-path="url(#p7624b29578)" style="fill: none; stroke: #000000; stroke-width: 0.5; stroke-linecap: square"/>
   </g>
   <g id="line2d_28">
    <path d="M 479.632432 266.15257 
L 295.060149 245.043572 
L 293.75033 246.413246 
L 268.824718 280.046507 
L 254.168984 317.311037 
L 249.824712 343.323162 
L 249.173793 358.018205 
L 253.321771 404.38466 
L 256.463439 420.640959 
L 269.816208 454.727848 
L 303.541811 507.070035 
L 352.111719 560.522285 
L 369.910695 574.755911 
L 406.798699 601.487706 
L 457.820931 629.379973 
L 479.632432 635.469145 
" clip-path="url(#p7624b29578)" style="fill: none; stroke: #000000; stroke-width: 0.5; stroke-linecap: square"/>
   </g>
   <g id="line2d_29">
    <path d="M 479.632432 266.15257 
L 311.401222 220.779178 
L 302.077686 230.820525 
L 293.965911 240.92743 
L 278.287818 266.561569 
L 267.555911 295.017054 
L 263.14475 314.965897 
L 261.564947 326.027379 
L 260.064499 360.648586 
L 260.410305 372.804689 
L 269.752593 395.837056 
L 289.378345 434.75676 
L 318.938609 474.817338 
L 358.150789 520.690308 
L 387.990109 550.402258 
L 411.452367 572.890806 
L 479.632432 635.469145 
" clip-path="url(#p7624b29578)" style="fill: none; stroke: #000000; stroke-width: 0.5; stroke-linecap: square"/>
   </g>
   <g id="line2d_30">
    <path d="M 479.632432 266.15257 
L 350.28649 203.047746 
L 349.027985 204.372501 
L 325.366621 236.808914 
L 312.173374 272.528215 
L 309.067205 297.205813 
L 308.972875 311.228293 
L 315.284389 355.033896 
L 319.238311 370.31048 
L 331.695444 404.329177 
L 364.168092 456.305991 
L 407.303132 512.800167 
L 420.282689 530.765302 
L 444.934301 567.519841 
L 473.068407 615.463767 
L 479.632432 635.469145 
" clip-path="url(#p7624b29578)" style="fill: none; stroke: #000000; stroke-width: 0.5; stroke-linecap: square"/>
   </g>
   <g id="line2d_31">
    <path d="M 479.632432 266.15257 
L 406.488343 188.442681 
L 394.401572 207.857142 
L 376.071517 250.668246 
L 372.790924 282.259781 
L 374.098881 299.984171 
L 388.301252 354.626901 
L 394.12418 373.235418 
L 405.769261 413.153381 
L 422.618061 471.675634 
L 441.053377 524.029221 
L 442.119368 526.743456 
L 461.843064 578.653043 
L 474.391549 617.760332 
L 479.632432 635.469145 
" clip-path="url(#p7624b29578)" style="fill: none; stroke: #000000; stroke-width: 0.5; stroke-linecap: square"/>
   </g>
   <g id="line2d_32">
    <path d="M 479.632432 266.15257 
L 459.852969 181.978421 
L 463.813072 199.391154 
L 473.001688 238.663218 
L 474.080818 269.568128 
L 472.803296 287.534493 
L 463.095594 344.996899 
L 459.988918 364.695871 
L 457.011753 406.410931 
L 458.509426 466.85162 
L 461.317357 521.253867 
L 461.442634 524.094368 
L 466.343152 578.024653 
L 474.680004 617.719502 
L 479.632432 635.469145 
" clip-path="url(#p7624b29578)" style="fill: none; stroke: #000000; stroke-width: 0.5; stroke-linecap: square"/>
   </g>
   <g id="line2d_33">
    <path d="M 479.632432 266.15257 
L 523.749085 181.97283 
L 524.449134 183.050095 
L 537.431498 210.742048 
L 544.25659 243.63431 
L 545.394421 267.517783 
L 545.157361 281.405003 
L 540.390641 326.144528 
L 537.685395 342.116031 
L 530.965848 378.280818 
L 512.827944 436.485465 
L 490.664315 501.444475 
L 485.728772 521.789958 
L 478.123449 562.906191 
L 474.67695 615.236271 
L 479.632432 635.469145 
" clip-path="url(#p7624b29578)" style="fill: none; stroke: #000000; stroke-width: 0.5; stroke-linecap: square"/>
   </g>
   <g id="line2d_34">
    <path d="M 479.632432 266.15257 
L 575.572804 188.524446 
L 580.821321 196.671731 
L 585.381918 205.103289 
L 594.181238 227.382195 
L 600.192985 253.344121 
L 602.661297 272.126886 
L 603.544908 282.705956 
L 604.383948 316.483214 
L 604.190592 328.514742 
L 598.96322 353.055453 
L 587.958759 395.382919 
L 571.324562 441.021321 
L 549.148322 494.661508 
L 532.18766 530.524962 
L 518.79966 557.964793 
L 479.632433 635.469145 
" clip-path="url(#p7624b29578)" style="fill: none; stroke: #000000; stroke-width: 0.5; stroke-linecap: square"/>
   </g>
   <g id="line2d_35">
    <path d="M 479.632432 266.15257 
L 614.852362 205.66822 
L 615.601416 206.766398 
L 629.983654 235.047524 
L 638.804258 268.757566 
L 641.851951 293.375721 
L 642.510241 307.638622 
L 641.425113 353.834913 
L 640.154029 370.370662 
L 632.36736 406.62681 
L 613.181289 465.174763 
L 583.316938 528.595692 
L 570.694322 546.874579 
L 543.067996 582.363136 
L 500.968048 623.254035 
L 479.632432 635.469145 
" clip-path="url(#p7624b29578)" style="fill: none; stroke: #000000; stroke-width: 0.5; stroke-linecap: square"/>
   </g>
   <g id="line2d_36">
    <path d="M 479.632432 266.15257 
L 648.723554 231.418799 
L 661.987106 251.593697 
L 675.364859 292.719549 
L 678.94501 324.923531 
L 679.30657 343.713241 
L 674.405226 403.762277 
L 670.535873 423.685309 
L 655.96969 463.006536 
L 622.796511 514.578181 
L 584.301171 557.645367 
L 582.159791 559.849243 
L 537.427295 599.454436 
L 498.660434 625.03859 
L 479.632432 635.469145 
" clip-path="url(#p7624b29578)" style="fill: none; stroke: #000000; stroke-width: 0.5; stroke-linecap: square"/>
   </g>
   <g id="line2d_37">
    <path d="M 479.632432 266.15257 
L 664.994498 256.646483 
L 683.38399 284.764172 
L 705.612056 339.965751 
L 710.645746 374.925569 
L 710.197245 392.761325 
L 697.67411 441.619063 
L 690.95243 457.21106 
L 671.669288 489.365558 
L 633.522018 533.269983 
L 590.182517 568.289281 
L 587.75888 570.003074 
L 538.687285 601.834684 
L 498.738855 625.19171 
L 479.632432 635.469145 
" clip-path="url(#p7624b29578)" style="fill: none; stroke: #000000; stroke-width: 0.5; stroke-linecap: square"/>
   </g>
   <g id="line2d_38">
    <path d="M 479.632432 266.15257 
L 667.156054 287.600121 
L 668.535055 289.682713 
L 694.887767 336.935684 
L 710.434697 382.042912 
L 714.982976 409.885533 
L 715.629927 424.69822 
L 710.978422 467.145623 
L 707.540782 480.8897 
L 693.374704 508.451547 
L 657.834357 542.121815 
L 607.65501 572.238031 
L 589.591856 581.23552 
L 552.427411 599.881926 
L 501.406177 624.107733 
L 479.632432 635.469145 
" clip-path="url(#p7624b29578)" style="fill: none; stroke: #000000; stroke-width: 0.5; stroke-linecap: square"/>
   </g>
   <g id="line2d_39">
    <path d="M 478.511371 634.519462 
L 479.105546 633.990123 
L 479.132571 633.973507 
L 479.147253 633.966497 
L 479.158097 633.962624 
L 479.167375 633.960185 
L 479.176177 633.958596 
L 479.185296 633.957635 
L 479.195626 633.957283 
L 479.208662 633.957757 
L 479.227974 633.959928 
L 479.267014 633.96714 
L 480.279624 634.267743 
L 481.276189 634.583362 
L 481.307482 634.597722 
L 481.320685 634.605524 
L 481.327981 634.611287 
L 481.332576 634.616217 
L 481.335571 634.620894 
L 481.337384 634.62574 
L 481.338049 634.63123 
L 481.337161 634.638158 
L 481.333078 634.648421 
L 481.319509 634.66917 
L 480.753746 635.207384 
L 480.159621 635.737146 
L 480.132586 635.753781 
L 480.117897 635.760799 
L 480.107048 635.764677 
L 480.097765 635.767118 
L 480.088959 635.76871 
L 480.079835 635.769672 
L 480.069499 635.770024 
L 480.056455 635.76955 
L 480.037131 635.767376 
L 479.998066 635.760155 
L 478.984988 635.459258 
L 477.988374 635.143458 
L 477.957091 635.129093 
L 477.943894 635.121288 
L 477.936604 635.115524 
L 477.932014 635.110592 
L 477.929023 635.105913 
L 477.927216 635.101065 
L 477.926556 635.095574 
L 477.927452 635.088644 
L 477.931547 635.078378 
L 477.945141 635.057624 
L 478.511371 634.519462 
" clip-path="url(#p7624b29578)" style="fill: none; stroke: #ff0000; stroke-width: 0.5; stroke-linecap: square"/>
   </g>
   <g id="line2d_40">
    <path d="M 436.169363 596.33127 
L 449.749427 586.139874 
L 453.994805 583.132085 
L 456.453468 581.784696 
L 460.009044 580.625031 
L 462.598818 579.916675 
L 464.426806 579.650621 
L 466.264621 579.40455 
L 469.181738 579.343427 
L 473.361776 579.421754 
L 476.767604 579.948513 
L 483.289372 581.447312 
L 504.645829 586.724311 
L 524.178867 593.767365 
L 529.988733 595.986597 
L 532.603087 597.276986 
L 534.870805 599.149814 
L 536.262394 600.516715 
L 536.794137 601.483305 
L 537.287815 602.455939 
L 537.435468 604.002003 
L 537.326442 606.220468 
L 536.341849 608.030599 
L 533.505756 611.500748 
L 523.478713 622.894086 
L 509.985174 633.336951 
L 505.725751 636.446322 
L 503.244789 637.8433 
L 499.638353 639.047677 
L 497.006387 639.784271 
L 495.144657 640.061113 
L 493.272049 640.317249 
L 490.296058 640.380886 
L 486.030515 640.299339 
L 482.554439 639.751149 
L 475.906271 638.193498 
L 454.23581 632.734232 
L 434.616278 625.50787 
L 428.820467 623.244945 
L 426.228416 621.932227 
L 424.011559 620.031002 
L 422.662161 618.646364 
L 422.164158 617.668751 
L 421.70527 616.686291 
L 421.616487 615.127218 
L 421.81101 612.895663 
L 422.865843 611.079706 
L 425.828326 607.610522 
L 436.169363 596.33127 
" clip-path="url(#p7624b29578)" style="fill: none; stroke: #ff0000; stroke-width: 0.5; stroke-linecap: square"/>
   </g>
   <g id="line2d_41">
    <path d="M 397.109385 559.197634 
L 409.834974 549.251077 
L 423.276299 542.167419 
L 431.555473 538.465003 
L 438.357015 535.832791 
L 446.679386 533.679652 
L 453.172782 532.494663 
L 459.942317 531.856722 
L 469.212857 531.590345 
L 477.611272 532.129038 
L 488.293453 533.215155 
L 506.616593 535.901583 
L 526.989492 541.233275 
L 546.276648 547.642129 
L 560.204587 554.522748 
L 567.556092 558.798899 
L 572.821728 562.332134 
L 577.192689 566.681718 
L 579.640179 570.091012 
L 581.019513 573.658633 
L 581.712862 578.561817 
L 580.797352 583.018692 
L 578.834066 588.703726 
L 573.816343 598.49175 
L 563.548001 609.408498 
L 551.08943 619.763382 
L 537.608773 627.223957 
L 529.217465 631.152292 
L 522.279746 633.957303 
L 513.731325 636.259365 
L 507.034537 637.529234 
L 500.032865 638.21373 
L 490.429878 638.499726 
L 481.726112 637.921468 
L 470.667378 636.756886 
L 451.752704 633.883865 
L 430.882657 628.213219 
L 411.328656 621.451603 
L 397.440236 614.257852 
L 390.20095 609.820915 
L 385.071533 606.174192 
L 380.926626 601.708764 
L 378.6825 598.226942 
L 377.53525 594.600488 
L 377.174251 589.64469 
L 378.395017 585.168117 
L 380.734743 579.49644 
L 386.343872 569.83117 
L 397.109385 559.197634 
" clip-path="url(#p7624b29578)" style="fill: none; stroke: #ff0000; stroke-width: 0.5; stroke-linecap: square"/>
   </g>
   <g id="line2d_42">
    <path d="M 360.148353 522.739919 
L 375.778745 512.632737 
L 392.555702 503.942374 
L 408.078235 498.295446 
L 420.314975 494.5557 
L 431.952095 492.097083 
L 444.398845 490.356263 
L 456.884613 488.720841 
L 469.332669 487.915946 
L 483.502197 488.071493 
L 502.292634 489.049123 
L 525.008814 492.335123 
L 548.015214 497.11752 
L 567.890164 504.818918 
L 585.235593 513.223502 
L 596.710799 521.118221 
L 604.41214 527.40112 
L 609.586444 533.425599 
L 613.367822 539.913569 
L 616.958927 546.458938 
L 618.889783 553.022389 
L 618.926781 560.532699 
L 617.408288 570.546561 
L 611.273369 582.716076 
L 602.057993 595.095705 
L 586.78887 605.781047 
L 570.02328 615.089053 
L 554.203844 621.198078 
L 541.613525 625.27053 
L 529.540041 627.959556 
L 516.557106 629.86915 
L 503.499567 631.667401 
L 490.445139 632.553959 
L 475.570394 632.382552 
L 455.862731 631.306101 
L 432.144358 627.698802 
L 408.3073 622.478493 
L 388.071646 614.145095 
L 370.71552 605.152368 
L 359.53765 596.800135 
L 352.190077 590.21784 
L 347.452149 583.959397 
L 344.206819 577.276876 
L 341.187249 570.59479 
L 339.862441 563.953513 
L 340.530245 556.425955 
L 342.965461 546.506392 
L 350.102235 534.628379 
L 360.148353 522.739919 
" clip-path="url(#p7624b29578)" style="fill: none; stroke: #ff0000; stroke-width: 0.5; stroke-linecap: square"/>
   </g>
   <g id="line2d_43">
    <path d="M 329.736445 488.261773 
L 345.643821 478.618289 
L 363.970549 470.182351 
L 384.792297 462.448696 
L 403.318958 457.675819 
L 420.67201 454.343756 
L 437.501211 451.955568 
L 454.440447 449.832722 
L 472.695434 448.404733 
L 493.295062 447.937411 
L 518.643635 449.460668 
L 542.431754 452.199868 
L 565.230536 456.565191 
L 584.428957 464.236574 
L 601.507263 473.243838 
L 617.443783 483.641757 
L 627.527465 493.032965 
L 634.747219 501.925286 
L 640.084564 510.627604 
L 644.921575 519.455461 
L 648.40288 529.044718 
L 649.994544 539.949819 
L 647.609046 553.469886 
L 642.624694 566.241891 
L 634.187024 578.534872 
L 618.723186 588.85669 
L 600.415917 598.001635 
L 579.217595 606.481805 
L 560.037291 611.762168 
L 541.902148 615.469919 
L 524.20461 618.138281 
L 506.32462 620.517859 
L 486.990084 622.122634 
L 465.136441 622.648527 
L 438.28703 620.935656 
L 413.206351 617.8649 
L 389.373542 612.996055 
L 369.732664 604.513057 
L 352.636235 594.670238 
L 337.077523 583.462439 
L 327.648044 573.479371 
L 321.210451 564.146339 
L 316.74114 555.123367 
L 312.844312 546.080036 
L 310.441695 536.379719 
L 310.102958 525.500892 
L 313.988163 512.233711 
L 320.264533 499.919105 
L 329.736445 488.261773 
" clip-path="url(#p7624b29578)" style="fill: none; stroke: #ff0000; stroke-width: 0.5; stroke-linecap: square"/>
   </g>
   <g id="line2d_44">
    <path d="M 303.790431 455.100054 
L 320.782034 445.613753 
L 339.959003 436.98389 
L 362.690514 429.68944 
L 389.775644 423.532831 
L 411.778644 419.422151 
L 432.077374 416.434321 
L 452.642655 414.031875 
L 475.699714 412.193965 
L 505.018622 410.890226 
L 531.572609 411.636741 
L 556.276943 414.395408 
L 579.857695 418.410813 
L 598.985641 426.45803 
L 616.681309 435.71071 
L 631.987086 446.890844 
L 645.291415 460.444013 
L 654.398765 471.603743 
L 661.218828 482.012164 
L 666.891106 492.659815 
L 671.517697 504.713386 
L 675.284294 520.203546 
L 674.646069 534.368894 
L 669.657607 547.633766 
L 661.920039 560.35604 
L 645.421081 570.619597 
L 626.310386 580.078079 
L 603.085936 588.164881 
L 574.916359 595.056853 
L 551.799658 599.692906 
L 530.320753 603.080044 
L 508.450977 605.81429 
L 483.837269 607.912521 
L 452.463776 609.404345 
L 424.075693 608.549785 
L 397.816389 605.399934 
L 372.957385 600.837753 
L 353.338602 591.774599 
L 335.578873 581.483445 
L 320.768123 569.229776 
L 308.549568 554.634813 
L 300.556117 542.825474 
L 294.915733 531.976514 
L 290.546912 521.039646 
L 287.475354 508.851243 
L 285.761025 493.480302 
L 288.231581 479.703897 
L 294.774264 467.038773 
L 303.790431 455.100054 
" clip-path="url(#p7624b29578)" style="fill: none; stroke: #ff0000; stroke-width: 0.5; stroke-linecap: square"/>
   </g>
   <g id="line2d_45">
    <path d="M 283.340802 423.519823 
L 301.414095 414.525356 
L 321.230612 406.601782 
L 347.271148 399.231746 
L 376.460137 392.773419 
L 404.009547 387.781332 
L 428.390242 384.213317 
L 453.101324 381.380316 
L 481.835687 379.026783 
L 513.264541 377.556879 
L 542.727248 377.638758 
L 567.303356 379.691914 
L 591.34744 383.074318 
L 609.723225 391.513074 
L 626.200172 400.940181 
L 641.925565 413.577515 
L 656.088734 427.991478 
L 667.346994 441.808071 
L 675.649765 454.197555 
L 682.50356 466.901544 
L 688.563462 481.848518 
L 692.906546 498.397853 
L 693.877717 514.082869 
L 690.398855 527.261805 
L 683.990417 540.221874 
L 666.381667 550.034194 
L 646.573466 558.784645 
L 619.881164 567.014848 
L 589.471697 574.300232 
L 560.438528 579.979177 
L 534.531269 584.063809 
L 508.116485 587.32239 
L 477.262864 590.039902 
L 443.422063 591.741952 
L 411.70486 591.647044 
L 385.390151 589.270945 
L 359.844523 585.372268 
L 341.006794 575.730052 
L 324.524518 565.099128 
L 309.454019 551.075662 
L 296.513405 535.390679 
L 286.739393 520.656843 
L 279.962483 507.688334 
L 274.810776 494.623196 
L 270.867497 479.54451 
L 268.933161 463.207971 
L 270.213956 448.061426 
L 275.430435 435.58062 
L 283.340802 423.519823 
" clip-path="url(#p7624b29578)" style="fill: none; stroke: #ff0000; stroke-width: 0.5; stroke-linecap: square"/>
   </g>
   <g id="line2d_46">
    <path d="M 268.745282 393.580645 
L 286.970143 384.996264 
L 310.734908 377.43729 
L 335.902135 370.450832 
L 364.128093 364.049423 
L 395.925034 358.170858 
L 425.706038 353.834872 
L 455.899951 350.436287 
L 489.193954 347.91018 
L 519.751467 346.702309 
L 548.117936 346.73256 
L 575.71919 347.587613 
L 599.52719 350.63134 
L 617.270829 359.024278 
L 633.281059 370.230177 
L 648.366653 382.289331 
L 662.537729 396.041574 
L 675.937556 411.793923 
L 686.188058 426.781663 
L 694.586176 442.193409 
L 701.336138 459.424902 
L 705.197105 475.443676 
L 706.303184 490.471953 
L 705.575653 505.229762 
L 699.85864 518.018666 
L 682.091103 527.439027 
L 658.1056 535.832701 
L 632.296691 543.67414 
L 602.900167 550.930448 
L 569.358216 557.655194 
L 537.623791 562.653274 
L 505.219012 566.593573 
L 469.304322 569.535383 
L 436.257454 570.945981 
L 405.590532 570.910621 
L 375.81678 569.911839 
L 350.389841 566.366886 
L 332.192088 556.675268 
L 316.406691 543.923119 
L 301.966429 530.434175 
L 288.968602 515.339744 
L 277.314803 498.416273 
L 269.01682 482.665865 
L 262.827177 466.815833 
L 258.694179 449.495922 
L 257.318924 433.762542 
L 258.510485 419.313458 
L 261.408886 405.408792 
L 268.745282 393.580645 
" clip-path="url(#p7624b29578)" style="fill: none; stroke: #ff0000; stroke-width: 0.5; stroke-linecap: square"/>
   </g>
   <g id="line2d_47">
    <path d="M 260.16468 365.281437 
L 282.191171 357.640435 
L 304.425901 350.401748 
L 328.188069 343.503328 
L 355.44364 336.780917 
L 387.75939 330.448043 
L 423.903437 325.022793 
L 460.745581 321.133077 
L 494.960085 318.960639 
L 525.031634 318.33116 
L 552.150276 318.678735 
L 578.186414 319.675867 
L 604.327933 321.062249 
L 620.411871 331.177804 
L 635.878908 341.536801 
L 650.881096 352.777162 
L 665.826074 365.880004 
L 680.338961 381.688744 
L 693.280666 399.68965 
L 703.134042 418.358885 
L 709.273993 435.963964 
L 711.921236 451.631205 
L 712.307933 465.901752 
L 711.207532 479.7207 
L 709.232938 493.709806 
L 687.357042 502.119932 
L 664.956637 510.175417 
L 640.648378 517.933372 
L 612.337104 525.570756 
L 578.274753 532.836496 
L 539.713661 539.116393 
L 500.054495 543.650748 
L 463.031459 546.194914 
L 430.438178 546.933677 
L 401.073413 546.525671 
L 372.949336 545.356373 
L 344.793845 543.733563 
L 328.56348 531.995698 
L 313.266295 520.159604 
L 298.814098 507.522422 
L 284.928021 493.054981 
L 272.163315 475.966629 
L 261.637672 456.980647 
L 254.597936 437.800951 
L 251.262178 420.173259 
L 251.132829 404.846909 
L 252.989488 391.173105 
L 256.17628 378.184367 
L 260.16468 365.281437 
" clip-path="url(#p7624b29578)" style="fill: none; stroke: #ff0000; stroke-width: 0.5; stroke-linecap: square"/>
   </g>
   <g id="line2d_48">
    <path d="M 260.329438 339.34684 
L 280.679341 331.392617 
L 300.930983 324.209598 
L 323.512967 317.182244 
L 349.33133 310.514364 
L 382.097986 303.755993 
L 422.892407 297.565949 
L 464.586388 293.333338 
L 499.650903 291.502784 
L 528.476567 291.227287 
L 554.768511 292.016679 
L 579.126848 293.478368 
L 604.23581 295.57229 
L 621.07382 304.793984 
L 636.5138 314.109966 
L 651.88441 324.658698 
L 666.797453 336.918681 
L 682.362118 352.754915 
L 697.264189 372.863209 
L 708.187176 393.821975 
L 713.69583 411.738828 
L 715.543089 426.646761 
L 714.915944 440.369562 
L 712.68937 453.180457 
L 709.052622 466.477897 
L 689.000441 475.234678 
L 668.703036 483.232331 
L 645.687025 491.140603 
L 618.926808 498.722313 
L 584.436045 506.485601 
L 540.89044 513.666607 
L 495.929389 518.616159 
L 457.91909 520.766774 
L 426.64165 521.090965 
L 398.167156 520.162416 
L 371.878165 518.44603 
L 344.901559 515.993956 
L 327.769747 505.288072 
L 312.379534 494.624431 
L 297.446973 482.729771 
L 283.479204 469.140062 
L 269.640714 451.94881 
L 257.488843 430.688404 
L 249.828759 409.178228 
L 247.261134 391.293702 
L 247.861873 376.753276 
L 250.668951 363.633447 
L 254.824905 351.60795 
L 260.329438 339.34684 
" clip-path="url(#p7624b29578)" style="fill: none; stroke: #ff0000; stroke-width: 0.5; stroke-linecap: square"/>
   </g>
   <g id="line2d_49">
    <path d="M 263.302744 314.039248 
L 281.554069 305.977473 
L 301.156347 298.559605 
L 321.998838 291.841924 
L 347.668434 284.920692 
L 379.942768 278.09125 
L 422.735988 271.536563 
L 466.591306 267.247333 
L 501.358274 265.666782 
L 530.369925 265.701908 
L 554.930026 266.675677 
L 579.044985 268.532792 
L 602.572916 271.245535 
L 619.735418 279.408487 
L 635.786354 288.32389 
L 650.582835 297.954688 
L 666.15354 310.008989 
L 681.982085 325.440634 
L 697.880841 346.322955 
L 709.114604 368.170558 
L 714.099364 385.780876 
L 715.264556 400.650337 
L 714.127868 413.348044 
L 710.960536 425.90091 
L 705.800684 438.217297 
L 687.977586 447.082579 
L 668.414732 455.335482 
L 647.22197 462.889859 
L 620.674786 470.754441 
L 586.740377 478.596875 
L 541.072801 486.201752 
L 493.761958 491.220096 
L 456.064455 493.077759 
L 424.594406 493.036425 
L 398.014356 491.891451 
L 372.030395 489.712621 
L 346.843644 486.541197 
L 329.25636 477.077843 
L 313.169888 466.877003 
L 298.727449 456.012588 
L 284.037893 442.635821 
L 269.87165 425.86081 
L 256.846319 403.763591 
L 249.063603 381.356139 
L 247.004618 363.801219 
L 248.294097 349.317223 
L 251.448399 337.186428 
L 256.483647 325.403319 
L 263.302744 314.039248 
" clip-path="url(#p7624b29578)" style="fill: none; stroke: #ff0000; stroke-width: 0.5; stroke-linecap: square"/>
   </g>
   <g id="line2d_50">
    <path d="M 269.228088 289.374258 
L 285.852079 281.274119 
L 304.340493 274.088028 
L 325.553949 267.004775 
L 350.309751 260.235519 
L 382.315162 253.394608 
L 423.530407 247.061552 
L 465.855536 243.034357 
L 500.478655 241.592336 
L 528.629744 241.75853 
L 553.955029 243.004753 
L 576.97089 244.956772 
L 599.256888 248.110951 
L 616.612947 255.461388 
L 632.277985 263.791706 
L 647.985427 273.500971 
L 663.326411 285.021032 
L 679.290837 300.183288 
L 694.74997 320.103896 
L 705.392912 340.974789 
L 710.064017 358.326657 
L 710.872519 372.598307 
L 709.109569 385.546088 
L 705.623391 397.391681 
L 699.332178 408.911095 
L 683.219633 417.797131 
L 664.807067 425.772541 
L 643.283615 433.720022 
L 617.708041 441.39647 
L 584.088421 449.236174 
L 540.147457 456.568493 
L 494.539877 461.26894 
L 457.05005 462.959248 
L 426.561335 462.764244 
L 399.208974 461.303603 
L 374.464553 459.021451 
L 350.70388 455.348509 
L 332.839311 446.858869 
L 317.10189 437.353712 
L 301.708116 426.427952 
L 287.190173 413.67312 
L 272.842049 397.22137 
L 260.107762 376.166487 
L 252.743154 354.761518 
L 250.934258 337.454072 
L 252.459963 323.538936 
L 256.247778 311.156621 
L 261.461616 300.024541 
L 269.228088 289.374258 
" clip-path="url(#p7624b29578)" style="fill: none; stroke: #ff0000; stroke-width: 0.5; stroke-linecap: square"/>
   </g>
   <g id="line2d_51">
    <path d="M 278.80046 265.517381 
L 293.847253 257.660329 
L 312.215268 250.314322 
L 333.116717 243.28225 
L 358.123172 236.416895 
L 388.898543 229.862098 
L 425.373066 224.262585 
L 462.892285 220.763873 
L 496.255202 219.414509 
L 524.815041 219.652851 
L 549.915407 220.965543 
L 573.087228 223.117037 
L 593.893834 226.451519 
L 610.847001 233.044602 
L 626.97507 241.255907 
L 642.686487 250.751738 
L 658.359793 262.302478 
L 673.765292 276.770609 
L 687.497248 294.238134 
L 696.772954 312.530044 
L 701.147083 329.040289 
L 701.756826 343.33481 
L 699.770599 356.004198 
L 695.764103 367.775498 
L 688.916268 378.383008 
L 674.40147 386.966644 
L 656.138475 395.085967 
L 634.943657 402.944863 
L 609.124615 410.70047 
L 576.823438 418.183026 
L 538.009033 424.636164 
L 497.692506 428.697158 
L 461.679896 430.269373 
L 430.84454 429.991425 
L 403.819844 428.46247 
L 378.995601 425.963352 
L 356.91198 422.106783 
L 339.429153 414.540509 
L 323.199123 405.225375 
L 307.784273 394.599933 
L 292.926421 381.882765 
L 279.048357 366.266504 
L 267.655489 347.861479 
L 261.173871 329.094477 
L 259.445594 312.583583 
L 261.108256 298.605045 
L 265.016849 286.453688 
L 270.675008 275.358625 
L 278.80046 265.517381 
" clip-path="url(#p7624b29578)" style="fill: none; stroke: #ff0000; stroke-width: 0.5; stroke-linecap: square"/>
   </g>
   <g id="line2d_52">
    <path d="M 292.717532 242.626926 
L 306.818299 234.842551 
L 324.776009 227.531396 
L 345.527551 220.579983 
L 370.25619 213.847845 
L 399.581511 207.648714 
L 428.392768 203.309093 
L 458.000741 200.522283 
L 489.849178 199.244407 
L 518.143724 199.472193 
L 543.14174 200.784622 
L 566.039316 203.030237 
L 586.083304 206.542118 
L 603.002795 212.681263 
L 619.171527 220.66407 
L 634.81957 230.040378 
L 650.299103 241.396861 
L 664.957245 255.0938 
L 675.639858 268.769392 
L 682.981644 283.024543 
L 687.06244 298.559544 
L 687.606975 312.514784 
L 685.53686 324.948504 
L 681.2197 336.408901 
L 673.847114 346.471876 
L 660.273983 354.926617 
L 642.421063 362.960384 
L 621.370976 370.683833 
L 595.844975 378.243913 
L 565.10222 385.27637 
L 534.528369 390.240373 
L 502.858861 393.44615 
L 468.651366 394.92088 
L 438.247565 394.657785 
L 411.455249 393.143767 
L 387.039458 390.560516 
L 365.876417 386.538955 
L 348.43108 379.562087 
L 332.160016 370.589907 
L 316.813083 360.19317 
L 302.133109 347.801149 
L 288.89344 333.139682 
L 279.972763 318.802299 
L 274.690475 304.167795 
L 272.965754 288.56873 
L 274.527887 274.856715 
L 278.390626 262.872249 
L 284.225365 252.01476 
L 292.717532 242.626926 
" clip-path="url(#p7624b29578)" style="fill: none; stroke: #ff0000; stroke-width: 0.5; stroke-linecap: square"/>
   </g>
   <g id="line2d_53">
    <path d="M 311.401214 220.778739 
L 325.12643 212.872614 
L 342.40515 205.809295 
L 362.992174 199.004418 
L 387.344339 192.495178 
L 411.036344 187.619741 
L 432.741292 184.400674 
L 455.034178 182.290673 
L 480.715135 181.177298 
L 508.57945 181.333115 
L 533.408106 182.587328 
L 555.592574 184.799763 
L 575.572808 188.52401 
L 592.886955 194.479496 
L 608.62379 202.136181 
L 624.052961 211.40532 
L 639.12128 222.543319 
L 650.706428 233.542549 
L 658.625845 243.747362 
L 664.126653 254.342803 
L 667.519772 266.675007 
L 668.108617 280.189878 
L 666.067953 292.334872 
L 661.70859 303.253542 
L 653.754029 313.115102 
L 640.529864 321.636552 
L 623.324385 329.338571 
L 602.419828 336.839544 
L 577.283143 344.089999 
L 552.494699 349.569571 
L 529.567159 353.210777 
L 505.871254 355.607592 
L 478.476496 356.875554 
L 448.731277 356.697967 
L 422.283749 355.270126 
L 398.767532 352.758342 
L 377.798188 348.550057 
L 359.984286 341.871846 
L 344.175964 333.377493 
L 329.066151 323.229567 
L 314.783779 311.227361 
L 304.295494 299.575192 
L 297.598225 288.938406 
L 293.499321 278.067246 
L 291.818249 265.630338 
L 293.108355 252.260652 
L 296.766561 240.471577 
L 302.457148 230.050231 
L 311.401214 220.778739 
" clip-path="url(#p7624b29578)" style="fill: none; stroke: #ff0000; stroke-width: 0.5; stroke-linecap: square"/>
   </g>
  </g>
 </g>
 <defs>
  <clipPath id="p7624b29578">
   <rect x="7.2" y="7.2" width="920" height="920"/>
  </clipPath>
 </defs>
</svg>
