<?xml version="1.0" encoding="utf-8" standalone="no"?>
<!DOCTYPE svg PUBLIC "-//W3C//DTD SVG 1.1//EN"
  "http://www.w3.org/Graphics/SVG/1.1/DTD/svg11.dtd">
<svg xmlns:xlink="http://www.w3.org/1999/xlink" width="453.176562pt" height="338.374375pt" viewBox="0 0 453.176562 338.374375" xmlns="http://www.w3.org/2000/svg" version="1.1">
 <metadata>
  <rdf:RDF xmlns:dc="http://purl.org/dc/elements/1.1/" xmlns:cc="http://creativecommons.org/ns#" xmlns:rdf="http://www.w3.org/1999/02/22-rdf-syntax-ns#">
   <cc:Work>
    <dc:type rdf:resource="http://purl.org/dc/dcmitype/StillImage"/>
    <dc:date>2022-07-13T10:21:03.787803</dc:date>
    <dc:format>image/svg+xml</dc:format>
    <dc:creator>
     <cc:Agent>
      <dc:title>Matplotlib v3.5.2, https://matplotlib.org/</dc:title>
     </cc:Agent>
    </dc:creator>
   </cc:Work>
  </rdf:RDF>
 </metadata>
 <defs>
  <style type="text/css">*{stroke-linejoin: round; stroke-linecap: butt}</style>
 </defs>
 <g id="figure_1">
  <g id="patch_1">
   <path d="M 0 338.374375 
L 453.176562 338.374375 
L 453.176562 0 
L 0 0 
z
" style="fill: #ffffff"/>
  </g>
  <g id="axes_1">
   <g id="patch_2">
    <path d="M 61.707813 300.818125 
L 361.626562 300.818125 
L 361.626562 22.318125 
L 61.707813 22.318125 
z
" style="fill: #ffffff"/>
   </g>
   <g id="matplotlib.axis_1">
    <g id="xtick_1">
     <g id="line2d_1">
      <path d="M 75.340483 300.818125 
L 75.340483 22.318125 
" clip-path="url(#p7331c15e2c)" style="fill: none; stroke: #b0b0b0; stroke-width: 0.8; stroke-linecap: square"/>
     </g>
     <g id="line2d_2">
      <defs>
       <path id="m5ab40215eb" d="M 0 0 
L 0 3.5 
" style="stroke: #000000; stroke-width: 0.8"/>
      </defs>
      <g>
       <use xlink:href="#m5ab40215eb" x="75.340483" y="300.818125" style="stroke: #000000; stroke-width: 0.8"/>
      </g>
     </g>
     <g id="text_1">
      <!-- 0 -->
      <g transform="translate(72.159233 315.416562)scale(0.1 -0.1)">
       <defs>
        <path id="DejaVuSans-30" d="M 2034 4250 
Q 1547 4250 1301 3770 
Q 1056 3291 1056 2328 
Q 1056 1369 1301 889 
Q 1547 409 2034 409 
Q 2525 409 2770 889 
Q 3016 1369 3016 2328 
Q 3016 3291 2770 3770 
Q 2525 4250 2034 4250 
z
M 2034 4750 
Q 2819 4750 3233 4129 
Q 3647 3509 3647 2328 
Q 3647 1150 3233 529 
Q 2819 -91 2034 -91 
Q 1250 -91 836 529 
Q 422 1150 422 2328 
Q 422 3509 836 4129 
Q 1250 4750 2034 4750 
z
" transform="scale(0.015625)"/>
       </defs>
       <use xlink:href="#DejaVuSans-30"/>
      </g>
     </g>
    </g>
    <g id="xtick_2">
     <g id="line2d_3">
      <path d="M 113.265175 300.818125 
L 113.265175 22.318125 
" clip-path="url(#p7331c15e2c)" style="fill: none; stroke: #b0b0b0; stroke-width: 0.8; stroke-linecap: square"/>
     </g>
     <g id="line2d_4">
      <g>
       <use xlink:href="#m5ab40215eb" x="113.265175" y="300.818125" style="stroke: #000000; stroke-width: 0.8"/>
      </g>
     </g>
     <g id="text_2">
      <!-- 200 -->
      <g transform="translate(103.721425 315.416562)scale(0.1 -0.1)">
       <defs>
        <path id="DejaVuSans-32" d="M 1228 531 
L 3431 531 
L 3431 0 
L 469 0 
L 469 531 
Q 828 903 1448 1529 
Q 2069 2156 2228 2338 
Q 2531 2678 2651 2914 
Q 2772 3150 2772 3378 
Q 2772 3750 2511 3984 
Q 2250 4219 1831 4219 
Q 1534 4219 1204 4116 
Q 875 4013 500 3803 
L 500 4441 
Q 881 4594 1212 4672 
Q 1544 4750 1819 4750 
Q 2544 4750 2975 4387 
Q 3406 4025 3406 3419 
Q 3406 3131 3298 2873 
Q 3191 2616 2906 2266 
Q 2828 2175 2409 1742 
Q 1991 1309 1228 531 
z
" transform="scale(0.015625)"/>
       </defs>
       <use xlink:href="#DejaVuSans-32"/>
       <use xlink:href="#DejaVuSans-30" x="63.623047"/>
       <use xlink:href="#DejaVuSans-30" x="127.246094"/>
      </g>
     </g>
    </g>
    <g id="xtick_3">
     <g id="line2d_5">
      <path d="M 151.189867 300.818125 
L 151.189867 22.318125 
" clip-path="url(#p7331c15e2c)" style="fill: none; stroke: #b0b0b0; stroke-width: 0.8; stroke-linecap: square"/>
     </g>
     <g id="line2d_6">
      <g>
       <use xlink:href="#m5ab40215eb" x="151.189867" y="300.818125" style="stroke: #000000; stroke-width: 0.8"/>
      </g>
     </g>
     <g id="text_3">
      <!-- 400 -->
      <g transform="translate(141.646117 315.416562)scale(0.1 -0.1)">
       <defs>
        <path id="DejaVuSans-34" d="M 2419 4116 
L 825 1625 
L 2419 1625 
L 2419 4116 
z
M 2253 4666 
L 3047 4666 
L 3047 1625 
L 3713 1625 
L 3713 1100 
L 3047 1100 
L 3047 0 
L 2419 0 
L 2419 1100 
L 313 1100 
L 313 1709 
L 2253 4666 
z
" transform="scale(0.015625)"/>
       </defs>
       <use xlink:href="#DejaVuSans-34"/>
       <use xlink:href="#DejaVuSans-30" x="63.623047"/>
       <use xlink:href="#DejaVuSans-30" x="127.246094"/>
      </g>
     </g>
    </g>
    <g id="xtick_4">
     <g id="line2d_7">
      <path d="M 189.114559 300.818125 
L 189.114559 22.318125 
" clip-path="url(#p7331c15e2c)" style="fill: none; stroke: #b0b0b0; stroke-width: 0.8; stroke-linecap: square"/>
     </g>
     <g id="line2d_8">
      <g>
       <use xlink:href="#m5ab40215eb" x="189.114559" y="300.818125" style="stroke: #000000; stroke-width: 0.8"/>
      </g>
     </g>
     <g id="text_4">
      <!-- 600 -->
      <g transform="translate(179.570809 315.416562)scale(0.1 -0.1)">
       <defs>
        <path id="DejaVuSans-36" d="M 2113 2584 
Q 1688 2584 1439 2293 
Q 1191 2003 1191 1497 
Q 1191 994 1439 701 
Q 1688 409 2113 409 
Q 2538 409 2786 701 
Q 3034 994 3034 1497 
Q 3034 2003 2786 2293 
Q 2538 2584 2113 2584 
z
M 3366 4563 
L 3366 3988 
Q 3128 4100 2886 4159 
Q 2644 4219 2406 4219 
Q 1781 4219 1451 3797 
Q 1122 3375 1075 2522 
Q 1259 2794 1537 2939 
Q 1816 3084 2150 3084 
Q 2853 3084 3261 2657 
Q 3669 2231 3669 1497 
Q 3669 778 3244 343 
Q 2819 -91 2113 -91 
Q 1303 -91 875 529 
Q 447 1150 447 2328 
Q 447 3434 972 4092 
Q 1497 4750 2381 4750 
Q 2619 4750 2861 4703 
Q 3103 4656 3366 4563 
z
" transform="scale(0.015625)"/>
       </defs>
       <use xlink:href="#DejaVuSans-36"/>
       <use xlink:href="#DejaVuSans-30" x="63.623047"/>
       <use xlink:href="#DejaVuSans-30" x="127.246094"/>
      </g>
     </g>
    </g>
    <g id="xtick_5">
     <g id="line2d_9">
      <path d="M 227.039251 300.818125 
L 227.039251 22.318125 
" clip-path="url(#p7331c15e2c)" style="fill: none; stroke: #b0b0b0; stroke-width: 0.8; stroke-linecap: square"/>
     </g>
     <g id="line2d_10">
      <g>
       <use xlink:href="#m5ab40215eb" x="227.039251" y="300.818125" style="stroke: #000000; stroke-width: 0.8"/>
      </g>
     </g>
     <g id="text_5">
      <!-- 800 -->
      <g transform="translate(217.495501 315.416562)scale(0.1 -0.1)">
       <defs>
        <path id="DejaVuSans-38" d="M 2034 2216 
Q 1584 2216 1326 1975 
Q 1069 1734 1069 1313 
Q 1069 891 1326 650 
Q 1584 409 2034 409 
Q 2484 409 2743 651 
Q 3003 894 3003 1313 
Q 3003 1734 2745 1975 
Q 2488 2216 2034 2216 
z
M 1403 2484 
Q 997 2584 770 2862 
Q 544 3141 544 3541 
Q 544 4100 942 4425 
Q 1341 4750 2034 4750 
Q 2731 4750 3128 4425 
Q 3525 4100 3525 3541 
Q 3525 3141 3298 2862 
Q 3072 2584 2669 2484 
Q 3125 2378 3379 2068 
Q 3634 1759 3634 1313 
Q 3634 634 3220 271 
Q 2806 -91 2034 -91 
Q 1263 -91 848 271 
Q 434 634 434 1313 
Q 434 1759 690 2068 
Q 947 2378 1403 2484 
z
M 1172 3481 
Q 1172 3119 1398 2916 
Q 1625 2713 2034 2713 
Q 2441 2713 2670 2916 
Q 2900 3119 2900 3481 
Q 2900 3844 2670 4047 
Q 2441 4250 2034 4250 
Q 1625 4250 1398 4047 
Q 1172 3844 1172 3481 
z
" transform="scale(0.015625)"/>
       </defs>
       <use xlink:href="#DejaVuSans-38"/>
       <use xlink:href="#DejaVuSans-30" x="63.623047"/>
       <use xlink:href="#DejaVuSans-30" x="127.246094"/>
      </g>
     </g>
    </g>
    <g id="xtick_6">
     <g id="line2d_11">
      <path d="M 264.963943 300.818125 
L 264.963943 22.318125 
" clip-path="url(#p7331c15e2c)" style="fill: none; stroke: #b0b0b0; stroke-width: 0.8; stroke-linecap: square"/>
     </g>
     <g id="line2d_12">
      <g>
       <use xlink:href="#m5ab40215eb" x="264.963943" y="300.818125" style="stroke: #000000; stroke-width: 0.8"/>
      </g>
     </g>
     <g id="text_6">
      <!-- 1000 -->
      <g transform="translate(252.238943 315.416562)scale(0.1 -0.1)">
       <defs>
        <path id="DejaVuSans-31" d="M 794 531 
L 1825 531 
L 1825 4091 
L 703 3866 
L 703 4441 
L 1819 4666 
L 2450 4666 
L 2450 531 
L 3481 531 
L 3481 0 
L 794 0 
L 794 531 
z
" transform="scale(0.015625)"/>
       </defs>
       <use xlink:href="#DejaVuSans-31"/>
       <use xlink:href="#DejaVuSans-30" x="63.623047"/>
       <use xlink:href="#DejaVuSans-30" x="127.246094"/>
       <use xlink:href="#DejaVuSans-30" x="190.869141"/>
      </g>
     </g>
    </g>
    <g id="xtick_7">
     <g id="line2d_13">
      <path d="M 302.888635 300.818125 
L 302.888635 22.318125 
" clip-path="url(#p7331c15e2c)" style="fill: none; stroke: #b0b0b0; stroke-width: 0.8; stroke-linecap: square"/>
     </g>
     <g id="line2d_14">
      <g>
       <use xlink:href="#m5ab40215eb" x="302.888635" y="300.818125" style="stroke: #000000; stroke-width: 0.8"/>
      </g>
     </g>
     <g id="text_7">
      <!-- 1200 -->
      <g transform="translate(290.163635 315.416562)scale(0.1 -0.1)">
       <use xlink:href="#DejaVuSans-31"/>
       <use xlink:href="#DejaVuSans-32" x="63.623047"/>
       <use xlink:href="#DejaVuSans-30" x="127.246094"/>
       <use xlink:href="#DejaVuSans-30" x="190.869141"/>
      </g>
     </g>
    </g>
    <g id="xtick_8">
     <g id="line2d_15">
      <path d="M 340.813327 300.818125 
L 340.813327 22.318125 
" clip-path="url(#p7331c15e2c)" style="fill: none; stroke: #b0b0b0; stroke-width: 0.8; stroke-linecap: square"/>
     </g>
     <g id="line2d_16">
      <g>
       <use xlink:href="#m5ab40215eb" x="340.813327" y="300.818125" style="stroke: #000000; stroke-width: 0.8"/>
      </g>
     </g>
     <g id="text_8">
      <!-- 1400 -->
      <g transform="translate(328.088327 315.416562)scale(0.1 -0.1)">
       <use xlink:href="#DejaVuSans-31"/>
       <use xlink:href="#DejaVuSans-34" x="63.623047"/>
       <use xlink:href="#DejaVuSans-30" x="127.246094"/>
       <use xlink:href="#DejaVuSans-30" x="190.869141"/>
      </g>
     </g>
    </g>
    <g id="text_9">
     <!-- Bending Moment -->
     <g transform="translate(169.046875 329.094687)scale(0.1 -0.1)">
      <defs>
       <path id="DejaVuSans-42" d="M 1259 2228 
L 1259 519 
L 2272 519 
Q 2781 519 3026 730 
Q 3272 941 3272 1375 
Q 3272 1813 3026 2020 
Q 2781 2228 2272 2228 
L 1259 2228 
z
M 1259 4147 
L 1259 2741 
L 2194 2741 
Q 2656 2741 2882 2914 
Q 3109 3088 3109 3444 
Q 3109 3797 2882 3972 
Q 2656 4147 2194 4147 
L 1259 4147 
z
M 628 4666 
L 2241 4666 
Q 2963 4666 3353 4366 
Q 3744 4066 3744 3513 
Q 3744 3084 3544 2831 
Q 3344 2578 2956 2516 
Q 3422 2416 3680 2098 
Q 3938 1781 3938 1306 
Q 3938 681 3513 340 
Q 3088 0 2303 0 
L 628 0 
L 628 4666 
z
" transform="scale(0.015625)"/>
       <path id="DejaVuSans-65" d="M 3597 1894 
L 3597 1613 
L 953 1613 
Q 991 1019 1311 708 
Q 1631 397 2203 397 
Q 2534 397 2845 478 
Q 3156 559 3463 722 
L 3463 178 
Q 3153 47 2828 -22 
Q 2503 -91 2169 -91 
Q 1331 -91 842 396 
Q 353 884 353 1716 
Q 353 2575 817 3079 
Q 1281 3584 2069 3584 
Q 2775 3584 3186 3129 
Q 3597 2675 3597 1894 
z
M 3022 2063 
Q 3016 2534 2758 2815 
Q 2500 3097 2075 3097 
Q 1594 3097 1305 2825 
Q 1016 2553 972 2059 
L 3022 2063 
z
" transform="scale(0.015625)"/>
       <path id="DejaVuSans-6e" d="M 3513 2113 
L 3513 0 
L 2938 0 
L 2938 2094 
Q 2938 2591 2744 2837 
Q 2550 3084 2163 3084 
Q 1697 3084 1428 2787 
Q 1159 2491 1159 1978 
L 1159 0 
L 581 0 
L 581 3500 
L 1159 3500 
L 1159 2956 
Q 1366 3272 1645 3428 
Q 1925 3584 2291 3584 
Q 2894 3584 3203 3211 
Q 3513 2838 3513 2113 
z
" transform="scale(0.015625)"/>
       <path id="DejaVuSans-64" d="M 2906 2969 
L 2906 4863 
L 3481 4863 
L 3481 0 
L 2906 0 
L 2906 525 
Q 2725 213 2448 61 
Q 2172 -91 1784 -91 
Q 1150 -91 751 415 
Q 353 922 353 1747 
Q 353 2572 751 3078 
Q 1150 3584 1784 3584 
Q 2172 3584 2448 3432 
Q 2725 3281 2906 2969 
z
M 947 1747 
Q 947 1113 1208 752 
Q 1469 391 1925 391 
Q 2381 391 2643 752 
Q 2906 1113 2906 1747 
Q 2906 2381 2643 2742 
Q 2381 3103 1925 3103 
Q 1469 3103 1208 2742 
Q 947 2381 947 1747 
z
" transform="scale(0.015625)"/>
       <path id="DejaVuSans-69" d="M 603 3500 
L 1178 3500 
L 1178 0 
L 603 0 
L 603 3500 
z
M 603 4863 
L 1178 4863 
L 1178 4134 
L 603 4134 
L 603 4863 
z
" transform="scale(0.015625)"/>
       <path id="DejaVuSans-67" d="M 2906 1791 
Q 2906 2416 2648 2759 
Q 2391 3103 1925 3103 
Q 1463 3103 1205 2759 
Q 947 2416 947 1791 
Q 947 1169 1205 825 
Q 1463 481 1925 481 
Q 2391 481 2648 825 
Q 2906 1169 2906 1791 
z
M 3481 434 
Q 3481 -459 3084 -895 
Q 2688 -1331 1869 -1331 
Q 1566 -1331 1297 -1286 
Q 1028 -1241 775 -1147 
L 775 -588 
Q 1028 -725 1275 -790 
Q 1522 -856 1778 -856 
Q 2344 -856 2625 -561 
Q 2906 -266 2906 331 
L 2906 616 
Q 2728 306 2450 153 
Q 2172 0 1784 0 
Q 1141 0 747 490 
Q 353 981 353 1791 
Q 353 2603 747 3093 
Q 1141 3584 1784 3584 
Q 2172 3584 2450 3431 
Q 2728 3278 2906 2969 
L 2906 3500 
L 3481 3500 
L 3481 434 
z
" transform="scale(0.015625)"/>
       <path id="DejaVuSans-20" transform="scale(0.015625)"/>
       <path id="DejaVuSans-4d" d="M 628 4666 
L 1569 4666 
L 2759 1491 
L 3956 4666 
L 4897 4666 
L 4897 0 
L 4281 0 
L 4281 4097 
L 3078 897 
L 2444 897 
L 1241 4097 
L 1241 0 
L 628 0 
L 628 4666 
z
" transform="scale(0.015625)"/>
       <path id="DejaVuSans-6f" d="M 1959 3097 
Q 1497 3097 1228 2736 
Q 959 2375 959 1747 
Q 959 1119 1226 758 
Q 1494 397 1959 397 
Q 2419 397 2687 759 
Q 2956 1122 2956 1747 
Q 2956 2369 2687 2733 
Q 2419 3097 1959 3097 
z
M 1959 3584 
Q 2709 3584 3137 3096 
Q 3566 2609 3566 1747 
Q 3566 888 3137 398 
Q 2709 -91 1959 -91 
Q 1206 -91 779 398 
Q 353 888 353 1747 
Q 353 2609 779 3096 
Q 1206 3584 1959 3584 
z
" transform="scale(0.015625)"/>
       <path id="DejaVuSans-6d" d="M 3328 2828 
Q 3544 3216 3844 3400 
Q 4144 3584 4550 3584 
Q 5097 3584 5394 3201 
Q 5691 2819 5691 2113 
L 5691 0 
L 5113 0 
L 5113 2094 
Q 5113 2597 4934 2840 
Q 4756 3084 4391 3084 
Q 3944 3084 3684 2787 
Q 3425 2491 3425 1978 
L 3425 0 
L 2847 0 
L 2847 2094 
Q 2847 2600 2669 2842 
Q 2491 3084 2119 3084 
Q 1678 3084 1418 2786 
Q 1159 2488 1159 1978 
L 1159 0 
L 581 0 
L 581 3500 
L 1159 3500 
L 1159 2956 
Q 1356 3278 1631 3431 
Q 1906 3584 2284 3584 
Q 2666 3584 2933 3390 
Q 3200 3197 3328 2828 
z
" transform="scale(0.015625)"/>
       <path id="DejaVuSans-74" d="M 1172 4494 
L 1172 3500 
L 2356 3500 
L 2356 3053 
L 1172 3053 
L 1172 1153 
Q 1172 725 1289 603 
Q 1406 481 1766 481 
L 2356 481 
L 2356 0 
L 1766 0 
Q 1100 0 847 248 
Q 594 497 594 1153 
L 594 3053 
L 172 3053 
L 172 3500 
L 594 3500 
L 594 4494 
L 1172 4494 
z
" transform="scale(0.015625)"/>
      </defs>
      <use xlink:href="#DejaVuSans-42"/>
      <use xlink:href="#DejaVuSans-65" x="68.603516"/>
      <use xlink:href="#DejaVuSans-6e" x="130.126953"/>
      <use xlink:href="#DejaVuSans-64" x="193.505859"/>
      <use xlink:href="#DejaVuSans-69" x="256.982422"/>
      <use xlink:href="#DejaVuSans-6e" x="284.765625"/>
      <use xlink:href="#DejaVuSans-67" x="348.144531"/>
      <use xlink:href="#DejaVuSans-20" x="411.621094"/>
      <use xlink:href="#DejaVuSans-4d" x="443.408203"/>
      <use xlink:href="#DejaVuSans-6f" x="529.6875"/>
      <use xlink:href="#DejaVuSans-6d" x="590.869141"/>
      <use xlink:href="#DejaVuSans-65" x="688.28125"/>
      <use xlink:href="#DejaVuSans-6e" x="749.804688"/>
      <use xlink:href="#DejaVuSans-74" x="813.183594"/>
     </g>
    </g>
   </g>
   <g id="matplotlib.axis_2">
    <g id="ytick_1">
     <g id="line2d_17">
      <path d="M 61.707813 275.393736 
L 361.626562 275.393736 
" clip-path="url(#p7331c15e2c)" style="fill: none; stroke: #b0b0b0; stroke-width: 0.8; stroke-linecap: square"/>
     </g>
     <g id="line2d_18">
      <defs>
       <path id="m55f3834d9f" d="M 0 0 
L -3.5 0 
" style="stroke: #000000; stroke-width: 0.8"/>
      </defs>
      <g>
       <use xlink:href="#m55f3834d9f" x="61.707813" y="275.393736" style="stroke: #000000; stroke-width: 0.8"/>
      </g>
     </g>
     <g id="text_10">
      <!-- −4000 -->
      <g transform="translate(20.878125 279.192955)scale(0.1 -0.1)">
       <defs>
        <path id="DejaVuSans-2212" d="M 678 2272 
L 4684 2272 
L 4684 1741 
L 678 1741 
L 678 2272 
z
" transform="scale(0.015625)"/>
       </defs>
       <use xlink:href="#DejaVuSans-2212"/>
       <use xlink:href="#DejaVuSans-34" x="83.789062"/>
       <use xlink:href="#DejaVuSans-30" x="147.412109"/>
       <use xlink:href="#DejaVuSans-30" x="211.035156"/>
       <use xlink:href="#DejaVuSans-30" x="274.658203"/>
      </g>
     </g>
    </g>
    <g id="ytick_2">
     <g id="line2d_19">
      <path d="M 61.707813 243.48049 
L 361.626562 243.48049 
" clip-path="url(#p7331c15e2c)" style="fill: none; stroke: #b0b0b0; stroke-width: 0.8; stroke-linecap: square"/>
     </g>
     <g id="line2d_20">
      <g>
       <use xlink:href="#m55f3834d9f" x="61.707813" y="243.48049" style="stroke: #000000; stroke-width: 0.8"/>
      </g>
     </g>
     <g id="text_11">
      <!-- −2000 -->
      <g transform="translate(20.878125 247.279709)scale(0.1 -0.1)">
       <use xlink:href="#DejaVuSans-2212"/>
       <use xlink:href="#DejaVuSans-32" x="83.789062"/>
       <use xlink:href="#DejaVuSans-30" x="147.412109"/>
       <use xlink:href="#DejaVuSans-30" x="211.035156"/>
       <use xlink:href="#DejaVuSans-30" x="274.658203"/>
      </g>
     </g>
    </g>
    <g id="ytick_3">
     <g id="line2d_21">
      <path d="M 61.707813 211.567245 
L 361.626562 211.567245 
" clip-path="url(#p7331c15e2c)" style="fill: none; stroke: #b0b0b0; stroke-width: 0.8; stroke-linecap: square"/>
     </g>
     <g id="line2d_22">
      <g>
       <use xlink:href="#m55f3834d9f" x="61.707813" y="211.567245" style="stroke: #000000; stroke-width: 0.8"/>
      </g>
     </g>
     <g id="text_12">
      <!-- 0 -->
      <g transform="translate(48.345313 215.366464)scale(0.1 -0.1)">
       <use xlink:href="#DejaVuSans-30"/>
      </g>
     </g>
    </g>
    <g id="ytick_4">
     <g id="line2d_23">
      <path d="M 61.707813 179.653999 
L 361.626562 179.653999 
" clip-path="url(#p7331c15e2c)" style="fill: none; stroke: #b0b0b0; stroke-width: 0.8; stroke-linecap: square"/>
     </g>
     <g id="line2d_24">
      <g>
       <use xlink:href="#m55f3834d9f" x="61.707813" y="179.653999" style="stroke: #000000; stroke-width: 0.8"/>
      </g>
     </g>
     <g id="text_13">
      <!-- 2000 -->
      <g transform="translate(29.257812 183.453218)scale(0.1 -0.1)">
       <use xlink:href="#DejaVuSans-32"/>
       <use xlink:href="#DejaVuSans-30" x="63.623047"/>
       <use xlink:href="#DejaVuSans-30" x="127.246094"/>
       <use xlink:href="#DejaVuSans-30" x="190.869141"/>
      </g>
     </g>
    </g>
    <g id="ytick_5">
     <g id="line2d_25">
      <path d="M 61.707813 147.740754 
L 361.626562 147.740754 
" clip-path="url(#p7331c15e2c)" style="fill: none; stroke: #b0b0b0; stroke-width: 0.8; stroke-linecap: square"/>
     </g>
     <g id="line2d_26">
      <g>
       <use xlink:href="#m55f3834d9f" x="61.707813" y="147.740754" style="stroke: #000000; stroke-width: 0.8"/>
      </g>
     </g>
     <g id="text_14">
      <!-- 4000 -->
      <g transform="translate(29.257812 151.539973)scale(0.1 -0.1)">
       <use xlink:href="#DejaVuSans-34"/>
       <use xlink:href="#DejaVuSans-30" x="63.623047"/>
       <use xlink:href="#DejaVuSans-30" x="127.246094"/>
       <use xlink:href="#DejaVuSans-30" x="190.869141"/>
      </g>
     </g>
    </g>
    <g id="ytick_6">
     <g id="line2d_27">
      <path d="M 61.707813 115.827509 
L 361.626562 115.827509 
" clip-path="url(#p7331c15e2c)" style="fill: none; stroke: #b0b0b0; stroke-width: 0.8; stroke-linecap: square"/>
     </g>
     <g id="line2d_28">
      <g>
       <use xlink:href="#m55f3834d9f" x="61.707813" y="115.827509" style="stroke: #000000; stroke-width: 0.8"/>
      </g>
     </g>
     <g id="text_15">
      <!-- 6000 -->
      <g transform="translate(29.257812 119.626727)scale(0.1 -0.1)">
       <use xlink:href="#DejaVuSans-36"/>
       <use xlink:href="#DejaVuSans-30" x="63.623047"/>
       <use xlink:href="#DejaVuSans-30" x="127.246094"/>
       <use xlink:href="#DejaVuSans-30" x="190.869141"/>
      </g>
     </g>
    </g>
    <g id="ytick_7">
     <g id="line2d_29">
      <path d="M 61.707813 83.914263 
L 361.626562 83.914263 
" clip-path="url(#p7331c15e2c)" style="fill: none; stroke: #b0b0b0; stroke-width: 0.8; stroke-linecap: square"/>
     </g>
     <g id="line2d_30">
      <g>
       <use xlink:href="#m55f3834d9f" x="61.707813" y="83.914263" style="stroke: #000000; stroke-width: 0.8"/>
      </g>
     </g>
     <g id="text_16">
      <!-- 8000 -->
      <g transform="translate(29.257812 87.713482)scale(0.1 -0.1)">
       <use xlink:href="#DejaVuSans-38"/>
       <use xlink:href="#DejaVuSans-30" x="63.623047"/>
       <use xlink:href="#DejaVuSans-30" x="127.246094"/>
       <use xlink:href="#DejaVuSans-30" x="190.869141"/>
      </g>
     </g>
    </g>
    <g id="ytick_8">
     <g id="line2d_31">
      <path d="M 61.707813 52.001018 
L 361.626562 52.001018 
" clip-path="url(#p7331c15e2c)" style="fill: none; stroke: #b0b0b0; stroke-width: 0.8; stroke-linecap: square"/>
     </g>
     <g id="line2d_32">
      <g>
       <use xlink:href="#m55f3834d9f" x="61.707813" y="52.001018" style="stroke: #000000; stroke-width: 0.8"/>
      </g>
     </g>
     <g id="text_17">
      <!-- 10000 -->
      <g transform="translate(22.895313 55.800236)scale(0.1 -0.1)">
       <use xlink:href="#DejaVuSans-31"/>
       <use xlink:href="#DejaVuSans-30" x="63.623047"/>
       <use xlink:href="#DejaVuSans-30" x="127.246094"/>
       <use xlink:href="#DejaVuSans-30" x="190.869141"/>
       <use xlink:href="#DejaVuSans-30" x="254.492188"/>
      </g>
     </g>
    </g>
    <g id="text_18">
     <!-- Axial Force -->
     <g transform="translate(14.798438 188.901719)rotate(-90)scale(0.1 -0.1)">
      <defs>
       <path id="DejaVuSans-41" d="M 2188 4044 
L 1331 1722 
L 3047 1722 
L 2188 4044 
z
M 1831 4666 
L 2547 4666 
L 4325 0 
L 3669 0 
L 3244 1197 
L 1141 1197 
L 716 0 
L 50 0 
L 1831 4666 
z
" transform="scale(0.015625)"/>
       <path id="DejaVuSans-78" d="M 3513 3500 
L 2247 1797 
L 3578 0 
L 2900 0 
L 1881 1375 
L 863 0 
L 184 0 
L 1544 1831 
L 300 3500 
L 978 3500 
L 1906 2253 
L 2834 3500 
L 3513 3500 
z
" transform="scale(0.015625)"/>
       <path id="DejaVuSans-61" d="M 2194 1759 
Q 1497 1759 1228 1600 
Q 959 1441 959 1056 
Q 959 750 1161 570 
Q 1363 391 1709 391 
Q 2188 391 2477 730 
Q 2766 1069 2766 1631 
L 2766 1759 
L 2194 1759 
z
M 3341 1997 
L 3341 0 
L 2766 0 
L 2766 531 
Q 2569 213 2275 61 
Q 1981 -91 1556 -91 
Q 1019 -91 701 211 
Q 384 513 384 1019 
Q 384 1609 779 1909 
Q 1175 2209 1959 2209 
L 2766 2209 
L 2766 2266 
Q 2766 2663 2505 2880 
Q 2244 3097 1772 3097 
Q 1472 3097 1187 3025 
Q 903 2953 641 2809 
L 641 3341 
Q 956 3463 1253 3523 
Q 1550 3584 1831 3584 
Q 2591 3584 2966 3190 
Q 3341 2797 3341 1997 
z
" transform="scale(0.015625)"/>
       <path id="DejaVuSans-6c" d="M 603 4863 
L 1178 4863 
L 1178 0 
L 603 0 
L 603 4863 
z
" transform="scale(0.015625)"/>
       <path id="DejaVuSans-46" d="M 628 4666 
L 3309 4666 
L 3309 4134 
L 1259 4134 
L 1259 2759 
L 3109 2759 
L 3109 2228 
L 1259 2228 
L 1259 0 
L 628 0 
L 628 4666 
z
" transform="scale(0.015625)"/>
       <path id="DejaVuSans-72" d="M 2631 2963 
Q 2534 3019 2420 3045 
Q 2306 3072 2169 3072 
Q 1681 3072 1420 2755 
Q 1159 2438 1159 1844 
L 1159 0 
L 581 0 
L 581 3500 
L 1159 3500 
L 1159 2956 
Q 1341 3275 1631 3429 
Q 1922 3584 2338 3584 
Q 2397 3584 2469 3576 
Q 2541 3569 2628 3553 
L 2631 2963 
z
" transform="scale(0.015625)"/>
       <path id="DejaVuSans-63" d="M 3122 3366 
L 3122 2828 
Q 2878 2963 2633 3030 
Q 2388 3097 2138 3097 
Q 1578 3097 1268 2742 
Q 959 2388 959 1747 
Q 959 1106 1268 751 
Q 1578 397 2138 397 
Q 2388 397 2633 464 
Q 2878 531 3122 666 
L 3122 134 
Q 2881 22 2623 -34 
Q 2366 -91 2075 -91 
Q 1284 -91 818 406 
Q 353 903 353 1747 
Q 353 2603 823 3093 
Q 1294 3584 2113 3584 
Q 2378 3584 2631 3529 
Q 2884 3475 3122 3366 
z
" transform="scale(0.015625)"/>
      </defs>
      <use xlink:href="#DejaVuSans-41"/>
      <use xlink:href="#DejaVuSans-78" x="68.408203"/>
      <use xlink:href="#DejaVuSans-69" x="127.587891"/>
      <use xlink:href="#DejaVuSans-61" x="155.371094"/>
      <use xlink:href="#DejaVuSans-6c" x="216.650391"/>
      <use xlink:href="#DejaVuSans-20" x="244.433594"/>
      <use xlink:href="#DejaVuSans-46" x="276.220703"/>
      <use xlink:href="#DejaVuSans-6f" x="330.115234"/>
      <use xlink:href="#DejaVuSans-72" x="391.296875"/>
      <use xlink:href="#DejaVuSans-63" x="430.160156"/>
      <use xlink:href="#DejaVuSans-65" x="485.140625"/>
     </g>
    </g>
   </g>
   <g id="line2d_33">
    <path d="M 75.340483 89.296113 
L 131.523461 114.077821 
L 140.24242 117.35735 
L 149.525119 121.151922 
L 158.090871 124.984309 
L 165.953499 128.859658 
L 173.129455 132.784095 
L 179.638473 136.764967 
L 185.442537 140.834211 
L 190.40614 145.064007 
L 194.758024 149.396011 
L 198.536862 153.849336 
L 201.791611 158.448179 
L 204.585172 163.22363 
L 206.999741 168.216315 
L 207.214031 172.761444 
L 203.940717 176.39788 
L 199.700444 180.089591 
L 194.443954 183.854917 
L 188.09749 187.721322 
L 180.545397 191.731867 
L 171.595449 195.958127 
L 160.902906 200.528463 
L 147.789835 205.695169 
L 131.964074 211.567411 
L 75.340483 230.715192 
" clip-path="url(#p7331c15e2c)" style="fill: none; stroke: #1f77b4; stroke-width: 1.5; stroke-linecap: square"/>
    <defs>
     <path id="m9003e3bb71" d="M 0 1.5 
C 0.397805 1.5 0.77937 1.341951 1.06066 1.06066 
C 1.341951 0.77937 1.5 0.397805 1.5 0 
C 1.5 -0.397805 1.341951 -0.77937 1.06066 -1.06066 
C 0.77937 -1.341951 0.397805 -1.5 0 -1.5 
C -0.397805 -1.5 -0.77937 -1.341951 -1.06066 -1.06066 
C -1.341951 -0.77937 -1.5 -0.397805 -1.5 0 
C -1.5 0.397805 -1.341951 0.77937 -1.06066 1.06066 
C -0.77937 1.341951 -0.397805 1.5 0 1.5 
z
" style="stroke: #1f77b4"/>
    </defs>
    <g clip-path="url(#p7331c15e2c)">
     <use xlink:href="#m9003e3bb71" x="75.340483" y="89.296113" style="fill: #1f77b4; stroke: #1f77b4"/>
     <use xlink:href="#m9003e3bb71" x="131.523461" y="114.077821" style="fill: #1f77b4; stroke: #1f77b4"/>
     <use xlink:href="#m9003e3bb71" x="140.24242" y="117.35735" style="fill: #1f77b4; stroke: #1f77b4"/>
     <use xlink:href="#m9003e3bb71" x="149.525119" y="121.151922" style="fill: #1f77b4; stroke: #1f77b4"/>
     <use xlink:href="#m9003e3bb71" x="158.090871" y="124.984309" style="fill: #1f77b4; stroke: #1f77b4"/>
     <use xlink:href="#m9003e3bb71" x="165.953499" y="128.859658" style="fill: #1f77b4; stroke: #1f77b4"/>
     <use xlink:href="#m9003e3bb71" x="173.129455" y="132.784095" style="fill: #1f77b4; stroke: #1f77b4"/>
     <use xlink:href="#m9003e3bb71" x="179.638473" y="136.764967" style="fill: #1f77b4; stroke: #1f77b4"/>
     <use xlink:href="#m9003e3bb71" x="185.442537" y="140.834211" style="fill: #1f77b4; stroke: #1f77b4"/>
     <use xlink:href="#m9003e3bb71" x="190.40614" y="145.064007" style="fill: #1f77b4; stroke: #1f77b4"/>
     <use xlink:href="#m9003e3bb71" x="194.758024" y="149.396011" style="fill: #1f77b4; stroke: #1f77b4"/>
     <use xlink:href="#m9003e3bb71" x="198.536862" y="153.849336" style="fill: #1f77b4; stroke: #1f77b4"/>
     <use xlink:href="#m9003e3bb71" x="201.791611" y="158.448179" style="fill: #1f77b4; stroke: #1f77b4"/>
     <use xlink:href="#m9003e3bb71" x="204.585172" y="163.22363" style="fill: #1f77b4; stroke: #1f77b4"/>
     <use xlink:href="#m9003e3bb71" x="206.999741" y="168.216315" style="fill: #1f77b4; stroke: #1f77b4"/>
     <use xlink:href="#m9003e3bb71" x="207.214031" y="172.761444" style="fill: #1f77b4; stroke: #1f77b4"/>
     <use xlink:href="#m9003e3bb71" x="203.940717" y="176.39788" style="fill: #1f77b4; stroke: #1f77b4"/>
     <use xlink:href="#m9003e3bb71" x="199.700444" y="180.089591" style="fill: #1f77b4; stroke: #1f77b4"/>
     <use xlink:href="#m9003e3bb71" x="194.443954" y="183.854917" style="fill: #1f77b4; stroke: #1f77b4"/>
     <use xlink:href="#m9003e3bb71" x="188.09749" y="187.721322" style="fill: #1f77b4; stroke: #1f77b4"/>
     <use xlink:href="#m9003e3bb71" x="180.545397" y="191.731867" style="fill: #1f77b4; stroke: #1f77b4"/>
     <use xlink:href="#m9003e3bb71" x="171.595449" y="195.958127" style="fill: #1f77b4; stroke: #1f77b4"/>
     <use xlink:href="#m9003e3bb71" x="160.902906" y="200.528463" style="fill: #1f77b4; stroke: #1f77b4"/>
     <use xlink:href="#m9003e3bb71" x="147.789835" y="205.695169" style="fill: #1f77b4; stroke: #1f77b4"/>
     <use xlink:href="#m9003e3bb71" x="131.964074" y="211.567411" style="fill: #1f77b4; stroke: #1f77b4"/>
     <use xlink:href="#m9003e3bb71" x="75.340483" y="230.715192" style="fill: #1f77b4; stroke: #1f77b4"/>
    </g>
   </g>
   <g id="line2d_34">
    <path d="M 75.340483 71.189814 
L 153.198276 103.986859 
L 161.375209 107.052247 
L 171.265049 111.030288 
L 180.648606 115.093588 
L 189.501802 119.232174 
L 197.851565 123.456074 
L 205.729826 127.777175 
L 213.174737 132.209684 
L 219.78825 136.936044 
L 225.935182 141.86204 
L 231.753194 146.987538 
L 237.315555 152.348752 
L 242.714411 157.991225 
L 248.067277 163.97304 
L 253.526421 170.369456 
L 253.54929 175.141248 
L 249.580111 178.859149 
L 244.602715 182.679689 
L 238.530301 186.635188 
L 231.235344 190.773127 
L 222.522553 195.166222 
L 212.076955 199.931751 
L 199.355619 205.271867 
L 183.33653 211.567093 
L 75.340483 249.86314 
" clip-path="url(#p7331c15e2c)" style="fill: none; stroke: #ff7f0e; stroke-width: 1.5; stroke-linecap: square"/>
    <defs>
     <path id="mf2afac077a" d="M 0 1.5 
C 0.397805 1.5 0.77937 1.341951 1.06066 1.06066 
C 1.341951 0.77937 1.5 0.397805 1.5 0 
C 1.5 -0.397805 1.341951 -0.77937 1.06066 -1.06066 
C 0.77937 -1.341951 0.397805 -1.5 0 -1.5 
C -0.397805 -1.5 -0.77937 -1.341951 -1.06066 -1.06066 
C -1.341951 -0.77937 -1.5 -0.397805 -1.5 0 
C -1.5 0.397805 -1.341951 0.77937 -1.06066 1.06066 
C -0.77937 1.341951 -0.397805 1.5 0 1.5 
z
" style="stroke: #ff7f0e"/>
    </defs>
    <g clip-path="url(#p7331c15e2c)">
     <use xlink:href="#mf2afac077a" x="75.340483" y="71.189814" style="fill: #ff7f0e; stroke: #ff7f0e"/>
     <use xlink:href="#mf2afac077a" x="153.198276" y="103.986859" style="fill: #ff7f0e; stroke: #ff7f0e"/>
     <use xlink:href="#mf2afac077a" x="161.375209" y="107.052247" style="fill: #ff7f0e; stroke: #ff7f0e"/>
     <use xlink:href="#mf2afac077a" x="171.265049" y="111.030288" style="fill: #ff7f0e; stroke: #ff7f0e"/>
     <use xlink:href="#mf2afac077a" x="180.648606" y="115.093588" style="fill: #ff7f0e; stroke: #ff7f0e"/>
     <use xlink:href="#mf2afac077a" x="189.501802" y="119.232174" style="fill: #ff7f0e; stroke: #ff7f0e"/>
     <use xlink:href="#mf2afac077a" x="197.851565" y="123.456074" style="fill: #ff7f0e; stroke: #ff7f0e"/>
     <use xlink:href="#mf2afac077a" x="205.729826" y="127.777175" style="fill: #ff7f0e; stroke: #ff7f0e"/>
     <use xlink:href="#mf2afac077a" x="213.174737" y="132.209684" style="fill: #ff7f0e; stroke: #ff7f0e"/>
     <use xlink:href="#mf2afac077a" x="219.78825" y="136.936044" style="fill: #ff7f0e; stroke: #ff7f0e"/>
     <use xlink:href="#mf2afac077a" x="225.935182" y="141.86204" style="fill: #ff7f0e; stroke: #ff7f0e"/>
     <use xlink:href="#mf2afac077a" x="231.753194" y="146.987538" style="fill: #ff7f0e; stroke: #ff7f0e"/>
     <use xlink:href="#mf2afac077a" x="237.315555" y="152.348752" style="fill: #ff7f0e; stroke: #ff7f0e"/>
     <use xlink:href="#mf2afac077a" x="242.714411" y="157.991225" style="fill: #ff7f0e; stroke: #ff7f0e"/>
     <use xlink:href="#mf2afac077a" x="248.067277" y="163.97304" style="fill: #ff7f0e; stroke: #ff7f0e"/>
     <use xlink:href="#mf2afac077a" x="253.526421" y="170.369456" style="fill: #ff7f0e; stroke: #ff7f0e"/>
     <use xlink:href="#mf2afac077a" x="253.54929" y="175.141248" style="fill: #ff7f0e; stroke: #ff7f0e"/>
     <use xlink:href="#mf2afac077a" x="249.580111" y="178.859149" style="fill: #ff7f0e; stroke: #ff7f0e"/>
     <use xlink:href="#mf2afac077a" x="244.602715" y="182.679689" style="fill: #ff7f0e; stroke: #ff7f0e"/>
     <use xlink:href="#mf2afac077a" x="238.530301" y="186.635188" style="fill: #ff7f0e; stroke: #ff7f0e"/>
     <use xlink:href="#mf2afac077a" x="231.235344" y="190.773127" style="fill: #ff7f0e; stroke: #ff7f0e"/>
     <use xlink:href="#mf2afac077a" x="222.522553" y="195.166222" style="fill: #ff7f0e; stroke: #ff7f0e"/>
     <use xlink:href="#mf2afac077a" x="212.076955" y="199.931751" style="fill: #ff7f0e; stroke: #ff7f0e"/>
     <use xlink:href="#mf2afac077a" x="199.355619" y="205.271867" style="fill: #ff7f0e; stroke: #ff7f0e"/>
     <use xlink:href="#mf2afac077a" x="183.33653" y="211.567093" style="fill: #ff7f0e; stroke: #ff7f0e"/>
     <use xlink:href="#mf2afac077a" x="75.340483" y="249.86314" style="fill: #ff7f0e; stroke: #ff7f0e"/>
    </g>
   </g>
   <g id="line2d_35">
    <path d="M 75.340483 53.083515 
L 174.764283 93.858008 
L 182.768915 96.852011 
L 193.119302 100.969106 
L 203.317825 105.287592 
L 213.116208 109.708774 
L 222.549428 114.245676 
L 231.658638 118.913621 
L 240.492592 123.730761 
L 248.699194 128.871532 
L 256.363315 134.356489 
L 263.879087 140.102219 
L 271.336155 146.153028 
L 278.845693 152.563865 
L 286.547277 159.403717 
L 294.618576 166.760398 
L 302.710462 174.53192 
L 298.828503 178.289123 
L 293.94582 182.167252 
L 287.970983 186.200349 
L 280.774689 190.43656 
L 272.167885 194.946276 
L 261.86275 199.836665 
L 249.398501 205.279296 
L 233.988509 211.567062 
L 75.340483 269.011087 
" clip-path="url(#p7331c15e2c)" style="fill: none; stroke: #2ca02c; stroke-width: 1.5; stroke-linecap: square"/>
    <defs>
     <path id="m525f90a0ff" d="M 0 1.5 
C 0.397805 1.5 0.77937 1.341951 1.06066 1.06066 
C 1.341951 0.77937 1.5 0.397805 1.5 0 
C 1.5 -0.397805 1.341951 -0.77937 1.06066 -1.06066 
C 0.77937 -1.341951 0.397805 -1.5 0 -1.5 
C -0.397805 -1.5 -0.77937 -1.341951 -1.06066 -1.06066 
C -1.341951 -0.77937 -1.5 -0.397805 -1.5 0 
C -1.5 0.397805 -1.341951 0.77937 -1.06066 1.06066 
C -0.77937 1.341951 -0.397805 1.5 0 1.5 
z
" style="stroke: #2ca02c"/>
    </defs>
    <g clip-path="url(#p7331c15e2c)">
     <use xlink:href="#m525f90a0ff" x="75.340483" y="53.083515" style="fill: #2ca02c; stroke: #2ca02c"/>
     <use xlink:href="#m525f90a0ff" x="174.764283" y="93.858008" style="fill: #2ca02c; stroke: #2ca02c"/>
     <use xlink:href="#m525f90a0ff" x="182.768915" y="96.852011" style="fill: #2ca02c; stroke: #2ca02c"/>
     <use xlink:href="#m525f90a0ff" x="193.119302" y="100.969106" style="fill: #2ca02c; stroke: #2ca02c"/>
     <use xlink:href="#m525f90a0ff" x="203.317825" y="105.287592" style="fill: #2ca02c; stroke: #2ca02c"/>
     <use xlink:href="#m525f90a0ff" x="213.116208" y="109.708774" style="fill: #2ca02c; stroke: #2ca02c"/>
     <use xlink:href="#m525f90a0ff" x="222.549428" y="114.245676" style="fill: #2ca02c; stroke: #2ca02c"/>
     <use xlink:href="#m525f90a0ff" x="231.658638" y="118.913621" style="fill: #2ca02c; stroke: #2ca02c"/>
     <use xlink:href="#m525f90a0ff" x="240.492592" y="123.730761" style="fill: #2ca02c; stroke: #2ca02c"/>
     <use xlink:href="#m525f90a0ff" x="248.699194" y="128.871532" style="fill: #2ca02c; stroke: #2ca02c"/>
     <use xlink:href="#m525f90a0ff" x="256.363315" y="134.356489" style="fill: #2ca02c; stroke: #2ca02c"/>
     <use xlink:href="#m525f90a0ff" x="263.879087" y="140.102219" style="fill: #2ca02c; stroke: #2ca02c"/>
     <use xlink:href="#m525f90a0ff" x="271.336155" y="146.153028" style="fill: #2ca02c; stroke: #2ca02c"/>
     <use xlink:href="#m525f90a0ff" x="278.845693" y="152.563865" style="fill: #2ca02c; stroke: #2ca02c"/>
     <use xlink:href="#m525f90a0ff" x="286.547277" y="159.403717" style="fill: #2ca02c; stroke: #2ca02c"/>
     <use xlink:href="#m525f90a0ff" x="294.618576" y="166.760398" style="fill: #2ca02c; stroke: #2ca02c"/>
     <use xlink:href="#m525f90a0ff" x="302.710462" y="174.53192" style="fill: #2ca02c; stroke: #2ca02c"/>
     <use xlink:href="#m525f90a0ff" x="298.828503" y="178.289123" style="fill: #2ca02c; stroke: #2ca02c"/>
     <use xlink:href="#m525f90a0ff" x="293.94582" y="182.167252" style="fill: #2ca02c; stroke: #2ca02c"/>
     <use xlink:href="#m525f90a0ff" x="287.970983" y="186.200349" style="fill: #2ca02c; stroke: #2ca02c"/>
     <use xlink:href="#m525f90a0ff" x="280.774689" y="190.43656" style="fill: #2ca02c; stroke: #2ca02c"/>
     <use xlink:href="#m525f90a0ff" x="272.167885" y="194.946276" style="fill: #2ca02c; stroke: #2ca02c"/>
     <use xlink:href="#m525f90a0ff" x="261.86275" y="199.836665" style="fill: #2ca02c; stroke: #2ca02c"/>
     <use xlink:href="#m525f90a0ff" x="249.398501" y="205.279296" style="fill: #2ca02c; stroke: #2ca02c"/>
     <use xlink:href="#m525f90a0ff" x="233.988509" y="211.567062" style="fill: #2ca02c; stroke: #2ca02c"/>
     <use xlink:href="#m525f90a0ff" x="75.340483" y="269.011087" style="fill: #2ca02c; stroke: #2ca02c"/>
    </g>
   </g>
   <g id="line2d_36">
    <path d="M 75.340483 34.977216 
L 196.272439 83.709544 
L 204.28069 86.700173 
L 214.970813 90.914454 
L 225.952388 95.486941 
L 236.641902 100.185905 
L 247.08071 105.026743 
L 257.317162 110.027459 
L 267.408149 115.209235 
L 277.142554 120.700876 
L 286.147881 126.701001 
L 295.149633 133.011602 
L 304.248898 139.682643 
L 313.569685 146.775414 
L 323.265806 154.36594 
L 333.530408 162.549685 
L 344.609401 171.448192 
L 347.993892 177.932024 
L 343.15977 181.857074 
L 337.244464 185.949469 
L 330.121278 190.256385 
L 321.610953 194.844565 
L 311.451267 199.811647 
L 299.242742 205.306372 
L 284.345333 211.567056 
L 75.340483 288.159034 
" clip-path="url(#p7331c15e2c)" style="fill: none; stroke: #d62728; stroke-width: 1.5; stroke-linecap: square"/>
    <defs>
     <path id="m247a3bfe69" d="M 0 1.5 
C 0.397805 1.5 0.77937 1.341951 1.06066 1.06066 
C 1.341951 0.77937 1.5 0.397805 1.5 0 
C 1.5 -0.397805 1.341951 -0.77937 1.06066 -1.06066 
C 0.77937 -1.341951 0.397805 -1.5 0 -1.5 
C -0.397805 -1.5 -0.77937 -1.341951 -1.06066 -1.06066 
C -1.341951 -0.77937 -1.5 -0.397805 -1.5 0 
C -1.5 0.397805 -1.341951 0.77937 -1.06066 1.06066 
C -0.77937 1.341951 -0.397805 1.5 0 1.5 
z
" style="stroke: #d62728"/>
    </defs>
    <g clip-path="url(#p7331c15e2c)">
     <use xlink:href="#m247a3bfe69" x="75.340483" y="34.977216" style="fill: #d62728; stroke: #d62728"/>
     <use xlink:href="#m247a3bfe69" x="196.272439" y="83.709544" style="fill: #d62728; stroke: #d62728"/>
     <use xlink:href="#m247a3bfe69" x="204.28069" y="86.700173" style="fill: #d62728; stroke: #d62728"/>
     <use xlink:href="#m247a3bfe69" x="214.970813" y="90.914454" style="fill: #d62728; stroke: #d62728"/>
     <use xlink:href="#m247a3bfe69" x="225.952388" y="95.486941" style="fill: #d62728; stroke: #d62728"/>
     <use xlink:href="#m247a3bfe69" x="236.641902" y="100.185905" style="fill: #d62728; stroke: #d62728"/>
     <use xlink:href="#m247a3bfe69" x="247.08071" y="105.026743" style="fill: #d62728; stroke: #d62728"/>
     <use xlink:href="#m247a3bfe69" x="257.317162" y="110.027459" style="fill: #d62728; stroke: #d62728"/>
     <use xlink:href="#m247a3bfe69" x="267.408149" y="115.209235" style="fill: #d62728; stroke: #d62728"/>
     <use xlink:href="#m247a3bfe69" x="277.142554" y="120.700876" style="fill: #d62728; stroke: #d62728"/>
     <use xlink:href="#m247a3bfe69" x="286.147881" y="126.701001" style="fill: #d62728; stroke: #d62728"/>
     <use xlink:href="#m247a3bfe69" x="295.149633" y="133.011602" style="fill: #d62728; stroke: #d62728"/>
     <use xlink:href="#m247a3bfe69" x="304.248898" y="139.682643" style="fill: #d62728; stroke: #d62728"/>
     <use xlink:href="#m247a3bfe69" x="313.569685" y="146.775414" style="fill: #d62728; stroke: #d62728"/>
     <use xlink:href="#m247a3bfe69" x="323.265806" y="154.36594" style="fill: #d62728; stroke: #d62728"/>
     <use xlink:href="#m247a3bfe69" x="333.530408" y="162.549685" style="fill: #d62728; stroke: #d62728"/>
     <use xlink:href="#m247a3bfe69" x="344.609401" y="171.448192" style="fill: #d62728; stroke: #d62728"/>
     <use xlink:href="#m247a3bfe69" x="347.993892" y="177.932024" style="fill: #d62728; stroke: #d62728"/>
     <use xlink:href="#m247a3bfe69" x="343.15977" y="181.857074" style="fill: #d62728; stroke: #d62728"/>
     <use xlink:href="#m247a3bfe69" x="337.244464" y="185.949469" style="fill: #d62728; stroke: #d62728"/>
     <use xlink:href="#m247a3bfe69" x="330.121278" y="190.256385" style="fill: #d62728; stroke: #d62728"/>
     <use xlink:href="#m247a3bfe69" x="321.610953" y="194.844565" style="fill: #d62728; stroke: #d62728"/>
     <use xlink:href="#m247a3bfe69" x="311.451267" y="199.811647" style="fill: #d62728; stroke: #d62728"/>
     <use xlink:href="#m247a3bfe69" x="299.242742" y="205.306372" style="fill: #d62728; stroke: #d62728"/>
     <use xlink:href="#m247a3bfe69" x="284.345333" y="211.567056" style="fill: #d62728; stroke: #d62728"/>
     <use xlink:href="#m247a3bfe69" x="75.340483" y="288.159034" style="fill: #d62728; stroke: #d62728"/>
    </g>
   </g>
   <g id="patch_3">
    <path d="M 61.707813 300.818125 
L 61.707813 22.318125 
" style="fill: none; stroke: #000000; stroke-width: 0.8; stroke-linejoin: miter; stroke-linecap: square"/>
   </g>
   <g id="patch_4">
    <path d="M 361.626562 300.818125 
L 361.626562 22.318125 
" style="fill: none; stroke: #000000; stroke-width: 0.8; stroke-linejoin: miter; stroke-linecap: square"/>
   </g>
   <g id="patch_5">
    <path d="M 61.707813 300.818125 
L 361.626562 300.818125 
" style="fill: none; stroke: #000000; stroke-width: 0.8; stroke-linejoin: miter; stroke-linecap: square"/>
   </g>
   <g id="patch_6">
    <path d="M 61.707813 22.318125 
L 361.626562 22.318125 
" style="fill: none; stroke: #000000; stroke-width: 0.8; stroke-linejoin: miter; stroke-linecap: square"/>
   </g>
   <g id="text_19">
    <!-- Moment Interaction Diagram -->
    <g transform="translate(125.001875 16.318125)scale(0.12 -0.12)">
     <defs>
      <path id="DejaVuSans-49" d="M 628 4666 
L 1259 4666 
L 1259 0 
L 628 0 
L 628 4666 
z
" transform="scale(0.015625)"/>
      <path id="DejaVuSans-44" d="M 1259 4147 
L 1259 519 
L 2022 519 
Q 2988 519 3436 956 
Q 3884 1394 3884 2338 
Q 3884 3275 3436 3711 
Q 2988 4147 2022 4147 
L 1259 4147 
z
M 628 4666 
L 1925 4666 
Q 3281 4666 3915 4102 
Q 4550 3538 4550 2338 
Q 4550 1131 3912 565 
Q 3275 0 1925 0 
L 628 0 
L 628 4666 
z
" transform="scale(0.015625)"/>
     </defs>
     <use xlink:href="#DejaVuSans-4d"/>
     <use xlink:href="#DejaVuSans-6f" x="86.279297"/>
     <use xlink:href="#DejaVuSans-6d" x="147.460938"/>
     <use xlink:href="#DejaVuSans-65" x="244.873047"/>
     <use xlink:href="#DejaVuSans-6e" x="306.396484"/>
     <use xlink:href="#DejaVuSans-74" x="369.775391"/>
     <use xlink:href="#DejaVuSans-20" x="408.984375"/>
     <use xlink:href="#DejaVuSans-49" x="440.771484"/>
     <use xlink:href="#DejaVuSans-6e" x="470.263672"/>
     <use xlink:href="#DejaVuSans-74" x="533.642578"/>
     <use xlink:href="#DejaVuSans-65" x="572.851562"/>
     <use xlink:href="#DejaVuSans-72" x="634.375"/>
     <use xlink:href="#DejaVuSans-61" x="675.488281"/>
     <use xlink:href="#DejaVuSans-63" x="736.767578"/>
     <use xlink:href="#DejaVuSans-74" x="791.748047"/>
     <use xlink:href="#DejaVuSans-69" x="830.957031"/>
     <use xlink:href="#DejaVuSans-6f" x="858.740234"/>
     <use xlink:href="#DejaVuSans-6e" x="919.921875"/>
     <use xlink:href="#DejaVuSans-20" x="983.300781"/>
     <use xlink:href="#DejaVuSans-44" x="1015.087891"/>
     <use xlink:href="#DejaVuSans-69" x="1092.089844"/>
     <use xlink:href="#DejaVuSans-61" x="1119.873047"/>
     <use xlink:href="#DejaVuSans-67" x="1181.152344"/>
     <use xlink:href="#DejaVuSans-72" x="1244.628906"/>
     <use xlink:href="#DejaVuSans-61" x="1285.742188"/>
     <use xlink:href="#DejaVuSans-6d" x="1347.021484"/>
    </g>
   </g>
   <g id="legend_1">
    <g id="patch_7">
     <path d="M 368.626562 192.424375 
L 443.976562 192.424375 
Q 445.976562 192.424375 445.976562 190.424375 
L 445.976562 132.711875 
Q 445.976562 130.711875 443.976562 130.711875 
L 368.626562 130.711875 
Q 366.626562 130.711875 366.626562 132.711875 
L 366.626562 190.424375 
Q 366.626562 192.424375 368.626562 192.424375 
z
" style="fill: #ffffff; opacity: 0.8; stroke: #cccccc; stroke-linejoin: miter"/>
    </g>
    <g id="line2d_37">
     <path d="M 370.626562 138.810312 
L 380.626562 138.810312 
L 390.626562 138.810312 
" style="fill: none; stroke: #1f77b4; stroke-width: 1.5; stroke-linecap: square"/>
     <g>
      <use xlink:href="#m9003e3bb71" x="380.626562" y="138.810312" style="fill: #1f77b4; stroke: #1f77b4"/>
     </g>
    </g>
    <g id="text_20">
     <!-- p = 0.01 -->
     <g transform="translate(398.626562 142.310312)scale(0.1 -0.1)">
      <defs>
       <path id="DejaVuSans-70" d="M 1159 525 
L 1159 -1331 
L 581 -1331 
L 581 3500 
L 1159 3500 
L 1159 2969 
Q 1341 3281 1617 3432 
Q 1894 3584 2278 3584 
Q 2916 3584 3314 3078 
Q 3713 2572 3713 1747 
Q 3713 922 3314 415 
Q 2916 -91 2278 -91 
Q 1894 -91 1617 61 
Q 1341 213 1159 525 
z
M 3116 1747 
Q 3116 2381 2855 2742 
Q 2594 3103 2138 3103 
Q 1681 3103 1420 2742 
Q 1159 2381 1159 1747 
Q 1159 1113 1420 752 
Q 1681 391 2138 391 
Q 2594 391 2855 752 
Q 3116 1113 3116 1747 
z
" transform="scale(0.015625)"/>
       <path id="DejaVuSans-3d" d="M 678 2906 
L 4684 2906 
L 4684 2381 
L 678 2381 
L 678 2906 
z
M 678 1631 
L 4684 1631 
L 4684 1100 
L 678 1100 
L 678 1631 
z
" transform="scale(0.015625)"/>
       <path id="DejaVuSans-2e" d="M 684 794 
L 1344 794 
L 1344 0 
L 684 0 
L 684 794 
z
" transform="scale(0.015625)"/>
      </defs>
      <use xlink:href="#DejaVuSans-70"/>
      <use xlink:href="#DejaVuSans-20" x="63.476562"/>
      <use xlink:href="#DejaVuSans-3d" x="95.263672"/>
      <use xlink:href="#DejaVuSans-20" x="179.052734"/>
      <use xlink:href="#DejaVuSans-30" x="210.839844"/>
      <use xlink:href="#DejaVuSans-2e" x="274.462891"/>
      <use xlink:href="#DejaVuSans-30" x="306.25"/>
      <use xlink:href="#DejaVuSans-31" x="369.873047"/>
     </g>
    </g>
    <g id="line2d_38">
     <path d="M 370.626562 153.488437 
L 380.626562 153.488437 
L 390.626562 153.488437 
" style="fill: none; stroke: #ff7f0e; stroke-width: 1.5; stroke-linecap: square"/>
     <g>
      <use xlink:href="#mf2afac077a" x="380.626562" y="153.488437" style="fill: #ff7f0e; stroke: #ff7f0e"/>
     </g>
    </g>
    <g id="text_21">
     <!-- p = 0.02 -->
     <g transform="translate(398.626562 156.988437)scale(0.1 -0.1)">
      <use xlink:href="#DejaVuSans-70"/>
      <use xlink:href="#DejaVuSans-20" x="63.476562"/>
      <use xlink:href="#DejaVuSans-3d" x="95.263672"/>
      <use xlink:href="#DejaVuSans-20" x="179.052734"/>
      <use xlink:href="#DejaVuSans-30" x="210.839844"/>
      <use xlink:href="#DejaVuSans-2e" x="274.462891"/>
      <use xlink:href="#DejaVuSans-30" x="306.25"/>
      <use xlink:href="#DejaVuSans-32" x="369.873047"/>
     </g>
    </g>
    <g id="line2d_39">
     <path d="M 370.626562 168.166562 
L 380.626562 168.166562 
L 390.626562 168.166562 
" style="fill: none; stroke: #2ca02c; stroke-width: 1.5; stroke-linecap: square"/>
     <g>
      <use xlink:href="#m525f90a0ff" x="380.626562" y="168.166562" style="fill: #2ca02c; stroke: #2ca02c"/>
     </g>
    </g>
    <g id="text_22">
     <!-- p = 0.03 -->
     <g transform="translate(398.626562 171.666562)scale(0.1 -0.1)">
      <defs>
       <path id="DejaVuSans-33" d="M 2597 2516 
Q 3050 2419 3304 2112 
Q 3559 1806 3559 1356 
Q 3559 666 3084 287 
Q 2609 -91 1734 -91 
Q 1441 -91 1130 -33 
Q 819 25 488 141 
L 488 750 
Q 750 597 1062 519 
Q 1375 441 1716 441 
Q 2309 441 2620 675 
Q 2931 909 2931 1356 
Q 2931 1769 2642 2001 
Q 2353 2234 1838 2234 
L 1294 2234 
L 1294 2753 
L 1863 2753 
Q 2328 2753 2575 2939 
Q 2822 3125 2822 3475 
Q 2822 3834 2567 4026 
Q 2313 4219 1838 4219 
Q 1578 4219 1281 4162 
Q 984 4106 628 3988 
L 628 4550 
Q 988 4650 1302 4700 
Q 1616 4750 1894 4750 
Q 2613 4750 3031 4423 
Q 3450 4097 3450 3541 
Q 3450 3153 3228 2886 
Q 3006 2619 2597 2516 
z
" transform="scale(0.015625)"/>
      </defs>
      <use xlink:href="#DejaVuSans-70"/>
      <use xlink:href="#DejaVuSans-20" x="63.476562"/>
      <use xlink:href="#DejaVuSans-3d" x="95.263672"/>
      <use xlink:href="#DejaVuSans-20" x="179.052734"/>
      <use xlink:href="#DejaVuSans-30" x="210.839844"/>
      <use xlink:href="#DejaVuSans-2e" x="274.462891"/>
      <use xlink:href="#DejaVuSans-30" x="306.25"/>
      <use xlink:href="#DejaVuSans-33" x="369.873047"/>
     </g>
    </g>
    <g id="line2d_40">
     <path d="M 370.626562 182.844687 
L 380.626562 182.844687 
L 390.626562 182.844687 
" style="fill: none; stroke: #d62728; stroke-width: 1.5; stroke-linecap: square"/>
     <g>
      <use xlink:href="#m247a3bfe69" x="380.626562" y="182.844687" style="fill: #d62728; stroke: #d62728"/>
     </g>
    </g>
    <g id="text_23">
     <!-- p = 0.04 -->
     <g transform="translate(398.626562 186.344687)scale(0.1 -0.1)">
      <use xlink:href="#DejaVuSans-70"/>
      <use xlink:href="#DejaVuSans-20" x="63.476562"/>
      <use xlink:href="#DejaVuSans-3d" x="95.263672"/>
      <use xlink:href="#DejaVuSans-20" x="179.052734"/>
      <use xlink:href="#DejaVuSans-30" x="210.839844"/>
      <use xlink:href="#DejaVuSans-2e" x="274.462891"/>
      <use xlink:href="#DejaVuSans-30" x="306.25"/>
      <use xlink:href="#DejaVuSans-34" x="369.873047"/>
     </g>
    </g>
   </g>
  </g>
 </g>
 <defs>
  <clipPath id="p7331c15e2c">
   <rect x="61.707813" y="22.318125" width="299.91875" height="278.5"/>
  </clipPath>
 </defs>
</svg>
