<?xml version="1.0" encoding="utf-8" standalone="no"?>
<!DOCTYPE svg PUBLIC "-//W3C//DTD SVG 1.1//EN"
  "http://www.w3.org/Graphics/SVG/1.1/DTD/svg11.dtd">
<svg xmlns:xlink="http://www.w3.org/1999/xlink" width="312.56681pt" height="294.302472pt" viewBox="0 0 312.56681 294.302472" xmlns="http://www.w3.org/2000/svg" version="1.1">
 <metadata>
  <rdf:RDF xmlns:dc="http://purl.org/dc/elements/1.1/" xmlns:cc="http://creativecommons.org/ns#" xmlns:rdf="http://www.w3.org/1999/02/22-rdf-syntax-ns#">
   <cc:Work>
    <dc:type rdf:resource="http://purl.org/dc/dcmitype/StillImage"/>
    <dc:date>2022-07-25T14:04:21.775198</dc:date>
    <dc:format>image/svg+xml</dc:format>
    <dc:creator>
     <cc:Agent>
      <dc:title>Matplotlib v3.5.2, https://matplotlib.org/</dc:title>
     </cc:Agent>
    </dc:creator>
   </cc:Work>
  </rdf:RDF>
 </metadata>
 <defs>
  <style type="text/css">*{stroke-linejoin: round; stroke-linecap: butt}</style>
 </defs>
 <g id="figure_1">
  <g id="patch_1">
   <path d="M 0 294.302472 
L 312.56681 294.302472 
L 312.56681 0 
L 0 0 
z
" style="fill: #ffffff"/>
  </g>
  <g id="patch_2">
   <path d="M 7.2 273.312 
L 273.312 273.312 
L 273.312 7.2 
L 7.2 7.2 
z
" style="fill: #ffffff"/>
  </g>
  <g id="pane3d_1">
   <g id="patch_3">
    <path d="M 27.293291 207.697309 
L 115.172164 134.035495 
L 113.950564 27.801991 
L 21.866234 95.000941 
" style="fill: #f2f2f2; opacity: 0.5; stroke: #f2f2f2; stroke-linejoin: miter"/>
   </g>
  </g>
  <g id="pane3d_2">
   <g id="patch_4">
    <path d="M 115.172164 134.035495 
L 256.186401 175.022766 
L 261.218702 65.130171 
L 113.950564 27.801991 
" style="fill: #e6e6e6; opacity: 0.5; stroke: #e6e6e6; stroke-linejoin: miter"/>
   </g>
  </g>
  <g id="pane3d_3">
   <g id="patch_5">
    <path d="M 27.293291 207.697309 
L 176.775269 256.518123 
L 256.186401 175.022766 
L 115.172164 134.035495 
" style="fill: #ececec; opacity: 0.5; stroke: #ececec; stroke-linejoin: miter"/>
   </g>
  </g>
  <g id="axis3d_1">
   <g id="line2d_1">
    <path d="M 27.293291 207.697309 
L 176.775269 256.518123 
" style="fill: none; stroke: #000000; stroke-width: 0.8; stroke-linecap: square"/>
   </g>
   <g id="text_1">
    <!-- Bending Moment $M_x$ -->
    <g transform="translate(34.67642 253.594411)rotate(-341.912962)scale(0.1 -0.1)">
     <defs>
      <path id="DejaVuSans-42" d="M 1259 2228 
L 1259 519 
L 2272 519 
Q 2781 519 3026 730 
Q 3272 941 3272 1375 
Q 3272 1813 3026 2020 
Q 2781 2228 2272 2228 
L 1259 2228 
z
M 1259 4147 
L 1259 2741 
L 2194 2741 
Q 2656 2741 2882 2914 
Q 3109 3088 3109 3444 
Q 3109 3797 2882 3972 
Q 2656 4147 2194 4147 
L 1259 4147 
z
M 628 4666 
L 2241 4666 
Q 2963 4666 3353 4366 
Q 3744 4066 3744 3513 
Q 3744 3084 3544 2831 
Q 3344 2578 2956 2516 
Q 3422 2416 3680 2098 
Q 3938 1781 3938 1306 
Q 3938 681 3513 340 
Q 3088 0 2303 0 
L 628 0 
L 628 4666 
z
" transform="scale(0.015625)"/>
      <path id="DejaVuSans-65" d="M 3597 1894 
L 3597 1613 
L 953 1613 
Q 991 1019 1311 708 
Q 1631 397 2203 397 
Q 2534 397 2845 478 
Q 3156 559 3463 722 
L 3463 178 
Q 3153 47 2828 -22 
Q 2503 -91 2169 -91 
Q 1331 -91 842 396 
Q 353 884 353 1716 
Q 353 2575 817 3079 
Q 1281 3584 2069 3584 
Q 2775 3584 3186 3129 
Q 3597 2675 3597 1894 
z
M 3022 2063 
Q 3016 2534 2758 2815 
Q 2500 3097 2075 3097 
Q 1594 3097 1305 2825 
Q 1016 2553 972 2059 
L 3022 2063 
z
" transform="scale(0.015625)"/>
      <path id="DejaVuSans-6e" d="M 3513 2113 
L 3513 0 
L 2938 0 
L 2938 2094 
Q 2938 2591 2744 2837 
Q 2550 3084 2163 3084 
Q 1697 3084 1428 2787 
Q 1159 2491 1159 1978 
L 1159 0 
L 581 0 
L 581 3500 
L 1159 3500 
L 1159 2956 
Q 1366 3272 1645 3428 
Q 1925 3584 2291 3584 
Q 2894 3584 3203 3211 
Q 3513 2838 3513 2113 
z
" transform="scale(0.015625)"/>
      <path id="DejaVuSans-64" d="M 2906 2969 
L 2906 4863 
L 3481 4863 
L 3481 0 
L 2906 0 
L 2906 525 
Q 2725 213 2448 61 
Q 2172 -91 1784 -91 
Q 1150 -91 751 415 
Q 353 922 353 1747 
Q 353 2572 751 3078 
Q 1150 3584 1784 3584 
Q 2172 3584 2448 3432 
Q 2725 3281 2906 2969 
z
M 947 1747 
Q 947 1113 1208 752 
Q 1469 391 1925 391 
Q 2381 391 2643 752 
Q 2906 1113 2906 1747 
Q 2906 2381 2643 2742 
Q 2381 3103 1925 3103 
Q 1469 3103 1208 2742 
Q 947 2381 947 1747 
z
" transform="scale(0.015625)"/>
      <path id="DejaVuSans-69" d="M 603 3500 
L 1178 3500 
L 1178 0 
L 603 0 
L 603 3500 
z
M 603 4863 
L 1178 4863 
L 1178 4134 
L 603 4134 
L 603 4863 
z
" transform="scale(0.015625)"/>
      <path id="DejaVuSans-67" d="M 2906 1791 
Q 2906 2416 2648 2759 
Q 2391 3103 1925 3103 
Q 1463 3103 1205 2759 
Q 947 2416 947 1791 
Q 947 1169 1205 825 
Q 1463 481 1925 481 
Q 2391 481 2648 825 
Q 2906 1169 2906 1791 
z
M 3481 434 
Q 3481 -459 3084 -895 
Q 2688 -1331 1869 -1331 
Q 1566 -1331 1297 -1286 
Q 1028 -1241 775 -1147 
L 775 -588 
Q 1028 -725 1275 -790 
Q 1522 -856 1778 -856 
Q 2344 -856 2625 -561 
Q 2906 -266 2906 331 
L 2906 616 
Q 2728 306 2450 153 
Q 2172 0 1784 0 
Q 1141 0 747 490 
Q 353 981 353 1791 
Q 353 2603 747 3093 
Q 1141 3584 1784 3584 
Q 2172 3584 2450 3431 
Q 2728 3278 2906 2969 
L 2906 3500 
L 3481 3500 
L 3481 434 
z
" transform="scale(0.015625)"/>
      <path id="DejaVuSans-20" transform="scale(0.015625)"/>
      <path id="DejaVuSans-4d" d="M 628 4666 
L 1569 4666 
L 2759 1491 
L 3956 4666 
L 4897 4666 
L 4897 0 
L 4281 0 
L 4281 4097 
L 3078 897 
L 2444 897 
L 1241 4097 
L 1241 0 
L 628 0 
L 628 4666 
z
" transform="scale(0.015625)"/>
      <path id="DejaVuSans-6f" d="M 1959 3097 
Q 1497 3097 1228 2736 
Q 959 2375 959 1747 
Q 959 1119 1226 758 
Q 1494 397 1959 397 
Q 2419 397 2687 759 
Q 2956 1122 2956 1747 
Q 2956 2369 2687 2733 
Q 2419 3097 1959 3097 
z
M 1959 3584 
Q 2709 3584 3137 3096 
Q 3566 2609 3566 1747 
Q 3566 888 3137 398 
Q 2709 -91 1959 -91 
Q 1206 -91 779 398 
Q 353 888 353 1747 
Q 353 2609 779 3096 
Q 1206 3584 1959 3584 
z
" transform="scale(0.015625)"/>
      <path id="DejaVuSans-6d" d="M 3328 2828 
Q 3544 3216 3844 3400 
Q 4144 3584 4550 3584 
Q 5097 3584 5394 3201 
Q 5691 2819 5691 2113 
L 5691 0 
L 5113 0 
L 5113 2094 
Q 5113 2597 4934 2840 
Q 4756 3084 4391 3084 
Q 3944 3084 3684 2787 
Q 3425 2491 3425 1978 
L 3425 0 
L 2847 0 
L 2847 2094 
Q 2847 2600 2669 2842 
Q 2491 3084 2119 3084 
Q 1678 3084 1418 2786 
Q 1159 2488 1159 1978 
L 1159 0 
L 581 0 
L 581 3500 
L 1159 3500 
L 1159 2956 
Q 1356 3278 1631 3431 
Q 1906 3584 2284 3584 
Q 2666 3584 2933 3390 
Q 3200 3197 3328 2828 
z
" transform="scale(0.015625)"/>
      <path id="DejaVuSans-74" d="M 1172 4494 
L 1172 3500 
L 2356 3500 
L 2356 3053 
L 1172 3053 
L 1172 1153 
Q 1172 725 1289 603 
Q 1406 481 1766 481 
L 2356 481 
L 2356 0 
L 1766 0 
Q 1100 0 847 248 
Q 594 497 594 1153 
L 594 3053 
L 172 3053 
L 172 3500 
L 594 3500 
L 594 4494 
L 1172 4494 
z
" transform="scale(0.015625)"/>
      <path id="DejaVuSans-Oblique-4d" d="M 1081 4666 
L 2028 4666 
L 2572 1522 
L 4378 4666 
L 5350 4666 
L 4441 0 
L 3828 0 
L 4622 4091 
L 2791 897 
L 2175 897 
L 1581 4103 
L 788 0 
L 172 0 
L 1081 4666 
z
" transform="scale(0.015625)"/>
      <path id="DejaVuSans-Oblique-78" d="M 3841 3500 
L 2234 1784 
L 3219 0 
L 2559 0 
L 1819 1388 
L 531 0 
L -166 0 
L 1556 1844 
L 641 3500 
L 1300 3500 
L 1972 2234 
L 3144 3500 
L 3841 3500 
z
" transform="scale(0.015625)"/>
     </defs>
     <use xlink:href="#DejaVuSans-42" transform="translate(0 0.015625)"/>
     <use xlink:href="#DejaVuSans-65" transform="translate(68.603516 0.015625)"/>
     <use xlink:href="#DejaVuSans-6e" transform="translate(130.126953 0.015625)"/>
     <use xlink:href="#DejaVuSans-64" transform="translate(193.505859 0.015625)"/>
     <use xlink:href="#DejaVuSans-69" transform="translate(256.982422 0.015625)"/>
     <use xlink:href="#DejaVuSans-6e" transform="translate(284.765625 0.015625)"/>
     <use xlink:href="#DejaVuSans-67" transform="translate(348.144531 0.015625)"/>
     <use xlink:href="#DejaVuSans-20" transform="translate(411.621094 0.015625)"/>
     <use xlink:href="#DejaVuSans-4d" transform="translate(443.408203 0.015625)"/>
     <use xlink:href="#DejaVuSans-6f" transform="translate(529.6875 0.015625)"/>
     <use xlink:href="#DejaVuSans-6d" transform="translate(590.869141 0.015625)"/>
     <use xlink:href="#DejaVuSans-65" transform="translate(688.28125 0.015625)"/>
     <use xlink:href="#DejaVuSans-6e" transform="translate(749.804688 0.015625)"/>
     <use xlink:href="#DejaVuSans-74" transform="translate(813.183594 0.015625)"/>
     <use xlink:href="#DejaVuSans-20" transform="translate(852.392578 0.015625)"/>
     <use xlink:href="#DejaVuSans-Oblique-4d" transform="translate(884.179688 0.015625)"/>
     <use xlink:href="#DejaVuSans-Oblique-78" transform="translate(970.458984 -16.390625)scale(0.7)"/>
    </g>
   </g>
   <g id="Line3DCollection_1">
    <path d="M 31.998267 209.233954 
L 119.629635 135.331106 
L 118.596214 28.979528 
" style="fill: none; stroke: #b0b0b0; stroke-width: 0.8"/>
    <path d="M 54.320475 216.524387 
L 140.760677 141.473065 
L 140.627765 34.563884 
" style="fill: none; stroke: #b0b0b0; stroke-width: 0.8"/>
    <path d="M 77.006031 223.93349 
L 162.207109 147.706696 
L 163.002397 40.235201 
" style="fill: none; stroke: #b0b0b0; stroke-width: 0.8"/>
    <path d="M 100.063881 231.464184 
L 183.976048 154.034068 
L 185.728185 45.995526 
" style="fill: none; stroke: #b0b0b0; stroke-width: 0.8"/>
    <path d="M 123.503266 239.119487 
L 206.074822 160.457309 
L 208.813462 51.84697 
" style="fill: none; stroke: #b0b0b0; stroke-width: 0.8"/>
    <path d="M 147.333733 246.902517 
L 228.510986 166.978616 
L 232.266825 57.791714 
" style="fill: none; stroke: #b0b0b0; stroke-width: 0.8"/>
    <path d="M 171.565153 254.816499 
L 251.292324 173.600251 
L 256.09715 63.832007 
" style="fill: none; stroke: #b0b0b0; stroke-width: 0.8"/>
   </g>
   <g id="xtick_1">
    <g id="line2d_2">
     <path d="M 32.761259 208.590495 
L 30.469015 210.523631 
" style="fill: none; stroke: #000000; stroke-width: 0.8; stroke-linecap: square"/>
    </g>
    <g id="text_2">
     <!-- −600 -->
     <g transform="translate(10.731351 232.513072)scale(0.1 -0.1)">
      <defs>
       <path id="DejaVuSans-2212" d="M 678 2272 
L 4684 2272 
L 4684 1741 
L 678 1741 
L 678 2272 
z
" transform="scale(0.015625)"/>
       <path id="DejaVuSans-36" d="M 2113 2584 
Q 1688 2584 1439 2293 
Q 1191 2003 1191 1497 
Q 1191 994 1439 701 
Q 1688 409 2113 409 
Q 2538 409 2786 701 
Q 3034 994 3034 1497 
Q 3034 2003 2786 2293 
Q 2538 2584 2113 2584 
z
M 3366 4563 
L 3366 3988 
Q 3128 4100 2886 4159 
Q 2644 4219 2406 4219 
Q 1781 4219 1451 3797 
Q 1122 3375 1075 2522 
Q 1259 2794 1537 2939 
Q 1816 3084 2150 3084 
Q 2853 3084 3261 2657 
Q 3669 2231 3669 1497 
Q 3669 778 3244 343 
Q 2819 -91 2113 -91 
Q 1303 -91 875 529 
Q 447 1150 447 2328 
Q 447 3434 972 4092 
Q 1497 4750 2381 4750 
Q 2619 4750 2861 4703 
Q 3103 4656 3366 4563 
z
" transform="scale(0.015625)"/>
       <path id="DejaVuSans-30" d="M 2034 4250 
Q 1547 4250 1301 3770 
Q 1056 3291 1056 2328 
Q 1056 1369 1301 889 
Q 1547 409 2034 409 
Q 2525 409 2770 889 
Q 3016 1369 3016 2328 
Q 3016 3291 2770 3770 
Q 2525 4250 2034 4250 
z
M 2034 4750 
Q 2819 4750 3233 4129 
Q 3647 3509 3647 2328 
Q 3647 1150 3233 529 
Q 2819 -91 2034 -91 
Q 1250 -91 836 529 
Q 422 1150 422 2328 
Q 422 3509 836 4129 
Q 1250 4750 2034 4750 
z
" transform="scale(0.015625)"/>
      </defs>
      <use xlink:href="#DejaVuSans-2212"/>
      <use xlink:href="#DejaVuSans-36" x="83.789062"/>
      <use xlink:href="#DejaVuSans-30" x="147.412109"/>
      <use xlink:href="#DejaVuSans-30" x="211.035156"/>
     </g>
    </g>
   </g>
   <g id="xtick_2">
    <g id="line2d_3">
     <path d="M 55.073588 215.8705 
L 52.810995 217.834986 
" style="fill: none; stroke: #000000; stroke-width: 0.8; stroke-linecap: square"/>
    </g>
    <g id="text_3">
     <!-- −400 -->
     <g transform="translate(33.076032 239.957846)scale(0.1 -0.1)">
      <defs>
       <path id="DejaVuSans-34" d="M 2419 4116 
L 825 1625 
L 2419 1625 
L 2419 4116 
z
M 2253 4666 
L 3047 4666 
L 3047 1625 
L 3713 1625 
L 3713 1100 
L 3047 1100 
L 3047 0 
L 2419 0 
L 2419 1100 
L 313 1100 
L 313 1709 
L 2253 4666 
z
" transform="scale(0.015625)"/>
      </defs>
      <use xlink:href="#DejaVuSans-2212"/>
      <use xlink:href="#DejaVuSans-34" x="83.789062"/>
      <use xlink:href="#DejaVuSans-30" x="147.412109"/>
      <use xlink:href="#DejaVuSans-30" x="211.035156"/>
     </g>
    </g>
   </g>
   <g id="xtick_3">
    <g id="line2d_4">
     <path d="M 77.748842 223.268919 
L 75.517175 225.265524 
" style="fill: none; stroke: #000000; stroke-width: 0.8; stroke-linecap: square"/>
    </g>
    <g id="text_4">
     <!-- −200 -->
     <g transform="translate(55.7858 247.52426)scale(0.1 -0.1)">
      <defs>
       <path id="DejaVuSans-32" d="M 1228 531 
L 3431 531 
L 3431 0 
L 469 0 
L 469 531 
Q 828 903 1448 1529 
Q 2069 2156 2228 2338 
Q 2531 2678 2651 2914 
Q 2772 3150 2772 3378 
Q 2772 3750 2511 3984 
Q 2250 4219 1831 4219 
Q 1534 4219 1204 4116 
Q 875 4013 500 3803 
L 500 4441 
Q 881 4594 1212 4672 
Q 1544 4750 1819 4750 
Q 2544 4750 2975 4387 
Q 3406 4025 3406 3419 
Q 3406 3131 3298 2873 
Q 3191 2616 2906 2266 
Q 2828 2175 2409 1742 
Q 1991 1309 1228 531 
z
" transform="scale(0.015625)"/>
      </defs>
      <use xlink:href="#DejaVuSans-2212"/>
      <use xlink:href="#DejaVuSans-32" x="83.789062"/>
      <use xlink:href="#DejaVuSans-30" x="147.412109"/>
      <use xlink:href="#DejaVuSans-30" x="211.035156"/>
     </g>
    </g>
   </g>
   <g id="xtick_4">
    <g id="line2d_5">
     <path d="M 100.79595 230.788666 
L 98.596531 232.818184 
" style="fill: none; stroke: #000000; stroke-width: 0.8; stroke-linecap: square"/>
    </g>
    <g id="text_5">
     <!-- 0 -->
     <g transform="translate(89.42202 255.215318)scale(0.1 -0.1)">
      <use xlink:href="#DejaVuSans-30"/>
     </g>
    </g>
   </g>
   <g id="xtick_5">
    <g id="line2d_6">
     <path d="M 124.224133 238.432749 
L 122.058341 240.496 
" style="fill: none; stroke: #000000; stroke-width: 0.8; stroke-linecap: square"/>
    </g>
    <g id="text_6">
     <!-- 200 -->
     <g transform="translate(106.526826 263.034127)scale(0.1 -0.1)">
      <use xlink:href="#DejaVuSans-32"/>
      <use xlink:href="#DejaVuSans-30" x="63.623047"/>
      <use xlink:href="#DejaVuSans-30" x="127.246094"/>
     </g>
    </g>
   </g>
   <g id="xtick_6">
    <g id="line2d_7">
     <path d="M 148.042921 246.204278 
L 145.912191 248.302111 
" style="fill: none; stroke: #000000; stroke-width: 0.8; stroke-linecap: square"/>
    </g>
    <g id="text_7">
     <!-- 400 -->
     <g transform="translate(130.387195 270.983896)scale(0.1 -0.1)">
      <use xlink:href="#DejaVuSans-34"/>
      <use xlink:href="#DejaVuSans-30" x="63.623047"/>
      <use xlink:href="#DejaVuSans-30" x="127.246094"/>
     </g>
    </g>
   </g>
   <g id="xtick_7">
    <g id="line2d_8">
     <path d="M 172.262167 254.106467 
L 170.167989 256.239758 
" style="fill: none; stroke: #000000; stroke-width: 0.8; stroke-linecap: square"/>
    </g>
    <g id="text_8">
     <!-- 600 -->
     <g transform="translate(154.650585 279.067944)scale(0.1 -0.1)">
      <use xlink:href="#DejaVuSans-36"/>
      <use xlink:href="#DejaVuSans-30" x="63.623047"/>
      <use xlink:href="#DejaVuSans-30" x="127.246094"/>
     </g>
    </g>
   </g>
  </g>
  <g id="axis3d_2">
   <g id="line2d_9">
    <path d="M 256.186401 175.022766 
L 176.775269 256.518123 
" style="fill: none; stroke: #000000; stroke-width: 0.8; stroke-linecap: square"/>
   </g>
   <g id="text_9">
    <!-- Bending Moment $M_y$ -->
    <g transform="translate(211.422375 279.87502)rotate(-45.742112)scale(0.1 -0.1)">
     <defs>
      <path id="DejaVuSans-Oblique-79" d="M 1588 -325 
Q 1188 -997 936 -1164 
Q 684 -1331 294 -1331 
L -159 -1331 
L -63 -850 
L 269 -850 
Q 509 -850 678 -719 
Q 847 -588 1056 -206 
L 1234 128 
L 459 3500 
L 1069 3500 
L 1650 819 
L 3256 3500 
L 3859 3500 
L 1588 -325 
z
" transform="scale(0.015625)"/>
     </defs>
     <use xlink:href="#DejaVuSans-42" transform="translate(0 0.015625)"/>
     <use xlink:href="#DejaVuSans-65" transform="translate(68.603516 0.015625)"/>
     <use xlink:href="#DejaVuSans-6e" transform="translate(130.126953 0.015625)"/>
     <use xlink:href="#DejaVuSans-64" transform="translate(193.505859 0.015625)"/>
     <use xlink:href="#DejaVuSans-69" transform="translate(256.982422 0.015625)"/>
     <use xlink:href="#DejaVuSans-6e" transform="translate(284.765625 0.015625)"/>
     <use xlink:href="#DejaVuSans-67" transform="translate(348.144531 0.015625)"/>
     <use xlink:href="#DejaVuSans-20" transform="translate(411.621094 0.015625)"/>
     <use xlink:href="#DejaVuSans-4d" transform="translate(443.408203 0.015625)"/>
     <use xlink:href="#DejaVuSans-6f" transform="translate(529.6875 0.015625)"/>
     <use xlink:href="#DejaVuSans-6d" transform="translate(590.869141 0.015625)"/>
     <use xlink:href="#DejaVuSans-65" transform="translate(688.28125 0.015625)"/>
     <use xlink:href="#DejaVuSans-6e" transform="translate(749.804688 0.015625)"/>
     <use xlink:href="#DejaVuSans-74" transform="translate(813.183594 0.015625)"/>
     <use xlink:href="#DejaVuSans-20" transform="translate(852.392578 0.015625)"/>
     <use xlink:href="#DejaVuSans-Oblique-4d" transform="translate(884.179688 0.015625)"/>
     <use xlink:href="#DejaVuSans-Oblique-79" transform="translate(970.458984 -16.390625)scale(0.7)"/>
    </g>
   </g>
   <g id="Line3DCollection_2">
    <path d="M 34.64914 85.672558 
L 39.45257 197.50516 
L 187.804782 245.199129 
" style="fill: none; stroke: #b0b0b0; stroke-width: 0.8"/>
    <path d="M 46.683547 76.890396 
L 50.91157 187.899999 
L 198.186736 234.54469 
" style="fill: none; stroke: #b0b0b0; stroke-width: 0.8"/>
    <path d="M 58.449806 68.303916 
L 62.126234 178.499645 
L 208.33574 224.129316 
" style="fill: none; stroke: #b0b0b0; stroke-width: 0.8"/>
    <path d="M 69.956779 59.906651 
L 73.104295 169.297617 
L 218.259547 213.945048 
" style="fill: none; stroke: #b0b0b0; stroke-width: 0.8"/>
    <path d="M 81.212945 51.692414 
L 83.853161 160.287704 
L 227.96557 203.98428 
" style="fill: none; stroke: #b0b0b0; stroke-width: 0.8"/>
    <path d="M 92.226414 43.655286 
L 94.379937 151.463952 
L 237.460902 194.239734 
" style="fill: none; stroke: #b0b0b0; stroke-width: 0.8"/>
    <path d="M 103.004952 35.7896 
L 104.691435 142.82065 
L 246.752328 184.704446 
" style="fill: none; stroke: #b0b0b0; stroke-width: 0.8"/>
   </g>
   <g id="xtick_8">
    <g id="line2d_10">
     <path d="M 186.554995 244.797333 
L 190.307571 246.003754 
" style="fill: none; stroke: #000000; stroke-width: 0.8; stroke-linecap: square"/>
    </g>
    <g id="text_10">
     <!-- −750 -->
     <g transform="translate(186.877624 266.136721)scale(0.1 -0.1)">
      <defs>
       <path id="DejaVuSans-37" d="M 525 4666 
L 3525 4666 
L 3525 4397 
L 1831 0 
L 1172 0 
L 2766 4134 
L 525 4134 
L 525 4666 
z
" transform="scale(0.015625)"/>
       <path id="DejaVuSans-35" d="M 691 4666 
L 3169 4666 
L 3169 4134 
L 1269 4134 
L 1269 2991 
Q 1406 3038 1543 3061 
Q 1681 3084 1819 3084 
Q 2600 3084 3056 2656 
Q 3513 2228 3513 1497 
Q 3513 744 3044 326 
Q 2575 -91 1722 -91 
Q 1428 -91 1123 -41 
Q 819 9 494 109 
L 494 744 
Q 775 591 1075 516 
Q 1375 441 1709 441 
Q 2250 441 2565 725 
Q 2881 1009 2881 1497 
Q 2881 1984 2565 2268 
Q 2250 2553 1709 2553 
Q 1456 2553 1204 2497 
Q 953 2441 691 2322 
L 691 4666 
z
" transform="scale(0.015625)"/>
      </defs>
      <use xlink:href="#DejaVuSans-2212"/>
      <use xlink:href="#DejaVuSans-37" x="83.789062"/>
      <use xlink:href="#DejaVuSans-35" x="147.412109"/>
      <use xlink:href="#DejaVuSans-30" x="211.035156"/>
     </g>
    </g>
   </g>
   <g id="xtick_9">
    <g id="line2d_11">
     <path d="M 196.946731 234.151958 
L 200.669898 235.331152 
" style="fill: none; stroke: #000000; stroke-width: 0.8; stroke-linecap: square"/>
    </g>
    <g id="text_11">
     <!-- −500 -->
     <g transform="translate(197.120296 255.324574)scale(0.1 -0.1)">
      <use xlink:href="#DejaVuSans-2212"/>
      <use xlink:href="#DejaVuSans-35" x="83.789062"/>
      <use xlink:href="#DejaVuSans-30" x="147.412109"/>
      <use xlink:href="#DejaVuSans-30" x="211.035156"/>
     </g>
    </g>
   </g>
   <g id="xtick_10">
    <g id="line2d_12">
     <path d="M 207.105395 223.745345 
L 210.799521 224.898223 
" style="fill: none; stroke: #000000; stroke-width: 0.8; stroke-linecap: square"/>
    </g>
    <g id="text_12">
     <!-- −250 -->
     <g transform="translate(207.133009 244.755172)scale(0.1 -0.1)">
      <use xlink:href="#DejaVuSans-2212"/>
      <use xlink:href="#DejaVuSans-32" x="83.789062"/>
      <use xlink:href="#DejaVuSans-35" x="147.412109"/>
      <use xlink:href="#DejaVuSans-30" x="211.035156"/>
     </g>
    </g>
   </g>
   <g id="xtick_11">
    <g id="line2d_13">
     <path d="M 217.038742 213.569548 
L 220.704191 214.696982 
" style="fill: none; stroke: #000000; stroke-width: 0.8; stroke-linecap: square"/>
    </g>
    <g id="text_13">
     <!-- 0 -->
     <g transform="translate(227.475766 234.420429)scale(0.1 -0.1)">
      <use xlink:href="#DejaVuSans-30"/>
     </g>
    </g>
   </g>
   <g id="xtick_12">
    <g id="line2d_14">
     <path d="M 226.754184 203.616974 
L 230.39132 204.719796 
" style="fill: none; stroke: #000000; stroke-width: 0.8; stroke-linecap: square"/>
    </g>
    <g id="text_14">
     <!-- 250 -->
     <g transform="translate(230.6887 224.312616)scale(0.1 -0.1)">
      <use xlink:href="#DejaVuSans-32"/>
      <use xlink:href="#DejaVuSans-35" x="63.623047"/>
      <use xlink:href="#DejaVuSans-30" x="127.246094"/>
     </g>
    </g>
   </g>
   <g id="xtick_13">
    <g id="line2d_15">
     <path d="M 236.258816 193.880356 
L 239.867996 194.959364 
" style="fill: none; stroke: #000000; stroke-width: 0.8; stroke-linecap: square"/>
    </g>
    <g id="text_15">
     <!-- 500 -->
     <g transform="translate(240.05616 214.424342)scale(0.1 -0.1)">
      <use xlink:href="#DejaVuSans-35"/>
      <use xlink:href="#DejaVuSans-30" x="63.623047"/>
      <use xlink:href="#DejaVuSans-30" x="127.246094"/>
     </g>
    </g>
   </g>
   <g id="xtick_14">
    <g id="line2d_16">
     <path d="M 245.559424 184.352742 
L 249.141004 185.408699 
" style="fill: none; stroke: #000000; stroke-width: 0.8; stroke-linecap: square"/>
    </g>
    <g id="text_16">
     <!-- 750 -->
     <g transform="translate(249.222349 204.748529)scale(0.1 -0.1)">
      <use xlink:href="#DejaVuSans-37"/>
      <use xlink:href="#DejaVuSans-35" x="63.623047"/>
      <use xlink:href="#DejaVuSans-30" x="127.246094"/>
     </g>
    </g>
   </g>
  </g>
  <g id="axis3d_3">
   <g id="line2d_17">
    <path d="M 256.186401 175.022766 
L 261.218702 65.130171 
" style="fill: none; stroke: #000000; stroke-width: 0.8; stroke-linecap: square"/>
   </g>
   <g id="text_17">
    <!-- Axial Force $N$ -->
    <g transform="translate(300.270132 148.962585)rotate(-87.378092)scale(0.1 -0.1)">
     <defs>
      <path id="DejaVuSans-41" d="M 2188 4044 
L 1331 1722 
L 3047 1722 
L 2188 4044 
z
M 1831 4666 
L 2547 4666 
L 4325 0 
L 3669 0 
L 3244 1197 
L 1141 1197 
L 716 0 
L 50 0 
L 1831 4666 
z
" transform="scale(0.015625)"/>
      <path id="DejaVuSans-78" d="M 3513 3500 
L 2247 1797 
L 3578 0 
L 2900 0 
L 1881 1375 
L 863 0 
L 184 0 
L 1544 1831 
L 300 3500 
L 978 3500 
L 1906 2253 
L 2834 3500 
L 3513 3500 
z
" transform="scale(0.015625)"/>
      <path id="DejaVuSans-61" d="M 2194 1759 
Q 1497 1759 1228 1600 
Q 959 1441 959 1056 
Q 959 750 1161 570 
Q 1363 391 1709 391 
Q 2188 391 2477 730 
Q 2766 1069 2766 1631 
L 2766 1759 
L 2194 1759 
z
M 3341 1997 
L 3341 0 
L 2766 0 
L 2766 531 
Q 2569 213 2275 61 
Q 1981 -91 1556 -91 
Q 1019 -91 701 211 
Q 384 513 384 1019 
Q 384 1609 779 1909 
Q 1175 2209 1959 2209 
L 2766 2209 
L 2766 2266 
Q 2766 2663 2505 2880 
Q 2244 3097 1772 3097 
Q 1472 3097 1187 3025 
Q 903 2953 641 2809 
L 641 3341 
Q 956 3463 1253 3523 
Q 1550 3584 1831 3584 
Q 2591 3584 2966 3190 
Q 3341 2797 3341 1997 
z
" transform="scale(0.015625)"/>
      <path id="DejaVuSans-6c" d="M 603 4863 
L 1178 4863 
L 1178 0 
L 603 0 
L 603 4863 
z
" transform="scale(0.015625)"/>
      <path id="DejaVuSans-46" d="M 628 4666 
L 3309 4666 
L 3309 4134 
L 1259 4134 
L 1259 2759 
L 3109 2759 
L 3109 2228 
L 1259 2228 
L 1259 0 
L 628 0 
L 628 4666 
z
" transform="scale(0.015625)"/>
      <path id="DejaVuSans-72" d="M 2631 2963 
Q 2534 3019 2420 3045 
Q 2306 3072 2169 3072 
Q 1681 3072 1420 2755 
Q 1159 2438 1159 1844 
L 1159 0 
L 581 0 
L 581 3500 
L 1159 3500 
L 1159 2956 
Q 1341 3275 1631 3429 
Q 1922 3584 2338 3584 
Q 2397 3584 2469 3576 
Q 2541 3569 2628 3553 
L 2631 2963 
z
" transform="scale(0.015625)"/>
      <path id="DejaVuSans-63" d="M 3122 3366 
L 3122 2828 
Q 2878 2963 2633 3030 
Q 2388 3097 2138 3097 
Q 1578 3097 1268 2742 
Q 959 2388 959 1747 
Q 959 1106 1268 751 
Q 1578 397 2138 397 
Q 2388 397 2633 464 
Q 2878 531 3122 666 
L 3122 134 
Q 2881 22 2623 -34 
Q 2366 -91 2075 -91 
Q 1284 -91 818 406 
Q 353 903 353 1747 
Q 353 2603 823 3093 
Q 1294 3584 2113 3584 
Q 2378 3584 2631 3529 
Q 2884 3475 3122 3366 
z
" transform="scale(0.015625)"/>
      <path id="DejaVuSans-Oblique-4e" d="M 1081 4666 
L 1931 4666 
L 3219 666 
L 4000 4666 
L 4616 4666 
L 3706 0 
L 2853 0 
L 1569 4025 
L 788 0 
L 172 0 
L 1081 4666 
z
" transform="scale(0.015625)"/>
     </defs>
     <use xlink:href="#DejaVuSans-41" transform="translate(0 0.015625)"/>
     <use xlink:href="#DejaVuSans-78" transform="translate(68.408203 0.015625)"/>
     <use xlink:href="#DejaVuSans-69" transform="translate(127.587891 0.015625)"/>
     <use xlink:href="#DejaVuSans-61" transform="translate(155.371094 0.015625)"/>
     <use xlink:href="#DejaVuSans-6c" transform="translate(216.650391 0.015625)"/>
     <use xlink:href="#DejaVuSans-20" transform="translate(244.433594 0.015625)"/>
     <use xlink:href="#DejaVuSans-46" transform="translate(276.220703 0.015625)"/>
     <use xlink:href="#DejaVuSans-6f" transform="translate(333.740234 0.015625)"/>
     <use xlink:href="#DejaVuSans-72" transform="translate(394.921875 0.015625)"/>
     <use xlink:href="#DejaVuSans-63" transform="translate(436.035156 0.015625)"/>
     <use xlink:href="#DejaVuSans-65" transform="translate(491.015625 0.015625)"/>
     <use xlink:href="#DejaVuSans-20" transform="translate(552.539062 0.015625)"/>
     <use xlink:href="#DejaVuSans-Oblique-4e" transform="translate(584.326172 0.015625)"/>
    </g>
   </g>
   <g id="Line3DCollection_3">
    <path d="M 256.282814 172.917346 
L 115.148711 131.99596 
L 27.189487 205.541739 
" style="fill: none; stroke: #b0b0b0; stroke-width: 0.8"/>
    <path d="M 256.912238 159.172321 
L 114.995647 118.68512 
L 26.511644 191.4659 
" style="fill: none; stroke: #b0b0b0; stroke-width: 0.8"/>
    <path d="M 257.54875 145.272532 
L 114.840942 105.231556 
L 25.825879 177.225536 
" style="fill: none; stroke: #b0b0b0; stroke-width: 0.8"/>
    <path d="M 258.192469 131.21535 
L 114.684569 91.632959 
L 25.13205 162.817745 
" style="fill: none; stroke: #b0b0b0; stroke-width: 0.8"/>
    <path d="M 258.843519 116.998085 
L 114.526501 77.886973 
L 24.430017 148.239558 
" style="fill: none; stroke: #b0b0b0; stroke-width: 0.8"/>
    <path d="M 259.502026 102.617988 
L 114.366711 63.991188 
L 23.719631 133.487933 
" style="fill: none; stroke: #b0b0b0; stroke-width: 0.8"/>
    <path d="M 260.168117 88.072245 
L 114.205169 49.943141 
L 23.000743 118.559757 
" style="fill: none; stroke: #b0b0b0; stroke-width: 0.8"/>
    <path d="M 260.841926 73.357977 
L 114.041848 35.740316 
L 22.273199 103.451841 
" style="fill: none; stroke: #b0b0b0; stroke-width: 0.8"/>
   </g>
   <g id="xtick_15">
    <g id="line2d_18">
     <path d="M 255.098262 172.573889 
L 258.654736 173.605077 
" style="fill: none; stroke: #000000; stroke-width: 0.8; stroke-linecap: square"/>
    </g>
    <g id="text_18">
     <!-- 0 -->
     <g transform="translate(271.365529 177.914875)scale(0.1 -0.1)">
      <use xlink:href="#DejaVuSans-30"/>
     </g>
    </g>
   </g>
   <g id="xtick_16">
    <g id="line2d_19">
     <path d="M 255.720807 158.83242 
L 259.297953 159.852939 
" style="fill: none; stroke: #000000; stroke-width: 0.8; stroke-linecap: square"/>
    </g>
    <g id="text_19">
     <!-- 1000 -->
     <g transform="translate(262.551244 164.19681)scale(0.1 -0.1)">
      <defs>
       <path id="DejaVuSans-31" d="M 794 531 
L 1825 531 
L 1825 4091 
L 703 3866 
L 703 4441 
L 1819 4666 
L 2450 4666 
L 2450 531 
L 3481 531 
L 3481 0 
L 794 0 
L 794 531 
z
" transform="scale(0.015625)"/>
      </defs>
      <use xlink:href="#DejaVuSans-31"/>
      <use xlink:href="#DejaVuSans-30" x="63.623047"/>
      <use xlink:href="#DejaVuSans-30" x="127.246094"/>
      <use xlink:href="#DejaVuSans-30" x="190.869141"/>
     </g>
    </g>
   </g>
   <g id="xtick_17">
    <g id="line2d_20">
     <path d="M 256.350359 144.936288 
L 259.948417 145.945831 
" style="fill: none; stroke: #000000; stroke-width: 0.8; stroke-linecap: square"/>
    </g>
    <g id="text_20">
     <!-- 2000 -->
     <g transform="translate(263.288897 150.324752)scale(0.1 -0.1)">
      <use xlink:href="#DejaVuSans-32"/>
      <use xlink:href="#DejaVuSans-30" x="63.623047"/>
      <use xlink:href="#DejaVuSans-30" x="127.246094"/>
      <use xlink:href="#DejaVuSans-30" x="190.869141"/>
     </g>
    </g>
   </g>
   <g id="xtick_18">
    <g id="line2d_21">
     <path d="M 256.987037 130.882867 
L 260.606253 131.88112 
" style="fill: none; stroke: #000000; stroke-width: 0.8; stroke-linecap: square"/>
    </g>
    <g id="text_21">
     <!-- 3000 -->
     <g transform="translate(264.034877 136.296094)scale(0.1 -0.1)">
      <defs>
       <path id="DejaVuSans-33" d="M 2597 2516 
Q 3050 2419 3304 2112 
Q 3559 1806 3559 1356 
Q 3559 666 3084 287 
Q 2609 -91 1734 -91 
Q 1441 -91 1130 -33 
Q 819 25 488 141 
L 488 750 
Q 750 597 1062 519 
Q 1375 441 1716 441 
Q 2309 441 2620 675 
Q 2931 909 2931 1356 
Q 2931 1769 2642 2001 
Q 2353 2234 1838 2234 
L 1294 2234 
L 1294 2753 
L 1863 2753 
Q 2328 2753 2575 2939 
Q 2822 3125 2822 3475 
Q 2822 3834 2567 4026 
Q 2313 4219 1838 4219 
Q 1578 4219 1281 4162 
Q 984 4106 628 3988 
L 628 4550 
Q 988 4650 1302 4700 
Q 1616 4750 1894 4750 
Q 2613 4750 3031 4423 
Q 3450 4097 3450 3541 
Q 3450 3153 3228 2886 
Q 3006 2619 2597 2516 
z
" transform="scale(0.015625)"/>
      </defs>
      <use xlink:href="#DejaVuSans-33"/>
      <use xlink:href="#DejaVuSans-30" x="63.623047"/>
      <use xlink:href="#DejaVuSans-30" x="127.246094"/>
      <use xlink:href="#DejaVuSans-30" x="190.869141"/>
     </g>
    </g>
   </g>
   <g id="xtick_19">
    <g id="line2d_22">
     <path d="M 257.630962 116.669472 
L 261.271586 117.656111 
" style="fill: none; stroke: #000000; stroke-width: 0.8; stroke-linecap: square"/>
    </g>
    <g id="text_22">
     <!-- 4000 -->
     <g transform="translate(264.789327 122.108169)scale(0.1 -0.1)">
      <use xlink:href="#DejaVuSans-34"/>
      <use xlink:href="#DejaVuSans-30" x="63.623047"/>
      <use xlink:href="#DejaVuSans-30" x="127.246094"/>
      <use xlink:href="#DejaVuSans-30" x="190.869141"/>
     </g>
    </g>
   </g>
   <g id="xtick_20">
    <g id="line2d_23">
     <path d="M 258.282259 102.293355 
L 261.944546 103.268048 
" style="fill: none; stroke: #000000; stroke-width: 0.8; stroke-linecap: square"/>
    </g>
    <g id="text_23">
     <!-- 5000 -->
     <g transform="translate(265.55239 107.75825)scale(0.1 -0.1)">
      <use xlink:href="#DejaVuSans-35"/>
      <use xlink:href="#DejaVuSans-30" x="63.623047"/>
      <use xlink:href="#DejaVuSans-30" x="127.246094"/>
      <use xlink:href="#DejaVuSans-30" x="190.869141"/>
     </g>
    </g>
   </g>
   <g id="xtick_21">
    <g id="line2d_24">
     <path d="M 258.941055 87.751706 
L 262.625264 88.714112 
" style="fill: none; stroke: #000000; stroke-width: 0.8; stroke-linecap: square"/>
    </g>
    <g id="text_24">
     <!-- 6000 -->
     <g transform="translate(266.324216 93.243545)scale(0.1 -0.1)">
      <use xlink:href="#DejaVuSans-36"/>
      <use xlink:href="#DejaVuSans-30" x="63.623047"/>
      <use xlink:href="#DejaVuSans-30" x="127.246094"/>
      <use xlink:href="#DejaVuSans-30" x="190.869141"/>
     </g>
    </g>
   </g>
   <g id="xtick_22">
    <g id="line2d_25">
     <path d="M 259.607481 73.041649 
L 263.313875 73.991416 
" style="fill: none; stroke: #000000; stroke-width: 0.8; stroke-linecap: square"/>
    </g>
    <g id="text_25">
     <!-- 7000 -->
     <g transform="translate(267.104957 78.5612)scale(0.1 -0.1)">
      <use xlink:href="#DejaVuSans-37"/>
      <use xlink:href="#DejaVuSans-30" x="63.623047"/>
      <use xlink:href="#DejaVuSans-30" x="127.246094"/>
      <use xlink:href="#DejaVuSans-30" x="190.869141"/>
     </g>
    </g>
   </g>
  </g>
  <g id="axes_1">
   <g id="line2d_26">
    <path d="M 98.688747 175.070132 
L 106.721162 170.37058 
L 114.696389 166.813805 
L 123.647167 164.803892 
L 130.888472 163.693149 
L 137.366203 162.864671 
L 143.567714 162.104347 
L 149.05409 161.827855 
L 154.862508 161.669336 
L 159.381425 161.878789 
L 163.96362 162.157088 
L 167.797835 162.56648 
L 171.870975 163.135994 
L 174.911547 164.666611 
L 177.577521 166.179619 
L 180.428593 168.105472 
L 183.146231 170.047954 
L 185.942952 172.779665 
L 188.386903 175.440252 
L 190.41025 178.696024 
L 192.478048 182.134366 
L 194.490447 186.097178 
L 195.908694 191.357739 
L 194.159913 196.979998 
L 190.479446 203.235512 
L 182.61274 208.300351 
L 174.545674 212.209074 
L 165.22524 214.447338 
L 157.601866 215.693552 
L 150.745045 216.627414 
L 144.154904 217.487737 
L 138.309833 217.801378 
L 132.116961 217.981383 
L 127.308958 217.743569 
L 122.441995 217.427958 
L 118.38535 216.964448 
L 114.09432 216.321167 
L 110.98609 214.601003 
L 108.29403 212.91299 
L 105.464625 210.781949 
L 102.802035 208.652187 
L 100.162814 205.690028 
L 97.913482 202.841349 
L 96.18902 199.403245 
L 94.465997 195.828275 
L 92.886873 191.77753 
L 92.080495 186.511993 
L 94.445597 181.020686 
L 98.688747 175.070132 
" clip-path="url(#p7d1a4b8d7c)" style="fill: none; stroke: #1f77b4; stroke-width: 1.5; stroke-linecap: square"/>
   </g>
   <g id="line2d_27">
    <path d="M 91.129054 162.66136 
L 99.669633 158.23394 
L 110.104037 154.84634 
L 121.560289 152.588577 
L 130.099083 151.235743 
L 137.568169 150.208566 
L 144.560715 149.540593 
L 151.497565 148.977432 
L 157.409341 148.756208 
L 162.569089 148.785426 
L 167.225023 148.949992 
L 171.33095 149.271189 
L 175.744381 149.634725 
L 178.63775 151.392252 
L 181.314079 153.044079 
L 184.027803 155.029841 
L 186.792426 157.321555 
L 189.546352 160.094534 
L 192.281437 163.526595 
L 194.885435 167.061382 
L 197.146931 171.025093 
L 199.442855 175.681494 
L 201.781823 182.212006 
L 201.61068 188.897169 
L 198.581137 195.248468 
L 190.203939 200.069996 
L 179.548012 203.829048 
L 167.560326 206.368858 
L 158.527388 207.904134 
L 150.574327 209.076637 
L 143.092835 209.84229 
L 135.648644 210.48976 
L 129.297475 210.744593 
L 123.759572 210.71092 
L 118.771619 210.521353 
L 114.389 210.151802 
L 109.687398 209.734241 
L 106.748004 207.725999 
L 104.054039 205.854205 
L 101.376495 203.623846 
L 98.704363 201.076385 
L 96.127823 198.031329 
L 93.683459 194.318056 
L 91.425999 190.556383 
L 89.609093 186.412051 
L 87.880392 181.640328 
L 86.391478 175.118305 
L 87.419045 168.639451 
L 91.129054 162.66136 
" clip-path="url(#p7d1a4b8d7c)" style="fill: none; stroke: #ff7f0e; stroke-width: 1.5; stroke-linecap: square"/>
   </g>
   <g id="line2d_28">
    <path d="M 85.554043 150.816194 
L 95.075458 146.60927 
L 107.796648 143.620419 
L 119.997649 141.297809 
L 129.840642 139.822608 
L 138.031632 138.70364 
L 145.927006 137.808196 
L 153.177695 137.137378 
L 159.310176 136.841198 
L 164.768929 136.657112 
L 169.099449 136.8188 
L 173.768674 137.049768 
L 178.179313 137.425947 
L 181.106092 139.147082 
L 183.936156 141.065341 
L 186.484414 142.880563 
L 189.049535 145.382193 
L 191.794593 148.255485 
L 194.508297 151.841676 
L 197.19847 155.860379 
L 199.67924 160.159098 
L 202.456096 165.434583 
L 205.061417 172.293016 
L 206.80108 179.810993 
L 204.612715 186.494317 
L 195.211529 191.111114 
L 182.095956 194.449242 
L 169.299854 197.07737 
L 158.854199 198.762368 
L 150.101468 200.048728 
L 141.619341 201.083304 
L 133.800148 201.861387 
L 127.177656 202.205757 
L 121.27896 202.420053 
L 116.616546 202.23182 
L 111.598265 201.963199 
L 106.877826 201.526356 
L 103.897189 199.538092 
L 101.066151 197.342082 
L 98.549757 195.283152 
L 96.118357 192.475671 
L 93.573206 189.293256 
L 91.186758 185.383127 
L 88.922304 181.081016 
L 86.952177 176.569643 
L 84.857837 171.156974 
L 83.20651 164.31645 
L 82.542314 157.061673 
L 85.554043 150.816194 
" clip-path="url(#p7d1a4b8d7c)" style="fill: none; stroke: #2ca02c; stroke-width: 1.5; stroke-linecap: square"/>
   </g>
   <g id="line2d_29">
    <path d="M 81.088727 139.25358 
L 94.924711 135.791565 
L 107.013418 133.135172 
L 118.769949 130.834426 
L 129.732314 129.060363 
L 139.125526 127.817518 
L 147.385241 126.939509 
L 154.183597 126.459496 
L 159.909105 126.175155 
L 165.237683 125.977301 
L 170.405246 125.853383 
L 175.119785 125.916998 
L 179.518938 126.157842 
L 182.218724 127.918028 
L 184.79187 129.914916 
L 187.292569 132.215729 
L 189.763569 134.637362 
L 192.308638 137.291171 
L 195.100682 140.535852 
L 198.000121 144.659864 
L 200.893437 149.515225 
L 203.726838 155.401525 
L 206.084796 161.982628 
L 208.011828 168.967089 
L 209.478977 177.261604 
L 195.450381 181.079177 
L 182.959041 184.053067 
L 170.632235 186.660818 
L 158.995118 188.692241 
L 148.937127 190.126232 
L 140.042592 191.144716 
L 132.698872 191.703445 
L 126.505464 192.035055 
L 120.737309 192.266083 
L 115.14287 192.410897 
L 110.050971 192.336543 
L 105.318938 192.055261 
L 102.586467 190.009929 
L 100.039869 187.711459 
L 97.630973 185.091601 
L 95.29561 182.366512 
L 92.939488 179.417551 
L 90.433587 175.86406 
L 87.97544 171.428198 
L 85.674284 166.318005 
L 83.633426 160.279939 
L 82.219907 153.724896 
L 81.327108 146.984067 
L 81.088727 139.25358 
" clip-path="url(#p7d1a4b8d7c)" style="fill: none; stroke: #d62728; stroke-width: 1.5; stroke-linecap: square"/>
   </g>
   <g id="line2d_30">
    <path d="M 82.977768 129.494116 
L 95.590484 126.203172 
L 106.833131 123.355655 
L 117.939437 120.945631 
L 129.968563 118.924992 
L 140.340762 117.597409 
L 148.58363 116.867289 
L 154.780746 116.4974 
L 160.194394 116.250592 
L 165.233752 116.122519 
L 170.033325 116.043845 
L 174.71437 115.988 
L 179.596506 115.940139 
L 182.051878 118.03151 
L 184.400427 120.051839 
L 186.782826 122.14461 
L 189.217189 124.376696 
L 191.65405 126.844077 
L 194.305397 129.730311 
L 197.434107 133.720212 
L 200.67544 138.997295 
L 203.608085 145.428619 
L 205.358849 151.706759 
L 206.406397 158.329117 
L 207.416467 165.876362 
L 194.661561 169.494145 
L 183.105197 172.67291 
L 171.496598 175.399169 
L 158.739842 177.710772 
L 147.630217 179.242532 
L 138.751597 180.089385 
L 132.060017 180.519623 
L 126.207473 180.807153 
L 120.758926 180.956502 
L 115.569447 181.048294 
L 110.507893 181.113473 
L 105.228385 181.169348 
L 102.795838 178.740525 
L 100.495526 176.418734 
L 98.191081 174.038709 
L 95.87274 171.527856 
L 93.607218 168.784922 
L 91.200181 165.618982 
L 88.483312 161.316362 
L 85.885498 155.753589 
L 83.830191 149.163669 
L 82.984318 142.923098 
L 82.897507 136.537128 
L 82.977768 129.494116 
" clip-path="url(#p7d1a4b8d7c)" style="fill: none; stroke: #9467bd; stroke-width: 1.5; stroke-linecap: square"/>
   </g>
   <g id="line2d_31">
    <path d="M 85.500413 119.815208 
L 96.887649 116.518648 
L 107.39403 113.641582 
L 118.244331 111.144779 
L 129.956233 109.107436 
L 141.163279 107.748934 
L 148.749452 107.171626 
L 155.048444 106.895792 
L 160.371199 106.780801 
L 164.944788 106.72755 
L 169.208282 106.714767 
L 173.668205 106.7734 
L 178.193556 106.919325 
L 180.799405 108.737561 
L 183.229829 110.582402 
L 185.442205 112.389866 
L 187.756308 114.358272 
L 190.368888 116.688391 
L 193.22915 119.534843 
L 196.257409 123.113938 
L 199.857089 128.711313 
L 202.534437 134.941487 
L 203.924456 141.082922 
L 204.438255 147.315619 
L 204.670973 154.216786 
L 193.210692 157.827884 
L 182.449786 161.029068 
L 171.136403 163.845456 
L 158.735538 166.170451 
L 146.742154 167.734387 
L 138.580396 168.402332 
L 131.791266 168.722178 
L 126.052213 168.855651 
L 121.12087 168.917488 
L 116.525266 168.932336 
L 111.723609 168.864245 
L 106.8613 168.694871 
L 104.241243 166.595172 
L 101.835734 164.484802 
L 99.680264 162.436504 
L 97.456099 160.227254 
L 94.985019 157.640474 
L 92.351111 154.521575 
L 89.679605 150.66264 
L 86.754158 144.763592 
L 84.925924 138.385438 
L 84.412887 132.283478 
L 84.78179 126.270765 
L 85.500413 119.815208 
" clip-path="url(#p7d1a4b8d7c)" style="fill: none; stroke: #8c564b; stroke-width: 1.5; stroke-linecap: square"/>
   </g>
   <g id="line2d_32">
    <path d="M 88.536949 110.174338 
L 98.988253 106.909579 
L 108.969026 104.059984 
L 119.272034 101.63947 
L 130.76061 99.597745 
L 140.769892 98.448766 
L 148.671361 97.901845 
L 154.466227 97.670619 
L 159.46858 97.606372 
L 164.04961 97.651108 
L 168.335137 97.754193 
L 172.479459 97.877359 
L 176.380087 98.129951 
L 178.850196 99.613277 
L 181.227247 101.271544 
L 183.653062 103.006727 
L 186.14096 104.904334 
L 188.66762 107.045605 
L 191.327198 109.621224 
L 194.557343 113.277342 
L 197.850327 118.185163 
L 200.336911 124.247239 
L 201.497763 130.037207 
L 201.694623 135.949112 
L 201.379475 142.328548 
L 190.899924 145.889157 
L 180.70195 149.045956 
L 169.981044 151.764066 
L 157.842622 154.083489 
L 147.155882 155.399633 
L 138.679035 156.028909 
L 132.451818 156.295495 
L 127.076125 156.369624 
L 122.1575 156.318005 
L 117.561417 156.199103 
L 113.121024 156.057124 
L 108.956835 155.766237 
L 106.452156 154.065752 
L 104.083905 152.180217 
L 101.692674 150.224529 
L 99.275952 148.105756 
L 96.87134 145.739619 
L 94.408967 142.927629 
L 91.530967 138.998603 
L 88.813068 133.836764 
L 87.133582 127.632273 
L 86.777497 121.875941 
L 87.388914 116.162179 
L 88.536949 110.174338 
" clip-path="url(#p7d1a4b8d7c)" style="fill: none; stroke: #e377c2; stroke-width: 1.5; stroke-linecap: square"/>
   </g>
   <g id="line2d_33">
    <path d="M 92.335146 100.633974 
L 102.375134 97.374457 
L 111.780097 94.70069 
L 121.93725 92.337822 
L 131.479337 90.69387 
L 139.838717 89.722904 
L 147.124767 89.210235 
L 153.196505 89.021194 
L 158.188913 88.988838 
L 162.45704 89.030687 
L 166.503523 89.138342 
L 170.388481 89.278587 
L 173.994862 89.692588 
L 176.604183 90.955072 
L 178.87487 92.478985 
L 181.180579 94.092985 
L 183.493157 95.8401 
L 186.063155 97.935781 
L 188.932634 100.576642 
L 191.873334 103.914847 
L 194.564965 107.971466 
L 196.667182 112.915941 
L 197.779382 118.537993 
L 197.90693 124.031901 
L 197.282652 130.143941 
L 187.232305 133.679655 
L 177.629313 136.624792 
L 167.075005 139.26182 
L 157.020092 141.11586 
L 148.134385 142.218465 
L 140.355461 142.80292 
L 133.863172 143.01883 
L 128.525097 143.055808 
L 123.964382 143.007984 
L 119.645784 142.885005 
L 115.504647 142.724905 
L 111.687302 142.252981 
L 109.018959 140.820207 
L 106.752652 139.103361 
L 104.476665 137.299903 
L 102.226931 135.36474 
L 99.768142 133.066525 
L 97.090205 130.205621 
L 94.46265 126.64425 
L 92.226852 122.396985 
L 90.747668 117.335973 
L 90.376738 111.730489 
L 90.962631 106.400068 
L 92.335146 100.633974 
" clip-path="url(#p7d1a4b8d7c)" style="fill: none; stroke: #7f7f7f; stroke-width: 1.5; stroke-linecap: square"/>
   </g>
   <g id="line2d_34">
    <path d="M 97.277043 91.289945 
L 106.960746 88.168749 
L 116.230889 85.603487 
L 125.30902 83.598148 
L 132.583843 82.411897 
L 138.886355 81.69849 
L 145.036981 81.249898 
L 150.730095 81.030007 
L 155.55252 80.96075 
L 159.9278 80.999906 
L 163.94957 81.099277 
L 167.579355 81.265386 
L 170.894795 81.7051 
L 173.404319 82.821911 
L 175.586354 84.212044 
L 177.858873 85.802407 
L 180.215453 87.575924 
L 182.617961 89.598146 
L 185.213636 92.069624 
L 187.641924 94.864286 
L 189.67124 97.87571 
L 191.348063 101.559716 
L 192.466837 106.45817 
L 192.639985 111.760582 
L 191.98568 117.561695 
L 182.288658 120.922439 
L 172.824299 123.72587 
L 163.405225 125.943863 
L 155.771513 127.267011 
L 149.114762 128.066762 
L 142.594894 128.5712 
L 136.549924 128.818906 
L 131.427789 128.896983 
L 126.783587 128.852837 
L 122.519076 128.740842 
L 118.67726 128.553764 
L 115.193054 128.059337 
L 112.626155 126.80874 
L 110.44352 125.262375 
L 108.200693 123.507131 
L 105.906955 121.566962 
L 103.612742 119.376564 
L 101.192676 116.730642 
L 99.012096 113.779158 
L 97.293918 110.645774 
L 96.038616 106.877318 
L 95.509793 101.973747 
L 95.970335 96.798974 
L 97.277043 91.289945 
" clip-path="url(#p7d1a4b8d7c)" style="fill: none; stroke: #bcbd22; stroke-width: 1.5; stroke-linecap: square"/>
   </g>
   <g id="line2d_35">
    <path d="M 103.70686 82.221713 
L 112.968634 79.405879 
L 122.259567 76.968365 
L 129.098332 75.660941 
L 134.189485 74.945619 
L 138.625969 74.440686 
L 142.853085 74.069091 
L 147.309035 73.817194 
L 152.045656 73.699389 
L 156.235073 73.680701 
L 160.196642 73.730479 
L 163.712691 73.920439 
L 166.818754 74.355291 
L 169.214641 75.378661 
L 171.377736 76.696754 
L 173.519964 78.272265 
L 175.662365 79.982201 
L 177.915232 81.974079 
L 179.780149 83.929038 
L 181.307623 85.859474 
L 182.700812 87.952666 
L 184.049887 90.43471 
L 185.214785 93.963291 
L 185.549897 99.125508 
L 185.149929 104.502097 
L 175.857845 107.504035 
L 166.373866 110.138833 
L 159.294314 111.566152 
L 153.98488 112.351282 
L 149.339917 112.907294 
L 144.902192 113.317439 
L 140.216046 113.595931 
L 135.231261 113.726302 
L 130.822713 113.746991 
L 126.656626 113.691888 
L 122.968127 113.48174 
L 119.73004 113.001476 
L 117.286182 111.875622 
L 115.121255 110.434537 
L 113.014099 108.72518 
L 110.93587 106.886004 
L 108.78833 104.764324 
L 107.056796 102.703358 
L 105.684207 100.688721 
L 104.477943 98.526866 
L 103.369413 95.99342 
L 102.569061 92.446671 
L 102.772449 87.370769 
L 103.70686 82.221713 
" clip-path="url(#p7d1a4b8d7c)" style="fill: none; stroke: #17becf; stroke-width: 1.5; stroke-linecap: square"/>
   </g>
   <g id="line2d_36">
    <path d="M 112.391907 73.617279 
L 121.292133 70.972919 
L 128.42061 69.462468 
L 132.905063 68.823432 
L 136.388261 68.398045 
L 139.381635 68.060491 
L 142.125576 67.766972 
L 144.766091 67.518097 
L 147.650613 67.311025 
L 151.230287 67.191564 
L 155.152101 67.233654 
L 158.436776 67.426386 
L 161.514322 67.81136 
L 163.803737 68.839373 
L 165.847556 70.051989 
L 167.944144 71.601539 
L 169.567893 73.102025 
L 170.671365 74.371532 
L 171.572003 75.566949 
L 172.444178 76.830075 
L 173.365219 78.220479 
L 174.378179 79.859756 
L 175.512916 82.024259 
L 176.38031 85.733445 
L 176.015761 90.777337 
L 167.078376 93.560671 
L 159.803301 95.168103 
L 155.187121 95.852071 
L 151.589261 96.308662 
L 148.490461 96.671717 
L 145.644884 96.987943 
L 142.902424 97.256461 
L 139.903042 97.48015 
L 136.179025 97.609309 
L 132.101782 97.563792 
L 128.694035 97.3555 
L 125.514404 96.940089 
L 123.194263 95.83498 
L 121.151564 94.539194 
L 119.089839 92.895481 
L 117.525571 91.316624 
L 116.487561 89.990541 
L 115.657254 88.74992 
L 114.866123 87.447451 
L 114.040705 86.023644 
L 113.14855 84.358172 
L 112.184919 82.180645 
L 111.625519 78.505111 
L 112.391907 73.617279 
" clip-path="url(#p7d1a4b8d7c)" style="fill: none; stroke: #1f77b4; stroke-width: 1.5; stroke-linecap: square"/>
   </g>
  </g>
 </g>
 <defs>
  <clipPath id="p7d1a4b8d7c">
   <rect x="7.2" y="7.2" width="266.112" height="266.112"/>
  </clipPath>
 </defs>
</svg>
